<svg width="127" height="142" viewBox="0 0 127 142" fill="none" xmlns="http://www.w3.org/2000/svg">
<path d="M68.6593 129.538C69.7865 129.604 70.8535 130.097 71.6667 130.925C72.48 131.753 72.9854 132.862 73.0913 134.051C73.1193 134.632 73.0314 135.213 72.8335 135.756C72.4731 137.017 71.6938 138.096 70.6394 138.796C70.3482 138.994 70.0222 139.127 69.6809 139.188C69.3396 139.249 68.9902 139.236 68.6538 139.15C66.8492 138.686 66.01 137.369 65.6864 135.565C65.6261 135.223 65.6096 134.875 65.5767 134.527C65.5699 134.143 65.4857 133.765 65.3299 133.418C65.2164 133.177 65.1657 132.908 65.183 132.639C65.2004 132.369 65.2851 132.11 65.4286 131.887C65.9681 130.872 66.8226 130.085 67.8475 129.659C68.1072 129.56 68.3837 129.518 68.6593 129.538ZM70.9027 134.619C70.9436 134.126 70.8236 133.633 70.5626 133.221C70.3246 132.857 70.0172 132.549 69.6602 132.317C69.3032 132.085 68.9044 131.935 68.4893 131.875C68.2711 131.819 68.0411 131.847 67.8403 131.953C67.6394 132.059 67.4807 132.237 67.3923 132.456C67.1071 133.099 66.8438 133.749 67.2387 134.509C67.531 135.081 67.8533 135.635 68.2041 136.168C68.2867 136.293 68.3865 136.405 68.5003 136.499C68.6498 136.653 68.8339 136.764 69.0351 136.821C69.2364 136.879 69.4482 136.881 69.6507 136.829C69.8531 136.776 70.0396 136.669 70.1924 136.519C70.3452 136.369 70.4594 136.181 70.5242 135.971C70.6774 135.529 70.8039 135.078 70.9027 134.619Z" fill="#1D2D44"/>
<path d="M65.3078 119.856C65.3581 121.064 64.9651 122.247 64.2108 123.156C63.6397 123.863 62.89 124.382 62.0497 124.653C61.3691 124.838 60.649 124.765 60.0139 124.447C59.3788 124.129 58.8688 123.586 58.5722 122.913C58.2131 122.216 58.0249 121.435 58.0249 120.642C58.0249 119.848 58.2131 119.067 58.5722 118.37C58.7141 118.104 58.7771 117.799 58.7532 117.494C58.7396 117.244 58.8034 116.995 58.9349 116.786C59.0665 116.576 59.2587 116.418 59.4827 116.334C59.9489 116.125 60.4097 115.911 60.8704 115.679C61.1167 115.553 61.3855 115.485 61.6589 115.478C61.9322 115.471 62.2038 115.525 62.4556 115.638C64.3918 116.468 65.231 117.825 65.3078 119.856ZM63.1138 120.128C63.141 119.676 63.0357 119.227 62.8121 118.84C62.6892 118.553 62.4973 118.305 62.2557 118.12C62.014 117.935 61.7309 117.82 61.4343 117.787C61.1378 117.753 60.8382 117.803 60.5651 117.929C60.292 118.056 60.055 118.256 59.8776 118.51C59.5704 118.806 59.735 119.241 59.7624 119.612C59.8204 120.15 59.9632 120.673 60.1848 121.161C60.3067 121.44 60.4596 121.703 60.64 121.944C60.7506 122.097 60.893 122.221 61.0562 122.306C61.2193 122.391 61.3988 122.435 61.5807 122.435C61.7627 122.435 61.9421 122.391 62.1053 122.306C62.2684 122.221 62.4108 122.097 62.5214 121.944C62.8832 121.413 63.0909 120.782 63.1193 120.128H63.1138Z" fill="#1D2D44"/>
<path d="M69.8769 103.653C69.9097 104.254 69.8296 104.857 69.6413 105.425C69.4531 105.994 69.1603 106.517 68.7799 106.965C68.2922 107.527 67.7216 108.001 67.0905 108.369C66.6938 108.571 66.2569 108.67 65.8168 108.655C65.3766 108.641 64.9462 108.515 64.5618 108.288C63.987 108.026 63.4936 107.599 63.1384 107.054C62.7833 106.509 62.5808 105.869 62.5543 105.208C62.5044 104.005 62.8302 102.819 63.4813 101.831C63.7669 101.248 64.1901 100.752 64.7099 100.393C65.175 100.069 65.714 99.8845 66.27 99.8579C66.8261 99.8314 67.3786 99.964 67.8693 100.242C69.2187 101.008 70.003 102.098 69.8769 103.653ZM67.7596 103.844C67.7596 103.769 67.7267 103.659 67.7157 103.543C67.617 102.725 67.0356 102.382 66.4158 102.145C66.0428 101.982 65.8673 102.029 65.6753 102.371C65.3285 102.819 65.0929 103.351 64.9897 103.92C64.9865 104.055 64.9443 104.185 64.8688 104.294C64.7933 104.403 64.6881 104.485 64.5673 104.529C64.5327 104.542 64.5016 104.564 64.4763 104.592C64.451 104.62 64.4323 104.654 64.4216 104.691C64.4109 104.728 64.4087 104.768 64.4149 104.806C64.4212 104.844 64.4358 104.88 64.4576 104.912C64.7045 105.473 65.1268 105.928 65.6534 106.2C65.77 106.278 65.9008 106.331 66.0376 106.354C66.1743 106.377 66.3141 106.369 66.448 106.332C66.5819 106.295 66.7072 106.229 66.8158 106.138C66.9245 106.048 67.0143 105.934 67.0795 105.805C67.4488 105.217 67.6818 104.545 67.7596 103.844Z" fill="#1D2D44"/>
<path d="M83.8145 104.105C83.7575 104.464 83.6675 104.816 83.5457 105.155C83.2838 105.797 82.8632 106.352 82.3281 106.762C81.807 107.145 81.3901 107.749 80.6825 107.749C79.7007 108.23 78.8286 107.841 78.0058 107.325C77.5771 107.06 77.2247 106.676 76.986 106.215C76.7474 105.754 76.6316 105.234 76.651 104.709C76.6413 104.362 76.6708 104.015 76.7388 103.676C76.8109 103.421 76.7873 103.147 76.6729 102.91C76.5242 102.595 76.489 102.234 76.5738 101.893C76.6586 101.553 76.8576 101.257 77.1337 101.06C77.6037 100.625 78.1104 100.237 78.6476 99.8996C79.1302 99.5876 79.6894 99.4337 80.2546 99.4575C80.8198 99.4812 81.3657 99.6815 81.8234 100.033C82.4603 100.471 82.9786 101.077 83.3276 101.791C83.6767 102.505 83.8444 103.302 83.8145 104.105ZM80.1285 105.62C80.3074 105.662 80.4936 105.653 80.6681 105.594C80.8426 105.535 80.999 105.427 81.1213 105.283C81.3697 104.995 81.5319 104.636 81.5875 104.251C81.6432 103.866 81.5897 103.472 81.434 103.119C81.3017 102.76 81.0779 102.447 80.7874 102.215C80.4969 101.982 80.1511 101.839 79.7885 101.802C79.6789 101.798 79.5694 101.814 79.4649 101.849C79.022 101.984 78.6479 102.299 78.4247 102.725C78.2016 103.152 78.1476 103.654 78.2746 104.123C78.3963 104.546 78.6408 104.919 78.9734 105.187C79.3061 105.456 79.7102 105.607 80.1285 105.62Z" fill="#1D2D44"/>
<path d="M79.0862 89.9332C79.0094 91.2327 78.6035 92.3349 77.4407 93.0078C77.3146 93.0832 77.1884 93.1586 77.0677 93.2457C76.5579 93.6307 75.9472 93.8377 75.3207 93.8377C74.6943 93.8377 74.0835 93.6307 73.5737 93.2457C73.2326 93.0232 72.9097 92.7709 72.6084 92.4915C71.0506 91.076 71.3632 88.8252 72.3889 87.4735C72.5607 87.2729 72.7867 87.1332 73.0362 87.0732C73.8974 86.7716 74.764 86.4931 75.6197 86.1624C75.9311 86.0403 76.2736 86.0403 76.585 86.1624C77.3285 86.4253 77.9726 86.9334 78.4228 87.6121C78.873 88.2909 79.1056 89.1044 79.0862 89.9332ZM76.8922 90.1246C76.9111 89.819 76.8499 89.5138 76.7154 89.2426C76.5809 88.9713 76.3783 88.7446 76.1298 88.5873C75.9137 88.4356 75.6578 88.36 75.3987 88.3715C75.1396 88.383 74.8905 88.4808 74.6872 88.6511C74.4623 88.8426 74.1771 88.947 73.9357 89.121C73.8446 89.1691 73.7649 89.2382 73.7024 89.3232C73.6399 89.4082 73.5963 89.507 73.5747 89.6122C73.5531 89.7174 73.5541 89.8265 73.5777 89.9312C73.6013 90.036 73.6468 90.1338 73.7109 90.2175C74.1607 90.8852 74.8037 91.38 75.5429 91.6271C75.683 91.6811 75.8355 91.6884 75.9796 91.6479C76.1238 91.6075 76.2528 91.5213 76.3492 91.4009C76.6568 91.0494 76.8475 90.6013 76.8922 90.1246Z" fill="#1D2D44"/>
<path d="M79.3347 119.496C78.3558 120.094 77.2071 120.301 76.0973 120.08C74.9875 119.858 73.9901 119.223 73.2864 118.289C72.9621 117.818 72.735 117.28 72.6198 116.711C72.2697 115.446 72.3638 114.09 72.8849 112.892C73.0266 112.557 73.2307 112.256 73.4852 112.007C73.7396 111.758 74.039 111.566 74.3653 111.443C76.1173 110.784 77.5018 111.4 78.7064 112.723C78.9341 112.975 79.128 113.257 79.3357 113.529C79.5399 113.846 79.8059 114.114 80.1158 114.314C80.3359 114.45 80.5177 114.646 80.6424 114.881C80.7671 115.117 80.8304 115.383 80.8256 115.653C80.8989 116.817 80.5902 117.972 79.9518 118.923C79.7857 119.157 79.5756 119.352 79.3347 119.496ZM74.8257 116.542C75.0468 116.979 75.4026 117.323 75.834 117.516C76.2221 117.683 76.6389 117.762 77.0579 117.749C77.477 117.736 77.8889 117.631 78.2674 117.439C78.4793 117.36 78.6578 117.203 78.7711 116.998C78.8844 116.792 78.9252 116.551 78.8863 116.317C78.792 115.612 78.6764 114.915 77.9523 114.508C77.4116 114.199 76.855 113.922 76.285 113.679C76.151 113.622 76.0097 113.587 75.8658 113.574C75.661 113.532 75.4494 113.546 75.2509 113.614C75.0525 113.683 74.8737 113.804 74.7314 113.965C74.5891 114.127 74.488 114.324 74.4376 114.539C74.3872 114.753 74.3892 114.977 74.4433 115.191C74.5435 115.649 74.6712 116.101 74.8257 116.542Z" fill="#1D2D44"/>
<path d="M87.1521 125.659C86.4845 124.676 86.2018 123.458 86.3631 122.258C86.4761 121.336 86.8355 120.466 87.3991 119.751C87.8738 119.201 88.5149 118.844 89.2114 118.742C89.9079 118.64 90.616 118.798 91.213 119.19C91.8744 119.565 92.4361 120.11 92.8467 120.774C93.2573 121.439 93.5038 122.202 93.5635 122.994C93.5823 123.299 93.6874 123.591 93.8651 123.833C94.0063 124.035 94.0816 124.28 94.0796 124.532C94.0777 124.783 93.9986 125.027 93.8543 125.228C93.5718 125.673 93.2968 126.12 93.0309 126.582C92.8894 126.83 92.6997 127.043 92.4743 127.208C92.249 127.372 91.9931 127.484 91.7239 127.536C89.6725 127.965 88.267 127.315 87.1521 125.659ZM88.8491 124.158C89.0601 124.552 89.3811 124.867 89.7682 125.061C90.0199 125.23 90.3091 125.327 90.6072 125.342C90.9053 125.356 91.2019 125.288 91.4676 125.144C91.7333 125 91.9589 124.785 92.1221 124.52C92.2852 124.255 92.3803 123.95 92.3977 123.635C92.502 123.209 92.139 122.94 91.9239 122.645C91.5971 122.228 91.2066 121.873 90.7686 121.593C90.522 121.43 90.2579 121.299 89.9819 121.201C89.8102 121.138 89.6269 121.117 89.4461 121.14C89.2654 121.163 89.0921 121.23 88.9397 121.336C88.7872 121.442 88.6598 121.583 88.5672 121.749C88.4746 121.915 88.4194 122.101 88.4058 122.293C88.3775 122.948 88.5299 123.597 88.8445 124.161L88.8491 124.158Z" fill="#1D2D44"/>
<path d="M105.34 113.535C104.672 112.552 104.389 111.334 104.551 110.134C104.664 109.211 105.023 108.342 105.587 107.627C106.061 107.077 106.702 106.72 107.399 106.618C108.095 106.515 108.803 106.674 109.401 107.066C110.062 107.441 110.624 107.986 111.034 108.65C111.445 109.315 111.691 110.078 111.751 110.87C111.77 111.175 111.875 111.467 112.053 111.708C112.194 111.911 112.269 112.156 112.267 112.407C112.265 112.659 112.186 112.903 112.042 113.103C111.759 113.549 111.484 113.996 111.218 114.458C111.077 114.706 110.887 114.919 110.662 115.084C110.436 115.248 110.181 115.36 109.911 115.412C107.86 115.841 106.455 115.191 105.34 113.535ZM107.037 112.034C107.248 112.428 107.569 112.743 107.956 112.937C108.207 113.106 108.497 113.203 108.795 113.217C109.093 113.232 109.389 113.164 109.655 113.02C109.921 112.875 110.146 112.66 110.31 112.396C110.473 112.131 110.568 111.826 110.585 111.511C110.689 111.085 110.327 110.816 110.111 110.521C109.785 110.104 109.394 109.749 108.956 109.469C108.709 109.306 108.445 109.174 108.169 109.077C107.998 109.014 107.814 108.992 107.634 109.016C107.453 109.039 107.28 109.106 107.127 109.212C106.975 109.317 106.847 109.459 106.755 109.625C106.662 109.791 106.607 109.977 106.593 110.169C106.565 110.824 106.717 111.473 107.032 112.037L107.037 112.034Z" fill="#1D2D44"/>
<path d="M118.162 101.488C117.494 100.505 117.212 99.2864 117.373 98.0869C117.486 97.1641 117.846 96.2942 118.409 95.5793C118.884 95.0298 119.525 94.6729 120.221 94.5705C120.918 94.4681 121.626 94.6265 122.223 95.0185C122.884 95.3935 123.446 95.9383 123.857 96.6028C124.267 97.2674 124.514 98.0305 124.573 98.8224C124.592 99.1277 124.697 99.4199 124.875 99.661C125.016 99.8632 125.092 100.109 125.09 100.36C125.088 100.612 125.009 100.856 124.864 101.056C124.582 101.502 124.307 101.949 124.041 102.41C123.899 102.658 123.71 102.872 123.484 103.036C123.259 103.201 123.003 103.313 122.734 103.364C120.683 103.793 119.277 103.144 118.162 101.488ZM119.859 99.9862C120.07 100.38 120.391 100.696 120.778 100.89C121.03 101.059 121.319 101.156 121.617 101.17C121.915 101.185 122.212 101.116 122.478 100.972C122.743 100.828 122.969 100.613 123.132 100.348C123.295 100.084 123.39 99.7787 123.408 99.4634C123.512 99.0374 123.149 98.7686 122.934 98.4735C122.607 98.057 122.217 97.7014 121.779 97.4215C121.532 97.2585 121.268 97.1271 120.992 97.0299C120.82 96.9662 120.637 96.9451 120.456 96.9685C120.275 96.9918 120.102 97.0588 119.95 97.1644C119.797 97.27 119.67 97.4113 119.577 97.5773C119.485 97.7434 119.429 97.9297 119.416 98.1218C119.388 98.7765 119.54 99.4254 119.854 99.9894L119.859 99.9862Z" fill="#1D2D44"/>
<path d="M79.8806 138.104C79.7429 137.77 79.6363 137.424 79.5624 137.068C79.4498 136.379 79.515 135.67 79.7511 135.016C79.9895 134.393 80.0265 133.646 80.6193 133.235C81.1927 132.262 82.1245 132.081 83.0809 132.036C83.5774 132.01 84.0712 132.126 84.5096 132.374C84.9479 132.621 85.3144 132.99 85.5698 133.441C85.7572 133.726 85.9119 134.033 86.0306 134.357C86.102 134.612 86.2637 134.828 86.482 134.96C86.7696 135.137 86.9861 135.419 87.0913 135.754C87.1965 136.088 87.183 136.452 87.0535 136.777C86.8848 137.414 86.6612 138.033 86.3856 138.627C86.1428 139.168 85.7539 139.622 85.2681 139.93C84.7823 140.238 84.2213 140.387 83.6559 140.358C82.8956 140.361 82.1479 140.155 81.4861 139.759C80.8243 139.364 80.2711 138.793 79.8806 138.104ZM82.1851 134.696C82.0134 134.765 81.862 134.88 81.7464 135.031C81.6308 135.182 81.5553 135.363 81.5275 135.554C81.4683 135.939 81.5182 136.334 81.6709 136.689C81.8235 137.044 82.0721 137.343 82.3852 137.548C82.6818 137.772 83.0314 137.904 83.3951 137.93C83.7587 137.956 84.1223 137.875 84.4452 137.696C84.5394 137.636 84.623 137.559 84.6923 137.469C84.9935 137.099 85.1438 136.618 85.1101 136.131C85.0765 135.645 84.8616 135.192 84.5128 134.874C84.1917 134.59 83.7942 134.42 83.3765 134.388C82.9588 134.356 82.5421 134.464 82.1851 134.696Z" fill="#1D2D44"/>
<path d="M104.442 93.5475C104.304 93.2142 104.198 92.8675 104.124 92.5122C104.011 91.8228 104.076 91.1138 104.313 90.4598C104.551 89.8367 104.588 89.0895 105.181 88.6789C105.754 87.7058 106.686 87.5251 107.642 87.48C108.139 87.4535 108.633 87.5702 109.071 87.8176C109.509 88.065 109.876 88.4339 110.131 88.8848C110.319 89.1695 110.473 89.4769 110.592 89.8004C110.663 90.0556 110.825 90.2716 111.043 90.4035C111.331 90.581 111.548 90.8633 111.653 91.1977C111.758 91.5321 111.745 91.8957 111.615 92.2207C111.446 92.8577 111.223 93.477 110.947 94.0709C110.704 94.6123 110.315 95.0657 109.83 95.3739C109.344 95.682 108.783 95.8311 108.217 95.8023C107.457 95.8048 106.709 95.5984 106.048 95.2031C105.386 94.8078 104.833 94.2373 104.442 93.5475ZM106.747 90.1403C106.575 90.2087 106.424 90.3242 106.308 90.475C106.192 90.6258 106.117 90.8064 106.089 90.9982C106.03 91.3833 106.08 91.7781 106.232 92.1329C106.385 92.4877 106.634 92.7865 106.947 92.9918C107.243 93.2157 107.593 93.348 107.957 93.3741C108.32 93.4002 108.684 93.319 109.007 93.1396C109.101 93.0798 109.185 93.0031 109.254 92.9129C109.555 92.543 109.705 92.0618 109.672 91.5752C109.638 91.0886 109.423 90.6363 109.074 90.3177C108.753 90.0337 108.356 89.8637 107.938 89.8319C107.52 89.8001 107.104 89.9079 106.747 90.1403Z" fill="#1D2D44"/>
<path d="M86.2212 92.2102C85.6131 91.0774 85.3828 89.9188 86.0088 88.6804C86.0755 88.544 86.1421 88.4076 86.1982 88.2647C86.426 87.6464 86.8306 87.1185 87.3554 86.755C87.8802 86.3914 88.499 86.2103 89.1254 86.2369C89.5262 86.2252 89.9273 86.2491 90.3243 86.3082C92.3618 86.5895 93.2646 88.6559 93.1047 90.3832C93.0646 90.6508 92.9476 90.899 92.7696 91.094C92.2042 91.8464 91.6223 92.5826 91.0765 93.3561C90.8789 93.6392 90.5919 93.838 90.2678 93.9164C89.5089 94.1277 88.7064 94.0761 87.978 93.7689C87.2496 93.4618 86.6339 92.9155 86.2212 92.2102ZM87.9602 90.7765C88.1025 91.0435 88.3117 91.2636 88.5647 91.4126C88.8178 91.5617 89.1049 91.6339 89.3944 91.6215C89.654 91.6232 89.9074 91.5379 90.1186 91.3779C90.3298 91.2179 90.4878 90.9914 90.57 90.7308C90.6593 90.44 90.8442 90.187 90.9564 89.9012C91.0078 89.808 91.0389 89.7039 91.0472 89.5964C91.0556 89.489 91.041 89.3809 91.0047 89.2803C90.9683 89.1796 90.911 89.0889 90.8371 89.0149C90.7631 88.9408 90.6744 88.8853 90.5774 88.8524C89.8551 88.5543 89.0603 88.5131 88.3132 88.7352C88.1678 88.7713 88.0364 88.8537 87.9365 88.9712C87.8367 89.0888 87.7732 89.2358 87.7548 89.3926C87.6789 89.8655 87.7511 90.3514 87.9602 90.7765Z" fill="#1D2D44"/>
<path d="M91.6763 108.87C91.3377 108.385 91.0931 107.834 90.9566 107.249C90.8202 106.664 90.7946 106.055 90.8813 105.459C90.9994 104.706 91.232 103.978 91.5702 103.303C91.7979 102.903 92.1132 102.568 92.4892 102.324C92.8652 102.081 93.2911 101.936 93.7306 101.903C94.3476 101.789 94.9823 101.861 95.5618 102.111C96.1413 102.361 96.6421 102.78 97.0065 103.318C97.6705 104.296 98.0115 105.479 97.9769 106.683C98.0395 107.338 97.9414 107.998 97.692 108.601C97.4698 109.142 97.1138 109.61 96.6617 109.955C96.2096 110.3 95.6781 110.509 95.1232 110.561C93.5966 110.703 92.3751 110.245 91.6763 108.87ZM93.351 107.481C93.39 107.544 93.4746 107.617 93.5439 107.708C94.0498 108.336 94.714 108.285 95.3564 108.124C95.7529 108.044 95.8759 107.903 95.8597 107.505C95.9184 106.929 95.8403 106.346 95.6326 105.81C95.5654 105.695 95.5331 105.561 95.54 105.426C95.5469 105.291 95.5927 105.162 95.6712 105.055C95.6934 105.024 95.7083 104.988 95.7149 104.949C95.7216 104.911 95.7196 104.872 95.7093 104.834C95.699 104.797 95.6806 104.763 95.6555 104.734C95.6305 104.706 95.5995 104.684 95.565 104.67C95.0674 104.343 94.4784 104.208 93.8968 104.286C93.7583 104.288 93.6216 104.32 93.4952 104.38C93.3688 104.44 93.2555 104.527 93.1625 104.636C93.0695 104.745 92.9987 104.873 92.9546 105.012C92.9105 105.151 92.894 105.298 92.9062 105.444C92.9011 106.151 93.0535 106.848 93.351 107.481Z" fill="#1D2D44"/>
<path d="M53.1516 90.2966C53.0139 89.9634 52.9073 89.6166 52.8334 89.2613C52.7208 88.5719 52.786 87.8629 53.0221 87.2089C53.2605 86.5858 53.2975 85.8387 53.8903 85.428C54.4637 84.455 55.3955 84.2743 56.3519 84.2292C56.8484 84.2027 57.3422 84.3193 57.7806 84.5667C58.2189 84.8142 58.5854 85.183 58.8408 85.6339C59.0282 85.9186 59.1829 86.226 59.3016 86.5496C59.373 86.8047 59.5347 87.0207 59.753 87.1527C60.0405 87.3302 60.2571 87.6125 60.3623 87.9468C60.4675 88.2812 60.454 88.6448 60.3245 88.9698C60.1558 89.6068 59.9322 90.2261 59.6566 90.8201C59.4137 91.3615 59.0249 91.8149 58.5391 92.123C58.0533 92.4312 57.4923 92.5803 56.9269 92.5515C56.1665 92.554 55.4189 92.3475 54.7571 91.9522C54.0953 91.557 53.5421 90.9865 53.1516 90.2966ZM55.4561 86.8894C55.2844 86.9578 55.133 87.0734 55.0174 87.2242C54.9018 87.3749 54.8263 87.5556 54.7985 87.7474C54.7393 88.1324 54.7892 88.5273 54.9419 88.8821C55.0945 89.2368 55.3431 89.5357 55.6562 89.7409C55.9528 89.9648 56.3024 90.0972 56.6661 90.1233C57.0297 90.1493 57.3933 90.0682 57.7162 89.8887C57.8104 89.8289 57.894 89.7522 57.9633 89.662C58.2645 89.2921 58.4148 88.811 58.3811 88.3244C58.3475 87.8378 58.1326 87.3855 57.7838 87.0668C57.4627 86.7828 57.0652 86.6129 56.6475 86.581C56.2298 86.5492 55.8131 86.6571 55.4561 86.8894Z" fill="#1D2D44"/>
<path d="M64.6474 87.0589C65.7745 87.1258 66.8416 87.6181 67.6548 88.4462C68.468 89.2743 68.9734 90.3835 69.0793 91.5722C69.1073 92.1535 69.0195 92.7346 68.8215 93.2777C68.4611 94.5379 67.6818 95.6176 66.6275 96.3175C66.3363 96.5153 66.0102 96.6487 65.6689 96.7095C65.3277 96.7703 64.9783 96.7573 64.6419 96.6714C62.8373 96.2073 61.9981 94.8905 61.6744 93.0863C61.6141 92.744 61.5977 92.396 61.5648 92.0479C61.5579 91.6642 61.4738 91.2864 61.3179 90.9399C61.2044 90.6983 61.1537 90.4291 61.1711 90.16C61.1884 89.8908 61.2732 89.6314 61.4167 89.4084C61.9561 88.3932 62.8106 87.6063 63.8356 87.1807C64.0953 87.0812 64.3717 87.0397 64.6474 87.0589ZM66.8908 92.1407C66.9316 91.6473 66.8116 91.1539 66.5507 90.7426C66.3126 90.3781 66.0052 90.0701 65.6482 89.8384C65.2912 89.6067 64.8924 89.4562 64.4773 89.3968C64.2591 89.3405 64.0292 89.368 63.8283 89.4742C63.6274 89.5804 63.4687 89.7585 63.3803 89.9769C63.0951 90.6208 62.8318 91.2705 63.2267 92.0305C63.5191 92.6021 63.8414 93.156 64.1921 93.6896C64.2748 93.8148 64.3746 93.9262 64.4883 94.0203C64.6378 94.174 64.8219 94.2849 65.0232 94.3426C65.2244 94.4003 65.4363 94.4028 65.6387 94.35C65.8412 94.2972 66.0276 94.1908 66.1804 94.0407C66.3332 93.8907 66.4475 93.702 66.5123 93.4924C66.6655 93.0508 66.7919 92.5993 66.8908 92.1407Z" fill="#1D2D44"/>
<path d="M61.2959 77.3768C61.3462 78.5855 60.9531 79.768 60.1988 80.6776C59.6277 81.3838 58.878 81.903 58.0377 82.1743C57.3572 82.3589 56.637 82.2859 56.0019 81.9681C55.3668 81.6502 54.8568 81.1076 54.5602 80.434C54.2011 79.7372 54.0129 78.9564 54.0129 78.1628C54.0129 77.3693 54.2011 76.5884 54.5602 75.8917C54.7021 75.6254 54.7652 75.3203 54.7412 75.0157C54.7276 74.7648 54.7914 74.5161 54.9229 74.3069C55.0545 74.0976 55.2467 73.9392 55.4707 73.8555C55.9369 73.6466 56.3977 73.432 56.8584 73.1999C57.1048 73.0745 57.3736 73.006 57.6469 72.999C57.9202 72.992 58.1918 73.0467 58.4436 73.1593C60.3799 73.9889 61.2191 75.3464 61.2959 77.3768ZM59.1018 77.6494C59.1291 77.1975 59.0237 76.7477 58.8001 76.3616C58.6772 76.0742 58.4854 75.8259 58.2437 75.6411C58.002 75.4563 57.7189 75.3415 57.4224 75.3081C57.1258 75.2747 56.8262 75.3238 56.5531 75.4506C56.2801 75.5774 56.0431 75.7774 55.8656 76.0309C55.5585 76.3268 55.723 76.7618 55.7505 77.1331C55.8084 77.6707 55.9512 78.1943 56.1728 78.682C56.2948 78.9612 56.4476 79.2241 56.6281 79.4652C56.7387 79.618 56.8811 79.7417 57.0442 79.8269C57.2073 79.9121 57.3868 79.9565 57.5688 79.9565C57.7507 79.9565 57.9302 79.9121 58.0933 79.8269C58.2564 79.7417 58.3988 79.618 58.5094 79.4652C58.8712 78.9342 59.0789 78.3032 59.1073 77.6494H59.1018Z" fill="#1D2D44"/>
<path d="M65.8649 61.1741C65.8977 61.7755 65.8177 62.3778 65.6294 62.9463C65.4411 63.5148 65.1483 64.0383 64.7679 64.4866C64.2802 65.048 63.7097 65.5221 63.0785 65.8905C62.6818 66.0926 62.2449 66.1908 61.8048 66.1766C61.3647 66.1625 60.9342 66.0365 60.5499 65.8092C59.975 65.5477 59.4816 65.1199 59.1265 64.5749C58.7713 64.03 58.5689 63.3901 58.5423 62.7288C58.4925 61.5263 58.8182 60.3398 59.4693 59.3526C59.755 58.7692 60.1782 58.2736 60.698 57.9139C61.163 57.5904 61.702 57.4057 62.2581 57.3792C62.8141 57.3526 63.3666 57.4852 63.8574 57.763C65.2067 58.5288 65.9911 59.6194 65.8649 61.1741ZM63.7477 61.3656C63.7477 61.2901 63.7148 61.1799 63.7038 61.0639C63.6051 60.2459 63.0236 59.9037 62.4038 59.6658C62.0308 59.5034 61.8553 59.5498 61.6633 59.8921C61.3166 60.34 61.0809 60.8724 60.9777 61.441C60.9745 61.576 60.9324 61.7067 60.8568 61.8156C60.7813 61.9245 60.6761 62.0063 60.5554 62.0501C60.5208 62.0633 60.4896 62.0848 60.4643 62.113C60.439 62.1412 60.4203 62.1752 60.4096 62.2124C60.399 62.2496 60.3967 62.2889 60.4029 62.3272C60.4092 62.3655 60.4238 62.4017 60.4457 62.433C60.6926 62.9947 61.1148 63.4495 61.6414 63.7208C61.758 63.7997 61.8889 63.8522 62.0256 63.875C62.1624 63.8978 62.3021 63.8905 62.436 63.8534C62.57 63.8164 62.6952 63.7504 62.8039 63.6597C62.9125 63.569 63.0023 63.4555 63.0675 63.3263C63.4368 62.7384 63.6698 62.0666 63.7477 61.3656Z" fill="#1D2D44"/>
<path d="M79.8025 61.6267C79.7455 61.9851 79.6555 62.3368 79.5338 62.6767C79.2719 63.3184 78.8512 63.8735 78.3161 64.2836C77.795 64.6665 77.3781 65.2698 76.6706 65.2698C75.6887 65.7513 74.8166 65.3626 73.9939 64.8463C73.5652 64.5809 73.2127 64.1973 72.9741 63.7365C72.7355 63.2757 72.6197 62.755 72.639 62.23C72.6294 61.8833 72.6588 61.5367 72.7268 61.1974C72.7989 60.9427 72.7753 60.6684 72.661 60.4317C72.5123 60.1166 72.477 59.7551 72.5618 59.4146C72.6466 59.0741 72.8456 58.7778 73.1217 58.5811C73.5917 58.1462 74.0985 57.7578 74.6356 57.4209C75.1182 57.1088 75.6774 56.955 76.2426 56.9787C76.8079 57.0025 77.3538 57.2027 77.8115 57.5543C78.4483 57.9927 78.9666 58.5984 79.3157 59.3123C79.6647 60.0262 79.8325 60.8237 79.8025 61.6267ZM76.1166 63.1408C76.2954 63.1831 76.4816 63.1742 76.6561 63.115C76.8306 63.0559 76.9871 62.9486 77.1094 62.8043C77.3577 62.5166 77.5199 62.1576 77.5756 61.7725C77.6312 61.3874 77.5778 60.9935 77.422 60.6405C77.2898 60.2815 77.0659 59.9683 76.7754 59.7358C76.4849 59.5034 76.1391 59.3607 75.7765 59.3236C75.6669 59.3191 75.5574 59.3348 75.4529 59.37C75.0101 59.5049 74.636 59.8202 74.4128 60.2466C74.1896 60.673 74.1356 61.1756 74.2626 61.6441C74.3843 62.0676 74.6288 62.44 74.9615 62.7085C75.2942 62.9771 75.6982 63.1283 76.1166 63.1408Z" fill="#1D2D44"/>
<path d="M75.0743 47.4544C74.9975 48.7539 74.5916 49.8561 73.4287 50.5291C73.3026 50.6045 73.1764 50.6799 73.0558 50.7669C72.546 51.152 71.9352 51.359 71.3088 51.359C70.6823 51.359 70.0715 51.152 69.5618 50.7669C69.2207 50.5444 68.8977 50.2922 68.5964 50.0128C67.0386 48.5973 67.3513 46.3464 68.377 44.9948C68.5487 44.7942 68.7747 44.6544 69.0242 44.5945C69.8854 44.2928 70.752 44.0144 71.6077 43.6837C71.9191 43.5615 72.2617 43.5615 72.5731 43.6837C73.3165 43.9466 73.9607 44.4547 74.4109 45.1334C74.8611 45.8121 75.0936 46.6256 75.0743 47.4544ZM72.8802 47.6459C72.8991 47.3403 72.838 47.035 72.7035 46.7638C72.5689 46.4926 72.3663 46.2659 72.1178 46.1086C71.9018 45.9568 71.6459 45.8813 71.3867 45.8927C71.1276 45.9042 70.8785 46.0021 70.6752 46.1724C70.4503 46.3638 70.1651 46.4682 69.9238 46.6423C69.8327 46.6904 69.7529 46.7594 69.6905 46.8444C69.628 46.9295 69.5843 47.0282 69.5628 47.1335C69.5412 47.2387 69.5422 47.3477 69.5657 47.4524C69.5893 47.5572 69.6348 47.655 69.6989 47.7387C70.1487 48.4065 70.7917 48.9013 71.5309 49.1484C71.6711 49.2024 71.8235 49.2096 71.9677 49.1692C72.1118 49.1287 72.2408 49.0425 72.3372 48.9221C72.6448 48.5706 72.8355 48.1225 72.8802 47.6459Z" fill="#1D2D44"/>
<path d="M75.3227 77.0174C74.3438 77.6155 73.1952 77.8225 72.0854 77.601C70.9755 77.3794 69.9782 76.7439 69.2744 75.8099C68.9501 75.3393 68.723 74.8017 68.6078 74.2319C68.2577 72.9675 68.3519 71.611 68.873 70.4129C69.0146 70.0783 69.2188 69.7774 69.4732 69.5284C69.7276 69.2794 70.027 69.0875 70.3533 68.9642C72.1053 68.3055 73.4898 68.9213 74.6945 70.2443C74.9221 70.496 75.116 70.7779 75.3237 71.0503C75.528 71.3677 75.7939 71.6352 76.1038 71.835C76.324 71.9714 76.5057 72.1674 76.6304 72.4028C76.7552 72.6383 76.8184 72.9047 76.8136 73.1748C76.8869 74.3381 76.5782 75.493 75.9398 76.4442C75.7737 76.6783 75.5636 76.8735 75.3227 77.0174ZM70.8137 74.0636C71.0348 74.5005 71.3906 74.844 71.8221 75.0371C72.2101 75.2042 72.627 75.2837 73.046 75.2705C73.465 75.2574 73.8769 75.1519 74.2555 74.9608C74.4673 74.8813 74.6458 74.7248 74.7591 74.5193C74.8725 74.3138 74.9133 74.0725 74.8743 73.8383C74.7801 73.1336 74.6644 72.4366 73.9404 72.0294C73.3997 71.7204 72.843 71.4436 72.2731 71.2003C72.139 71.1434 71.9978 71.108 71.8538 71.0952C71.649 71.0533 71.4374 71.0673 71.239 71.1358C71.0405 71.2043 70.8617 71.3251 70.7194 71.4868C70.5771 71.6485 70.476 71.8459 70.4256 72.0602C70.3753 72.2745 70.3772 72.4988 70.4314 72.712C70.5315 73.1707 70.6592 73.6222 70.8137 74.0636Z" fill="#1D2D44"/>
<path d="M83.1403 83.1806C82.4728 82.1976 82.1901 80.9792 82.3514 79.7797C82.4644 78.8569 82.8238 77.9869 83.3874 77.272C83.8621 76.7225 84.5032 76.3656 85.1997 76.2632C85.8962 76.1608 86.6043 76.3193 87.2013 76.7112C87.8627 77.0863 88.4244 77.631 88.835 78.2956C89.2456 78.9601 89.492 79.7232 89.5517 80.5151C89.5706 80.8205 89.6757 81.1126 89.8534 81.3538C89.9946 81.556 90.0698 81.8013 90.0679 82.0529C90.0659 82.3044 89.9869 82.5487 89.8426 82.7488C89.56 83.1943 89.2851 83.6414 89.0192 84.1032C88.8777 84.3512 88.688 84.5645 88.4626 84.729C88.2372 84.8935 87.9814 85.0054 87.7122 85.0572C85.6608 85.4862 84.2553 84.8364 83.1403 83.1806ZM84.8374 81.679C85.0484 82.0732 85.3694 82.3887 85.7565 82.5824C86.0082 82.7516 86.2974 82.8483 86.5955 82.8628C86.8936 82.8773 87.1902 82.8091 87.4559 82.665C87.7216 82.5209 87.9472 82.3058 88.1104 82.0412C88.2735 81.7765 88.3685 81.4715 88.386 81.1562C88.4903 80.7302 88.1273 80.4613 87.9122 80.1663C87.5854 79.7497 87.1949 79.3941 86.7569 79.1143C86.5102 78.9513 86.2462 78.8198 85.9702 78.7227C85.7985 78.6589 85.6152 78.6379 85.4344 78.6612C85.2537 78.6845 85.0804 78.7516 84.9279 78.8572C84.7755 78.9628 84.6481 79.1041 84.5555 79.2701C84.4629 79.4361 84.4077 79.6224 84.3941 79.8145C84.3658 80.4692 84.5182 81.1181 84.8328 81.6821L84.8374 81.679Z" fill="#1D2D44"/>
<path d="M101.328 71.0565C100.66 70.0735 100.377 68.855 100.539 67.6555C100.652 66.7327 101.011 65.8628 101.575 65.1479C102.049 64.5984 102.69 64.2415 103.387 64.1391C104.083 64.0367 104.792 64.1951 105.389 64.5871C106.05 64.9621 106.612 65.5069 107.022 66.1714C107.433 66.836 107.679 67.5991 107.739 68.391C107.758 68.6963 107.863 68.9885 108.041 69.2296C108.182 69.4318 108.257 69.6772 108.255 69.9287C108.253 70.1803 108.174 70.4245 108.03 70.6247C107.747 71.0701 107.472 71.5173 107.206 71.979C107.065 72.227 106.875 72.4404 106.65 72.6049C106.425 72.7694 106.169 72.8812 105.899 72.933C103.848 73.362 102.443 72.7123 101.328 71.0565ZM103.025 69.5548C103.236 69.9491 103.557 70.2646 103.944 70.4582C104.195 70.6275 104.485 70.7242 104.783 70.7387C105.081 70.7531 105.377 70.685 105.643 70.5408C105.909 70.3967 106.134 70.1817 106.298 69.917C106.461 69.6524 106.556 69.3473 106.573 69.032C106.678 68.606 106.315 68.3372 106.099 68.0421C105.773 67.6256 105.382 67.27 104.944 66.9901C104.697 66.8272 104.433 66.6957 104.157 66.5985C103.986 66.5348 103.802 66.5137 103.622 66.5371C103.441 66.5604 103.268 66.6275 103.115 66.733C102.963 66.8386 102.835 66.9799 102.743 67.1459C102.65 67.312 102.595 67.4983 102.581 67.6904C102.553 68.3451 102.705 68.994 103.02 69.558L103.025 69.5548Z" fill="#1D2D44"/>
<path d="M114.15 59.0091C113.483 58.0261 113.2 56.8077 113.361 55.6082C113.474 54.6853 113.834 53.8154 114.397 53.1005C114.872 52.551 115.513 52.1941 116.209 52.0917C116.906 51.9893 117.614 52.1478 118.211 52.5397C118.872 52.9148 119.434 53.4595 119.845 54.1241C120.255 54.7886 120.502 55.5517 120.562 56.3436C120.58 56.649 120.685 56.9411 120.863 57.1823C121.004 57.3845 121.08 57.6298 121.078 57.8814C121.076 58.1329 120.997 58.3771 120.852 58.5773C120.57 59.0228 120.295 59.4699 120.029 59.9317C119.887 60.1797 119.698 60.393 119.472 60.5575C119.247 60.722 118.991 60.8339 118.722 60.8857C116.671 61.3147 115.265 60.6649 114.15 59.0091ZM115.847 57.5074C116.058 57.9017 116.379 58.2172 116.766 58.4109C117.018 58.5801 117.307 58.6768 117.605 58.6913C117.903 58.7058 118.2 58.6376 118.466 58.4935C118.731 58.3494 118.957 58.1343 119.12 57.8697C119.283 57.605 119.378 57.2999 119.396 56.9847C119.5 56.5586 119.137 56.2898 118.922 55.9948C118.595 55.5782 118.205 55.2226 117.767 54.9428C117.52 54.7798 117.256 54.6483 116.98 54.5511C116.808 54.4874 116.625 54.4664 116.444 54.4897C116.263 54.513 116.09 54.5801 115.938 54.6857C115.785 54.7913 115.658 54.9326 115.565 55.0986C115.473 55.2646 115.417 55.4509 115.404 55.643C115.376 56.2977 115.528 56.9466 115.843 57.5106L115.847 57.5074Z" fill="#1D2D44"/>
<path d="M75.8686 95.6248C75.7309 95.2915 75.6244 94.9447 75.5505 94.5894C75.4378 93.9001 75.503 93.191 75.7391 92.537C75.9775 91.914 76.0146 91.1668 76.6074 90.7561C77.1808 89.7831 78.1125 89.6024 79.069 89.5573C79.5655 89.5308 80.0593 89.6475 80.4976 89.8949C80.9359 90.1423 81.3024 90.5111 81.5578 90.962C81.7453 91.2467 81.9 91.5541 82.0186 91.8777C82.09 92.1328 82.2517 92.3488 82.47 92.4808C82.7576 92.6583 82.9742 92.9406 83.0793 93.275C83.1845 93.6093 83.1711 93.9729 83.0416 94.2979C82.8728 94.9349 82.6493 95.5543 82.3736 96.1482C82.1308 96.6896 81.7419 97.143 81.2561 97.4511C80.7703 97.7593 80.2093 97.9084 79.644 97.8796C78.8836 97.8821 78.1359 97.6756 77.4741 97.2804C76.8123 96.8851 76.2591 96.3146 75.8686 95.6248ZM78.1732 92.2175C78.0015 92.2859 77.85 92.4015 77.7345 92.5523C77.6189 92.7031 77.5433 92.8837 77.5155 93.0755C77.4564 93.4606 77.5062 93.8554 77.6589 94.2102C77.8115 94.565 78.0601 94.8638 78.3733 95.0691C78.6698 95.2929 79.0194 95.4253 79.3831 95.4514C79.7468 95.4775 80.1103 95.3963 80.4332 95.2168C80.5274 95.157 80.611 95.0803 80.6803 94.9902C80.9815 94.6202 81.1318 94.1391 81.0982 93.6525C81.0645 93.1659 80.8496 92.7136 80.5008 92.395C80.1797 92.1109 79.7822 91.941 79.3645 91.9092C78.9469 91.8773 78.5301 91.9852 78.1732 92.2175Z" fill="#1D2D44"/>
<path d="M100.43 51.0687C100.292 50.7355 100.186 50.3887 100.112 50.0334C99.9994 49.344 100.065 48.635 100.301 47.981C100.539 47.3579 100.576 46.6108 101.169 46.2001C101.742 45.227 102.674 45.0464 103.63 45.0013C104.127 44.9748 104.621 45.0914 105.059 45.3388C105.497 45.5863 105.864 45.9551 106.119 46.406C106.307 46.6907 106.461 46.9981 106.58 47.3217C106.652 47.5768 106.813 47.7928 107.032 47.9247C107.319 48.1023 107.536 48.3846 107.641 48.7189C107.746 49.0533 107.733 49.4169 107.603 49.7419C107.434 50.3789 107.211 50.9982 106.935 51.5921C106.692 52.1336 106.303 52.587 105.818 52.8951C105.332 53.2032 104.771 53.3523 104.205 53.3236C103.445 53.3261 102.697 53.1196 102.036 52.7243C101.374 52.3291 100.821 51.7586 100.43 51.0687ZM102.735 47.6615C102.563 47.7299 102.412 47.8454 102.296 47.9962C102.18 48.147 102.105 48.3276 102.077 48.5195C102.018 48.9045 102.068 49.2994 102.22 49.6541C102.373 50.0089 102.622 50.3078 102.935 50.513C103.231 50.7369 103.581 50.8693 103.945 50.8953C104.308 50.9214 104.672 50.8403 104.995 50.6608C105.089 50.601 105.173 50.5243 105.242 50.4341C105.543 50.0642 105.693 49.5831 105.66 49.0965C105.626 48.6099 105.411 48.1576 105.062 47.8389C104.741 47.5549 104.344 47.385 103.926 47.3531C103.508 47.3213 103.092 47.4292 102.735 47.6615Z" fill="#1D2D44"/>
<path d="M82.2095 49.7314C81.6014 48.5987 81.3711 47.44 81.9971 46.2016C82.0637 46.0652 82.1304 45.9289 82.1865 45.786C82.4143 45.1676 82.8189 44.6398 83.3437 44.2762C83.8685 43.9127 84.4873 43.7315 85.1136 43.7581C85.5145 43.7465 85.9156 43.7703 86.3126 43.8294C88.3501 44.1108 89.2529 46.1772 89.093 47.9044C89.0529 48.1721 88.9359 48.4203 88.7579 48.6153C88.1925 49.3677 87.6106 50.1038 87.0648 50.8774C86.8672 51.1604 86.5802 51.3592 86.2561 51.4376C85.4972 51.649 84.6946 51.5973 83.9663 51.2902C83.2379 50.9831 82.6222 50.4368 82.2095 49.7314ZM83.9485 48.2978C84.0908 48.5647 84.3 48.7848 84.553 48.9339C84.8061 49.0829 85.0932 49.1552 85.3827 49.1427C85.6422 49.1444 85.8957 49.0591 86.1069 48.8992C86.318 48.7392 86.476 48.5126 86.5582 48.252C86.6476 47.9612 86.8325 47.7082 86.9446 47.4224C86.9961 47.3293 87.0271 47.2251 87.0355 47.1177C87.0439 47.0102 87.0293 46.9022 86.9929 46.8015C86.9566 46.7009 86.8993 46.6102 86.8254 46.5361C86.7514 46.4621 86.6627 46.4066 86.5657 46.3737C85.8433 46.0755 85.0486 46.0344 84.3015 46.2564C84.1561 46.2925 84.0246 46.3749 83.9248 46.4925C83.8249 46.61 83.7615 46.7571 83.743 46.9138C83.6672 47.3867 83.7393 47.8727 83.9485 48.2978Z" fill="#1D2D44"/>
<path d="M87.6644 66.3909C87.3257 65.9064 87.0811 65.3555 86.9446 64.7701C86.8082 64.1848 86.7826 63.5765 86.8694 62.9803C86.9874 62.227 87.2201 61.4989 87.5583 60.8241C87.786 60.4246 88.1012 60.0888 88.4772 59.8452C88.8533 59.6017 89.2791 59.4574 89.7187 59.4246C90.3356 59.31 90.9703 59.3819 91.5498 59.6322C92.1293 59.8824 92.6301 60.3008 92.9945 60.8392C93.6585 61.8173 93.9995 62.9999 93.9649 64.2046C94.0275 64.8589 93.9294 65.5196 93.6801 66.1225C93.4578 66.6633 93.1018 67.1307 92.6497 67.4757C92.1976 67.8206 91.6661 68.0302 91.1113 68.0824C89.5846 68.2243 88.3631 67.7661 87.6644 66.3909ZM89.3391 65.0018C89.3781 65.065 89.4627 65.1382 89.5319 65.229C90.0379 65.8567 90.7021 65.8059 91.3444 65.6454C91.7409 65.5649 91.864 65.4242 91.8477 65.0261C91.9064 64.4497 91.8284 63.8671 91.6206 63.3311C91.5534 63.2162 91.5211 63.0822 91.528 62.9472C91.5349 62.8122 91.5807 62.6826 91.6593 62.5759C91.6814 62.5448 91.6964 62.5086 91.703 62.4703C91.7096 62.4321 91.7077 62.3927 91.6973 62.3554C91.687 62.318 91.6686 62.2838 91.6436 62.2553C91.6185 62.2269 91.5875 62.2051 91.553 62.1916C91.0555 61.8644 90.4664 61.7286 89.8849 61.807C89.7464 61.8087 89.6096 61.8406 89.4832 61.9009C89.3569 61.9611 89.2436 62.0484 89.1505 62.1571C89.0575 62.2659 88.9867 62.3938 88.9426 62.5329C88.8985 62.6719 88.882 62.819 88.8942 62.965C88.8891 63.6718 89.0415 64.3696 89.3391 65.0018Z" fill="#1D2D44"/>
<path d="M49.1401 47.8179C49.0024 47.4846 48.8958 47.1379 48.822 46.7826C48.7093 46.0932 48.7745 45.3841 49.0106 44.7301C49.249 44.1071 49.2861 43.3599 49.8789 42.9492C50.4522 41.9762 51.384 41.7955 52.3405 41.7504C52.8369 41.7239 53.3307 41.8406 53.7691 42.088C54.2074 42.3354 54.5739 42.7042 54.8293 43.1551C55.0168 43.4399 55.1715 43.7473 55.2901 44.0708C55.3615 44.326 55.5232 44.542 55.7415 44.6739C56.0291 44.8514 56.2457 45.1337 56.3508 45.4681C56.456 45.8024 56.4426 46.166 56.313 46.4911C56.1443 47.128 55.9208 47.7474 55.6451 48.3413C55.4023 48.8827 55.0134 49.3361 54.5276 49.6442C54.0418 49.9524 53.4808 50.1015 52.9155 50.0727C52.1551 50.0752 51.4074 49.8687 50.7456 49.4735C50.0838 49.0782 49.5306 48.5077 49.1401 47.8179ZM51.4446 44.4107C51.273 44.4791 51.1215 44.5946 51.0059 44.7454C50.8904 44.8962 50.8148 45.0768 50.787 45.2686C50.7278 45.6537 50.7777 46.0485 50.9304 46.4033C51.083 46.7581 51.3316 47.0569 51.6448 47.2622C51.9413 47.4861 52.2909 47.6184 52.6546 47.6445C53.0183 47.6706 53.3818 47.5894 53.7047 47.41C53.7989 47.3502 53.8825 47.2734 53.9518 47.1833C54.253 46.8133 54.4033 46.3322 54.3696 45.8456C54.336 45.359 54.1211 44.9067 53.7723 44.5881C53.4512 44.3041 53.0537 44.1341 52.636 44.1023C52.2183 44.0704 51.8016 44.1783 51.4446 44.4107Z" fill="#1D2D44"/>
<path d="M59.9314 84.9604H60.0119C87.5608 78.3647 88.7439 63.9275 88.7439 63.9275C92.4139 46.9391 88.3013 9.77951 77.1223 8.46548C65.9434 7.15146 66.4021 27.3396 66.4021 27.3396C66.4021 27.3396 56.0683 3.5763 47.3762 5.41082C38.6842 7.24533 33.6943 17.9708 34.3704 31.0087C34.3704 31.0087 28.9861 10.5304 16.9541 14.609C4.92209 18.6876 7.89188 59.2261 23.1029 74.4653C23.1029 74.4653 31.5696 89.824 56.028 85.7113C59.464 97.2835 58.4606 109.825 53.2353 120.618C51.6257 99.6963 32.0284 85.3018 23.6502 98.1177C14.2419 112.504 42.4105 122.427 50.9094 125.047C48.6092 128.916 45.8262 132.438 42.6359 135.516C40.7285 137.351 43.2395 140.687 45.163 138.827C56.0844 128.315 62.3378 114.637 61.9918 98.9113C61.8842 94.1854 61.1915 89.495 59.9314 84.9604Z" fill="#FFCBA4"/>
<path d="M95.5769 79.3801C81.4604 68.0232 59.3601 116.634 59.3601 116.634C86.0076 119.765 109.693 90.7456 95.5769 79.3801Z" fill="#FFCBA4"/>
<path d="M50.4036 79.6506H50.4841C78.033 73.0549 79.2161 58.6177 79.2161 58.6177C82.886 41.6293 78.7734 4.46969 67.5945 3.15567C56.4156 1.84165 56.8743 22.0298 56.8743 22.0298C56.8743 22.0298 46.5404 -1.73351 37.8484 0.101003C29.1564 1.93552 24.1665 12.661 24.8426 25.6989C24.8426 25.6989 19.4583 5.22056 7.42629 9.29916C-4.60574 13.3777 -1.63595 53.9162 13.5751 69.1555C13.5751 69.1555 22.0418 84.5142 46.5002 80.4015C49.9361 91.9737 48.9328 104.515 43.7075 115.308C42.0979 94.3865 22.5005 79.9919 14.1224 92.8079C4.71406 107.194 32.8827 117.117 41.3816 119.737C39.0814 123.606 36.2983 127.128 33.1081 130.206C31.2006 132.041 33.7116 135.377 35.6352 133.517C46.5565 123.005 52.81 109.327 52.4639 93.6015C52.3563 88.8756 51.6636 84.1852 50.4036 79.6506Z" fill="#DBB2D1"/>
<path d="M86.0488 74.0702C71.9323 62.7133 49.832 111.324 49.832 111.324C76.4796 114.455 100.165 85.4356 86.0488 74.0702Z" fill="#DBB2D1"/>
</svg>
