<svg width="395" height="104" viewBox="0 0 395 104" fill="none" xmlns="http://www.w3.org/2000/svg">
<path d="M8.544 29.416C6.34667 29.416 4.59733 28.7013 3.296 27.272C1.99467 25.8427 1.344 23.9013 1.344 21.448C1.344 19.7627 1.68533 18.3227 2.368 17.128C3.072 15.912 3.98933 14.984 5.12 14.344C6.25067 13.704 7.456 13.384 8.736 13.384C9.696 13.384 10.5813 13.5653 11.392 13.928C12.2027 14.2907 12.8747 14.792 13.408 15.432C13.9413 16.0507 14.272 16.7547 14.4 17.544C14.2507 18.3547 13.76 18.76 12.928 18.76C12.3947 18.76 11.9893 18.6213 11.712 18.344C11.456 18.0453 11.2747 17.672 11.168 17.224L10.592 15.112C10.2933 15.0053 9.99467 14.9413 9.696 14.92C9.41867 14.8773 9.14133 14.856 8.864 14.856C7.49867 14.856 6.368 15.3893 5.472 16.456C4.59733 17.5227 4.16 19.08 4.16 21.128C4.16 23.1333 4.64 24.6693 5.6 25.736C6.56 26.8027 7.78667 27.336 9.28 27.336C10.1973 27.336 11.04 27.1333 11.808 26.728C12.576 26.3013 13.2053 25.6933 13.696 24.904L14.496 25.32C14.048 26.6427 13.3227 27.656 12.32 28.36C11.3173 29.064 10.0587 29.416 8.544 29.416ZM24.393 29.416C23.1557 29.416 21.9717 29.128 20.841 28.552C19.7317 27.9547 18.825 27.0693 18.121 25.896C17.417 24.7013 17.065 23.2293 17.065 21.48C17.065 19.7093 17.417 18.2267 18.121 17.032C18.825 15.816 19.7317 14.9093 20.841 14.312C21.9717 13.6933 23.1557 13.384 24.393 13.384C25.6303 13.384 26.8037 13.6933 27.913 14.312C29.0437 14.9093 29.961 15.816 30.665 17.032C31.3903 18.2267 31.753 19.7093 31.753 21.48C31.753 23.2293 31.3903 24.7013 30.665 25.896C29.961 27.0693 29.0437 27.9547 27.913 28.552C26.8037 29.128 25.6303 29.416 24.393 29.416ZM24.393 27.976C25.7797 27.976 26.8463 27.432 27.593 26.344C28.3397 25.2347 28.713 23.6133 28.713 21.48C28.713 19.3253 28.3397 17.6827 27.593 16.552C26.8463 15.4213 25.7797 14.856 24.393 14.856C23.0063 14.856 21.9397 15.4213 21.193 16.552C20.4677 17.6827 20.105 19.3253 20.105 21.48C20.105 23.6133 20.4677 25.2347 21.193 26.344C21.9397 27.432 23.0063 27.976 24.393 27.976ZM34.4675 29V27.848L36.8355 27.4C36.8568 26.5893 36.8675 25.7147 36.8675 24.776C36.8888 23.8373 36.8995 23.0053 36.8995 22.28V20.744C36.8995 19.8693 36.8888 19.144 36.8675 18.568C36.8675 17.992 36.8462 17.384 36.8035 16.744L34.2755 16.456V15.336L38.7555 13.384L39.2355 13.704L39.4915 16.264C40.2808 15.4107 41.1875 14.7173 42.2115 14.184C43.2355 13.6507 44.2382 13.384 45.2195 13.384C46.6062 13.384 47.6302 13.8533 48.2915 14.792C48.9742 15.7093 49.3155 17.2133 49.3155 19.304V22.28C49.3155 23.0053 49.3155 23.8373 49.3155 24.776C49.3368 25.7147 49.3582 26.5893 49.3795 27.4L51.6195 27.848V29H44.1955V27.848L46.5635 27.4C46.5848 26.6107 46.5955 25.7467 46.5955 24.808C46.6168 23.848 46.6275 23.0053 46.6275 22.28V19.56C46.6275 18.088 46.4142 17.0747 45.9875 16.52C45.5822 15.9653 44.9102 15.688 43.9715 15.688C43.2462 15.688 42.5422 15.8373 41.8595 16.136C41.1768 16.4347 40.4302 16.9253 39.6195 17.608V22.28C39.6195 22.984 39.6195 23.816 39.6195 24.776C39.6408 25.7147 39.6622 26.5893 39.6835 27.4L41.8915 27.848V29H34.4675ZM58.9975 29.416C57.8882 29.416 57.0028 29.1173 56.3415 28.52C55.6802 27.9227 55.3495 27.0053 55.3495 25.768C55.3495 25.3627 55.3495 24.968 55.3495 24.584C55.3708 24.1787 55.3815 23.6667 55.3815 23.048V15.496H52.7255V14.088L55.5735 13.736L56.4055 9.448H58.3255L58.1335 13.8H62.4535V15.496H58.1015V25.416C58.1015 26.2267 58.2615 26.824 58.5815 27.208C58.9015 27.5707 59.3282 27.752 59.8615 27.752C60.2242 27.752 60.5655 27.6773 60.8855 27.528C61.2268 27.3787 61.6002 27.1653 62.0055 26.888L62.7735 27.72C61.8988 28.8507 60.6402 29.416 58.9975 29.416ZM76.1558 29.32C75.3878 29.32 74.7478 29.096 74.2358 28.648C73.7238 28.2 73.4038 27.6027 73.2758 26.856C72.4011 27.7093 71.6331 28.3493 70.9718 28.776C70.3104 29.2027 69.5104 29.416 68.5718 29.416C67.3984 29.416 66.3851 29.0853 65.5318 28.424C64.6998 27.7413 64.2838 26.7387 64.2838 25.416C64.2838 24.7973 64.4224 24.2213 64.6998 23.688C64.9984 23.1547 65.5318 22.632 66.2998 22.12C67.0678 21.608 68.1664 21.096 69.5958 20.584C70.0864 20.4133 70.6518 20.232 71.2917 20.04C71.9317 19.848 72.5718 19.6773 73.2118 19.528V18.728C73.2118 17.1707 72.9771 16.136 72.5078 15.624C72.0384 15.112 71.2704 14.856 70.2038 14.856C69.9691 14.856 69.7024 14.8667 69.4038 14.888C69.1264 14.9093 68.8171 14.9627 68.4758 15.048L67.8678 17.128C67.5691 18.152 67.0144 18.664 66.2038 18.664C65.3078 18.664 64.8064 18.2267 64.6998 17.352C64.9984 16.136 65.7024 15.176 66.8118 14.472C67.9424 13.7467 69.3184 13.384 70.9398 13.384C72.6251 13.384 73.8731 13.8107 74.6838 14.664C75.4944 15.496 75.8998 16.9253 75.8998 18.952V25.768C75.8998 26.4507 76.0064 26.9413 76.2198 27.24C76.4331 27.5173 76.7104 27.656 77.0518 27.656C77.3291 27.656 77.5638 27.592 77.7558 27.464C77.9478 27.336 78.1291 27.1653 78.2998 26.952L78.9398 27.656C78.5558 28.2747 78.1291 28.712 77.6598 28.968C77.2118 29.2027 76.7104 29.32 76.1558 29.32ZM67.1318 24.936C67.1318 25.7893 67.3771 26.3973 67.8678 26.76C68.3584 27.1227 68.9664 27.304 69.6918 27.304C70.0118 27.304 70.3104 27.2613 70.5878 27.176C70.8864 27.0907 71.2384 26.9307 71.6438 26.696C72.0491 26.44 72.5718 26.0773 73.2118 25.608V20.712C72.6571 20.8613 72.1131 21.032 71.5798 21.224C71.0464 21.3947 70.6091 21.544 70.2678 21.672C69.3504 22.0347 68.6678 22.408 68.2198 22.792C67.7718 23.176 67.4731 23.5493 67.3238 23.912C67.1958 24.2747 67.1318 24.616 67.1318 24.936ZM85.685 29.416C84.5757 29.416 83.6903 29.1173 83.029 28.52C82.3677 27.9227 82.037 27.0053 82.037 25.768C82.037 25.3627 82.037 24.968 82.037 24.584C82.0583 24.1787 82.069 23.6667 82.069 23.048V15.496H79.413V14.088L82.261 13.736L83.093 9.448H85.013L84.821 13.8H89.141V15.496H84.789V25.416C84.789 26.2267 84.949 26.824 85.269 27.208C85.589 27.5707 86.0157 27.752 86.549 27.752C86.9117 27.752 87.253 27.6773 87.573 27.528C87.9143 27.3787 88.2877 27.1653 88.693 26.888L89.461 27.72C88.5863 28.8507 87.3277 29.416 85.685 29.416ZM98.2993 29.416C97.0619 29.416 95.8779 29.128 94.7473 28.552C93.6379 27.9547 92.7313 27.0693 92.0273 25.896C91.3233 24.7013 90.9713 23.2293 90.9713 21.48C90.9713 19.7093 91.3233 18.2267 92.0273 17.032C92.7313 15.816 93.6379 14.9093 94.7473 14.312C95.8779 13.6933 97.0619 13.384 98.2993 13.384C99.5366 13.384 100.71 13.6933 101.819 14.312C102.95 14.9093 103.867 15.816 104.571 17.032C105.297 18.2267 105.659 19.7093 105.659 21.48C105.659 23.2293 105.297 24.7013 104.571 25.896C103.867 27.0693 102.95 27.9547 101.819 28.552C100.71 29.128 99.5366 29.416 98.2993 29.416ZM98.2993 27.976C99.6859 27.976 100.753 27.432 101.499 26.344C102.246 25.2347 102.619 23.6133 102.619 21.48C102.619 19.3253 102.246 17.6827 101.499 16.552C100.753 15.4213 99.6859 14.856 98.2993 14.856C96.9126 14.856 95.8459 15.4213 95.0993 16.552C94.3739 17.6827 94.0113 19.3253 94.0113 21.48C94.0113 23.6133 94.3739 25.2347 95.0993 26.344C95.8459 27.432 96.9126 27.976 98.2993 27.976ZM116.726 22.536C116.726 24.584 117.462 25.608 118.934 25.608C119.403 25.608 119.883 25.4907 120.374 25.256C120.886 25.0213 121.504 24.584 122.23 23.944L123.67 16.36C123.35 15.976 123.03 15.7093 122.71 15.56C122.39 15.3893 122.059 15.304 121.718 15.304C121.035 15.304 120.299 15.6027 119.51 16.2C118.742 16.776 118.08 17.608 117.526 18.696C116.992 19.7627 116.726 21.0427 116.726 22.536ZM125.782 27.496C124.8 27.496 124.011 27.2507 123.414 26.76C122.838 26.248 122.486 25.6187 122.358 24.872C121.696 25.6613 121.003 26.3013 120.278 26.792C119.552 27.2613 118.774 27.496 117.942 27.496C117.067 27.496 116.267 27.176 115.542 26.536C114.838 25.8747 114.486 24.808 114.486 23.336C114.486 22.1413 114.699 20.9787 115.126 19.848C115.574 18.7173 116.16 17.704 116.886 16.808C117.611 15.8907 118.411 15.1653 119.286 14.632C120.182 14.0773 121.078 13.8 121.974 13.8C122.763 13.8 123.488 14.0667 124.15 14.6L125.654 13.832L126.262 14.344L124.438 23.496C124.288 24.2853 124.363 24.904 124.662 25.352C124.96 25.7787 125.462 25.992 126.166 25.992C126.891 25.992 127.606 25.736 128.31 25.224C129.035 24.6907 129.632 23.8693 130.102 22.76C130.571 21.6293 130.806 20.1573 130.806 18.344C130.806 16.4027 130.422 14.76 129.654 13.416C128.907 12.0507 127.872 11.0053 126.55 10.28C125.248 9.55467 123.766 9.192 122.102 9.192C120.352 9.192 118.742 9.544 117.27 10.248C115.819 10.952 114.56 11.912 113.494 13.128C112.448 14.344 111.638 15.7307 111.062 17.288C110.486 18.8453 110.198 20.4773 110.198 22.184C110.198 23.9333 110.475 25.4693 111.03 26.792C111.584 28.0933 112.331 29.1813 113.27 30.056C114.23 30.9307 115.328 31.5813 116.566 32.008C117.803 32.4347 119.104 32.648 120.47 32.648C122.368 32.648 124.011 32.3173 125.398 31.656L125.814 32.616C124.896 33.0853 123.894 33.4267 122.806 33.64C121.739 33.8533 120.736 33.96 119.798 33.96C117.664 33.96 115.723 33.5227 113.974 32.648C112.224 31.7947 110.827 30.5147 109.782 28.808C108.758 27.1013 108.246 24.9893 108.246 22.472C108.246 20.424 108.598 18.5147 109.302 16.744C110.027 14.9733 111.03 13.4267 112.31 12.104C113.59 10.7813 115.072 9.74667 116.758 9C118.464 8.25333 120.31 7.88 122.294 7.88C124.47 7.88 126.326 8.33867 127.862 9.256C129.419 10.1733 130.614 11.4427 131.446 13.064C132.278 14.664 132.694 16.52 132.694 18.632C132.694 20.168 132.47 21.5013 132.022 22.632C131.574 23.7413 130.987 24.6587 130.262 25.384C129.558 26.1093 128.811 26.6427 128.022 26.984C127.232 27.3253 126.486 27.496 125.782 27.496ZM142.581 29.416C141.343 29.416 140.159 29.128 139.029 28.552C137.919 27.9547 137.013 27.0693 136.309 25.896C135.605 24.7013 135.253 23.2293 135.253 21.48C135.253 19.7093 135.605 18.2267 136.309 17.032C137.013 15.816 137.919 14.9093 139.029 14.312C140.159 13.6933 141.343 13.384 142.581 13.384C143.818 13.384 144.991 13.6933 146.101 14.312C147.231 14.9093 148.149 15.816 148.853 17.032C149.578 18.2267 149.941 19.7093 149.941 21.48C149.941 23.2293 149.578 24.7013 148.853 25.896C148.149 27.0693 147.231 27.9547 146.101 28.552C144.991 29.128 143.818 29.416 142.581 29.416ZM142.581 27.976C143.967 27.976 145.034 27.432 145.781 26.344C146.527 25.2347 146.901 23.6133 146.901 21.48C146.901 19.3253 146.527 17.6827 145.781 16.552C145.034 15.4213 143.967 14.856 142.581 14.856C141.194 14.856 140.127 15.4213 139.381 16.552C138.655 17.6827 138.293 19.3253 138.293 21.48C138.293 23.6133 138.655 25.2347 139.381 26.344C140.127 27.432 141.194 27.976 142.581 27.976ZM152.023 29V27.848L154.423 27.432C154.444 26.6213 154.455 25.7467 154.455 24.808C154.476 23.848 154.487 23.0053 154.487 22.28V8.232L151.863 7.912V6.792L156.759 5.352L157.207 5.608L157.079 10.152V15.848C157.847 14.9947 158.636 14.376 159.447 13.992C160.279 13.5867 161.132 13.384 162.007 13.384C163.137 13.384 164.161 13.6933 165.079 14.312C165.996 14.9307 166.721 15.8267 167.255 17C167.809 18.1733 168.087 19.592 168.087 21.256C168.087 22.8987 167.799 24.3387 167.222 25.576C166.647 26.792 165.857 27.7413 164.855 28.424C163.873 29.0853 162.753 29.416 161.495 29.416C160.748 29.416 160.001 29.256 159.255 28.936C158.508 28.616 157.783 28.0187 157.079 27.144L156.823 29.32L152.023 29ZM161.143 15.208C160.652 15.208 160.087 15.336 159.447 15.592C158.807 15.848 158.049 16.3387 157.175 17.064V25.832C157.836 26.4507 158.487 26.8987 159.127 27.176C159.767 27.4533 160.385 27.592 160.983 27.592C162.113 27.592 163.095 27.1013 163.927 26.12C164.78 25.1173 165.207 23.5813 165.207 21.512C165.207 19.464 164.823 17.9067 164.055 16.84C163.308 15.752 162.337 15.208 161.143 15.208ZM175.931 29.416C175.035 29.416 174.214 29.3093 173.467 29.096C172.721 28.904 171.953 28.6053 171.163 28.2L171.035 24.68H172.795L173.403 27.464C174.15 27.8053 175.014 27.976 175.995 27.976C177.211 27.976 178.107 27.752 178.683 27.304C179.281 26.856 179.579 26.2693 179.579 25.544C179.579 24.8613 179.334 24.3173 178.843 23.912C178.353 23.4853 177.606 23.1013 176.603 22.76L175.131 22.216C173.958 21.7893 173.019 21.2347 172.315 20.552C171.611 19.8693 171.259 18.984 171.259 17.896C171.259 17.1067 171.473 16.3707 171.899 15.688C172.326 15.0053 172.955 14.4507 173.787 14.024C174.619 13.5973 175.633 13.384 176.827 13.384C177.702 13.384 178.491 13.5013 179.195 13.736C179.921 13.9493 180.625 14.2693 181.307 14.696L181.179 17.96H179.515L179.003 15.4C178.278 15.0373 177.542 14.856 176.795 14.856C175.814 14.856 175.067 15.0587 174.555 15.464C174.065 15.848 173.819 16.3707 173.819 17.032C173.819 17.736 174.033 18.2693 174.459 18.632C174.907 18.9947 175.675 19.3787 176.763 19.784L177.755 20.136C179.355 20.7333 180.486 21.416 181.147 22.184C181.83 22.952 182.171 23.8373 182.171 24.84C182.171 25.6507 181.937 26.408 181.467 27.112C180.998 27.7947 180.305 28.3493 179.387 28.776C178.47 29.2027 177.318 29.416 175.931 29.416ZM189.966 29.416C188.857 29.416 187.972 29.1173 187.31 28.52C186.649 27.9227 186.318 27.0053 186.318 25.768C186.318 25.3627 186.318 24.968 186.318 24.584C186.34 24.1787 186.35 23.6667 186.35 23.048V15.496H183.694V14.088L186.542 13.736L187.374 9.448H189.294L189.102 13.8H193.422V15.496H189.07V25.416C189.07 26.2267 189.23 26.824 189.55 27.208C189.87 27.5707 190.297 27.752 190.83 27.752C191.193 27.752 191.534 27.6773 191.854 27.528C192.196 27.3787 192.569 27.1653 192.974 26.888L193.742 27.72C192.868 28.8507 191.609 29.416 189.966 29.416ZM207.125 29.32C206.357 29.32 205.717 29.096 205.205 28.648C204.693 28.2 204.373 27.6027 204.245 26.856C203.37 27.7093 202.602 28.3493 201.941 28.776C201.279 29.2027 200.479 29.416 199.541 29.416C198.367 29.416 197.354 29.0853 196.501 28.424C195.669 27.7413 195.253 26.7387 195.253 25.416C195.253 24.7973 195.391 24.2213 195.669 23.688C195.967 23.1547 196.501 22.632 197.269 22.12C198.037 21.608 199.135 21.096 200.565 20.584C201.055 20.4133 201.621 20.232 202.26 20.04C202.9 19.848 203.541 19.6773 204.181 19.528V18.728C204.181 17.1707 203.946 16.136 203.477 15.624C203.007 15.112 202.239 14.856 201.173 14.856C200.938 14.856 200.671 14.8667 200.373 14.888C200.095 14.9093 199.786 14.9627 199.445 15.048L198.837 17.128C198.538 18.152 197.983 18.664 197.173 18.664C196.277 18.664 195.775 18.2267 195.669 17.352C195.967 16.136 196.671 15.176 197.781 14.472C198.911 13.7467 200.287 13.384 201.909 13.384C203.594 13.384 204.842 13.8107 205.653 14.664C206.463 15.496 206.869 16.9253 206.869 18.952V25.768C206.869 26.4507 206.975 26.9413 207.189 27.24C207.402 27.5173 207.679 27.656 208.021 27.656C208.298 27.656 208.533 27.592 208.725 27.464C208.917 27.336 209.098 27.1653 209.269 26.952L209.909 27.656C209.525 28.2747 209.098 28.712 208.629 28.968C208.181 29.2027 207.679 29.32 207.125 29.32ZM198.101 24.936C198.101 25.7893 198.346 26.3973 198.837 26.76C199.327 27.1227 199.935 27.304 200.661 27.304C200.981 27.304 201.279 27.2613 201.557 27.176C201.855 27.0907 202.207 26.9307 202.613 26.696C203.018 26.44 203.541 26.0773 204.181 25.608V20.712C203.626 20.8613 203.082 21.032 202.549 21.224C202.015 21.3947 201.578 21.544 201.237 21.672C200.319 22.0347 199.637 22.408 199.189 22.792C198.741 23.176 198.442 23.5493 198.293 23.912C198.165 24.2747 198.101 24.616 198.101 24.936ZM211.282 29V27.848L213.586 27.432C213.607 26.6213 213.618 25.7467 213.618 24.808C213.639 23.848 213.65 23.0053 213.65 22.28V20.744C213.65 19.8693 213.639 19.144 213.618 18.568C213.618 17.992 213.596 17.384 213.554 16.744L211.026 16.456V15.336L215.506 13.384L215.986 13.704L216.338 17.48C216.871 16.2 217.554 15.1973 218.385 14.472C219.239 13.7467 220.092 13.384 220.946 13.384C221.436 13.384 221.895 13.4907 222.322 13.704C222.748 13.9173 223.058 14.2053 223.25 14.568C223.25 16.1253 222.62 16.904 221.362 16.904C220.999 16.904 220.658 16.84 220.338 16.712C220.018 16.5627 219.708 16.36 219.41 16.104L219.026 15.752C218.386 16.2213 217.852 16.7973 217.426 17.48C216.999 18.1627 216.647 18.9627 216.37 19.88V22.28C216.37 22.984 216.37 23.8053 216.37 24.744C216.391 25.6827 216.412 26.5573 216.434 27.368L219.058 27.848V29H211.282ZM231.764 14.856C231.167 14.856 230.559 15.0267 229.94 15.368C229.343 15.7093 228.82 16.2533 228.372 17C227.946 17.7467 227.668 18.7387 227.54 19.976H233.364C234.132 19.976 234.634 19.816 234.868 19.496C235.124 19.176 235.252 18.7813 235.252 18.312C235.252 17.6933 235.092 17.128 234.772 16.616C234.474 16.0827 234.058 15.656 233.524 15.336C233.012 15.016 232.426 14.856 231.764 14.856ZM231.732 29.416C229.578 29.416 227.85 28.7227 226.548 27.336C225.247 25.928 224.596 23.9973 224.596 21.544C224.596 19.9013 224.927 18.472 225.588 17.256C226.271 16.04 227.167 15.0907 228.276 14.408C229.407 13.7253 230.634 13.384 231.956 13.384C233.066 13.384 234.068 13.6293 234.964 14.12C235.86 14.6107 236.575 15.3147 237.108 16.232C237.642 17.128 237.908 18.2267 237.908 19.528C237.908 19.8907 237.887 20.232 237.844 20.552C237.802 20.8507 237.748 21.1067 237.684 21.32H227.476C227.519 23.2827 228.01 24.776 228.948 25.8C229.887 26.824 231.124 27.336 232.66 27.336C233.684 27.336 234.538 27.1333 235.22 26.728C235.903 26.3013 236.532 25.7573 237.108 25.096L237.876 25.704C237.279 26.8347 236.468 27.7413 235.444 28.424C234.42 29.0853 233.183 29.416 231.732 29.416ZM243.331 29.416C242.691 29.416 242.147 29.192 241.699 28.744C241.273 28.296 241.059 27.7627 241.059 27.144C241.059 26.504 241.273 25.96 241.699 25.512C242.147 25.064 242.691 24.84 243.331 24.84C243.971 24.84 244.505 25.064 244.931 25.512C245.379 25.96 245.603 26.504 245.603 27.144C245.603 27.7627 245.379 28.296 244.931 28.744C244.505 29.192 243.971 29.416 243.331 29.416ZM255.7 29.416C253.503 29.416 251.754 28.7013 250.452 27.272C249.151 25.8427 248.5 23.9013 248.5 21.448C248.5 19.7627 248.842 18.3227 249.524 17.128C250.228 15.912 251.146 14.984 252.276 14.344C253.407 13.704 254.612 13.384 255.892 13.384C256.852 13.384 257.738 13.5653 258.548 13.928C259.359 14.2907 260.031 14.792 260.564 15.432C261.098 16.0507 261.428 16.7547 261.556 17.544C261.407 18.3547 260.916 18.76 260.084 18.76C259.551 18.76 259.146 18.6213 258.868 18.344C258.612 18.0453 258.431 17.672 258.324 17.224L257.748 15.112C257.45 15.0053 257.151 14.9413 256.852 14.92C256.575 14.8773 256.298 14.856 256.02 14.856C254.655 14.856 253.524 15.3893 252.628 16.456C251.754 17.5227 251.316 19.08 251.316 21.128C251.316 23.1333 251.796 24.6693 252.756 25.736C253.716 26.8027 254.943 27.336 256.436 27.336C257.354 27.336 258.196 27.1333 258.964 26.728C259.732 26.3013 260.362 25.6933 260.852 24.904L261.652 25.32C261.204 26.6427 260.479 27.656 259.476 28.36C258.474 29.064 257.215 29.416 255.7 29.416ZM271.549 29.416C270.312 29.416 269.128 29.128 267.997 28.552C266.888 27.9547 265.981 27.0693 265.277 25.896C264.573 24.7013 264.221 23.2293 264.221 21.48C264.221 19.7093 264.573 18.2267 265.277 17.032C265.981 15.816 266.888 14.9093 267.997 14.312C269.128 13.6933 270.312 13.384 271.549 13.384C272.787 13.384 273.96 13.6933 275.069 14.312C276.2 14.9093 277.117 15.816 277.821 17.032C278.547 18.2267 278.909 19.7093 278.909 21.48C278.909 23.2293 278.547 24.7013 277.821 25.896C277.117 27.0693 276.2 27.9547 275.069 28.552C273.96 29.128 272.787 29.416 271.549 29.416ZM271.549 27.976C272.936 27.976 274.003 27.432 274.749 26.344C275.496 25.2347 275.869 23.6133 275.869 21.48C275.869 19.3253 275.496 17.6827 274.749 16.552C274.003 15.4213 272.936 14.856 271.549 14.856C270.163 14.856 269.096 15.4213 268.349 16.552C267.624 17.6827 267.261 19.3253 267.261 21.48C267.261 23.6133 267.624 25.2347 268.349 26.344C269.096 27.432 270.163 27.976 271.549 27.976ZM281.624 29V27.848L283.992 27.4C284.013 26.5893 284.024 25.7147 284.024 24.776C284.045 23.8373 284.056 23.0053 284.056 22.28V20.744C284.056 19.8693 284.045 19.144 284.024 18.568C284.024 17.992 284.002 17.384 283.96 16.744L281.432 16.456V15.336L285.912 13.384L286.392 13.704L286.648 16.296C287.394 15.4427 288.269 14.7493 289.272 14.216C290.274 13.6613 291.266 13.384 292.248 13.384C293.25 13.384 294.061 13.6187 294.68 14.088C295.32 14.5573 295.778 15.3253 296.056 16.392C296.866 15.3893 297.773 14.6427 298.776 14.152C299.778 13.64 300.802 13.384 301.848 13.384C303.149 13.384 304.152 13.8213 304.856 14.696C305.581 15.5707 305.944 17 305.944 18.984V22.28C305.944 23.0053 305.944 23.8373 305.944 24.776C305.965 25.7147 305.986 26.5893 306.008 27.4L308.248 27.848V29H300.824V27.848L303.192 27.4C303.213 26.6107 303.224 25.7467 303.224 24.808C303.245 23.848 303.256 23.0053 303.256 22.28V19.496C303.256 18.0027 303.042 17 302.616 16.488C302.189 15.9547 301.506 15.688 300.568 15.688C299.906 15.688 299.224 15.8373 298.52 16.136C297.837 16.4347 297.09 16.9573 296.28 17.704C296.301 17.9387 296.312 18.1947 296.312 18.472C296.333 18.728 296.344 19.0053 296.344 19.304V22.28C296.344 23.0053 296.344 23.8373 296.344 24.776C296.365 25.7147 296.386 26.5893 296.408 27.4L298.648 27.848V29H291.224V27.848L293.592 27.4C293.613 26.6107 293.624 25.7467 293.624 24.808C293.645 23.848 293.656 23.0053 293.656 22.28V19.56C293.656 18.1093 293.453 17.1067 293.048 16.552C292.642 15.976 291.97 15.688 291.032 15.688C290.306 15.688 289.613 15.8373 288.952 16.136C288.29 16.4347 287.565 16.9253 286.776 17.608V22.28C286.776 22.984 286.776 23.816 286.776 24.776C286.797 25.7147 286.818 26.5893 286.84 27.4L289.048 27.848V29H281.624ZM313.988 29.416C313.348 29.416 312.804 29.192 312.356 28.744C311.929 28.296 311.716 27.7627 311.716 27.144C311.716 26.504 311.929 25.96 312.356 25.512C312.804 25.064 313.348 24.84 313.988 24.84C314.628 24.84 315.161 25.064 315.588 25.512C316.036 25.96 316.26 26.504 316.26 27.144C316.26 27.7627 316.036 28.296 315.588 28.744C315.161 29.192 314.628 29.416 313.988 29.416ZM319.741 29V27.848L322.141 27.432C322.163 26.6213 322.173 25.7467 322.173 24.808C322.195 23.848 322.205 23.0053 322.205 22.28V8.232L319.581 7.912V6.792L324.477 5.352L324.925 5.608L324.797 10.152V15.848C325.565 14.9947 326.355 14.376 327.165 13.992C327.997 13.5867 328.851 13.384 329.725 13.384C330.856 13.384 331.88 13.6933 332.797 14.312C333.715 14.9307 334.44 15.8267 334.973 17C335.528 18.1733 335.805 19.592 335.805 21.256C335.805 22.8987 335.517 24.3387 334.941 25.576C334.365 26.792 333.576 27.7413 332.573 28.424C331.592 29.0853 330.472 29.416 329.213 29.416C328.467 29.416 327.72 29.256 326.973 28.936C326.227 28.616 325.501 28.0187 324.797 27.144L324.541 29.32L319.741 29ZM328.861 15.208C328.371 15.208 327.805 15.336 327.165 15.592C326.525 15.848 325.768 16.3387 324.893 17.064V25.832C325.555 26.4507 326.205 26.8987 326.845 27.176C327.485 27.4533 328.104 27.592 328.701 27.592C329.832 27.592 330.813 27.1013 331.645 26.12C332.499 25.1173 332.925 23.5813 332.925 21.512C332.925 19.464 332.541 17.9067 331.773 16.84C331.027 15.752 330.056 15.208 328.861 15.208ZM338.594 29V27.848L340.898 27.432C340.919 26.6213 340.93 25.7467 340.93 24.808C340.951 23.848 340.962 23.0053 340.962 22.28V20.744C340.962 19.8693 340.951 19.144 340.93 18.568C340.93 17.992 340.909 17.384 340.866 16.744L338.338 16.456V15.336L342.818 13.384L343.298 13.704L343.65 17.48C344.183 16.2 344.866 15.1973 345.698 14.472C346.551 13.7467 347.405 13.384 348.258 13.384C348.749 13.384 349.207 13.4907 349.634 13.704C350.061 13.9173 350.37 14.2053 350.562 14.568C350.562 16.1253 349.933 16.904 348.674 16.904C348.311 16.904 347.97 16.84 347.65 16.712C347.33 16.5627 347.021 16.36 346.722 16.104L346.338 15.752C345.698 16.2213 345.165 16.7973 344.738 17.48C344.311 18.1627 343.959 18.9627 343.682 19.88V22.28C343.682 22.984 343.682 23.8053 343.682 24.744C343.703 25.6827 343.725 26.5573 343.746 27.368L346.37 27.848V29H338.594Z" fill="#0D1320"/>
<path d="M0 31.4H350.786V33H0V31.4Z" fill="#0D1320"/>
<a href="mailto:contato@obstare.com.br">
<rect fill="black" fill-opacity="0" y="-0.0480003" width="350.786" height="40.096"/>
</a>
<path d="M7.52 90.536V83.368H0.928V81.544H7.52V74.536H9.472V81.544H16.064V83.368H9.472V90.536H7.52ZM31.656 86.568C31.656 87.9333 31.3467 89.128 30.728 90.152C30.1093 91.176 29.2347 91.976 28.104 92.552C26.9947 93.128 25.6933 93.416 24.2 93.416C20.8933 93.416 18.8987 91.912 18.216 88.904C18.4933 88.1787 19.0373 87.816 19.848 87.816C20.3387 87.816 20.712 87.9653 20.968 88.264C21.2453 88.5627 21.4907 89.1387 21.704 89.992L22.152 91.72C22.472 91.8053 22.7813 91.8693 23.08 91.912C23.4 91.9547 23.6987 91.976 23.976 91.976C25.5547 91.976 26.7493 91.5173 27.56 90.6C28.3707 89.6613 28.776 88.424 28.776 86.888C28.776 85.288 28.328 84.072 27.432 83.24C26.536 82.3867 25.32 81.96 23.784 81.96C22.8667 81.96 21.8853 82.0773 20.84 82.312L19.944 82.056L20.616 72.328H31.08V74.952H22.024L21.64 80.392C22.6 80.136 23.6027 80.008 24.648 80.008C26.7387 80.008 28.424 80.5733 29.704 81.704C31.0053 82.8133 31.656 84.4347 31.656 86.568ZM47.656 86.568C47.656 87.9333 47.3467 89.128 46.728 90.152C46.1093 91.176 45.2347 91.976 44.104 92.552C42.9947 93.128 41.6933 93.416 40.2 93.416C36.8933 93.416 34.8987 91.912 34.216 88.904C34.4933 88.1787 35.0373 87.816 35.848 87.816C36.3387 87.816 36.712 87.9653 36.968 88.264C37.2453 88.5627 37.4907 89.1387 37.704 89.992L38.152 91.72C38.472 91.8053 38.7813 91.8693 39.08 91.912C39.4 91.9547 39.6987 91.976 39.976 91.976C41.5547 91.976 42.7493 91.5173 43.56 90.6C44.3707 89.6613 44.776 88.424 44.776 86.888C44.776 85.288 44.328 84.072 43.432 83.24C42.536 82.3867 41.32 81.96 39.784 81.96C38.8667 81.96 37.8853 82.0773 36.84 82.312L35.944 82.056L36.616 72.328H47.08V74.952H38.024L37.64 80.392C38.6 80.136 39.6027 80.008 40.648 80.008C42.7387 80.008 44.424 80.5733 45.704 81.704C47.0053 82.8133 47.656 84.4347 47.656 86.568ZM59.1888 73.768L65.7808 72.072L66.2288 72.392L66.1008 76.968V86.248C66.1008 87.0373 66.1008 87.8373 66.1008 88.648C66.1221 89.4587 66.1434 90.2693 66.1648 91.08L70.7088 91.848V93H58.8368V91.848L63.3488 91.08C63.3701 90.2693 63.3808 89.4587 63.3808 88.648C63.4021 87.8373 63.4128 87.0373 63.4128 86.248V74.728L59.1888 75.08V73.768ZM76.2448 78.248C76.2448 79.8693 76.6501 81.0533 77.4608 81.8C78.2928 82.5253 79.2954 82.888 80.4688 82.888C81.8128 82.888 82.9754 82.4613 83.9568 81.608C83.9781 81.4587 83.9888 81.32 83.9888 81.192C83.9888 81.064 83.9888 80.9253 83.9888 80.776C83.9888 78.1733 83.6261 76.2853 82.9008 75.112C82.1968 73.9387 81.2581 73.352 80.0848 73.352C79.0394 73.352 78.1328 73.768 77.3648 74.6C76.6181 75.4107 76.2448 76.6267 76.2448 78.248ZM86.8688 80.232C86.8688 82.2587 86.4741 84.1787 85.6848 85.992C84.8954 87.784 83.6474 89.352 81.9408 90.696C80.2341 92.0187 77.9941 93 75.2208 93.64L74.9008 92.424C77.8021 91.464 79.9354 90.248 81.3008 88.776C82.6874 87.2827 83.5301 85.4267 83.8288 83.208C82.7408 84.2747 81.3328 84.808 79.6048 84.808C78.4741 84.808 77.4288 84.5627 76.4688 84.072C75.5301 83.56 74.7834 82.8347 74.2288 81.896C73.6741 80.9573 73.3968 79.8373 73.3968 78.536C73.3968 77.2133 73.6848 76.0613 74.2608 75.08C74.8368 74.0773 75.6368 73.2987 76.6608 72.744C77.6848 72.1893 78.8688 71.912 80.2128 71.912C82.3034 71.912 83.9354 72.6693 85.1088 74.184C86.2821 75.6773 86.8688 77.6933 86.8688 80.232ZM99.7135 78.248C99.7135 79.8693 100.119 81.0533 100.93 81.8C101.762 82.5253 102.764 82.888 103.938 82.888C105.282 82.888 106.444 82.4613 107.426 81.608C107.447 81.4587 107.458 81.32 107.458 81.192C107.458 81.064 107.458 80.9253 107.458 80.776C107.458 78.1733 107.095 76.2853 106.37 75.112C105.666 73.9387 104.727 73.352 103.554 73.352C102.508 73.352 101.602 73.768 100.834 74.6C100.087 75.4107 99.7135 76.6267 99.7135 78.248ZM110.338 80.232C110.338 82.2587 109.943 84.1787 109.154 85.992C108.364 87.784 107.116 89.352 105.41 90.696C103.703 92.0187 101.463 93 98.6895 93.64L98.3695 92.424C101.271 91.464 103.404 90.248 104.77 88.776C106.156 87.2827 106.999 85.4267 107.298 83.208C106.21 84.2747 104.802 84.808 103.074 84.808C101.943 84.808 100.898 84.5627 99.9375 84.072C98.9988 83.56 98.2522 82.8347 97.6975 81.896C97.1428 80.9573 96.8655 79.8373 96.8655 78.536C96.8655 77.2133 97.1535 76.0613 97.7295 75.08C98.3055 74.0773 99.1055 73.2987 100.13 72.744C101.154 72.1893 102.338 71.912 103.682 71.912C105.772 71.912 107.404 72.6693 108.578 74.184C109.751 75.6773 110.338 77.6933 110.338 80.232ZM114.658 73.768L121.25 72.072L121.698 72.392L121.57 76.968V86.248C121.57 87.0373 121.57 87.8373 121.57 88.648C121.591 89.4587 121.612 90.2693 121.634 91.08L126.178 91.848V93H114.306V91.848L118.818 91.08C118.839 90.2693 118.85 89.4587 118.85 88.648C118.871 87.8373 118.882 87.0373 118.882 86.248V74.728L114.658 75.08V73.768ZM129.506 93V90.92C130.359 90.088 131.18 89.2667 131.97 88.456C132.78 87.624 133.527 86.8453 134.21 86.12C135.81 84.4347 136.983 82.9093 137.73 81.544C138.476 80.1787 138.85 78.8773 138.85 77.64C138.85 76.3173 138.498 75.272 137.794 74.504C137.111 73.736 136.183 73.352 135.01 73.352C134.796 73.352 134.551 73.3627 134.274 73.384C134.018 73.4053 133.74 73.448 133.442 73.512L132.834 75.72C132.62 76.5093 132.364 77.0747 132.066 77.416C131.788 77.736 131.426 77.896 130.978 77.896C130.274 77.896 129.73 77.5547 129.346 76.872C129.474 75.7413 129.847 74.8133 130.466 74.088C131.084 73.3413 131.863 72.7973 132.802 72.456C133.74 72.0933 134.743 71.912 135.81 71.912C137.879 71.912 139.383 72.424 140.322 73.448C141.26 74.4507 141.73 75.752 141.73 77.352C141.73 78.2907 141.538 79.208 141.154 80.104C140.791 80.9787 140.151 81.9707 139.234 83.08C138.316 84.168 137.036 85.5013 135.394 87.08C134.967 87.5067 134.444 88.008 133.826 88.584C133.228 89.16 132.599 89.7573 131.938 90.376H142.658V93H129.506ZM149.378 81.32H150.658C152.108 81.32 153.228 80.9467 154.018 80.2C154.828 79.4533 155.234 78.3973 155.234 77.032C155.234 75.8587 154.892 74.952 154.21 74.312C153.548 73.672 152.588 73.352 151.33 73.352C151.116 73.352 150.892 73.3627 150.658 73.384C150.423 73.4053 150.156 73.4373 149.858 73.48L149.442 75.08C149.271 75.7413 149.058 76.2427 148.802 76.584C148.546 76.904 148.14 77.064 147.586 77.064C147.244 77.064 146.935 76.9787 146.658 76.808C146.38 76.6373 146.178 76.3493 146.049 75.944C146.327 74.6 146.999 73.5973 148.066 72.936C149.132 72.2533 150.402 71.912 151.874 71.912C153.751 71.912 155.244 72.3813 156.354 73.32C157.463 74.2373 158.018 75.4427 158.018 76.936C158.018 78.088 157.644 79.1227 156.898 80.04C156.172 80.936 155.148 81.6187 153.826 82.088C155.468 82.408 156.684 83.0267 157.474 83.944C158.263 84.8613 158.658 85.9813 158.658 87.304C158.658 88.456 158.359 89.4907 157.762 90.408C157.164 91.3253 156.332 92.0613 155.266 92.616C154.199 93.1493 152.94 93.416 151.49 93.416C149.932 93.416 148.588 93.064 147.458 92.36C146.348 91.6347 145.644 90.472 145.346 88.872C145.708 88.168 146.252 87.816 146.978 87.816C147.532 87.816 147.927 87.9973 148.161 88.36C148.418 88.7227 148.652 89.3093 148.866 90.12L149.282 91.784C149.644 91.8693 149.975 91.9227 150.274 91.944C150.572 91.9653 150.839 91.976 151.074 91.976C152.652 91.976 153.836 91.5707 154.626 90.76C155.415 89.928 155.81 88.7973 155.81 87.368C155.81 85.9813 155.404 84.8933 154.594 84.104C153.783 83.3147 152.556 82.92 150.914 82.92H149.378V81.32ZM161.218 86.024V83.912H168.642V86.024H161.218ZM185.394 86.824H182.034V93H179.378V86.824H170.674V85.128L180.178 72.04H182.034V84.808H185.394V86.824ZM172.594 84.808H179.378V75.368L172.594 84.808ZM200.562 86.568C200.562 87.9333 200.253 89.128 199.634 90.152C199.016 91.176 198.141 91.976 197.01 92.552C195.901 93.128 194.6 93.416 193.106 93.416C189.8 93.416 187.805 91.912 187.122 88.904C187.4 88.1787 187.944 87.816 188.754 87.816C189.245 87.816 189.618 87.9653 189.874 88.264C190.152 88.5627 190.397 89.1387 190.61 89.992L191.058 91.72C191.378 91.8053 191.688 91.8693 191.986 91.912C192.306 91.9547 192.605 91.976 192.882 91.976C194.461 91.976 195.656 91.5173 196.466 90.6C197.277 89.6613 197.682 88.424 197.682 86.888C197.682 85.288 197.234 84.072 196.338 83.24C195.442 82.3867 194.226 81.96 192.69 81.96C191.773 81.96 190.792 82.0773 189.746 82.312L188.85 82.056L189.522 72.328H199.986V74.952H190.93L190.546 80.392C191.506 80.136 192.509 80.008 193.554 80.008C195.645 80.008 197.33 80.5733 198.61 81.704C199.912 82.8133 200.562 84.4347 200.562 86.568ZM210.034 91.976C211.101 91.976 211.976 91.5173 212.658 90.6C213.341 89.6613 213.682 88.36 213.682 86.696C213.682 85.2027 213.341 84.0933 212.658 83.368C211.997 82.6213 211.112 82.248 210.002 82.248C209.362 82.248 208.712 82.3547 208.05 82.568C207.41 82.7813 206.781 83.144 206.162 83.656C206.141 83.8693 206.12 84.0933 206.098 84.328C206.098 84.5413 206.098 84.7653 206.098 85C206.098 87.432 206.461 89.2027 207.186 90.312C207.912 91.4213 208.861 91.976 210.034 91.976ZM216.53 86.632C216.53 87.976 216.221 89.16 215.602 90.184C214.984 91.208 214.184 92.008 213.202 92.584C212.221 93.1387 211.186 93.416 210.098 93.416C207.965 93.416 206.28 92.6373 205.042 91.08C203.805 89.5013 203.186 87.3467 203.186 84.616C203.186 82.4827 203.656 80.5093 204.594 78.696C205.554 76.8827 206.952 75.3787 208.786 74.184C210.621 72.968 212.84 72.2107 215.442 71.912L215.634 72.936C212.733 73.6827 210.546 74.8667 209.074 76.488C207.602 78.1093 206.685 80.04 206.322 82.28C207.688 80.9573 209.234 80.296 210.962 80.296C212.136 80.296 213.128 80.5733 213.938 81.128C214.77 81.6827 215.41 82.44 215.858 83.4C216.306 84.3387 216.53 85.416 216.53 86.632ZM222.162 92.68L230.61 74.952H219.538V72.328H232.754V73.96L225.138 93H222.482L222.162 92.68Z" fill="#0D1320"/>
</svg>
