<svg width="531" height="352" viewBox="0 0 531 352" fill="none" xmlns="http://www.w3.org/2000/svg">
<path fill-rule="evenodd" clip-rule="evenodd" d="M257.728 42.1533C293.167 40.5373 326.902 51.9696 357.474 63.4316C386.748 74.4068 406.313 92.2505 430.956 107.1C459.048 124.028 502.513 134.057 513.692 157.568C524.775 180.878 505.89 206.205 488.382 227.878C472.56 247.464 440.296 258.584 418.322 275.625C396.618 292.457 389.767 318.063 359.258 328.016C328.792 337.955 291.561 324.552 257.728 328.015C216.439 332.241 179.019 358.357 139.052 350.553C100.762 343.077 83.5168 313.928 67.0922 290.791C52.4282 270.134 60.4987 246.197 49.6523 224.616C37.644 200.723 -0.67527 182.384 0.00904939 157.314C0.691665 132.307 22.6839 107.161 53.2902 91.3445C83.4676 75.7498 128.255 80.9852 164.669 72.2234C197.637 64.2908 222.55 43.7574 257.728 42.1533Z" fill="#DBB2D1"/>
<path d="M109.43 143C108.769 143 108.438 142.648 108.438 141.944V121.624C108.438 120.92 108.79 120.568 109.494 120.568H118.198C120.31 120.568 121.91 121.059 122.998 122.04C124.107 123.021 124.662 124.483 124.662 126.424C124.662 128.365 124.107 129.827 122.998 130.808C121.91 131.789 120.31 132.28 118.198 132.28H110.39V141.944C110.39 142.648 110.07 143 109.43 143ZM110.39 130.392H118.038C119.574 130.392 120.715 130.072 121.462 129.432C122.23 128.792 122.614 127.789 122.614 126.424C122.614 125.059 122.23 124.056 121.462 123.416C120.715 122.776 119.574 122.456 118.038 122.456H110.39V130.392Z" fill="white"/>
<path d="M129.204 143C128.542 143 128.212 142.648 128.212 141.944V128.728C128.212 128.024 128.553 127.672 129.236 127.672C129.492 127.672 129.705 127.747 129.876 127.896C130.068 128.024 130.164 128.248 130.164 128.568V130.328C130.59 129.432 131.262 128.707 132.18 128.152C133.118 127.576 134.153 127.288 135.284 127.288C135.838 127.288 136.276 127.373 136.596 127.544C136.916 127.693 137.076 127.96 137.076 128.344C137.076 128.664 136.98 128.899 136.788 129.048C136.617 129.197 136.404 129.261 136.148 129.24C135.998 129.24 135.828 129.229 135.636 129.208C135.465 129.187 135.284 129.176 135.092 129.176C134.196 129.176 133.374 129.389 132.628 129.816C131.881 130.221 131.284 130.776 130.836 131.48C130.409 132.163 130.196 132.941 130.196 133.816V141.944C130.196 142.648 129.865 143 129.204 143Z" fill="white"/>
<path d="M146.483 143.352C145.118 143.352 143.902 143.011 142.835 142.328C141.768 141.645 140.926 140.707 140.307 139.512C139.688 138.296 139.379 136.899 139.379 135.32C139.379 133.741 139.688 132.355 140.307 131.16C140.926 129.944 141.768 128.995 142.835 128.312C143.902 127.629 145.118 127.288 146.483 127.288C147.87 127.288 149.096 127.629 150.163 128.312C151.23 128.995 152.072 129.944 152.691 131.16C153.31 132.355 153.619 133.741 153.619 135.32C153.619 136.899 153.31 138.296 152.691 139.512C152.072 140.707 151.23 141.645 150.163 142.328C149.096 143.011 147.87 143.352 146.483 143.352ZM146.483 141.528C147.486 141.528 148.371 141.272 149.139 140.76C149.928 140.248 150.547 139.533 150.995 138.616C151.443 137.677 151.667 136.579 151.667 135.32C151.667 134.061 151.443 132.973 150.995 132.056C150.547 131.117 149.928 130.392 149.139 129.88C148.371 129.368 147.486 129.112 146.483 129.112C144.99 129.112 143.752 129.677 142.771 130.808C141.811 131.917 141.331 133.421 141.331 135.32C141.331 137.197 141.811 138.701 142.771 139.832C143.752 140.963 144.99 141.528 146.483 141.528Z" fill="white"/>
<path d="M158.997 143C158.357 143 158.037 142.648 158.037 141.944V128.728C158.037 128.024 158.357 127.672 158.997 127.672C159.637 127.672 159.957 128.024 159.957 128.728V141.944C159.957 142.648 159.637 143 158.997 143ZM158.997 124.344C158.592 124.344 158.24 124.205 157.941 123.928C157.642 123.629 157.493 123.277 157.493 122.872C157.493 122.445 157.642 122.093 157.941 121.816C158.24 121.539 158.592 121.4 158.997 121.4C159.402 121.4 159.744 121.539 160.021 121.816C160.298 122.093 160.437 122.445 160.437 122.872C160.437 123.277 160.298 123.629 160.021 123.928C159.744 124.205 159.402 124.344 158.997 124.344Z" fill="white"/>
<path d="M172.412 143.352C171.238 143.352 170.193 143.075 169.276 142.52C168.358 141.944 167.622 141.144 167.068 140.12V142.104C167.068 142.424 166.982 142.659 166.812 142.808C166.641 142.936 166.417 143 166.14 143C165.521 143 165.212 142.648 165.212 141.944V120.952C165.212 120.248 165.542 119.896 166.204 119.896C166.844 119.896 167.164 120.248 167.164 120.952V130.36C167.718 129.421 168.444 128.685 169.34 128.152C170.236 127.597 171.26 127.32 172.412 127.32C173.777 127.32 174.993 127.661 176.06 128.344C177.126 129.005 177.958 129.933 178.556 131.128C179.174 132.323 179.484 133.72 179.484 135.32C179.484 136.92 179.174 138.328 178.556 139.544C177.958 140.739 177.126 141.677 176.06 142.36C174.993 143.021 173.777 143.352 172.412 143.352ZM172.38 141.528C173.382 141.528 174.268 141.272 175.036 140.76C175.825 140.248 176.444 139.533 176.892 138.616C177.34 137.677 177.564 136.579 177.564 135.32C177.564 134.061 177.34 132.973 176.892 132.056C176.444 131.139 175.825 130.424 175.036 129.912C174.268 129.4 173.382 129.144 172.38 129.144C170.865 129.144 169.617 129.709 168.636 130.84C167.654 131.949 167.164 133.443 167.164 135.32C167.164 137.197 167.654 138.701 168.636 139.832C169.617 140.963 170.865 141.528 172.38 141.528Z" fill="white"/>
<path d="M184.903 143C184.263 143 183.943 142.648 183.943 141.944V128.728C183.943 128.024 184.263 127.672 184.903 127.672C185.543 127.672 185.863 128.024 185.863 128.728V141.944C185.863 142.648 185.543 143 184.903 143ZM184.903 124.344C184.498 124.344 184.146 124.205 183.847 123.928C183.549 123.629 183.399 123.277 183.399 122.872C183.399 122.445 183.549 122.093 183.847 121.816C184.146 121.539 184.498 121.4 184.903 121.4C185.309 121.4 185.65 121.539 185.927 121.816C186.205 122.093 186.343 122.445 186.343 122.872C186.343 123.277 186.205 123.629 185.927 123.928C185.65 124.205 185.309 124.344 184.903 124.344Z" fill="white"/>
<path d="M192.11 143C191.449 143 191.118 142.648 191.118 141.944V128.728C191.118 128.024 191.459 127.672 192.142 127.672C192.398 127.672 192.611 127.747 192.782 127.896C192.974 128.024 193.07 128.248 193.07 128.568V130.328C193.497 129.432 194.169 128.707 195.086 128.152C196.025 127.576 197.059 127.288 198.19 127.288C198.745 127.288 199.182 127.373 199.502 127.544C199.822 127.693 199.982 127.96 199.982 128.344C199.982 128.664 199.886 128.899 199.694 129.048C199.523 129.197 199.31 129.261 199.054 129.24C198.905 129.24 198.734 129.229 198.542 129.208C198.371 129.187 198.19 129.176 197.998 129.176C197.102 129.176 196.281 129.389 195.534 129.816C194.787 130.221 194.19 130.776 193.742 131.48C193.315 132.163 193.102 132.941 193.102 133.816V141.944C193.102 142.648 192.771 143 192.11 143Z" fill="white"/>
<path d="M216.214 143.288C214.721 143.309 213.505 142.968 212.566 142.264C211.649 141.56 211.19 140.536 211.19 139.192C211.19 138.168 211.531 137.272 212.214 136.504C212.918 135.736 213.803 135.139 214.87 134.712C215.958 134.264 217.078 134.04 218.23 134.04C219.809 134.04 221.057 134.413 221.974 135.16V132.536C221.974 131.107 221.675 130.179 221.078 129.752C220.481 129.304 219.521 129.08 218.198 129.08C217.494 129.08 216.715 129.187 215.862 129.4C215.03 129.613 214.273 129.891 213.59 130.232C212.95 130.488 212.491 130.392 212.214 129.944C211.894 129.389 212.065 128.963 212.726 128.664C213.515 128.259 214.401 127.928 215.382 127.672C216.385 127.416 217.323 127.288 218.198 127.288C220.139 127.288 221.569 127.661 222.486 128.408C223.403 129.155 223.862 130.531 223.862 132.536V141.016C223.862 141.293 223.915 141.464 224.022 141.528C224.129 141.592 224.353 141.624 224.694 141.624C224.971 141.624 225.206 141.677 225.398 141.784C225.59 141.869 225.686 142.019 225.686 142.232C225.686 142.765 225.419 143.075 224.886 143.16C224.715 143.203 224.534 143.235 224.342 143.256C224.15 143.277 223.969 143.288 223.798 143.288C223.073 143.288 222.603 143.139 222.39 142.84C222.177 142.541 222.049 141.976 222.006 141.144C221.345 141.869 220.47 142.403 219.382 142.744C218.294 143.085 217.238 143.267 216.214 143.288ZM216.31 141.528C217.334 141.507 218.283 141.347 219.158 141.048C220.054 140.749 220.758 140.323 221.27 139.768C221.803 139.192 222.049 138.499 222.006 137.688C221.942 137.027 221.579 136.536 220.918 136.216C220.257 135.875 219.403 135.715 218.358 135.736C217.483 135.736 216.641 135.885 215.83 136.184C215.019 136.483 214.358 136.899 213.846 137.432C213.355 137.944 213.11 138.541 213.11 139.224C213.11 140.013 213.409 140.6 214.006 140.984C214.603 141.347 215.371 141.528 216.31 141.528Z" fill="white"/>
<path d="M239.204 149.656C238.542 149.656 238.212 149.304 238.212 148.6V128.728C238.212 128.024 238.521 127.672 239.14 127.672C239.737 127.672 240.036 127.885 240.036 128.312L240.068 130.456C240.622 129.453 241.358 128.675 242.276 128.12C243.193 127.565 244.238 127.288 245.412 127.288C246.777 127.288 247.993 127.629 249.06 128.312C250.126 128.973 250.958 129.912 251.556 131.128C252.174 132.323 252.484 133.72 252.484 135.32C252.484 136.92 252.174 138.328 251.556 139.544C250.958 140.739 250.126 141.677 249.06 142.36C247.993 143.021 246.777 143.352 245.412 143.352C244.26 143.352 243.236 143.075 242.34 142.52C241.444 141.965 240.718 141.219 240.164 140.28V148.6C240.164 149.304 239.844 149.656 239.204 149.656ZM245.38 141.528C246.382 141.528 247.268 141.272 248.036 140.76C248.825 140.248 249.444 139.533 249.892 138.616C250.34 137.677 250.564 136.579 250.564 135.32C250.564 134.061 250.34 132.973 249.892 132.056C249.444 131.117 248.825 130.392 248.036 129.88C247.268 129.368 246.382 129.112 245.38 129.112C243.865 129.112 242.617 129.677 241.636 130.808C240.654 131.917 240.164 133.421 240.164 135.32C240.164 137.197 240.654 138.701 241.636 139.832C242.617 140.963 243.865 141.528 245.38 141.528Z" fill="white"/>
<path d="M257.391 143C256.73 143 256.399 142.648 256.399 141.944V128.728C256.399 128.024 256.741 127.672 257.423 127.672C257.679 127.672 257.893 127.747 258.063 127.896C258.255 128.024 258.351 128.248 258.351 128.568V130.328C258.778 129.432 259.45 128.707 260.367 128.152C261.306 127.576 262.341 127.288 263.471 127.288C264.026 127.288 264.463 127.373 264.783 127.544C265.103 127.693 265.263 127.96 265.263 128.344C265.263 128.664 265.167 128.899 264.975 129.048C264.805 129.197 264.591 129.261 264.335 129.24C264.186 129.24 264.015 129.229 263.823 129.208C263.653 129.187 263.471 129.176 263.279 129.176C262.383 129.176 261.562 129.389 260.815 129.816C260.069 130.221 259.471 130.776 259.023 131.48C258.597 132.163 258.383 132.941 258.383 133.816V141.944C258.383 142.648 258.053 143 257.391 143Z" fill="white"/>
<path d="M274.703 143.352C273.316 143.352 272.079 143.032 270.991 142.392C269.924 141.731 269.081 140.803 268.462 139.608C267.865 138.392 267.566 136.963 267.566 135.32C267.566 133.72 267.865 132.323 268.462 131.128C269.081 129.933 269.924 129.005 270.991 128.344C272.057 127.661 273.273 127.32 274.638 127.32C276.025 127.32 277.199 127.661 278.159 128.344C279.14 129.027 279.886 129.891 280.398 130.936C280.91 131.981 281.167 133.048 281.167 134.136C281.167 134.52 281.071 134.787 280.879 134.936C280.708 135.085 280.452 135.16 280.111 135.16H269.518C269.476 137.08 269.924 138.637 270.862 139.832C271.822 141.005 273.113 141.592 274.734 141.592C276.74 141.592 278.233 140.685 279.215 138.872C279.641 138.317 280.078 138.168 280.526 138.424C281.081 138.787 281.156 139.267 280.75 139.864C279.406 142.189 277.391 143.352 274.703 143.352ZM269.647 133.496H279.246C279.14 132.664 278.873 131.907 278.447 131.224C278.041 130.541 277.508 129.997 276.846 129.592C276.206 129.187 275.47 128.984 274.638 128.984C273.337 128.984 272.238 129.389 271.342 130.2C270.468 130.989 269.903 132.088 269.647 133.496Z" fill="white"/>
<path d="M290.46 143.352C289.286 143.352 288.209 143.16 287.228 142.776C286.268 142.371 285.457 141.805 284.796 141.08C284.518 140.845 284.39 140.611 284.412 140.376C284.433 140.12 284.55 139.896 284.764 139.704C285.169 139.363 285.638 139.405 286.172 139.832C286.662 140.387 287.281 140.813 288.028 141.112C288.796 141.411 289.628 141.56 290.524 141.56C291.569 141.56 292.454 141.336 293.18 140.888C293.926 140.419 294.3 139.693 294.3 138.712C294.3 137.837 293.948 137.229 293.244 136.888C292.54 136.547 291.462 136.227 290.012 135.928C289.116 135.736 288.262 135.501 287.452 135.224C286.662 134.947 286.022 134.531 285.532 133.976C285.041 133.4 284.796 132.611 284.796 131.608C284.796 130.691 285.041 129.912 285.532 129.272C286.044 128.632 286.716 128.141 287.548 127.8C288.38 127.459 289.265 127.288 290.204 127.288C292.294 127.288 293.884 127.939 294.972 129.24C295.27 129.453 295.42 129.677 295.42 129.912C295.42 130.147 295.313 130.36 295.1 130.552C294.886 130.765 294.662 130.861 294.428 130.84C294.214 130.797 293.98 130.68 293.724 130.488C292.934 129.549 291.772 129.08 290.236 129.08C289.126 129.08 288.273 129.325 287.676 129.816C287.078 130.285 286.78 130.872 286.78 131.576C286.78 132.365 287.1 132.931 287.74 133.272C288.401 133.592 289.414 133.901 290.78 134.2C291.74 134.413 292.636 134.68 293.468 135C294.321 135.32 295.004 135.768 295.516 136.344C296.028 136.92 296.284 137.72 296.284 138.744C296.284 140.109 295.75 141.219 294.684 142.072C293.638 142.925 292.23 143.352 290.46 143.352Z" fill="white"/>
<path d="M306.14 143.352C304.753 143.352 303.516 143.032 302.428 142.392C301.361 141.731 300.519 140.803 299.9 139.608C299.303 138.392 299.004 136.963 299.004 135.32C299.004 133.72 299.303 132.323 299.9 131.128C300.519 129.933 301.361 129.005 302.428 128.344C303.495 127.661 304.711 127.32 306.076 127.32C307.463 127.32 308.636 127.661 309.596 128.344C310.577 129.027 311.324 129.891 311.836 130.936C312.348 131.981 312.604 133.048 312.604 134.136C312.604 134.52 312.508 134.787 312.316 134.936C312.145 135.085 311.889 135.16 311.548 135.16H300.956C300.913 137.08 301.361 138.637 302.3 139.832C303.26 141.005 304.551 141.592 306.172 141.592C308.177 141.592 309.671 140.685 310.652 138.872C311.079 138.317 311.516 138.168 311.964 138.424C312.519 138.787 312.593 139.267 312.188 139.864C310.844 142.189 308.828 143.352 306.14 143.352ZM301.084 133.496H310.684C310.577 132.664 310.311 131.907 309.884 131.224C309.479 130.541 308.945 129.997 308.284 129.592C307.644 129.187 306.908 128.984 306.076 128.984C304.775 128.984 303.676 129.389 302.78 130.2C301.905 130.989 301.34 132.088 301.084 133.496Z" fill="white"/>
<path d="M317.641 143C316.98 143 316.649 142.648 316.649 141.944V128.728C316.649 128.024 316.959 127.672 317.577 127.672C318.196 127.672 318.505 127.907 318.505 128.376L318.537 129.848C319.028 129.123 319.679 128.515 320.489 128.024C321.321 127.533 322.26 127.288 323.305 127.288C324.948 127.288 326.271 127.811 327.273 128.856C328.276 129.901 328.777 131.395 328.777 133.336V141.944C328.777 142.648 328.457 143 327.817 143C327.177 143 326.857 142.648 326.857 141.944V133.624C326.857 132.131 326.495 131.011 325.769 130.264C325.065 129.517 324.148 129.144 323.017 129.144C322.164 129.144 321.396 129.336 320.713 129.72C320.052 130.083 319.529 130.584 319.145 131.224C318.783 131.843 318.601 132.536 318.601 133.304V141.944C318.601 142.648 318.281 143 317.641 143Z" fill="white"/>
<path d="M339.796 143.352C338.43 143.352 337.214 143.021 336.147 142.36C335.081 141.677 334.238 140.728 333.62 139.512C333.001 138.296 332.691 136.899 332.691 135.32C332.691 133.741 333.001 132.355 333.62 131.16C334.238 129.944 335.081 129.005 336.147 128.344C337.214 127.661 338.43 127.32 339.796 127.32C341.63 127.32 343.177 127.917 344.435 129.112C344.713 129.325 344.841 129.56 344.819 129.816C344.798 130.072 344.67 130.296 344.435 130.488C344.179 130.659 343.945 130.733 343.732 130.712C343.54 130.691 343.305 130.573 343.027 130.36C342.11 129.549 341.033 129.144 339.796 129.144C338.302 129.144 337.065 129.709 336.083 130.84C335.123 131.949 334.643 133.443 334.643 135.32C334.643 137.197 335.123 138.701 336.083 139.832C337.065 140.963 338.302 141.528 339.796 141.528C341.054 141.528 342.121 141.123 342.996 140.312C343.252 140.099 343.486 139.981 343.699 139.96C343.934 139.917 344.179 139.981 344.435 140.152C344.67 140.344 344.798 140.568 344.819 140.824C344.841 141.059 344.723 141.293 344.467 141.528C343.187 142.744 341.63 143.352 339.796 143.352ZM338.228 148.632C337.652 148.632 337.363 148.419 337.363 147.992C337.363 147.565 337.652 147.352 338.228 147.352C339.358 147.309 340.179 147.224 340.691 147.096C341.225 146.968 341.491 146.755 341.491 146.456C341.491 145.859 340.745 145.517 339.251 145.432C338.611 145.389 338.377 145.091 338.547 144.536L338.772 143.704C338.9 143.235 339.198 143 339.668 143C340.094 143 340.244 143.224 340.116 143.672L339.892 144.312C340.83 144.419 341.588 144.653 342.164 145.016C342.761 145.379 343.06 145.859 343.06 146.456C343.06 147.203 342.643 147.736 341.811 148.056C341.001 148.397 339.806 148.589 338.228 148.632Z" fill="white"/>
<path d="M353.183 143.288C351.689 143.309 350.473 142.968 349.535 142.264C348.617 141.56 348.159 140.536 348.159 139.192C348.159 138.168 348.5 137.272 349.183 136.504C349.887 135.736 350.772 135.139 351.839 134.712C352.927 134.264 354.047 134.04 355.199 134.04C356.777 134.04 358.025 134.413 358.943 135.16V132.536C358.943 131.107 358.644 130.179 358.047 129.752C357.449 129.304 356.489 129.08 355.167 129.08C354.463 129.08 353.684 129.187 352.831 129.4C351.999 129.613 351.241 129.891 350.559 130.232C349.919 130.488 349.46 130.392 349.183 129.944C348.863 129.389 349.033 128.963 349.695 128.664C350.484 128.259 351.369 127.928 352.351 127.672C353.353 127.416 354.292 127.288 355.167 127.288C357.108 127.288 358.537 127.661 359.455 128.408C360.372 129.155 360.831 130.531 360.831 132.536V141.016C360.831 141.293 360.884 141.464 360.991 141.528C361.097 141.592 361.321 141.624 361.663 141.624C361.94 141.624 362.175 141.677 362.367 141.784C362.559 141.869 362.655 142.019 362.655 142.232C362.655 142.765 362.388 143.075 361.855 143.16C361.684 143.203 361.503 143.235 361.311 143.256C361.119 143.277 360.937 143.288 360.767 143.288C360.041 143.288 359.572 143.139 359.359 142.84C359.145 142.541 359.017 141.976 358.975 141.144C358.313 141.869 357.439 142.403 356.351 142.744C355.263 143.085 354.207 143.267 353.183 143.288ZM353.279 141.528C354.303 141.507 355.252 141.347 356.127 141.048C357.023 140.749 357.727 140.323 358.239 139.768C358.772 139.192 359.017 138.499 358.975 137.688C358.911 137.027 358.548 136.536 357.887 136.216C357.225 135.875 356.372 135.715 355.327 135.736C354.452 135.736 353.609 135.885 352.799 136.184C351.988 136.483 351.327 136.899 350.815 137.432C350.324 137.944 350.079 138.541 350.079 139.224C350.079 140.013 350.377 140.6 350.975 140.984C351.572 141.347 352.34 141.528 353.279 141.528Z" fill="white"/>
<path d="M381.421 143.352C380.055 143.352 378.839 143.021 377.772 142.36C376.706 141.677 375.863 140.739 375.245 139.544C374.626 138.328 374.316 136.92 374.316 135.32C374.316 133.72 374.626 132.323 375.245 131.128C375.863 129.933 376.706 129.005 377.772 128.344C378.839 127.661 380.055 127.32 381.421 127.32C382.573 127.32 383.596 127.597 384.492 128.152C385.388 128.685 386.103 129.421 386.637 130.36V120.952C386.637 120.248 386.956 119.896 387.596 119.896C388.258 119.896 388.589 120.248 388.589 120.952V141.944C388.589 142.648 388.29 143 387.693 143C387.095 143 386.797 142.776 386.797 142.328L386.764 140.184C386.21 141.165 385.474 141.944 384.556 142.52C383.639 143.075 382.594 143.352 381.421 143.352ZM381.484 141.528C382.487 141.528 383.373 141.272 384.141 140.76C384.93 140.248 385.548 139.533 385.996 138.616C386.444 137.677 386.668 136.579 386.668 135.32C386.668 134.061 386.444 132.973 385.996 132.056C385.548 131.139 384.93 130.424 384.141 129.912C383.373 129.4 382.487 129.144 381.484 129.144C380.482 129.144 379.586 129.4 378.797 129.912C378.007 130.424 377.388 131.139 376.94 132.056C376.492 132.973 376.268 134.061 376.268 135.32C376.268 136.579 376.492 137.677 376.94 138.616C377.388 139.533 378.007 140.248 378.797 140.76C379.586 141.272 380.482 141.528 381.484 141.528Z" fill="white"/>
<path d="M399.608 143.352C398.243 143.352 397.027 143.011 395.96 142.328C394.893 141.645 394.051 140.707 393.432 139.512C392.813 138.296 392.504 136.899 392.504 135.32C392.504 133.741 392.813 132.355 393.432 131.16C394.051 129.944 394.893 128.995 395.96 128.312C397.027 127.629 398.243 127.288 399.608 127.288C400.995 127.288 402.221 127.629 403.288 128.312C404.355 128.995 405.197 129.944 405.816 131.16C406.435 132.355 406.744 133.741 406.744 135.32C406.744 136.899 406.435 138.296 405.816 139.512C405.197 140.707 404.355 141.645 403.288 142.328C402.221 143.011 400.995 143.352 399.608 143.352ZM399.608 141.528C400.611 141.528 401.496 141.272 402.264 140.76C403.053 140.248 403.672 139.533 404.12 138.616C404.568 137.677 404.792 136.579 404.792 135.32C404.792 134.061 404.568 132.973 404.12 132.056C403.672 131.117 403.053 130.392 402.264 129.88C401.496 129.368 400.611 129.112 399.608 129.112C398.115 129.112 396.877 129.677 395.896 130.808C394.936 131.917 394.456 133.421 394.456 135.32C394.456 137.197 394.936 138.701 395.896 139.832C396.877 140.963 398.115 141.528 399.608 141.528Z" fill="white"/>
<path d="M88.6984 189.288C87.205 189.309 85.989 188.968 85.0504 188.264C84.133 187.56 83.6744 186.536 83.6744 185.192C83.6744 184.168 84.0157 183.272 84.6984 182.504C85.4024 181.736 86.2877 181.139 87.3544 180.712C88.4424 180.264 89.5624 180.04 90.7144 180.04C92.293 180.04 93.541 180.413 94.4584 181.16V178.536C94.4584 177.107 94.1597 176.179 93.5624 175.752C92.965 175.304 92.005 175.08 90.6824 175.08C89.9784 175.08 89.1997 175.187 88.3464 175.4C87.5144 175.613 86.757 175.891 86.0744 176.232C85.4344 176.488 84.9757 176.392 84.6984 175.944C84.3784 175.389 84.549 174.963 85.2104 174.664C85.9997 174.259 86.885 173.928 87.8664 173.672C88.869 173.416 89.8077 173.288 90.6824 173.288C92.6237 173.288 94.053 173.661 94.9704 174.408C95.8877 175.155 96.3464 176.531 96.3464 178.536V187.016C96.3464 187.293 96.3997 187.464 96.5064 187.528C96.613 187.592 96.837 187.624 97.1784 187.624C97.4557 187.624 97.6904 187.677 97.8824 187.784C98.0744 187.869 98.1704 188.019 98.1704 188.232C98.1704 188.765 97.9037 189.075 97.3704 189.16C97.1997 189.203 97.0184 189.235 96.8264 189.256C96.6344 189.277 96.453 189.288 96.2824 189.288C95.557 189.288 95.0877 189.139 94.8744 188.84C94.661 188.541 94.533 187.976 94.4904 187.144C93.829 187.869 92.9544 188.403 91.8664 188.744C90.7784 189.085 89.7224 189.267 88.6984 189.288ZM88.7944 187.528C89.8184 187.507 90.7677 187.347 91.6424 187.048C92.5384 186.749 93.2424 186.323 93.7544 185.768C94.2877 185.192 94.533 184.499 94.4904 183.688C94.4264 183.027 94.0637 182.536 93.4024 182.216C92.741 181.875 91.8877 181.715 90.8424 181.736C89.9677 181.736 89.125 181.885 88.3144 182.184C87.5037 182.483 86.8424 182.899 86.3304 183.432C85.8397 183.944 85.5944 184.541 85.5944 185.224C85.5944 186.013 85.893 186.6 86.4904 186.984C87.0877 187.347 87.8557 187.528 88.7944 187.528Z" fill="white"/>
<path d="M107.342 189.352C105.977 189.352 104.761 189.021 103.694 188.36C102.628 187.677 101.785 186.728 101.166 185.512C100.548 184.296 100.238 182.899 100.238 181.32C100.238 179.741 100.548 178.355 101.166 177.16C101.785 175.944 102.628 175.005 103.694 174.344C104.761 173.661 105.977 173.32 107.342 173.32C109.177 173.32 110.724 173.917 111.982 175.112C112.26 175.325 112.388 175.56 112.366 175.816C112.345 176.072 112.217 176.296 111.982 176.488C111.726 176.659 111.492 176.733 111.278 176.712C111.086 176.691 110.852 176.573 110.574 176.36C109.657 175.549 108.58 175.144 107.342 175.144C105.849 175.144 104.612 175.709 103.63 176.84C102.67 177.949 102.19 179.443 102.19 181.32C102.19 183.197 102.67 184.701 103.63 185.832C104.612 186.963 105.849 187.528 107.342 187.528C108.601 187.528 109.668 187.123 110.542 186.312C110.798 186.099 111.033 185.981 111.246 185.96C111.481 185.917 111.726 185.981 111.982 186.152C112.217 186.344 112.345 186.568 112.366 186.824C112.388 187.059 112.27 187.293 112.014 187.528C110.734 188.744 109.177 189.352 107.342 189.352Z" fill="white"/>
<path d="M122.249 189.352C120.883 189.352 119.667 189.011 118.601 188.328C117.534 187.645 116.691 186.707 116.073 185.512C115.454 184.296 115.145 182.899 115.145 181.32C115.145 179.741 115.454 178.355 116.073 177.16C116.691 175.944 117.534 174.995 118.601 174.312C119.667 173.629 120.883 173.288 122.249 173.288C123.635 173.288 124.862 173.629 125.929 174.312C126.995 174.995 127.838 175.944 128.457 177.16C129.075 178.355 129.385 179.741 129.385 181.32C129.385 182.899 129.075 184.296 128.457 185.512C127.838 186.707 126.995 187.645 125.929 188.328C124.862 189.011 123.635 189.352 122.249 189.352ZM122.249 187.528C123.251 187.528 124.137 187.272 124.905 186.76C125.694 186.248 126.313 185.533 126.761 184.616C127.209 183.677 127.433 182.579 127.433 181.32C127.433 180.061 127.209 178.973 126.761 178.056C126.313 177.117 125.694 176.392 124.905 175.88C124.137 175.368 123.251 175.112 122.249 175.112C120.755 175.112 119.518 175.677 118.537 176.808C117.577 177.917 117.097 179.421 117.097 181.32C117.097 183.197 117.577 184.701 118.537 185.832C119.518 186.963 120.755 187.528 122.249 187.528Z" fill="white"/>
<path d="M134.251 189C133.589 189 133.259 188.648 133.259 187.944V174.728C133.259 174.024 133.568 173.672 134.187 173.672C134.805 173.672 135.115 173.907 135.115 174.376L135.179 176.072C135.52 175.283 136.085 174.621 136.875 174.088C137.664 173.555 138.56 173.288 139.563 173.288C140.8 173.288 141.813 173.576 142.603 174.152C143.413 174.728 143.957 175.528 144.235 176.552C144.597 175.613 145.173 174.835 145.963 174.216C146.752 173.597 147.765 173.288 149.003 173.288C150.581 173.288 151.819 173.789 152.715 174.792C153.611 175.773 154.059 177.256 154.059 179.24V187.944C154.059 188.648 153.739 189 153.099 189C152.437 189 152.107 188.648 152.107 187.944V179.528C152.107 177.907 151.797 176.765 151.179 176.104C150.56 175.443 149.728 175.112 148.683 175.112C147.872 175.112 147.157 175.325 146.539 175.752C145.941 176.157 145.472 176.701 145.131 177.384C144.811 178.045 144.651 178.771 144.651 179.56V187.944C144.651 188.648 144.331 189 143.691 189C143.029 189 142.699 188.648 142.699 187.944V179.528C142.699 177.907 142.379 176.765 141.739 176.104C141.12 175.443 140.288 175.112 139.243 175.112C138.432 175.112 137.717 175.325 137.099 175.752C136.501 176.179 136.032 176.733 135.691 177.416C135.371 178.077 135.211 178.781 135.211 179.528V187.944C135.211 188.648 134.891 189 134.251 189Z" fill="white"/>
<path d="M159.813 195.656C159.152 195.656 158.821 195.304 158.821 194.6V174.728C158.821 174.024 159.13 173.672 159.749 173.672C160.346 173.672 160.645 173.885 160.645 174.312L160.677 176.456C161.232 175.453 161.968 174.675 162.885 174.12C163.802 173.565 164.848 173.288 166.021 173.288C167.386 173.288 168.602 173.629 169.669 174.312C170.736 174.973 171.568 175.912 172.165 177.128C172.784 178.323 173.093 179.72 173.093 181.32C173.093 182.92 172.784 184.328 172.165 185.544C171.568 186.739 170.736 187.677 169.669 188.36C168.602 189.021 167.386 189.352 166.021 189.352C164.869 189.352 163.845 189.075 162.949 188.52C162.053 187.965 161.328 187.219 160.773 186.28V194.6C160.773 195.304 160.453 195.656 159.813 195.656ZM165.989 187.528C166.992 187.528 167.877 187.272 168.645 186.76C169.434 186.248 170.053 185.533 170.501 184.616C170.949 183.677 171.173 182.579 171.173 181.32C171.173 180.061 170.949 178.973 170.501 178.056C170.053 177.117 169.434 176.392 168.645 175.88C167.877 175.368 166.992 175.112 165.989 175.112C164.474 175.112 163.226 175.677 162.245 176.808C161.264 177.917 160.773 179.421 160.773 181.32C160.773 183.197 161.264 184.701 162.245 185.832C163.226 186.963 164.474 187.528 165.989 187.528Z" fill="white"/>
<path d="M180.792 189.288C179.299 189.309 178.083 188.968 177.144 188.264C176.227 187.56 175.768 186.536 175.768 185.192C175.768 184.168 176.109 183.272 176.792 182.504C177.496 181.736 178.381 181.139 179.448 180.712C180.536 180.264 181.656 180.04 182.808 180.04C184.387 180.04 185.635 180.413 186.552 181.16V178.536C186.552 177.107 186.253 176.179 185.656 175.752C185.059 175.304 184.099 175.08 182.776 175.08C182.072 175.08 181.293 175.187 180.44 175.4C179.608 175.613 178.851 175.891 178.168 176.232C177.528 176.488 177.069 176.392 176.792 175.944C176.472 175.389 176.643 174.963 177.304 174.664C178.093 174.259 178.979 173.928 179.96 173.672C180.963 173.416 181.901 173.288 182.776 173.288C184.717 173.288 186.147 173.661 187.064 174.408C187.981 175.155 188.44 176.531 188.44 178.536V187.016C188.44 187.293 188.493 187.464 188.6 187.528C188.707 187.592 188.931 187.624 189.272 187.624C189.549 187.624 189.784 187.677 189.976 187.784C190.168 187.869 190.264 188.019 190.264 188.232C190.264 188.765 189.997 189.075 189.464 189.16C189.293 189.203 189.112 189.235 188.92 189.256C188.728 189.277 188.547 189.288 188.376 189.288C187.651 189.288 187.181 189.139 186.968 188.84C186.755 188.541 186.627 187.976 186.584 187.144C185.923 187.869 185.048 188.403 183.96 188.744C182.872 189.085 181.816 189.267 180.792 189.288ZM180.888 187.528C181.912 187.507 182.861 187.347 183.736 187.048C184.632 186.749 185.336 186.323 185.848 185.768C186.381 185.192 186.627 184.499 186.584 183.688C186.52 183.027 186.157 182.536 185.496 182.216C184.835 181.875 183.981 181.715 182.936 181.736C182.061 181.736 181.219 181.885 180.408 182.184C179.597 182.483 178.936 182.899 178.424 183.432C177.933 183.944 177.688 184.541 177.688 185.224C177.688 186.013 177.987 186.6 178.584 186.984C179.181 187.347 179.949 187.528 180.888 187.528Z" fill="white"/>
<path d="M194.813 189C194.152 189 193.821 188.648 193.821 187.944V174.728C193.821 174.024 194.13 173.672 194.749 173.672C195.368 173.672 195.677 173.907 195.677 174.376L195.709 175.848C196.2 175.123 196.85 174.515 197.661 174.024C198.493 173.533 199.432 173.288 200.477 173.288C202.12 173.288 203.442 173.811 204.445 174.856C205.448 175.901 205.949 177.395 205.949 179.336V187.944C205.949 188.648 205.629 189 204.989 189C204.349 189 204.029 188.648 204.029 187.944V179.624C204.029 178.131 203.666 177.011 202.941 176.264C202.237 175.517 201.32 175.144 200.189 175.144C199.336 175.144 198.568 175.336 197.885 175.72C197.224 176.083 196.701 176.584 196.317 177.224C195.954 177.843 195.773 178.536 195.773 179.304V187.944C195.773 188.648 195.453 189 194.813 189Z" fill="white"/>
<path d="M211.719 189C211.058 189 210.727 188.648 210.727 187.944V166.952C210.727 166.248 211.058 165.896 211.719 165.896C212.359 165.896 212.679 166.248 212.679 166.952V175.848C213.127 175.123 213.757 174.515 214.567 174.024C215.399 173.533 216.338 173.288 217.383 173.288C219.026 173.288 220.349 173.811 221.351 174.856C222.354 175.901 222.855 177.395 222.855 179.336V187.944C222.855 188.648 222.535 189 221.895 189C221.255 189 220.935 188.648 220.935 187.944V179.624C220.935 178.131 220.573 177.011 219.847 176.264C219.143 175.517 218.226 175.144 217.095 175.144C216.242 175.144 215.474 175.336 214.791 175.72C214.13 176.083 213.607 176.584 213.223 177.224C212.861 177.843 212.679 178.536 212.679 179.304V187.944C212.679 188.648 212.359 189 211.719 189Z" fill="white"/>
<path d="M231.73 189.288C230.236 189.309 229.02 188.968 228.082 188.264C227.164 187.56 226.706 186.536 226.706 185.192C226.706 184.168 227.047 183.272 227.73 182.504C228.434 181.736 229.319 181.139 230.386 180.712C231.474 180.264 232.594 180.04 233.746 180.04C235.324 180.04 236.572 180.413 237.49 181.16V178.536C237.49 177.107 237.191 176.179 236.594 175.752C235.996 175.304 235.036 175.08 233.714 175.08C233.01 175.08 232.231 175.187 231.378 175.4C230.546 175.613 229.788 175.891 229.106 176.232C228.466 176.488 228.007 176.392 227.73 175.944C227.41 175.389 227.58 174.963 228.242 174.664C229.031 174.259 229.916 173.928 230.898 173.672C231.9 173.416 232.839 173.288 233.714 173.288C235.655 173.288 237.084 173.661 238.002 174.408C238.919 175.155 239.378 176.531 239.378 178.536V187.016C239.378 187.293 239.431 187.464 239.538 187.528C239.644 187.592 239.868 187.624 240.21 187.624C240.487 187.624 240.722 187.677 240.914 187.784C241.106 187.869 241.202 188.019 241.202 188.232C241.202 188.765 240.935 189.075 240.402 189.16C240.231 189.203 240.05 189.235 239.858 189.256C239.666 189.277 239.484 189.288 239.314 189.288C238.588 189.288 238.119 189.139 237.906 188.84C237.692 188.541 237.564 187.976 237.522 187.144C236.86 187.869 235.986 188.403 234.898 188.744C233.81 189.085 232.754 189.267 231.73 189.288ZM231.826 187.528C232.85 187.507 233.799 187.347 234.674 187.048C235.57 186.749 236.274 186.323 236.786 185.768C237.319 185.192 237.564 184.499 237.522 183.688C237.458 183.027 237.095 182.536 236.434 182.216C235.772 181.875 234.919 181.715 233.874 181.736C232.999 181.736 232.156 181.885 231.346 182.184C230.535 182.483 229.874 182.899 229.362 183.432C228.871 183.944 228.626 184.541 228.626 185.224C228.626 186.013 228.924 186.6 229.522 186.984C230.119 187.347 230.887 187.528 231.826 187.528Z" fill="white"/>
<path d="M245.751 189C245.089 189 244.759 188.648 244.759 187.944V174.728C244.759 174.024 245.068 173.672 245.687 173.672C246.305 173.672 246.615 173.907 246.615 174.376L246.647 175.848C247.137 175.123 247.788 174.515 248.599 174.024C249.431 173.533 250.369 173.288 251.415 173.288C253.057 173.288 254.38 173.811 255.383 174.856C256.385 175.901 256.887 177.395 256.887 179.336V187.944C256.887 188.648 256.567 189 255.927 189C255.287 189 254.967 188.648 254.967 187.944V179.624C254.967 178.131 254.604 177.011 253.879 176.264C253.175 175.517 252.257 175.144 251.127 175.144C250.273 175.144 249.505 175.336 248.823 175.72C248.161 176.083 247.639 176.584 247.255 177.224C246.892 177.843 246.711 178.536 246.711 179.304V187.944C246.711 188.648 246.391 189 245.751 189Z" fill="white"/>
<path d="M267.024 189.352C265.659 189.352 264.635 189.064 263.952 188.488C263.269 187.912 262.928 186.877 262.928 185.384V175.464H260.656C259.952 175.464 259.6 175.155 259.6 174.536C259.6 173.96 259.952 173.672 260.656 173.672H262.928V169.096C262.928 168.392 263.248 168.04 263.888 168.04C264.528 168.04 264.848 168.392 264.848 169.096V173.672H268.464C269.168 173.672 269.52 173.96 269.52 174.536C269.52 175.155 269.168 175.464 268.464 175.464H264.848V185.064C264.848 186.024 265.051 186.685 265.456 187.048C265.861 187.389 266.491 187.56 267.344 187.56C267.451 187.56 267.557 187.56 267.664 187.56C267.792 187.539 267.909 187.528 268.016 187.528C268.443 187.507 268.795 187.528 269.072 187.592C269.371 187.635 269.52 187.859 269.52 188.264C269.52 188.733 269.264 189.032 268.752 189.16C268.24 189.288 267.664 189.352 267.024 189.352Z" fill="white"/>
<path d="M279.374 189.352C277.988 189.352 276.75 189.032 275.662 188.392C274.596 187.731 273.753 186.803 273.134 185.608C272.537 184.392 272.238 182.963 272.238 181.32C272.238 179.72 272.537 178.323 273.134 177.128C273.753 175.933 274.596 175.005 275.662 174.344C276.729 173.661 277.945 173.32 279.31 173.32C280.697 173.32 281.87 173.661 282.83 174.344C283.812 175.027 284.558 175.891 285.07 176.936C285.582 177.981 285.838 179.048 285.838 180.136C285.838 180.52 285.742 180.787 285.55 180.936C285.38 181.085 285.124 181.16 284.782 181.16H274.19C274.148 183.08 274.596 184.637 275.534 185.832C276.494 187.005 277.785 187.592 279.406 187.592C281.412 187.592 282.905 186.685 283.886 184.872C284.313 184.317 284.75 184.168 285.198 184.424C285.753 184.787 285.828 185.267 285.422 185.864C284.078 188.189 282.062 189.352 279.374 189.352ZM274.318 179.496H283.918C283.812 178.664 283.545 177.907 283.118 177.224C282.713 176.541 282.18 175.997 281.518 175.592C280.878 175.187 280.142 174.984 279.31 174.984C278.009 174.984 276.91 175.389 276.014 176.2C275.14 176.989 274.574 178.088 274.318 179.496Z" fill="white"/>
<path d="M305.092 189.352C303.727 189.352 302.511 189.021 301.444 188.36C300.378 187.677 299.535 186.739 298.916 185.544C298.298 184.328 297.988 182.92 297.988 181.32C297.988 179.72 298.298 178.323 298.916 177.128C299.535 175.933 300.378 175.005 301.444 174.344C302.511 173.661 303.727 173.32 305.092 173.32C306.244 173.32 307.268 173.597 308.164 174.152C309.06 174.685 309.775 175.421 310.308 176.36V166.952C310.308 166.248 310.628 165.896 311.268 165.896C311.93 165.896 312.26 166.248 312.26 166.952V187.944C312.26 188.648 311.962 189 311.364 189C310.767 189 310.468 188.776 310.468 188.328L310.436 186.184C309.882 187.165 309.146 187.944 308.228 188.52C307.311 189.075 306.266 189.352 305.092 189.352ZM305.156 187.528C306.159 187.528 307.044 187.272 307.812 186.76C308.602 186.248 309.22 185.533 309.668 184.616C310.116 183.677 310.34 182.579 310.34 181.32C310.34 180.061 310.116 178.973 309.668 178.056C309.22 177.139 308.602 176.424 307.812 175.912C307.044 175.4 306.159 175.144 305.156 175.144C304.154 175.144 303.258 175.4 302.468 175.912C301.679 176.424 301.06 177.139 300.612 178.056C300.164 178.973 299.94 180.061 299.94 181.32C299.94 182.579 300.164 183.677 300.612 184.616C301.06 185.533 301.679 186.248 302.468 186.76C303.258 187.272 304.154 187.528 305.156 187.528Z" fill="white"/>
<path d="M322.224 189.352C320.603 189.352 319.291 188.829 318.288 187.784C317.285 186.739 316.784 185.245 316.784 183.304V174.728C316.784 174.024 317.104 173.672 317.744 173.672C318.384 173.672 318.704 174.024 318.704 174.728V183.048C318.704 184.541 319.056 185.661 319.76 186.408C320.485 187.155 321.413 187.528 322.544 187.528C323.845 187.528 324.901 187.123 325.712 186.312C326.523 185.501 326.928 184.509 326.928 183.336V174.728C326.928 174.024 327.259 173.672 327.92 173.672C328.56 173.672 328.88 174.024 328.88 174.728V187.912C328.88 188.616 328.581 188.968 327.984 188.968C327.365 188.968 327.056 188.733 327.056 188.264L326.992 186.824C326.544 187.528 325.904 188.125 325.072 188.616C324.24 189.107 323.291 189.352 322.224 189.352Z" fill="white"/>
<path d="M334.626 189C333.964 189 333.634 188.648 333.634 187.944V174.728C333.634 174.024 333.975 173.672 334.658 173.672C334.914 173.672 335.127 173.747 335.298 173.896C335.49 174.024 335.586 174.248 335.586 174.568V176.328C336.012 175.432 336.684 174.707 337.602 174.152C338.54 173.576 339.575 173.288 340.706 173.288C341.26 173.288 341.698 173.373 342.018 173.544C342.338 173.693 342.498 173.96 342.498 174.344C342.498 174.664 342.402 174.899 342.21 175.048C342.039 175.197 341.826 175.261 341.57 175.24C341.42 175.24 341.25 175.229 341.058 175.208C340.887 175.187 340.706 175.176 340.514 175.176C339.618 175.176 338.796 175.389 338.05 175.816C337.303 176.221 336.706 176.776 336.258 177.48C335.831 178.163 335.618 178.941 335.618 179.816V187.944C335.618 188.648 335.287 189 334.626 189Z" fill="white"/>
<path d="M349.761 189.288C348.268 189.309 347.052 188.968 346.113 188.264C345.196 187.56 344.737 186.536 344.737 185.192C344.737 184.168 345.078 183.272 345.761 182.504C346.465 181.736 347.35 181.139 348.417 180.712C349.505 180.264 350.625 180.04 351.777 180.04C353.356 180.04 354.604 180.413 355.521 181.16V178.536C355.521 177.107 355.222 176.179 354.625 175.752C354.028 175.304 353.068 175.08 351.745 175.08C351.041 175.08 350.262 175.187 349.409 175.4C348.577 175.613 347.82 175.891 347.137 176.232C346.497 176.488 346.038 176.392 345.761 175.944C345.441 175.389 345.612 174.963 346.273 174.664C347.062 174.259 347.948 173.928 348.929 173.672C349.932 173.416 350.87 173.288 351.745 173.288C353.686 173.288 355.116 173.661 356.033 174.408C356.95 175.155 357.409 176.531 357.409 178.536V187.016C357.409 187.293 357.462 187.464 357.569 187.528C357.676 187.592 357.9 187.624 358.241 187.624C358.518 187.624 358.753 187.677 358.945 187.784C359.137 187.869 359.233 188.019 359.233 188.232C359.233 188.765 358.966 189.075 358.433 189.16C358.262 189.203 358.081 189.235 357.889 189.256C357.697 189.277 357.516 189.288 357.345 189.288C356.62 189.288 356.15 189.139 355.937 188.84C355.724 188.541 355.596 187.976 355.553 187.144C354.892 187.869 354.017 188.403 352.929 188.744C351.841 189.085 350.785 189.267 349.761 189.288ZM349.857 187.528C350.881 187.507 351.83 187.347 352.705 187.048C353.601 186.749 354.305 186.323 354.817 185.768C355.35 185.192 355.596 184.499 355.553 183.688C355.489 183.027 355.126 182.536 354.465 182.216C353.804 181.875 352.95 181.715 351.905 181.736C351.03 181.736 350.188 181.885 349.377 182.184C348.566 182.483 347.905 182.899 347.393 183.432C346.902 183.944 346.657 184.541 346.657 185.224C346.657 186.013 346.956 186.6 347.553 186.984C348.15 187.347 348.918 187.528 349.857 187.528Z" fill="white"/>
<path d="M363.782 189C363.121 189 362.79 188.648 362.79 187.944V174.728C362.79 174.024 363.099 173.672 363.718 173.672C364.337 173.672 364.646 173.907 364.646 174.376L364.678 175.848C365.169 175.123 365.819 174.515 366.63 174.024C367.462 173.533 368.401 173.288 369.446 173.288C371.089 173.288 372.411 173.811 373.414 174.856C374.417 175.901 374.918 177.395 374.918 179.336V187.944C374.918 188.648 374.598 189 373.958 189C373.318 189 372.998 188.648 372.998 187.944V179.624C372.998 178.131 372.635 177.011 371.91 176.264C371.206 175.517 370.289 175.144 369.158 175.144C368.305 175.144 367.537 175.336 366.854 175.72C366.193 176.083 365.67 176.584 365.286 177.224C364.923 177.843 364.742 178.536 364.742 179.304V187.944C364.742 188.648 364.422 189 363.782 189Z" fill="white"/>
<path d="M385.055 189.352C383.69 189.352 382.666 189.064 381.983 188.488C381.3 187.912 380.959 186.877 380.959 185.384V175.464H378.687C377.983 175.464 377.631 175.155 377.631 174.536C377.631 173.96 377.983 173.672 378.687 173.672H380.959V169.096C380.959 168.392 381.279 168.04 381.919 168.04C382.559 168.04 382.879 168.392 382.879 169.096V173.672H386.495C387.199 173.672 387.551 173.96 387.551 174.536C387.551 175.155 387.199 175.464 386.495 175.464H382.879V185.064C382.879 186.024 383.082 186.685 383.487 187.048C383.892 187.389 384.522 187.56 385.375 187.56C385.482 187.56 385.588 187.56 385.695 187.56C385.823 187.539 385.94 187.528 386.047 187.528C386.474 187.507 386.826 187.528 387.103 187.592C387.402 187.635 387.551 187.859 387.551 188.264C387.551 188.733 387.295 189.032 386.783 189.16C386.271 189.288 385.695 189.352 385.055 189.352Z" fill="white"/>
<path d="M397.406 189.352C396.019 189.352 394.782 189.032 393.694 188.392C392.627 187.731 391.784 186.803 391.166 185.608C390.568 184.392 390.27 182.963 390.27 181.32C390.27 179.72 390.568 178.323 391.166 177.128C391.784 175.933 392.627 175.005 393.694 174.344C394.76 173.661 395.976 173.32 397.342 173.32C398.728 173.32 399.902 173.661 400.862 174.344C401.843 175.027 402.59 175.891 403.102 176.936C403.614 177.981 403.87 179.048 403.87 180.136C403.87 180.52 403.774 180.787 403.582 180.936C403.411 181.085 403.155 181.16 402.814 181.16H392.222C392.179 183.08 392.627 184.637 393.566 185.832C394.526 187.005 395.816 187.592 397.438 187.592C399.443 187.592 400.936 186.685 401.918 184.872C402.344 184.317 402.782 184.168 403.23 184.424C403.784 184.787 403.859 185.267 403.454 185.864C402.11 188.189 400.094 189.352 397.406 189.352ZM392.35 179.496H401.95C401.843 178.664 401.576 177.907 401.15 177.224C400.744 176.541 400.211 175.997 399.55 175.592C398.91 175.187 398.174 174.984 397.342 174.984C396.04 174.984 394.942 175.389 394.046 176.2C393.171 176.989 392.606 178.088 392.35 179.496Z" fill="white"/>
<path d="M423.124 189.352C421.758 189.352 420.542 189.011 419.476 188.328C418.409 187.645 417.566 186.707 416.948 185.512C416.329 184.296 416.02 182.899 416.02 181.32C416.02 179.741 416.329 178.355 416.948 177.16C417.566 175.944 418.409 174.995 419.476 174.312C420.542 173.629 421.758 173.288 423.124 173.288C424.51 173.288 425.737 173.629 426.804 174.312C427.87 174.995 428.713 175.944 429.332 177.16C429.95 178.355 430.26 179.741 430.26 181.32C430.26 182.899 429.95 184.296 429.332 185.512C428.713 186.707 427.87 187.645 426.804 188.328C425.737 189.011 424.51 189.352 423.124 189.352ZM423.124 187.528C424.126 187.528 425.012 187.272 425.78 186.76C426.569 186.248 427.188 185.533 427.636 184.616C428.084 183.677 428.308 182.579 428.308 181.32C428.308 180.061 428.084 178.973 427.636 178.056C427.188 177.117 426.569 176.392 425.78 175.88C425.012 175.368 424.126 175.112 423.124 175.112C421.63 175.112 420.393 175.677 419.412 176.808C418.452 177.917 417.972 179.421 417.972 181.32C417.972 183.197 418.452 184.701 419.412 185.832C420.393 186.963 421.63 187.528 423.124 187.528Z" fill="white"/>
<path d="M82.2114 235.352C80.846 235.352 79.822 235.064 79.1394 234.488C78.4567 233.912 78.1154 232.877 78.1154 231.384V221.464H75.8434C75.1394 221.464 74.7874 221.155 74.7874 220.536C74.7874 219.96 75.1394 219.672 75.8434 219.672H78.1154V215.096C78.1154 214.392 78.4354 214.04 79.0754 214.04C79.7154 214.04 80.0354 214.392 80.0354 215.096V219.672H83.6514C84.3554 219.672 84.7074 219.96 84.7074 220.536C84.7074 221.155 84.3554 221.464 83.6514 221.464H80.0354V231.064C80.0354 232.024 80.238 232.685 80.6434 233.048C81.0487 233.389 81.678 233.56 82.5314 233.56C82.638 233.56 82.7447 233.56 82.8514 233.56C82.9794 233.539 83.0967 233.528 83.2034 233.528C83.63 233.507 83.982 233.528 84.2594 233.592C84.558 233.635 84.7074 233.859 84.7074 234.264C84.7074 234.733 84.4514 235.032 83.9394 235.16C83.4274 235.288 82.8514 235.352 82.2114 235.352Z" fill="white"/>
<path d="M89.2819 235C88.6205 235 88.2899 234.648 88.2899 233.944V220.728C88.2899 220.024 88.6312 219.672 89.3139 219.672C89.5699 219.672 89.7832 219.747 89.9539 219.896C90.1459 220.024 90.2419 220.248 90.2419 220.568V222.328C90.6685 221.432 91.3405 220.707 92.2579 220.152C93.1965 219.576 94.2312 219.288 95.3619 219.288C95.9165 219.288 96.3539 219.373 96.6739 219.544C96.9939 219.693 97.1539 219.96 97.1539 220.344C97.1539 220.664 97.0579 220.899 96.8659 221.048C96.6952 221.197 96.4819 221.261 96.2259 221.24C96.0765 221.24 95.9059 221.229 95.7139 221.208C95.5432 221.187 95.3619 221.176 95.1699 221.176C94.2739 221.176 93.4525 221.389 92.7059 221.816C91.9592 222.221 91.3619 222.776 90.9139 223.48C90.4872 224.163 90.2739 224.941 90.2739 225.816V233.944C90.2739 234.648 89.9432 235 89.2819 235Z" fill="white"/>
<path d="M104.417 235.288C102.924 235.309 101.708 234.968 100.769 234.264C99.8518 233.56 99.3931 232.536 99.3931 231.192C99.3931 230.168 99.7345 229.272 100.417 228.504C101.121 227.736 102.006 227.139 103.073 226.712C104.161 226.264 105.281 226.04 106.433 226.04C108.012 226.04 109.26 226.413 110.177 227.16V224.536C110.177 223.107 109.878 222.179 109.281 221.752C108.684 221.304 107.724 221.08 106.401 221.08C105.697 221.08 104.918 221.187 104.065 221.4C103.233 221.613 102.476 221.891 101.793 222.232C101.153 222.488 100.694 222.392 100.417 221.944C100.097 221.389 100.268 220.963 100.929 220.664C101.718 220.259 102.604 219.928 103.585 219.672C104.588 219.416 105.526 219.288 106.401 219.288C108.342 219.288 109.772 219.661 110.689 220.408C111.606 221.155 112.065 222.531 112.065 224.536V233.016C112.065 233.293 112.118 233.464 112.225 233.528C112.332 233.592 112.556 233.624 112.897 233.624C113.174 233.624 113.409 233.677 113.601 233.784C113.793 233.869 113.889 234.019 113.889 234.232C113.889 234.765 113.622 235.075 113.089 235.16C112.918 235.203 112.737 235.235 112.545 235.256C112.353 235.277 112.172 235.288 112.001 235.288C111.276 235.288 110.806 235.139 110.593 234.84C110.38 234.541 110.252 233.976 110.209 233.144C109.548 233.869 108.673 234.403 107.585 234.744C106.497 235.085 105.441 235.267 104.417 235.288ZM104.513 233.528C105.537 233.507 106.486 233.347 107.361 233.048C108.257 232.749 108.961 232.323 109.473 231.768C110.006 231.192 110.252 230.499 110.209 229.688C110.145 229.027 109.782 228.536 109.121 228.216C108.46 227.875 107.606 227.715 106.561 227.736C105.686 227.736 104.844 227.885 104.033 228.184C103.222 228.483 102.561 228.899 102.049 229.432C101.558 229.944 101.313 230.541 101.313 231.224C101.313 232.013 101.612 232.6 102.209 232.984C102.806 233.347 103.574 233.528 104.513 233.528Z" fill="white"/>
<path d="M124.646 235.352C123.473 235.352 122.427 235.075 121.51 234.52C120.593 233.944 119.857 233.144 119.302 232.12V234.104C119.302 234.424 119.217 234.659 119.046 234.808C118.875 234.936 118.651 235 118.374 235C117.755 235 117.446 234.648 117.446 233.944V212.952C117.446 212.248 117.777 211.896 118.438 211.896C119.078 211.896 119.398 212.248 119.398 212.952V222.36C119.953 221.421 120.678 220.685 121.574 220.152C122.47 219.597 123.494 219.32 124.646 219.32C126.011 219.32 127.227 219.661 128.294 220.344C129.361 221.005 130.193 221.933 130.79 223.128C131.409 224.323 131.718 225.72 131.718 227.32C131.718 228.92 131.409 230.328 130.79 231.544C130.193 232.739 129.361 233.677 128.294 234.36C127.227 235.021 126.011 235.352 124.646 235.352ZM124.614 233.528C125.617 233.528 126.502 233.272 127.27 232.76C128.059 232.248 128.678 231.533 129.126 230.616C129.574 229.677 129.798 228.579 129.798 227.32C129.798 226.061 129.574 224.973 129.126 224.056C128.678 223.139 128.059 222.424 127.27 221.912C126.502 221.4 125.617 221.144 124.614 221.144C123.099 221.144 121.851 221.709 120.87 222.84C119.889 223.949 119.398 225.443 119.398 227.32C119.398 229.197 119.889 230.701 120.87 231.832C121.851 232.963 123.099 233.528 124.614 233.528Z" fill="white"/>
<path d="M139.417 235.288C137.924 235.309 136.708 234.968 135.769 234.264C134.852 233.56 134.393 232.536 134.393 231.192C134.393 230.168 134.734 229.272 135.417 228.504C136.121 227.736 137.006 227.139 138.073 226.712C139.161 226.264 140.281 226.04 141.433 226.04C143.012 226.04 144.26 226.413 145.177 227.16V224.536C145.177 223.107 144.878 222.179 144.281 221.752C143.684 221.304 142.724 221.08 141.401 221.08C140.697 221.08 139.918 221.187 139.065 221.4C138.233 221.613 137.476 221.891 136.793 222.232C136.153 222.488 135.694 222.392 135.417 221.944C135.097 221.389 135.268 220.963 135.929 220.664C136.718 220.259 137.604 219.928 138.585 219.672C139.588 219.416 140.526 219.288 141.401 219.288C143.342 219.288 144.772 219.661 145.689 220.408C146.606 221.155 147.065 222.531 147.065 224.536V233.016C147.065 233.293 147.118 233.464 147.225 233.528C147.332 233.592 147.556 233.624 147.897 233.624C148.174 233.624 148.409 233.677 148.601 233.784C148.793 233.869 148.889 234.019 148.889 234.232C148.889 234.765 148.622 235.075 148.089 235.16C147.918 235.203 147.737 235.235 147.545 235.256C147.353 235.277 147.172 235.288 147.001 235.288C146.276 235.288 145.806 235.139 145.593 234.84C145.38 234.541 145.252 233.976 145.209 233.144C144.548 233.869 143.673 234.403 142.585 234.744C141.497 235.085 140.441 235.267 139.417 235.288ZM139.513 233.528C140.537 233.507 141.486 233.347 142.361 233.048C143.257 232.749 143.961 232.323 144.473 231.768C145.006 231.192 145.252 230.499 145.209 229.688C145.145 229.027 144.782 228.536 144.121 228.216C143.46 227.875 142.606 227.715 141.561 227.736C140.686 227.736 139.844 227.885 139.033 228.184C138.222 228.483 137.561 228.899 137.049 229.432C136.558 229.944 136.313 230.541 136.313 231.224C136.313 232.013 136.612 232.6 137.209 232.984C137.806 233.347 138.574 233.528 139.513 233.528Z" fill="white"/>
<path d="M153.438 235C152.777 235 152.446 234.648 152.446 233.944V212.952C152.446 212.248 152.777 211.896 153.438 211.896C154.078 211.896 154.398 212.248 154.398 212.952V233.944C154.398 234.648 154.078 235 153.438 235Z" fill="white"/>
<path d="M160.157 235C159.496 235 159.165 234.648 159.165 233.944V212.952C159.165 212.248 159.496 211.896 160.157 211.896C160.797 211.896 161.117 212.248 161.117 212.952V221.848C161.565 221.123 162.194 220.515 163.005 220.024C163.837 219.533 164.776 219.288 165.821 219.288C167.464 219.288 168.786 219.811 169.789 220.856C170.792 221.901 171.293 223.395 171.293 225.336V233.944C171.293 234.648 170.973 235 170.333 235C169.693 235 169.373 234.648 169.373 233.944V225.624C169.373 224.131 169.01 223.011 168.285 222.264C167.581 221.517 166.664 221.144 165.533 221.144C164.68 221.144 163.912 221.336 163.229 221.72C162.568 222.083 162.045 222.584 161.661 223.224C161.298 223.843 161.117 224.536 161.117 225.304V233.944C161.117 234.648 160.797 235 160.157 235Z" fill="white"/>
<path d="M182.311 235.352C180.946 235.352 179.73 235.011 178.663 234.328C177.596 233.645 176.754 232.707 176.135 231.512C175.516 230.296 175.207 228.899 175.207 227.32C175.207 225.741 175.516 224.355 176.135 223.16C176.754 221.944 177.596 220.995 178.663 220.312C179.73 219.629 180.946 219.288 182.311 219.288C183.698 219.288 184.924 219.629 185.991 220.312C187.058 220.995 187.9 221.944 188.519 223.16C189.138 224.355 189.447 225.741 189.447 227.32C189.447 228.899 189.138 230.296 188.519 231.512C187.9 232.707 187.058 233.645 185.991 234.328C184.924 235.011 183.698 235.352 182.311 235.352ZM182.311 233.528C183.314 233.528 184.199 233.272 184.967 232.76C185.756 232.248 186.375 231.533 186.823 230.616C187.271 229.677 187.495 228.579 187.495 227.32C187.495 226.061 187.271 224.973 186.823 224.056C186.375 223.117 185.756 222.392 184.967 221.88C184.199 221.368 183.314 221.112 182.311 221.112C180.818 221.112 179.58 221.677 178.599 222.808C177.639 223.917 177.159 225.421 177.159 227.32C177.159 229.197 177.639 230.701 178.599 231.832C179.58 232.963 180.818 233.528 182.311 233.528Z" fill="white"/>
<path d="M208.53 235.352C207.165 235.352 205.949 235.021 204.882 234.36C203.815 233.677 202.973 232.739 202.354 231.544C201.735 230.328 201.426 228.92 201.426 227.32C201.426 225.72 201.735 224.323 202.354 223.128C202.973 221.933 203.815 221.005 204.882 220.344C205.949 219.661 207.165 219.32 208.53 219.32C209.682 219.32 210.706 219.597 211.602 220.152C212.498 220.685 213.213 221.421 213.746 222.36V212.952C213.746 212.248 214.066 211.896 214.706 211.896C215.367 211.896 215.698 212.248 215.698 212.952V233.944C215.698 234.648 215.399 235 214.802 235C214.205 235 213.906 234.776 213.906 234.328L213.874 232.184C213.319 233.165 212.583 233.944 211.666 234.52C210.749 235.075 209.703 235.352 208.53 235.352ZM208.594 233.528C209.597 233.528 210.482 233.272 211.25 232.76C212.039 232.248 212.658 231.533 213.106 230.616C213.554 229.677 213.778 228.579 213.778 227.32C213.778 226.061 213.554 224.973 213.106 224.056C212.658 223.139 212.039 222.424 211.25 221.912C210.482 221.4 209.597 221.144 208.594 221.144C207.591 221.144 206.695 221.4 205.906 221.912C205.117 222.424 204.498 223.139 204.05 224.056C203.602 224.973 203.378 226.061 203.378 227.32C203.378 228.579 203.602 229.677 204.05 230.616C204.498 231.533 205.117 232.248 205.906 232.76C206.695 233.272 207.591 233.528 208.594 233.528Z" fill="white"/>
<path d="M226.749 235.352C225.363 235.352 224.125 235.032 223.037 234.392C221.971 233.731 221.128 232.803 220.509 231.608C219.912 230.392 219.613 228.963 219.613 227.32C219.613 225.72 219.912 224.323 220.509 223.128C221.128 221.933 221.971 221.005 223.037 220.344C224.104 219.661 225.32 219.32 226.685 219.32C228.072 219.32 229.245 219.661 230.205 220.344C231.187 221.027 231.933 221.891 232.445 222.936C232.957 223.981 233.213 225.048 233.213 226.136C233.213 226.52 233.117 226.787 232.925 226.936C232.755 227.085 232.499 227.16 232.157 227.16H221.565C221.523 229.08 221.971 230.637 222.909 231.832C223.869 233.005 225.16 233.592 226.781 233.592C228.787 233.592 230.28 232.685 231.261 230.872C231.688 230.317 232.125 230.168 232.573 230.424C233.128 230.787 233.203 231.267 232.797 231.864C231.453 234.189 229.437 235.352 226.749 235.352ZM221.693 225.496H231.293C231.187 224.664 230.92 223.907 230.493 223.224C230.088 222.541 229.555 221.997 228.893 221.592C228.253 221.187 227.517 220.984 226.685 220.984C225.384 220.984 224.285 221.389 223.389 222.2C222.515 222.989 221.949 224.088 221.693 225.496Z" fill="white"/>
<path d="M247.219 241.656C246.558 241.656 246.227 241.304 246.227 240.6V220.728C246.227 220.024 246.537 219.672 247.155 219.672C247.753 219.672 248.051 219.885 248.051 220.312L248.083 222.456C248.638 221.453 249.374 220.675 250.291 220.12C251.209 219.565 252.254 219.288 253.427 219.288C254.793 219.288 256.009 219.629 257.075 220.312C258.142 220.973 258.974 221.912 259.571 223.128C260.19 224.323 260.499 225.72 260.499 227.32C260.499 228.92 260.19 230.328 259.571 231.544C258.974 232.739 258.142 233.677 257.075 234.36C256.009 235.021 254.793 235.352 253.427 235.352C252.275 235.352 251.251 235.075 250.355 234.52C249.459 233.965 248.734 233.219 248.179 232.28V240.6C248.179 241.304 247.859 241.656 247.219 241.656ZM253.395 233.528C254.398 233.528 255.283 233.272 256.051 232.76C256.841 232.248 257.459 231.533 257.907 230.616C258.355 229.677 258.579 228.579 258.579 227.32C258.579 226.061 258.355 224.973 257.907 224.056C257.459 223.117 256.841 222.392 256.051 221.88C255.283 221.368 254.398 221.112 253.395 221.112C251.881 221.112 250.633 221.677 249.651 222.808C248.67 223.917 248.179 225.421 248.179 227.32C248.179 229.197 248.67 230.701 249.651 231.832C250.633 232.963 251.881 233.528 253.395 233.528Z" fill="white"/>
<path d="M268.198 235.288C266.705 235.309 265.489 234.968 264.55 234.264C263.633 233.56 263.174 232.536 263.174 231.192C263.174 230.168 263.516 229.272 264.198 228.504C264.902 227.736 265.788 227.139 266.854 226.712C267.942 226.264 269.062 226.04 270.214 226.04C271.793 226.04 273.041 226.413 273.958 227.16V224.536C273.958 223.107 273.66 222.179 273.062 221.752C272.465 221.304 271.505 221.08 270.182 221.08C269.478 221.08 268.7 221.187 267.846 221.4C267.014 221.613 266.257 221.891 265.574 222.232C264.934 222.488 264.476 222.392 264.198 221.944C263.878 221.389 264.049 220.963 264.71 220.664C265.5 220.259 266.385 219.928 267.366 219.672C268.369 219.416 269.308 219.288 270.182 219.288C272.124 219.288 273.553 219.661 274.47 220.408C275.388 221.155 275.846 222.531 275.846 224.536V233.016C275.846 233.293 275.9 233.464 276.006 233.528C276.113 233.592 276.337 233.624 276.678 233.624C276.956 233.624 277.19 233.677 277.382 233.784C277.574 233.869 277.67 234.019 277.67 234.232C277.67 234.765 277.404 235.075 276.87 235.16C276.7 235.203 276.518 235.235 276.326 235.256C276.134 235.277 275.953 235.288 275.782 235.288C275.057 235.288 274.588 235.139 274.374 234.84C274.161 234.541 274.033 233.976 273.99 233.144C273.329 233.869 272.454 234.403 271.366 234.744C270.278 235.085 269.222 235.267 268.198 235.288ZM268.294 233.528C269.318 233.507 270.268 233.347 271.142 233.048C272.038 232.749 272.742 232.323 273.254 231.768C273.788 231.192 274.033 230.499 273.99 229.688C273.926 229.027 273.564 228.536 272.902 228.216C272.241 227.875 271.388 227.715 270.342 227.736C269.468 227.736 268.625 227.885 267.814 228.184C267.004 228.483 266.342 228.899 265.83 229.432C265.34 229.944 265.094 230.541 265.094 231.224C265.094 232.013 265.393 232.6 265.99 232.984C266.588 233.347 267.356 233.528 268.294 233.528Z" fill="white"/>
<path d="M282.219 235C281.558 235 281.227 234.648 281.227 233.944V220.728C281.227 220.024 281.569 219.672 282.251 219.672C282.507 219.672 282.721 219.747 282.891 219.896C283.083 220.024 283.179 220.248 283.179 220.568V222.328C283.606 221.432 284.278 220.707 285.195 220.152C286.134 219.576 287.169 219.288 288.299 219.288C288.854 219.288 289.291 219.373 289.611 219.544C289.931 219.693 290.091 219.96 290.091 220.344C290.091 220.664 289.995 220.899 289.803 221.048C289.633 221.197 289.419 221.261 289.163 221.24C289.014 221.24 288.843 221.229 288.651 221.208C288.481 221.187 288.299 221.176 288.107 221.176C287.211 221.176 286.39 221.389 285.643 221.816C284.897 222.221 284.299 222.776 283.851 223.48C283.425 224.163 283.211 224.941 283.211 225.816V233.944C283.211 234.648 282.881 235 282.219 235Z" fill="white"/>
<path d="M299.243 235.352C297.877 235.352 296.853 235.064 296.171 234.488C295.488 233.912 295.147 232.877 295.147 231.384V221.464H292.875C292.171 221.464 291.819 221.155 291.819 220.536C291.819 219.96 292.171 219.672 292.875 219.672H295.147V215.096C295.147 214.392 295.467 214.04 296.107 214.04C296.747 214.04 297.067 214.392 297.067 215.096V219.672H300.683C301.387 219.672 301.739 219.96 301.739 220.536C301.739 221.155 301.387 221.464 300.683 221.464H297.067V231.064C297.067 232.024 297.269 232.685 297.675 233.048C298.08 233.389 298.709 233.56 299.563 233.56C299.669 233.56 299.776 233.56 299.883 233.56C300.011 233.539 300.128 233.528 300.235 233.528C300.661 233.507 301.013 233.528 301.291 233.592C301.589 233.635 301.739 233.859 301.739 234.264C301.739 234.733 301.483 235.032 300.971 235.16C300.459 235.288 299.883 235.352 299.243 235.352Z" fill="white"/>
<path d="M311.561 235.352C310.196 235.352 308.98 235.011 307.913 234.328C306.846 233.645 306.004 232.707 305.385 231.512C304.766 230.296 304.457 228.899 304.457 227.32C304.457 225.741 304.766 224.355 305.385 223.16C306.004 221.944 306.846 220.995 307.913 220.312C308.98 219.629 310.196 219.288 311.561 219.288C312.948 219.288 314.174 219.629 315.241 220.312C316.308 220.995 317.15 221.944 317.769 223.16C318.388 224.355 318.697 225.741 318.697 227.32C318.697 228.899 318.388 230.296 317.769 231.512C317.15 232.707 316.308 233.645 315.241 234.328C314.174 235.011 312.948 235.352 311.561 235.352ZM311.561 233.528C312.564 233.528 313.449 233.272 314.217 232.76C315.006 232.248 315.625 231.533 316.073 230.616C316.521 229.677 316.745 228.579 316.745 227.32C316.745 226.061 316.521 224.973 316.073 224.056C315.625 223.117 315.006 222.392 314.217 221.88C313.449 221.368 312.564 221.112 311.561 221.112C310.068 221.112 308.83 221.677 307.849 222.808C306.889 223.917 306.409 225.421 306.409 227.32C306.409 229.197 306.889 230.701 307.849 231.832C308.83 232.963 310.068 233.528 311.561 233.528Z" fill="white"/>
<path d="M324.299 239.256C323.68 239.555 323.264 239.48 323.051 239.032C322.88 238.733 323.126 238.413 323.787 238.072C324.363 237.773 324.811 237.4 325.131 236.952C325.451 236.525 325.611 236.024 325.611 235.448C325.611 234.936 325.526 234.541 325.355 234.264C325.248 234.563 325.056 234.808 324.779 235C324.523 235.213 324.235 235.32 323.915 235.32C323.467 235.32 323.083 235.171 322.763 234.872C322.464 234.573 322.315 234.189 322.315 233.72C322.315 233.251 322.486 232.877 322.827 232.6C323.168 232.323 323.574 232.163 324.043 232.12C324.854 232.077 325.536 232.365 326.091 232.984C326.667 233.603 326.955 234.445 326.955 235.512C326.955 236.387 326.71 237.133 326.219 237.752C325.75 238.392 325.11 238.893 324.299 239.256Z" fill="white"/>
<path d="M341.407 241.656C340.746 241.656 340.415 241.304 340.415 240.6V220.728C340.415 220.024 340.724 219.672 341.343 219.672C341.94 219.672 342.239 219.885 342.239 220.312L342.271 222.456C342.826 221.453 343.562 220.675 344.479 220.12C345.396 219.565 346.442 219.288 347.615 219.288C348.98 219.288 350.196 219.629 351.263 220.312C352.33 220.973 353.162 221.912 353.759 223.128C354.378 224.323 354.687 225.72 354.687 227.32C354.687 228.92 354.378 230.328 353.759 231.544C353.162 232.739 352.33 233.677 351.263 234.36C350.196 235.021 348.98 235.352 347.615 235.352C346.463 235.352 345.439 235.075 344.543 234.52C343.647 233.965 342.922 233.219 342.367 232.28V240.6C342.367 241.304 342.047 241.656 341.407 241.656ZM347.583 233.528C348.586 233.528 349.471 233.272 350.239 232.76C351.028 232.248 351.647 231.533 352.095 230.616C352.543 229.677 352.767 228.579 352.767 227.32C352.767 226.061 352.543 224.973 352.095 224.056C351.647 223.117 351.028 222.392 350.239 221.88C349.471 221.368 348.586 221.112 347.583 221.112C346.068 221.112 344.82 221.677 343.839 222.808C342.858 223.917 342.367 225.421 342.367 227.32C342.367 229.197 342.858 230.701 343.839 231.832C344.82 232.963 346.068 233.528 347.583 233.528Z" fill="white"/>
<path d="M362.386 235.288C360.893 235.309 359.677 234.968 358.738 234.264C357.821 233.56 357.362 232.536 357.362 231.192C357.362 230.168 357.703 229.272 358.386 228.504C359.09 227.736 359.975 227.139 361.042 226.712C362.13 226.264 363.25 226.04 364.402 226.04C365.981 226.04 367.229 226.413 368.146 227.16V224.536C368.146 223.107 367.847 222.179 367.25 221.752C366.653 221.304 365.693 221.08 364.37 221.08C363.666 221.08 362.887 221.187 362.034 221.4C361.202 221.613 360.445 221.891 359.762 222.232C359.122 222.488 358.663 222.392 358.386 221.944C358.066 221.389 358.237 220.963 358.898 220.664C359.687 220.259 360.573 219.928 361.554 219.672C362.557 219.416 363.495 219.288 364.37 219.288C366.311 219.288 367.741 219.661 368.658 220.408C369.575 221.155 370.034 222.531 370.034 224.536V233.016C370.034 233.293 370.087 233.464 370.194 233.528C370.301 233.592 370.525 233.624 370.866 233.624C371.143 233.624 371.378 233.677 371.57 233.784C371.762 233.869 371.858 234.019 371.858 234.232C371.858 234.765 371.591 235.075 371.058 235.16C370.887 235.203 370.706 235.235 370.514 235.256C370.322 235.277 370.141 235.288 369.97 235.288C369.245 235.288 368.775 235.139 368.562 234.84C368.349 234.541 368.221 233.976 368.178 233.144C367.517 233.869 366.642 234.403 365.554 234.744C364.466 235.085 363.41 235.267 362.386 235.288ZM362.482 233.528C363.506 233.507 364.455 233.347 365.33 233.048C366.226 232.749 366.93 232.323 367.442 231.768C367.975 231.192 368.221 230.499 368.178 229.688C368.114 229.027 367.751 228.536 367.09 228.216C366.429 227.875 365.575 227.715 364.53 227.736C363.655 227.736 362.813 227.885 362.002 228.184C361.191 228.483 360.53 228.899 360.018 229.432C359.527 229.944 359.282 230.541 359.282 231.224C359.282 232.013 359.581 232.6 360.178 232.984C360.775 233.347 361.543 233.528 362.482 233.528Z" fill="white"/>
<path d="M376.407 235C375.746 235 375.415 234.648 375.415 233.944V220.728C375.415 220.024 375.756 219.672 376.439 219.672C376.695 219.672 376.908 219.747 377.079 219.896C377.271 220.024 377.367 220.248 377.367 220.568V222.328C377.794 221.432 378.466 220.707 379.383 220.152C380.322 219.576 381.356 219.288 382.487 219.288C383.042 219.288 383.479 219.373 383.799 219.544C384.119 219.693 384.279 219.96 384.279 220.344C384.279 220.664 384.183 220.899 383.991 221.048C383.82 221.197 383.607 221.261 383.351 221.24C383.202 221.24 383.031 221.229 382.839 221.208C382.668 221.187 382.487 221.176 382.295 221.176C381.399 221.176 380.578 221.389 379.831 221.816C379.084 222.221 378.487 222.776 378.039 223.48C377.612 224.163 377.399 224.941 377.399 225.816V233.944C377.399 234.648 377.068 235 376.407 235Z" fill="white"/>
<path d="M393.43 235.352C392.065 235.352 391.041 235.064 390.358 234.488C389.675 233.912 389.334 232.877 389.334 231.384V221.464H387.062C386.358 221.464 386.006 221.155 386.006 220.536C386.006 219.96 386.358 219.672 387.062 219.672H389.334V215.096C389.334 214.392 389.654 214.04 390.294 214.04C390.934 214.04 391.254 214.392 391.254 215.096V219.672H394.87C395.574 219.672 395.926 219.96 395.926 220.536C395.926 221.155 395.574 221.464 394.87 221.464H391.254V231.064C391.254 232.024 391.457 232.685 391.862 233.048C392.267 233.389 392.897 233.56 393.75 233.56C393.857 233.56 393.963 233.56 394.07 233.56C394.198 233.539 394.315 233.528 394.422 233.528C394.849 233.507 395.201 233.528 395.478 233.592C395.777 233.635 395.926 233.859 395.926 234.264C395.926 234.733 395.67 235.032 395.158 235.16C394.646 235.288 394.07 235.352 393.43 235.352Z" fill="white"/>
<path d="M405.749 235.352C404.383 235.352 403.167 235.011 402.101 234.328C401.034 233.645 400.191 232.707 399.573 231.512C398.954 230.296 398.645 228.899 398.645 227.32C398.645 225.741 398.954 224.355 399.573 223.16C400.191 221.944 401.034 220.995 402.101 220.312C403.167 219.629 404.383 219.288 405.749 219.288C407.135 219.288 408.362 219.629 409.429 220.312C410.495 220.995 411.338 221.944 411.957 223.16C412.575 224.355 412.885 225.741 412.885 227.32C412.885 228.899 412.575 230.296 411.957 231.512C411.338 232.707 410.495 233.645 409.429 234.328C408.362 235.011 407.135 235.352 405.749 235.352ZM405.749 233.528C406.751 233.528 407.637 233.272 408.405 232.76C409.194 232.248 409.813 231.533 410.261 230.616C410.709 229.677 410.933 228.579 410.933 227.32C410.933 226.061 410.709 224.973 410.261 224.056C409.813 223.117 409.194 222.392 408.405 221.88C407.637 221.368 406.751 221.112 405.749 221.112C404.255 221.112 403.018 221.677 402.037 222.808C401.077 223.917 400.597 225.421 400.597 227.32C400.597 229.197 401.077 230.701 402.037 231.832C403.018 232.963 404.255 233.528 405.749 233.528Z" fill="white"/>
<path d="M431.999 235.352C430.613 235.352 429.375 235.032 428.287 234.392C427.221 233.731 426.378 232.803 425.759 231.608C425.162 230.392 424.863 228.963 424.863 227.32C424.863 225.72 425.162 224.323 425.759 223.128C426.378 221.933 427.221 221.005 428.287 220.344C429.354 219.661 430.57 219.32 431.935 219.32C433.322 219.32 434.495 219.661 435.455 220.344C436.437 221.027 437.183 221.891 437.695 222.936C438.207 223.981 438.463 225.048 438.463 226.136C438.463 226.52 438.367 226.787 438.175 226.936C438.005 227.085 437.749 227.16 437.407 227.16H426.815C426.773 229.08 427.221 230.637 428.159 231.832C429.119 233.005 430.41 233.592 432.031 233.592C434.037 233.592 435.53 232.685 436.511 230.872C436.938 230.317 437.375 230.168 437.823 230.424C438.378 230.787 438.453 231.267 438.047 231.864C436.703 234.189 434.687 235.352 431.999 235.352ZM426.943 225.496H436.543C436.437 224.664 436.17 223.907 435.743 223.224C435.338 222.541 434.805 221.997 434.143 221.592C433.503 221.187 432.767 220.984 431.935 220.984C430.634 220.984 429.535 221.389 428.639 222.2C427.765 222.989 427.199 224.088 426.943 225.496Z" fill="white"/>
<path d="M190.063 287.656C189.402 287.656 189.071 287.304 189.071 286.6V266.728C189.071 266.024 189.38 265.672 189.999 265.672C190.596 265.672 190.895 265.885 190.895 266.312L190.927 268.456C191.482 267.453 192.218 266.675 193.135 266.12C194.052 265.565 195.098 265.288 196.271 265.288C197.636 265.288 198.852 265.629 199.919 266.312C200.986 266.973 201.818 267.912 202.415 269.128C203.034 270.323 203.343 271.72 203.343 273.32C203.343 274.92 203.034 276.328 202.415 277.544C201.818 278.739 200.986 279.677 199.919 280.36C198.852 281.021 197.636 281.352 196.271 281.352C195.119 281.352 194.095 281.075 193.199 280.52C192.303 279.965 191.578 279.219 191.023 278.28V286.6C191.023 287.304 190.703 287.656 190.063 287.656ZM196.239 279.528C197.242 279.528 198.127 279.272 198.895 278.76C199.684 278.248 200.303 277.533 200.751 276.616C201.199 275.677 201.423 274.579 201.423 273.32C201.423 272.061 201.199 270.973 200.751 270.056C200.303 269.117 199.684 268.392 198.895 267.88C198.127 267.368 197.242 267.112 196.239 267.112C194.724 267.112 193.476 267.677 192.495 268.808C191.514 269.917 191.023 271.421 191.023 273.32C191.023 275.197 191.514 276.701 192.495 277.832C193.476 278.963 194.724 279.528 196.239 279.528Z" fill="white"/>
<path d="M213.499 281.352C212.133 281.352 210.917 281.011 209.851 280.328C208.784 279.645 207.941 278.707 207.323 277.512C206.704 276.296 206.395 274.899 206.395 273.32C206.395 271.741 206.704 270.355 207.323 269.16C207.941 267.944 208.784 266.995 209.851 266.312C210.917 265.629 212.133 265.288 213.499 265.288C214.885 265.288 216.112 265.629 217.179 266.312C218.245 266.995 219.088 267.944 219.707 269.16C220.325 270.355 220.635 271.741 220.635 273.32C220.635 274.899 220.325 276.296 219.707 277.512C219.088 278.707 218.245 279.645 217.179 280.328C216.112 281.011 214.885 281.352 213.499 281.352ZM213.499 279.528C214.501 279.528 215.387 279.272 216.155 278.76C216.944 278.248 217.563 277.533 218.011 276.616C218.459 275.677 218.683 274.579 218.683 273.32C218.683 272.061 218.459 270.973 218.011 270.056C217.563 269.117 216.944 268.392 216.155 267.88C215.387 267.368 214.501 267.112 213.499 267.112C212.005 267.112 210.768 267.677 209.787 268.808C208.827 269.917 208.347 271.421 208.347 273.32C208.347 275.197 208.827 276.701 209.787 277.832C210.768 278.963 212.005 279.528 213.499 279.528ZM211.867 263.592C211.44 263.891 211.109 263.88 210.875 263.56C210.619 263.24 210.683 262.909 211.067 262.568L216.507 257.896C216.912 257.533 217.296 257.565 217.659 257.992L218.043 258.472C218.384 258.92 218.32 259.304 217.851 259.624L211.867 263.592Z" fill="white"/>
<path d="M229.757 281.352C228.583 281.352 227.506 281.16 226.525 280.776C225.565 280.371 224.754 279.805 224.093 279.08C223.815 278.845 223.687 278.611 223.709 278.376C223.73 278.12 223.847 277.896 224.061 277.704C224.466 277.363 224.935 277.405 225.469 277.832C225.959 278.387 226.578 278.813 227.325 279.112C228.093 279.411 228.925 279.56 229.821 279.56C230.866 279.56 231.751 279.336 232.477 278.888C233.223 278.419 233.597 277.693 233.597 276.712C233.597 275.837 233.245 275.229 232.541 274.888C231.837 274.547 230.759 274.227 229.309 273.928C228.413 273.736 227.559 273.501 226.749 273.224C225.959 272.947 225.319 272.531 224.829 271.976C224.338 271.4 224.093 270.611 224.093 269.608C224.093 268.691 224.338 267.912 224.829 267.272C225.341 266.632 226.013 266.141 226.845 265.8C227.677 265.459 228.562 265.288 229.501 265.288C231.591 265.288 233.181 265.939 234.269 267.24C234.567 267.453 234.717 267.677 234.717 267.912C234.717 268.147 234.61 268.36 234.397 268.552C234.183 268.765 233.959 268.861 233.725 268.84C233.511 268.797 233.277 268.68 233.021 268.488C232.231 267.549 231.069 267.08 229.533 267.08C228.423 267.08 227.57 267.325 226.973 267.816C226.375 268.285 226.077 268.872 226.077 269.576C226.077 270.365 226.397 270.931 227.037 271.272C227.698 271.592 228.711 271.901 230.077 272.2C231.037 272.413 231.933 272.68 232.765 273C233.618 273.32 234.301 273.768 234.813 274.344C235.325 274.92 235.581 275.72 235.581 276.744C235.581 278.109 235.047 279.219 233.981 280.072C232.935 280.925 231.527 281.352 229.757 281.352Z" fill="white"/>
<path d="M239.837 273.832C239.56 273.832 239.325 273.747 239.133 273.576C238.962 273.384 238.877 273.149 238.877 272.872C238.877 272.616 238.962 272.392 239.133 272.2C239.325 272.008 239.56 271.912 239.837 271.912H247.901C248.178 271.912 248.402 272.008 248.573 272.2C248.765 272.392 248.861 272.616 248.861 272.872C248.861 273.149 248.765 273.384 248.573 273.576C248.402 273.747 248.178 273.832 247.901 273.832H239.837Z" fill="white"/>
<path d="M254.313 287.656C253.652 287.656 253.321 287.304 253.321 286.6V266.728C253.321 266.024 253.63 265.672 254.249 265.672C254.846 265.672 255.145 265.885 255.145 266.312L255.177 268.456C255.732 267.453 256.468 266.675 257.385 266.12C258.302 265.565 259.348 265.288 260.521 265.288C261.886 265.288 263.102 265.629 264.169 266.312C265.236 266.973 266.068 267.912 266.665 269.128C267.284 270.323 267.593 271.72 267.593 273.32C267.593 274.92 267.284 276.328 266.665 277.544C266.068 278.739 265.236 279.677 264.169 280.36C263.102 281.021 261.886 281.352 260.521 281.352C259.369 281.352 258.345 281.075 257.449 280.52C256.553 279.965 255.828 279.219 255.273 278.28V286.6C255.273 287.304 254.953 287.656 254.313 287.656ZM260.489 279.528C261.492 279.528 262.377 279.272 263.145 278.76C263.934 278.248 264.553 277.533 265.001 276.616C265.449 275.677 265.673 274.579 265.673 273.32C265.673 272.061 265.449 270.973 265.001 270.056C264.553 269.117 263.934 268.392 263.145 267.88C262.377 267.368 261.492 267.112 260.489 267.112C258.974 267.112 257.726 267.677 256.745 268.808C255.764 269.917 255.273 271.421 255.273 273.32C255.273 275.197 255.764 276.701 256.745 277.832C257.726 278.963 258.974 279.528 260.489 279.528Z" fill="white"/>
<path d="M275.292 281.288C273.799 281.309 272.583 280.968 271.644 280.264C270.727 279.56 270.268 278.536 270.268 277.192C270.268 276.168 270.609 275.272 271.292 274.504C271.996 273.736 272.881 273.139 273.948 272.712C275.036 272.264 276.156 272.04 277.308 272.04C278.887 272.04 280.135 272.413 281.052 273.16V270.536C281.052 269.107 280.753 268.179 280.156 267.752C279.559 267.304 278.599 267.08 277.276 267.08C276.572 267.08 275.793 267.187 274.94 267.4C274.108 267.613 273.351 267.891 272.668 268.232C272.028 268.488 271.569 268.392 271.292 267.944C270.972 267.389 271.143 266.963 271.804 266.664C272.593 266.259 273.479 265.928 274.46 265.672C275.463 265.416 276.401 265.288 277.276 265.288C279.217 265.288 280.647 265.661 281.564 266.408C282.481 267.155 282.94 268.531 282.94 270.536V279.016C282.94 279.293 282.993 279.464 283.1 279.528C283.207 279.592 283.431 279.624 283.772 279.624C284.049 279.624 284.284 279.677 284.476 279.784C284.668 279.869 284.764 280.019 284.764 280.232C284.764 280.765 284.497 281.075 283.964 281.16C283.793 281.203 283.612 281.235 283.42 281.256C283.228 281.277 283.047 281.288 282.876 281.288C282.151 281.288 281.681 281.139 281.468 280.84C281.255 280.541 281.127 279.976 281.084 279.144C280.423 279.869 279.548 280.403 278.46 280.744C277.372 281.085 276.316 281.267 275.292 281.288ZM275.388 279.528C276.412 279.507 277.361 279.347 278.236 279.048C279.132 278.749 279.836 278.323 280.348 277.768C280.881 277.192 281.127 276.499 281.084 275.688C281.02 275.027 280.657 274.536 279.996 274.216C279.335 273.875 278.481 273.715 277.436 273.736C276.561 273.736 275.719 273.885 274.908 274.184C274.097 274.483 273.436 274.899 272.924 275.432C272.433 275.944 272.188 276.541 272.188 277.224C272.188 278.013 272.487 278.6 273.084 278.984C273.681 279.347 274.449 279.528 275.388 279.528Z" fill="white"/>
<path d="M289.313 281C288.652 281 288.321 280.648 288.321 279.944V266.728C288.321 266.024 288.662 265.672 289.345 265.672C289.601 265.672 289.814 265.747 289.985 265.896C290.177 266.024 290.273 266.248 290.273 266.568V268.328C290.7 267.432 291.372 266.707 292.289 266.152C293.228 265.576 294.262 265.288 295.393 265.288C295.948 265.288 296.385 265.373 296.705 265.544C297.025 265.693 297.185 265.96 297.185 266.344C297.185 266.664 297.089 266.899 296.897 267.048C296.726 267.197 296.513 267.261 296.257 267.24C296.108 267.24 295.937 267.229 295.745 267.208C295.574 267.187 295.393 267.176 295.201 267.176C294.305 267.176 293.484 267.389 292.737 267.816C291.99 268.221 291.393 268.776 290.945 269.48C290.518 270.163 290.305 270.941 290.305 271.816V279.944C290.305 280.648 289.974 281 289.313 281Z" fill="white"/>
<path d="M306.336 281.352C304.971 281.352 303.947 281.064 303.264 280.488C302.582 279.912 302.24 278.877 302.24 277.384V267.464H299.968C299.264 267.464 298.912 267.155 298.912 266.536C298.912 265.96 299.264 265.672 299.968 265.672H302.24V261.096C302.24 260.392 302.56 260.04 303.2 260.04C303.84 260.04 304.16 260.392 304.16 261.096V265.672H307.776C308.48 265.672 308.832 265.96 308.832 266.536C308.832 267.155 308.48 267.464 307.776 267.464H304.16V277.064C304.16 278.024 304.363 278.685 304.768 279.048C305.174 279.389 305.803 279.56 306.656 279.56C306.763 279.56 306.87 279.56 306.976 279.56C307.104 279.539 307.222 279.528 307.328 279.528C307.755 279.507 308.107 279.528 308.384 279.592C308.683 279.635 308.832 279.859 308.832 280.264C308.832 280.733 308.576 281.032 308.064 281.16C307.552 281.288 306.976 281.352 306.336 281.352Z" fill="white"/>
<path d="M318.655 281.352C317.29 281.352 316.074 281.011 315.007 280.328C313.94 279.645 313.098 278.707 312.479 277.512C311.86 276.296 311.551 274.899 311.551 273.32C311.551 271.741 311.86 270.355 312.479 269.16C313.098 267.944 313.94 266.995 315.007 266.312C316.074 265.629 317.29 265.288 318.655 265.288C320.042 265.288 321.268 265.629 322.335 266.312C323.402 266.995 324.244 267.944 324.863 269.16C325.482 270.355 325.791 271.741 325.791 273.32C325.791 274.899 325.482 276.296 324.863 277.512C324.244 278.707 323.402 279.645 322.335 280.328C321.268 281.011 320.042 281.352 318.655 281.352ZM318.655 279.528C319.658 279.528 320.543 279.272 321.311 278.76C322.1 278.248 322.719 277.533 323.167 276.616C323.615 275.677 323.839 274.579 323.839 273.32C323.839 272.061 323.615 270.973 323.167 270.056C322.719 269.117 322.1 268.392 321.311 267.88C320.543 267.368 319.658 267.112 318.655 267.112C317.162 267.112 315.924 267.677 314.943 268.808C313.983 269.917 313.503 271.421 313.503 273.32C313.503 275.197 313.983 276.701 314.943 277.832C315.924 278.963 317.162 279.528 318.655 279.528Z" fill="white"/>
<path d="M316.487 0.627804C306.882 0.425458 297.087 0.351195 287.864 3.06702C282.236 4.6466 276.984 7.33928 272.422 10.9851C267.861 14.6309 264.082 19.1553 261.31 24.2891C258.627 29.475 257.281 35.2467 257.393 41.0839C257.504 46.921 259.071 52.6403 261.95 57.7263C270.572 72.1043 288.715 77.1941 305.161 80.5699C357.347 91.1497 410.331 97.3251 463.548 99.0312C476.147 99.4805 488.889 99.6753 501.217 96.8751C507.297 95.7695 513.034 93.2673 517.973 89.5666C528.408 81.0418 530.661 66.1467 530.823 52.683C531.274 45.589 530.232 38.4779 527.767 31.8055C520.972 15.8982 501.34 17.3167 486.725 15.0923C467.599 12.2116 448.424 9.74494 429.202 7.69204C391.714 3.75486 354.143 1.40008 316.487 0.627804Z" fill="#FFCBA4"/>
<path d="M343.052 64V62.36L346.652 61.84V39.32L343.052 38.88V37.24H350.452L359.412 59.24L367.892 37.24H375.772V38.88L372.092 39.32C372.066 41 372.039 42.7067 372.012 44.44C372.012 46.1733 372.012 47.9067 372.012 49.64V51.6C372.012 53.3066 372.012 55.0266 372.012 56.76C372.039 58.4666 372.066 60.1866 372.092 61.92L375.772 62.36V64H364.892V62.36L368.252 61.92C368.306 60.24 368.332 58.5333 368.332 56.8C368.332 55.0667 368.332 53.3467 368.332 51.64V41.68L359.652 64H357.652L348.492 41.68L348.732 49.24V61.84L352.012 62.36V64H343.052Z" fill="#0D1320"/>
<path d="M387.765 64.52C386.218 64.52 384.738 64.16 383.325 63.44C381.938 62.6933 380.805 61.5867 379.925 60.12C379.045 58.6267 378.605 56.7866 378.605 54.6C378.605 52.3866 379.045 50.5333 379.925 49.04C380.805 47.52 381.938 46.3867 383.325 45.64C384.738 44.8667 386.218 44.48 387.765 44.48C389.311 44.48 390.778 44.8667 392.165 45.64C393.578 46.3867 394.725 47.52 395.605 49.04C396.511 50.5333 396.965 52.3866 396.965 54.6C396.965 56.7866 396.511 58.6267 395.605 60.12C394.725 61.5867 393.578 62.6933 392.165 63.44C390.778 64.16 389.311 64.52 387.765 64.52ZM387.765 62.72C389.498 62.72 390.831 62.04 391.765 60.68C392.698 59.2933 393.165 57.2667 393.165 54.6C393.165 51.9066 392.698 49.8533 391.765 48.44C390.831 47.0266 389.498 46.32 387.765 46.32C386.031 46.32 384.698 47.0266 383.765 48.44C382.858 49.8533 382.405 51.9066 382.405 54.6C382.405 57.2667 382.858 59.2933 383.765 60.68C384.698 62.04 386.031 62.72 387.765 62.72Z" fill="#0D1320"/>
<path d="M400.438 64V62.56L403.318 62.04C403.344 61.0267 403.358 59.9333 403.358 58.76C403.384 57.56 403.398 56.5066 403.398 55.6V53.68C403.398 52.5867 403.384 51.68 403.358 50.96C403.358 50.24 403.331 49.48 403.278 48.68L400.118 48.32V46.92L405.718 44.48L406.318 44.88L406.758 49.6C407.424 48 408.278 46.7466 409.318 45.84C410.384 44.9333 411.451 44.48 412.518 44.48C413.131 44.48 413.704 44.6133 414.238 44.88C414.771 45.1466 415.158 45.5067 415.398 45.96C415.398 47.9067 414.611 48.88 413.038 48.88C412.584 48.88 412.158 48.8 411.758 48.64C411.358 48.4533 410.971 48.2 410.598 47.88L410.118 47.44C409.318 48.0267 408.651 48.7466 408.118 49.6C407.584 50.4533 407.144 51.4533 406.798 52.6V55.6C406.798 56.48 406.798 57.5067 406.798 58.68C406.824 59.8533 406.851 60.9467 406.878 61.96L410.158 62.56V64H400.438Z" fill="#0D1320"/>
<path d="M431.882 64.4C430.922 64.4 430.122 64.12 429.482 63.56C428.842 63 428.442 62.2533 428.282 61.32C427.189 62.3867 426.229 63.1866 425.402 63.72C424.576 64.2533 423.576 64.52 422.402 64.52C420.936 64.52 419.669 64.1067 418.602 63.28C417.562 62.4267 417.042 61.1733 417.042 59.52C417.042 58.7467 417.216 58.0267 417.562 57.36C417.936 56.6933 418.602 56.04 419.562 55.4C420.522 54.76 421.896 54.12 423.682 53.48C424.296 53.2667 425.002 53.04 425.802 52.8C426.602 52.56 427.402 52.3467 428.202 52.16V51.16C428.202 49.2133 427.909 47.92 427.322 47.28C426.736 46.64 425.776 46.32 424.442 46.32C424.149 46.32 423.816 46.3333 423.442 46.36C423.096 46.3866 422.709 46.4533 422.282 46.56L421.522 49.16C421.149 50.44 420.456 51.08 419.442 51.08C418.322 51.08 417.696 50.5333 417.562 49.44C417.936 47.92 418.816 46.72 420.202 45.84C421.616 44.9333 423.336 44.48 425.362 44.48C427.469 44.48 429.029 45.0133 430.042 46.08C431.056 47.12 431.562 48.9067 431.562 51.44V59.96C431.562 60.8133 431.696 61.4267 431.962 61.8C432.229 62.1467 432.576 62.32 433.002 62.32C433.349 62.32 433.642 62.24 433.882 62.08C434.122 61.92 434.349 61.7067 434.562 61.44L435.362 62.32C434.882 63.0933 434.349 63.64 433.762 63.96C433.202 64.2533 432.576 64.4 431.882 64.4ZM420.602 58.92C420.602 59.9866 420.909 60.7467 421.522 61.2C422.136 61.6533 422.896 61.88 423.802 61.88C424.202 61.88 424.576 61.8266 424.922 61.72C425.296 61.6133 425.736 61.4133 426.242 61.12C426.749 60.8 427.402 60.3466 428.202 59.76V53.64C427.509 53.8267 426.829 54.04 426.162 54.28C425.496 54.4933 424.949 54.68 424.522 54.84C423.376 55.2933 422.522 55.76 421.962 56.24C421.402 56.72 421.029 57.1867 420.842 57.64C420.682 58.0933 420.602 58.52 420.602 58.92Z" fill="#0D1320"/>
<path d="M436.594 64V62.56L439.794 62C439.82 60.9067 439.834 59.84 439.834 58.8C439.86 57.7333 439.874 56.6667 439.874 55.6V38.04L436.594 37.64V36.24L442.834 34.44L443.394 34.76L443.234 40.44V55.6C443.234 56.6667 443.234 57.7333 443.234 58.8C443.26 59.8667 443.287 60.9333 443.314 62L446.514 62.56V64H436.594Z" fill="#0D1320"/>
</svg>
