<svg width="423" height="276" viewBox="0 0 423 276" fill="none" xmlns="http://www.w3.org/2000/svg">
<path fill-rule="evenodd" clip-rule="evenodd" d="M248.233 41.8994C285.336 42.1152 327.362 36.6926 355.51 53.7969C383.321 70.6968 375.807 101.668 387.174 126.328C398.56 151.03 428.588 172.669 422.09 198.241C415.335 224.82 385.508 246.132 353.103 260.401C322.113 274.048 284.707 273.782 248.233 274.8C210.1 275.865 170.778 279.228 137.173 266.43C100.796 252.578 65.9832 230.734 57.4227 202.139C49.0726 174.246 79.5827 149.428 94.1913 122.857C107.73 98.2316 109.69 68.2968 139.668 52.5417C169.733 36.7412 210.784 41.6816 248.233 41.8994Z" fill="#FFCBA4"/>
<path d="M51.1508 19.311C41.6808 20.9271 32.0487 22.7048 23.5048 27.1143C18.2759 29.729 13.6279 33.3654 9.83712 37.8074C6.04636 42.2495 3.19033 47.4064 1.43892 52.9714C-0.215873 58.5708 -0.447411 64.493 0.7652 70.2039C1.97781 75.9148 4.59646 81.2351 8.38515 85.6854C19.5686 98.1753 38.3466 99.7453 55.1333 99.9531C108.379 100.482 161.575 96.5353 214.156 88.1556C226.613 86.2163 239.162 83.9999 250.739 78.9209C256.501 76.6864 261.661 73.1454 265.813 68.578C274.449 58.2352 273.847 43.1826 271.462 29.9308C270.564 22.8796 268.198 16.0933 264.516 10.007C254.838 -4.3299 235.828 0.772272 221.056 1.34944C201.73 2.13439 182.435 3.33504 163.17 4.95111C125.614 8.16786 88.2746 12.9544 51.1508 19.311Z" fill="#DBB2D1"/>
<path d="M126.426 131.312C126.725 131.141 126.981 131.088 127.194 131.152C127.408 131.216 127.557 131.333 127.642 131.504C127.749 131.696 127.728 131.867 127.578 132.016C127.45 132.165 127.237 132.325 126.938 132.496C125.701 133.093 125.082 133.957 125.082 135.088C125.082 135.643 125.178 136.037 125.37 136.272C125.477 135.973 125.658 135.728 125.914 135.536C126.17 135.323 126.469 135.216 126.81 135.216C127.237 135.216 127.61 135.365 127.93 135.664C128.25 135.941 128.41 136.325 128.41 136.816C128.41 137.285 128.24 137.659 127.898 137.936C127.557 138.213 127.152 138.373 126.682 138.416C125.872 138.48 125.178 138.203 124.602 137.584C124.026 136.944 123.738 136.101 123.738 135.056C123.738 134.16 123.973 133.403 124.442 132.784C124.933 132.165 125.594 131.675 126.426 131.312ZM132.506 131.312C132.805 131.141 133.061 131.088 133.274 131.152C133.509 131.216 133.669 131.333 133.754 131.504C133.861 131.696 133.84 131.867 133.69 132.016C133.541 132.165 133.317 132.325 133.018 132.496C132.442 132.773 131.994 133.136 131.674 133.584C131.354 134.011 131.194 134.512 131.194 135.088C131.194 135.643 131.28 136.037 131.45 136.272C131.557 135.973 131.738 135.728 131.994 135.536C132.272 135.323 132.57 135.216 132.89 135.216C133.338 135.216 133.712 135.365 134.01 135.664C134.33 135.941 134.49 136.325 134.49 136.816C134.49 137.285 134.32 137.659 133.978 137.936C133.658 138.213 133.253 138.373 132.762 138.416C131.973 138.48 131.29 138.203 130.714 137.584C130.138 136.944 129.85 136.101 129.85 135.056C129.85 134.16 130.085 133.403 130.554 132.784C131.045 132.165 131.696 131.675 132.506 131.312Z" fill="white"/>
<path d="M139.664 154C139.003 154 138.672 153.648 138.672 152.944V132.656C138.672 131.952 139.003 131.6 139.664 131.6H139.824C140.358 131.6 140.784 131.835 141.104 132.304L153.264 150.48V132.656C153.264 131.952 153.606 131.6 154.288 131.6C154.928 131.6 155.248 131.952 155.248 132.656V152.944C155.248 153.648 154.939 154 154.32 154H154.128C153.574 154 153.158 153.765 152.88 153.296L140.624 134.928V152.944C140.624 153.648 140.304 154 139.664 154Z" fill="white"/>
<path d="M164.386 154.288C162.893 154.309 161.677 153.968 160.738 153.264C159.821 152.56 159.362 151.536 159.362 150.192C159.362 149.168 159.703 148.272 160.386 147.504C161.09 146.736 161.975 146.139 163.042 145.712C164.13 145.264 165.25 145.04 166.402 145.04C167.981 145.04 169.229 145.413 170.146 146.16V143.536C170.146 142.107 169.847 141.179 169.25 140.752C168.653 140.304 167.693 140.08 166.37 140.08C165.666 140.08 164.887 140.187 164.034 140.4C163.202 140.613 162.445 140.891 161.762 141.232C161.122 141.488 160.663 141.392 160.386 140.944C160.066 140.389 160.237 139.963 160.898 139.664C161.687 139.259 162.573 138.928 163.554 138.672C164.557 138.416 165.495 138.288 166.37 138.288C168.311 138.288 169.741 138.661 170.658 139.408C171.575 140.155 172.034 141.531 172.034 143.536V152.016C172.034 152.293 172.087 152.464 172.194 152.528C172.301 152.592 172.525 152.624 172.866 152.624C173.143 152.624 173.378 152.677 173.57 152.784C173.762 152.869 173.858 153.019 173.858 153.232C173.858 153.765 173.591 154.075 173.058 154.16C172.887 154.203 172.706 154.235 172.514 154.256C172.322 154.277 172.141 154.288 171.97 154.288C171.245 154.288 170.775 154.139 170.562 153.84C170.349 153.541 170.221 152.976 170.178 152.144C169.517 152.869 168.642 153.403 167.554 153.744C166.466 154.085 165.41 154.267 164.386 154.288ZM164.482 152.528C165.506 152.507 166.455 152.347 167.33 152.048C168.226 151.749 168.93 151.323 169.442 150.768C169.975 150.192 170.221 149.499 170.178 148.688C170.114 148.027 169.751 147.536 169.09 147.216C168.429 146.875 167.575 146.715 166.53 146.736C165.655 146.736 164.813 146.885 164.002 147.184C163.191 147.483 162.53 147.899 162.018 148.432C161.527 148.944 161.282 149.541 161.282 150.224C161.282 151.013 161.581 151.6 162.178 151.984C162.775 152.347 163.543 152.528 164.482 152.528Z" fill="white"/>
<path d="M187.376 154C186.714 154 186.384 153.648 186.384 152.944V131.952C186.384 131.248 186.714 130.896 187.376 130.896C188.016 130.896 188.336 131.248 188.336 131.952V140.848C188.784 140.123 189.413 139.515 190.224 139.024C191.056 138.533 191.994 138.288 193.04 138.288C194.682 138.288 196.005 138.811 197.008 139.856C198.01 140.901 198.512 142.395 198.512 144.336V152.944C198.512 153.648 198.192 154 197.552 154C196.912 154 196.592 153.648 196.592 152.944V144.624C196.592 143.131 196.229 142.011 195.504 141.264C194.8 140.517 193.882 140.144 192.752 140.144C191.898 140.144 191.13 140.336 190.448 140.72C189.786 141.083 189.264 141.584 188.88 142.224C188.517 142.843 188.336 143.536 188.336 144.304V152.944C188.336 153.648 188.016 154 187.376 154Z" fill="white"/>
<path d="M209.53 154.352C208.165 154.352 206.949 154.011 205.882 153.328C204.815 152.645 203.973 151.707 203.354 150.512C202.735 149.296 202.426 147.899 202.426 146.32C202.426 144.741 202.735 143.355 203.354 142.16C203.973 140.944 204.815 139.995 205.882 139.312C206.949 138.629 208.165 138.288 209.53 138.288C210.917 138.288 212.143 138.629 213.21 139.312C214.277 139.995 215.119 140.944 215.738 142.16C216.357 143.355 216.666 144.741 216.666 146.32C216.666 147.899 216.357 149.296 215.738 150.512C215.119 151.707 214.277 152.645 213.21 153.328C212.143 154.011 210.917 154.352 209.53 154.352ZM209.53 152.528C210.533 152.528 211.418 152.272 212.186 151.76C212.975 151.248 213.594 150.533 214.042 149.616C214.49 148.677 214.714 147.579 214.714 146.32C214.714 145.061 214.49 143.973 214.042 143.056C213.594 142.117 212.975 141.392 212.186 140.88C211.418 140.368 210.533 140.112 209.53 140.112C208.037 140.112 206.799 140.677 205.818 141.808C204.858 142.917 204.378 144.421 204.378 146.32C204.378 148.197 204.858 149.701 205.818 150.832C206.799 151.963 208.037 152.528 209.53 152.528Z" fill="white"/>
<path d="M221.532 154C220.871 154 220.54 153.648 220.54 152.944V139.728C220.54 139.024 220.881 138.672 221.564 138.672C221.82 138.672 222.033 138.747 222.204 138.896C222.396 139.024 222.492 139.248 222.492 139.568V141.328C222.919 140.432 223.591 139.707 224.508 139.152C225.447 138.576 226.481 138.288 227.612 138.288C228.167 138.288 228.604 138.373 228.924 138.544C229.244 138.693 229.404 138.96 229.404 139.344C229.404 139.664 229.308 139.899 229.116 140.048C228.945 140.197 228.732 140.261 228.476 140.24C228.327 140.24 228.156 140.229 227.964 140.208C227.793 140.187 227.612 140.176 227.42 140.176C226.524 140.176 225.703 140.389 224.956 140.816C224.209 141.221 223.612 141.776 223.164 142.48C222.737 143.163 222.524 143.941 222.524 144.816V152.944C222.524 153.648 222.193 154 221.532 154Z" fill="white"/>
<path d="M236.667 154.288C235.174 154.309 233.958 153.968 233.019 153.264C232.102 152.56 231.643 151.536 231.643 150.192C231.643 149.168 231.984 148.272 232.667 147.504C233.371 146.736 234.256 146.139 235.323 145.712C236.411 145.264 237.531 145.04 238.683 145.04C240.262 145.04 241.51 145.413 242.427 146.16V143.536C242.427 142.107 242.128 141.179 241.531 140.752C240.934 140.304 239.974 140.08 238.651 140.08C237.947 140.08 237.168 140.187 236.315 140.4C235.483 140.613 234.726 140.891 234.043 141.232C233.403 141.488 232.944 141.392 232.667 140.944C232.347 140.389 232.518 139.963 233.179 139.664C233.968 139.259 234.854 138.928 235.835 138.672C236.838 138.416 237.776 138.288 238.651 138.288C240.592 138.288 242.022 138.661 242.939 139.408C243.856 140.155 244.315 141.531 244.315 143.536V152.016C244.315 152.293 244.368 152.464 244.475 152.528C244.582 152.592 244.806 152.624 245.147 152.624C245.424 152.624 245.659 152.677 245.851 152.784C246.043 152.869 246.139 153.019 246.139 153.232C246.139 153.765 245.872 154.075 245.339 154.16C245.168 154.203 244.987 154.235 244.795 154.256C244.603 154.277 244.422 154.288 244.251 154.288C243.526 154.288 243.056 154.139 242.843 153.84C242.63 153.541 242.502 152.976 242.459 152.144C241.798 152.869 240.923 153.403 239.835 153.744C238.747 154.085 237.691 154.267 236.667 154.288ZM236.763 152.528C237.787 152.507 238.736 152.347 239.611 152.048C240.507 151.749 241.211 151.323 241.723 150.768C242.256 150.192 242.502 149.499 242.459 148.688C242.395 148.027 242.032 147.536 241.371 147.216C240.71 146.875 239.856 146.715 238.811 146.736C237.936 146.736 237.094 146.885 236.283 147.184C235.472 147.483 234.811 147.899 234.299 148.432C233.808 148.944 233.563 149.541 233.563 150.224C233.563 151.013 233.862 151.6 234.459 151.984C235.056 152.347 235.824 152.528 236.763 152.528Z" fill="white"/>
<path d="M264.905 154.352C263.54 154.352 262.324 154.021 261.257 153.36C260.19 152.677 259.348 151.739 258.729 150.544C258.11 149.328 257.801 147.92 257.801 146.32C257.801 144.72 258.11 143.323 258.729 142.128C259.348 140.933 260.19 140.005 261.257 139.344C262.324 138.661 263.54 138.32 264.905 138.32C266.057 138.32 267.081 138.597 267.977 139.152C268.873 139.685 269.588 140.421 270.121 141.36V131.952C270.121 131.248 270.441 130.896 271.081 130.896C271.742 130.896 272.073 131.248 272.073 131.952V152.944C272.073 153.648 271.774 154 271.177 154C270.58 154 270.281 153.776 270.281 153.328L270.249 151.184C269.694 152.165 268.958 152.944 268.041 153.52C267.124 154.075 266.078 154.352 264.905 154.352ZM264.969 152.528C265.972 152.528 266.857 152.272 267.625 151.76C268.414 151.248 269.033 150.533 269.481 149.616C269.929 148.677 270.153 147.579 270.153 146.32C270.153 145.061 269.929 143.973 269.481 143.056C269.033 142.139 268.414 141.424 267.625 140.912C266.857 140.4 265.972 140.144 264.969 140.144C263.966 140.144 263.07 140.4 262.281 140.912C261.492 141.424 260.873 142.139 260.425 143.056C259.977 143.973 259.753 145.061 259.753 146.32C259.753 147.579 259.977 148.677 260.425 149.616C260.873 150.533 261.492 151.248 262.281 151.76C263.07 152.272 263.966 152.528 264.969 152.528Z" fill="white"/>
<path d="M283.124 154.352C281.738 154.352 280.5 154.032 279.412 153.392C278.346 152.731 277.503 151.803 276.884 150.608C276.287 149.392 275.988 147.963 275.988 146.32C275.988 144.72 276.287 143.323 276.884 142.128C277.503 140.933 278.346 140.005 279.412 139.344C280.479 138.661 281.695 138.32 283.06 138.32C284.447 138.32 285.62 138.661 286.58 139.344C287.562 140.027 288.308 140.891 288.82 141.936C289.332 142.981 289.588 144.048 289.588 145.136C289.588 145.52 289.492 145.787 289.3 145.936C289.13 146.085 288.874 146.16 288.532 146.16H277.94C277.898 148.08 278.346 149.637 279.284 150.832C280.244 152.005 281.535 152.592 283.156 152.592C285.162 152.592 286.655 151.685 287.636 149.872C288.063 149.317 288.5 149.168 288.948 149.424C289.503 149.787 289.578 150.267 289.172 150.864C287.828 153.189 285.812 154.352 283.124 154.352ZM278.068 144.496H287.668C287.562 143.664 287.295 142.907 286.868 142.224C286.463 141.541 285.93 140.997 285.268 140.592C284.628 140.187 283.892 139.984 283.06 139.984C281.759 139.984 280.66 140.389 279.764 141.2C278.89 141.989 278.324 143.088 278.068 144.496Z" fill="white"/>
<path d="M305.322 154C304.661 154 304.33 153.648 304.33 152.944V140.464H302.218C301.514 140.464 301.162 140.155 301.162 139.536C301.162 138.96 301.45 138.672 302.026 138.672H304.33V135.632C304.33 134.373 304.544 133.392 304.97 132.688C305.397 131.984 305.962 131.483 306.666 131.184C307.37 130.885 308.128 130.736 308.938 130.736C309.557 130.736 310.08 130.811 310.506 130.96C310.933 131.088 311.136 131.365 311.114 131.792C311.072 132.368 310.698 132.624 309.994 132.56C309.824 132.539 309.664 132.528 309.514 132.528C309.386 132.507 309.237 132.496 309.066 132.496C308.277 132.496 307.605 132.763 307.05 133.296C306.517 133.808 306.25 134.629 306.25 135.76V138.672H310.058C310.762 138.672 311.114 138.96 311.114 139.536C311.114 140.155 310.762 140.464 310.058 140.464H306.25V152.944C306.25 153.648 305.941 154 305.322 154Z" fill="white"/>
<path d="M318.23 154.288C316.736 154.309 315.52 153.968 314.582 153.264C313.664 152.56 313.206 151.536 313.206 150.192C313.206 149.168 313.547 148.272 314.23 147.504C314.934 146.736 315.819 146.139 316.886 145.712C317.974 145.264 319.094 145.04 320.246 145.04C321.824 145.04 323.072 145.413 323.99 146.16V143.536C323.99 142.107 323.691 141.179 323.094 140.752C322.496 140.304 321.536 140.08 320.214 140.08C319.51 140.08 318.731 140.187 317.878 140.4C317.046 140.613 316.288 140.891 315.606 141.232C314.966 141.488 314.507 141.392 314.23 140.944C313.91 140.389 314.08 139.963 314.742 139.664C315.531 139.259 316.416 138.928 317.398 138.672C318.4 138.416 319.339 138.288 320.214 138.288C322.155 138.288 323.584 138.661 324.502 139.408C325.419 140.155 325.878 141.531 325.878 143.536V152.016C325.878 152.293 325.931 152.464 326.038 152.528C326.144 152.592 326.368 152.624 326.71 152.624C326.987 152.624 327.222 152.677 327.414 152.784C327.606 152.869 327.702 153.019 327.702 153.232C327.702 153.765 327.435 154.075 326.902 154.16C326.731 154.203 326.55 154.235 326.358 154.256C326.166 154.277 325.984 154.288 325.814 154.288C325.088 154.288 324.619 154.139 324.406 153.84C324.192 153.541 324.064 152.976 324.022 152.144C323.36 152.869 322.486 153.403 321.398 153.744C320.31 154.085 319.254 154.267 318.23 154.288ZM318.326 152.528C319.35 152.507 320.299 152.347 321.174 152.048C322.07 151.749 322.774 151.323 323.286 150.768C323.819 150.192 324.064 149.499 324.022 148.688C323.958 148.027 323.595 147.536 322.934 147.216C322.272 146.875 321.419 146.715 320.374 146.736C319.499 146.736 318.656 146.885 317.846 147.184C317.035 147.483 316.374 147.899 315.862 148.432C315.371 148.944 315.126 149.541 315.126 150.224C315.126 151.013 315.424 151.6 316.022 151.984C316.619 152.347 317.387 152.528 318.326 152.528Z" fill="white"/>
<path d="M331.163 154C330.459 154 330.107 153.712 330.107 153.136V153.008C330.107 152.517 330.256 152.08 330.555 151.696L339.227 140.4H331.739C331.035 140.4 330.683 140.112 330.683 139.536C330.683 138.96 331.035 138.672 331.739 138.672H340.507C341.211 138.672 341.563 138.96 341.563 139.536V139.664C341.563 139.92 341.531 140.155 341.467 140.368C341.403 140.56 341.285 140.763 341.115 140.976L332.411 152.272H340.667C341.371 152.272 341.723 152.549 341.723 153.104C341.723 153.701 341.371 154 340.667 154H331.163Z" fill="white"/>
<path d="M351.593 154.352C350.206 154.352 348.969 154.032 347.881 153.392C346.814 152.731 345.972 151.803 345.353 150.608C344.756 149.392 344.457 147.963 344.457 146.32C344.457 144.72 344.756 143.323 345.353 142.128C345.972 140.933 346.814 140.005 347.881 139.344C348.948 138.661 350.164 138.32 351.529 138.32C352.916 138.32 354.089 138.661 355.049 139.344C356.03 140.027 356.777 140.891 357.289 141.936C357.801 142.981 358.057 144.048 358.057 145.136C358.057 145.52 357.961 145.787 357.769 145.936C357.598 146.085 357.342 146.16 357.001 146.16H346.409C346.366 148.08 346.814 149.637 347.753 150.832C348.713 152.005 350.004 152.592 351.625 152.592C353.63 152.592 355.124 151.685 356.105 149.872C356.532 149.317 356.969 149.168 357.417 149.424C357.972 149.787 358.046 150.267 357.641 150.864C356.297 153.189 354.281 154.352 351.593 154.352ZM346.537 144.496H356.137C356.03 143.664 355.764 142.907 355.337 142.224C354.932 141.541 354.398 140.997 353.737 140.592C353.097 140.187 352.361 139.984 351.529 139.984C350.228 139.984 349.129 140.389 348.233 141.2C347.358 141.989 346.793 143.088 346.537 144.496Z" fill="white"/>
<path d="M363.094 154C362.433 154 362.102 153.648 362.102 152.944V139.728C362.102 139.024 362.444 138.672 363.126 138.672C363.382 138.672 363.596 138.747 363.766 138.896C363.958 139.024 364.054 139.248 364.054 139.568V141.328C364.481 140.432 365.153 139.707 366.07 139.152C367.009 138.576 368.044 138.288 369.174 138.288C369.729 138.288 370.166 138.373 370.486 138.544C370.806 138.693 370.966 138.96 370.966 139.344C370.966 139.664 370.87 139.899 370.678 140.048C370.508 140.197 370.294 140.261 370.038 140.24C369.889 140.24 369.718 140.229 369.526 140.208C369.356 140.187 369.174 140.176 368.982 140.176C368.086 140.176 367.265 140.389 366.518 140.816C365.772 141.221 365.174 141.776 364.726 142.48C364.3 143.163 364.086 143.941 364.086 144.816V152.944C364.086 153.648 363.756 154 363.094 154Z" fill="white"/>
<path d="M140.183 200.032C139.948 200.032 139.724 199.968 139.511 199.84C139.298 199.691 139.138 199.467 139.031 199.168L133.783 185.888C133.634 185.525 133.612 185.237 133.719 185.024C133.847 184.789 134.082 184.672 134.423 184.672C135.042 184.672 135.447 184.949 135.639 185.504L140.151 197.216L144.535 185.504C144.77 184.949 145.175 184.672 145.751 184.672C146.071 184.672 146.284 184.789 146.391 185.024C146.498 185.237 146.487 185.525 146.359 185.888L141.303 199.136C141.068 199.733 140.695 200.032 140.183 200.032Z" fill="white"/>
<path d="M155.733 200.352C154.368 200.352 153.152 200.011 152.085 199.328C151.018 198.645 150.176 197.707 149.557 196.512C148.938 195.296 148.629 193.899 148.629 192.32C148.629 190.741 148.938 189.355 149.557 188.16C150.176 186.944 151.018 185.995 152.085 185.312C153.152 184.629 154.368 184.288 155.733 184.288C157.12 184.288 158.346 184.629 159.413 185.312C160.48 185.995 161.322 186.944 161.941 188.16C162.56 189.355 162.869 190.741 162.869 192.32C162.869 193.899 162.56 195.296 161.941 196.512C161.322 197.707 160.48 198.645 159.413 199.328C158.346 200.011 157.12 200.352 155.733 200.352ZM155.733 198.528C156.736 198.528 157.621 198.272 158.389 197.76C159.178 197.248 159.797 196.533 160.245 195.616C160.693 194.677 160.917 193.579 160.917 192.32C160.917 191.061 160.693 189.973 160.245 189.056C159.797 188.117 159.178 187.392 158.389 186.88C157.621 186.368 156.736 186.112 155.733 186.112C154.24 186.112 153.002 186.677 152.021 187.808C151.061 188.917 150.581 190.421 150.581 192.32C150.581 194.197 151.061 195.701 152.021 196.832C153.002 197.963 154.24 198.528 155.733 198.528Z" fill="white"/>
<path d="M172.983 200.352C171.618 200.352 170.402 200.021 169.335 199.36C168.268 198.677 167.426 197.728 166.807 196.512C166.188 195.296 165.879 193.899 165.879 192.32C165.879 190.741 166.188 189.355 166.807 188.16C167.426 186.944 168.268 186.005 169.335 185.344C170.402 184.661 171.618 184.32 172.983 184.32C174.818 184.32 176.364 184.917 177.623 186.112C177.9 186.325 178.028 186.56 178.007 186.816C177.986 187.072 177.858 187.296 177.623 187.488C177.367 187.659 177.132 187.733 176.919 187.712C176.727 187.691 176.492 187.573 176.215 187.36C175.298 186.549 174.22 186.144 172.983 186.144C171.49 186.144 170.252 186.709 169.271 187.84C168.311 188.949 167.831 190.443 167.831 192.32C167.831 194.197 168.311 195.701 169.271 196.832C170.252 197.963 171.49 198.528 172.983 198.528C174.242 198.528 175.308 198.123 176.183 197.312C176.439 197.099 176.674 196.981 176.887 196.96C177.122 196.917 177.367 196.981 177.623 197.152C177.858 197.344 177.986 197.568 178.007 197.824C178.028 198.059 177.911 198.293 177.655 198.528C176.375 199.744 174.818 200.352 172.983 200.352Z" fill="white"/>
<path d="M187.921 200.352C186.535 200.352 185.297 200.032 184.209 199.392C183.143 198.731 182.3 197.803 181.681 196.608C181.084 195.392 180.785 193.963 180.785 192.32C180.785 190.72 181.084 189.323 181.681 188.128C182.3 186.933 183.143 186.005 184.209 185.344C185.276 184.661 186.492 184.32 187.857 184.32C189.244 184.32 190.417 184.661 191.377 185.344C192.359 186.027 193.105 186.891 193.617 187.936C194.129 188.981 194.385 190.048 194.385 191.136C194.385 191.52 194.289 191.787 194.097 191.936C193.927 192.085 193.671 192.16 193.329 192.16H182.737C182.695 194.08 183.143 195.637 184.081 196.832C185.041 198.005 186.332 198.592 187.953 198.592C189.959 198.592 191.452 197.685 192.433 195.872C192.86 195.317 193.297 195.168 193.745 195.424C194.3 195.787 194.375 196.267 193.969 196.864C192.625 199.189 190.609 200.352 187.921 200.352ZM182.865 190.496H192.465C192.359 189.664 192.092 188.907 191.665 188.224C191.26 187.541 190.727 186.997 190.065 186.592C189.425 186.187 188.689 185.984 187.857 185.984C186.556 185.984 185.457 186.389 184.561 187.2C183.687 187.989 183.121 189.088 182.865 190.496ZM186.449 177.664C186.748 177.365 187.089 177.216 187.473 177.216H187.857C188.263 177.216 188.604 177.365 188.881 177.664L192.209 181.408C192.551 181.792 192.583 182.123 192.305 182.4C192.028 182.677 191.697 182.656 191.313 182.336L187.665 179.36L183.985 182.336C183.58 182.677 183.249 182.699 182.993 182.4C182.716 182.123 182.748 181.792 183.089 181.408L186.449 177.664Z" fill="white"/>
<path d="M208.391 200C207.73 200 207.399 199.648 207.399 198.944V185.728C207.399 185.024 207.709 184.672 208.327 184.672C208.946 184.672 209.255 184.907 209.255 185.376L209.287 186.848C209.778 186.123 210.429 185.515 211.239 185.024C212.071 184.533 213.01 184.288 214.055 184.288C215.698 184.288 217.021 184.811 218.023 185.856C219.026 186.901 219.527 188.395 219.527 190.336V198.944C219.527 199.648 219.207 200 218.567 200C217.927 200 217.607 199.648 217.607 198.944V190.624C217.607 189.131 217.245 188.011 216.519 187.264C215.815 186.517 214.898 186.144 213.767 186.144C212.914 186.144 212.146 186.336 211.463 186.72C210.802 187.083 210.279 187.584 209.895 188.224C209.533 188.843 209.351 189.536 209.351 190.304V198.944C209.351 199.648 209.031 200 208.391 200Z" fill="white"/>
<path d="M228.402 200.288C226.908 200.309 225.692 199.968 224.753 199.264C223.836 198.56 223.378 197.536 223.378 196.192C223.378 195.168 223.719 194.272 224.402 193.504C225.106 192.736 225.991 192.139 227.057 191.712C228.145 191.264 229.265 191.04 230.417 191.04C231.996 191.04 233.244 191.413 234.161 192.16V189.536C234.161 188.107 233.863 187.179 233.266 186.752C232.668 186.304 231.708 186.08 230.385 186.08C229.681 186.08 228.903 186.187 228.049 186.4C227.217 186.613 226.46 186.891 225.777 187.232C225.137 187.488 224.679 187.392 224.402 186.944C224.082 186.389 224.252 185.963 224.913 185.664C225.703 185.259 226.588 184.928 227.57 184.672C228.572 184.416 229.511 184.288 230.385 184.288C232.327 184.288 233.756 184.661 234.674 185.408C235.591 186.155 236.049 187.531 236.049 189.536V198.016C236.049 198.293 236.103 198.464 236.21 198.528C236.316 198.592 236.54 198.624 236.882 198.624C237.159 198.624 237.393 198.677 237.585 198.784C237.777 198.869 237.874 199.019 237.874 199.232C237.874 199.765 237.607 200.075 237.074 200.16C236.903 200.203 236.721 200.235 236.529 200.256C236.337 200.277 236.156 200.288 235.986 200.288C235.26 200.288 234.791 200.139 234.577 199.84C234.364 199.541 234.236 198.976 234.193 198.144C233.532 198.869 232.658 199.403 231.57 199.744C230.482 200.085 229.426 200.267 228.402 200.288ZM228.497 198.528C229.521 198.507 230.471 198.347 231.346 198.048C232.242 197.749 232.946 197.323 233.458 196.768C233.991 196.192 234.236 195.499 234.193 194.688C234.129 194.027 233.767 193.536 233.105 193.216C232.444 192.875 231.591 192.715 230.546 192.736C229.671 192.736 228.828 192.885 228.018 193.184C227.207 193.483 226.545 193.899 226.033 194.432C225.543 194.944 225.298 195.541 225.298 196.224C225.298 197.013 225.596 197.6 226.193 197.984C226.791 198.347 227.559 198.528 228.497 198.528ZM225.777 180.832C225.5 181.323 225.18 181.408 224.818 181.088C224.455 180.789 224.391 180.427 224.626 180C224.946 179.403 225.319 178.88 225.745 178.432C226.193 177.984 226.684 177.76 227.217 177.76C227.644 177.76 228.071 177.867 228.497 178.08C228.924 178.293 229.34 178.549 229.745 178.848C230.151 179.125 230.535 179.371 230.898 179.584C231.282 179.797 231.634 179.904 231.954 179.904C232.487 179.904 232.967 179.467 233.393 178.592C233.713 178.059 234.055 177.952 234.417 178.272C234.759 178.592 234.812 178.944 234.577 179.328C234.236 180.011 233.841 180.555 233.393 180.96C232.945 181.365 232.466 181.568 231.954 181.568C231.57 181.568 231.164 181.461 230.738 181.248C230.311 181.013 229.884 180.757 229.458 180.48C229.052 180.203 228.657 179.957 228.273 179.744C227.911 179.509 227.58 179.392 227.281 179.392C226.94 179.392 226.652 179.531 226.417 179.808C226.183 180.085 225.969 180.427 225.777 180.832Z" fill="white"/>
<path d="M247.046 200.352C245.68 200.352 244.464 200.011 243.398 199.328C242.331 198.645 241.488 197.707 240.87 196.512C240.251 195.296 239.941 193.899 239.941 192.32C239.941 190.741 240.251 189.355 240.87 188.16C241.488 186.944 242.331 185.995 243.398 185.312C244.464 184.629 245.68 184.288 247.046 184.288C248.432 184.288 249.659 184.629 250.725 185.312C251.792 185.995 252.635 186.944 253.253 188.16C253.872 189.355 254.182 190.741 254.182 192.32C254.182 193.899 253.872 195.296 253.253 196.512C252.635 197.707 251.792 198.645 250.725 199.328C249.659 200.011 248.432 200.352 247.046 200.352ZM247.046 198.528C248.048 198.528 248.934 198.272 249.702 197.76C250.491 197.248 251.109 196.533 251.557 195.616C252.005 194.677 252.23 193.579 252.23 192.32C252.23 191.061 252.005 189.973 251.557 189.056C251.109 188.117 250.491 187.392 249.702 186.88C248.934 186.368 248.048 186.112 247.046 186.112C245.552 186.112 244.315 186.677 243.333 187.808C242.373 188.917 241.893 190.421 241.893 192.32C241.893 194.197 242.373 195.701 243.333 196.832C244.315 197.963 245.552 198.528 247.046 198.528Z" fill="white"/>
<path d="M273.04 206.912C270.651 206.912 268.731 206.091 267.28 204.448C266.811 203.915 266.864 203.456 267.44 203.072C267.888 202.752 268.358 202.837 268.848 203.328C269.872 204.48 271.27 205.056 273.04 205.056C274.619 205.056 275.824 204.533 276.656 203.488C277.488 202.464 277.904 200.917 277.904 198.848V196.096C277.371 196.928 276.678 197.589 275.824 198.08C274.971 198.549 274 198.784 272.912 198.784C271.611 198.784 270.448 198.485 269.424 197.888C268.422 197.291 267.622 196.448 267.024 195.36C266.448 194.272 266.16 192.992 266.16 191.52C266.16 190.048 266.448 188.779 267.024 187.712C267.622 186.624 268.422 185.781 269.424 185.184C270.448 184.587 271.611 184.288 272.912 184.288C274.022 184.288 275.024 184.544 275.92 185.056C276.816 185.568 277.531 186.304 278.064 187.264V185.568C278.064 184.971 278.352 184.672 278.928 184.672C279.526 184.672 279.824 185.024 279.824 185.728V198.848C279.824 201.621 279.195 203.659 277.936 204.96C276.699 206.261 275.067 206.912 273.04 206.912ZM273.008 196.992C273.968 196.992 274.822 196.768 275.568 196.32C276.315 195.851 276.902 195.211 277.328 194.4C277.755 193.568 277.968 192.608 277.968 191.52C277.968 190.432 277.755 189.483 277.328 188.672C276.902 187.861 276.315 187.232 275.568 186.784C274.822 186.315 273.968 186.08 273.008 186.08C272.07 186.08 271.227 186.315 270.48 186.784C269.755 187.232 269.179 187.861 268.752 188.672C268.326 189.483 268.112 190.432 268.112 191.52C268.112 192.608 268.326 193.568 268.752 194.4C269.179 195.211 269.755 195.851 270.48 196.32C271.227 196.768 272.07 196.992 273.008 196.992Z" fill="white"/>
<path d="M285.579 200C284.917 200 284.587 199.648 284.587 198.944V185.728C284.587 185.024 284.928 184.672 285.611 184.672C285.867 184.672 286.08 184.747 286.251 184.896C286.443 185.024 286.539 185.248 286.539 185.568V187.328C286.965 186.432 287.637 185.707 288.555 185.152C289.493 184.576 290.528 184.288 291.659 184.288C292.213 184.288 292.651 184.373 292.971 184.544C293.291 184.693 293.451 184.96 293.451 185.344C293.451 185.664 293.355 185.899 293.163 186.048C292.992 186.197 292.779 186.261 292.523 186.24C292.373 186.24 292.203 186.229 292.011 186.208C291.84 186.187 291.659 186.176 291.467 186.176C290.571 186.176 289.749 186.389 289.003 186.816C288.256 187.221 287.659 187.776 287.211 188.48C286.784 189.163 286.571 189.941 286.571 190.816V198.944C286.571 199.648 286.24 200 285.579 200Z" fill="white"/>
<path d="M298.122 200C297.482 200 297.162 199.648 297.162 198.944V185.728C297.162 185.024 297.482 184.672 298.122 184.672C298.762 184.672 299.082 185.024 299.082 185.728V198.944C299.082 199.648 298.762 200 298.122 200ZM298.122 181.344C297.717 181.344 297.365 181.205 297.066 180.928C296.767 180.629 296.618 180.277 296.618 179.872C296.618 179.445 296.767 179.093 297.066 178.816C297.365 178.539 297.717 178.4 298.122 178.4C298.527 178.4 298.869 178.539 299.146 178.816C299.423 179.093 299.562 179.445 299.562 179.872C299.562 180.277 299.423 180.629 299.146 180.928C298.869 181.205 298.527 181.344 298.122 181.344Z" fill="white"/>
<path d="M310.321 200.352C308.955 200.352 307.931 200.064 307.249 199.488C306.566 198.912 306.225 197.877 306.225 196.384V186.464H303.953C303.249 186.464 302.897 186.155 302.897 185.536C302.897 184.96 303.249 184.672 303.953 184.672H306.225V180.096C306.225 179.392 306.545 179.04 307.185 179.04C307.825 179.04 308.145 179.392 308.145 180.096V184.672H311.761C312.465 184.672 312.817 184.96 312.817 185.536C312.817 186.155 312.465 186.464 311.761 186.464H308.145V196.064C308.145 197.024 308.347 197.685 308.753 198.048C309.158 198.389 309.787 198.56 310.641 198.56C310.747 198.56 310.854 198.56 310.961 198.56C311.089 198.539 311.206 198.528 311.313 198.528C311.739 198.507 312.091 198.528 312.369 198.592C312.667 198.635 312.817 198.859 312.817 199.264C312.817 199.733 312.561 200.032 312.049 200.16C311.537 200.288 310.961 200.352 310.321 200.352Z" fill="white"/>
<path d="M322.639 200.352C321.274 200.352 320.058 200.011 318.991 199.328C317.925 198.645 317.082 197.707 316.463 196.512C315.845 195.296 315.535 193.899 315.535 192.32C315.535 190.741 315.845 189.355 316.463 188.16C317.082 186.944 317.925 185.995 318.991 185.312C320.058 184.629 321.274 184.288 322.639 184.288C324.026 184.288 325.253 184.629 326.319 185.312C327.386 185.995 328.229 186.944 328.847 188.16C329.466 189.355 329.775 190.741 329.775 192.32C329.775 193.899 329.466 195.296 328.847 196.512C328.229 197.707 327.386 198.645 326.319 199.328C325.253 200.011 324.026 200.352 322.639 200.352ZM322.639 198.528C323.642 198.528 324.527 198.272 325.295 197.76C326.085 197.248 326.703 196.533 327.151 195.616C327.599 194.677 327.823 193.579 327.823 192.32C327.823 191.061 327.599 189.973 327.151 189.056C326.703 188.117 326.085 187.392 325.295 186.88C324.527 186.368 323.642 186.112 322.639 186.112C321.146 186.112 319.909 186.677 318.927 187.808C317.967 188.917 317.487 190.421 317.487 192.32C317.487 194.197 317.967 195.701 318.927 196.832C319.909 197.963 321.146 198.528 322.639 198.528Z" fill="white"/>
<path d="M338.833 200.352C337.212 200.352 335.9 199.829 334.897 198.784C333.895 197.739 333.393 196.245 333.393 194.304V185.728C333.393 185.024 333.713 184.672 334.353 184.672C334.993 184.672 335.313 185.024 335.313 185.728V194.048C335.313 195.541 335.665 196.661 336.369 197.408C337.095 198.155 338.023 198.528 339.153 198.528C340.455 198.528 341.511 198.123 342.321 197.312C343.132 196.501 343.537 195.509 343.537 194.336V185.728C343.537 185.024 343.868 184.672 344.529 184.672C345.169 184.672 345.489 185.024 345.489 185.728V198.912C345.489 199.616 345.191 199.968 344.593 199.968C343.975 199.968 343.665 199.733 343.665 199.264L343.601 197.824C343.153 198.528 342.513 199.125 341.681 199.616C340.849 200.107 339.9 200.352 338.833 200.352Z" fill="white"/>
<path d="M351.363 184.352C351.064 184.501 350.808 184.555 350.595 184.512C350.403 184.448 350.254 184.331 350.147 184.16C350.062 183.968 350.083 183.797 350.211 183.648C350.339 183.499 350.552 183.339 350.851 183.168C352.088 182.592 352.707 181.728 352.707 180.576C352.707 180.043 352.611 179.648 352.419 179.392C352.334 179.691 352.152 179.947 351.875 180.16C351.619 180.352 351.32 180.448 350.979 180.448C350.531 180.448 350.147 180.299 349.827 180C349.528 179.701 349.379 179.317 349.379 178.848C349.379 178.379 349.55 178.005 349.891 177.728C350.232 177.429 350.638 177.269 351.107 177.248C351.918 177.205 352.611 177.493 353.187 178.112C353.763 178.709 354.051 179.541 354.051 180.608C354.051 181.504 353.806 182.261 353.315 182.88C352.846 183.499 352.195 183.989 351.363 184.352ZM357.443 184.352C357.166 184.501 356.92 184.555 356.707 184.512C356.494 184.448 356.334 184.331 356.227 184.16C356.142 183.968 356.163 183.797 356.291 183.648C356.44 183.499 356.654 183.339 356.931 183.168C358.168 182.592 358.787 181.728 358.787 180.576C358.787 180.043 358.691 179.648 358.499 179.392C358.414 179.691 358.232 179.947 357.955 180.16C357.699 180.352 357.411 180.448 357.091 180.448C356.643 180.448 356.259 180.299 355.939 180C355.64 179.701 355.491 179.317 355.491 178.848C355.491 178.379 355.662 178.005 356.003 177.728C356.344 177.429 356.75 177.269 357.219 177.248C358.03 177.205 358.712 177.493 359.267 178.112C359.843 178.709 360.131 179.541 360.131 180.608C360.131 181.504 359.886 182.261 359.395 182.88C358.926 183.499 358.275 183.989 357.443 184.352Z" fill="white"/>
<path d="M78.9359 36.88V35.24H89.8559V37.04L86.0159 37.4L92.7359 56.56L99.2159 37.44L95.6959 37.04V35.24H104.936V36.88L101.456 37.36L93.0159 62.28H91.2559L81.9359 37.24L78.9359 36.88Z" fill="#0D1320"/>
<path d="M113.198 44.32C112.451 44.32 111.691 44.5333 110.918 44.96C110.171 45.3867 109.517 46.0667 108.957 47C108.424 47.9333 108.078 49.1733 107.918 50.72H115.198C116.158 50.72 116.784 50.52 117.077 50.12C117.397 49.72 117.558 49.2267 117.558 48.64C117.558 47.8667 117.357 47.16 116.957 46.52C116.584 45.8533 116.064 45.32 115.397 44.92C114.757 44.52 114.024 44.32 113.198 44.32ZM113.158 62.52C110.464 62.52 108.304 61.6533 106.677 59.92C105.051 58.16 104.238 55.7467 104.238 52.68C104.238 50.6267 104.651 48.84 105.478 47.32C106.331 45.8 107.451 44.6133 108.838 43.76C110.251 42.9067 111.784 42.48 113.438 42.48C114.824 42.48 116.078 42.7867 117.198 43.4C118.318 44.0133 119.211 44.8933 119.878 46.04C120.544 47.16 120.878 48.5333 120.878 50.16C120.878 50.6133 120.851 51.04 120.798 51.44C120.744 51.8133 120.678 52.1333 120.598 52.4H107.838C107.891 54.8533 108.504 56.72 109.677 58C110.851 59.28 112.397 59.92 114.317 59.92C115.597 59.92 116.664 59.6667 117.518 59.16C118.371 58.6267 119.158 57.9467 119.878 57.12L120.838 57.88C120.091 59.2933 119.078 60.4267 117.798 61.28C116.518 62.1067 114.971 62.52 113.158 62.52Z" fill="#0D1320"/>
<path d="M124.508 62V60.56L127.388 60.04C127.415 59.0267 127.428 57.9333 127.428 56.76C127.455 55.56 127.468 54.5067 127.468 53.6V51.68C127.468 50.5867 127.455 49.68 127.428 48.96C127.428 48.24 127.401 47.48 127.348 46.68L124.188 46.32V44.92L129.788 42.48L130.388 42.88L130.828 47.6C131.495 46 132.348 44.7467 133.388 43.84C134.455 42.9333 135.521 42.48 136.588 42.48C137.201 42.48 137.775 42.6133 138.308 42.88C138.841 43.1467 139.228 43.5067 139.468 43.96C139.468 45.9067 138.681 46.88 137.108 46.88C136.655 46.88 136.228 46.8 135.828 46.64C135.428 46.4533 135.041 46.2 134.668 45.88L134.188 45.44C133.388 46.0267 132.721 46.7467 132.188 47.6C131.655 48.4533 131.215 49.4533 130.868 50.6V53.6C130.868 54.48 130.868 55.5067 130.868 56.68C130.895 57.8533 130.921 58.9467 130.948 59.96L134.228 60.56V62H124.508Z" fill="#0D1320"/>
<path d="M140.512 62V60.56L143.512 60.04C143.539 59.0267 143.553 57.9333 143.553 56.76C143.579 55.56 143.592 54.5067 143.592 53.6V36.04L140.312 35.64V34.24L146.432 32.44L146.992 32.76L146.833 38.44V45.56C147.793 44.4933 148.779 43.72 149.792 43.24C150.832 42.7333 151.899 42.48 152.992 42.48C154.406 42.48 155.686 42.8667 156.833 43.64C157.979 44.4133 158.886 45.5333 159.553 47C160.246 48.4667 160.592 50.24 160.592 52.32C160.592 54.3733 160.232 56.1733 159.512 57.72C158.792 59.24 157.806 60.4267 156.553 61.28C155.326 62.1067 153.926 62.52 152.352 62.52C151.419 62.52 150.486 62.32 149.553 61.92C148.619 61.52 147.713 60.7733 146.833 59.68L146.512 62.4L140.512 62ZM151.913 44.76C151.299 44.76 150.592 44.92 149.792 45.24C148.992 45.56 148.046 46.1733 146.952 47.08V58.04C147.779 58.8133 148.593 59.3733 149.393 59.72C150.193 60.0667 150.966 60.24 151.712 60.24C153.126 60.24 154.353 59.6267 155.393 58.4C156.459 57.1467 156.993 55.2267 156.993 52.64C156.993 50.08 156.513 48.1333 155.553 46.8C154.619 45.44 153.406 44.76 151.913 44.76Z" fill="#0D1320"/>
<path d="M179.038 62.4C178.078 62.4 177.278 62.12 176.638 61.56C175.998 61 175.598 60.2533 175.438 59.32C174.345 60.3867 173.385 61.1867 172.558 61.72C171.732 62.2533 170.732 62.52 169.558 62.52C168.092 62.52 166.825 62.1067 165.758 61.28C164.718 60.4267 164.198 59.1733 164.198 57.52C164.198 56.7467 164.372 56.0267 164.718 55.36C165.092 54.6933 165.758 54.04 166.718 53.4C167.678 52.76 169.052 52.12 170.838 51.48C171.452 51.2667 172.158 51.04 172.958 50.8C173.758 50.56 174.558 50.3467 175.358 50.16V49.16C175.358 47.2133 175.065 45.92 174.478 45.28C173.892 44.64 172.932 44.32 171.598 44.32C171.305 44.32 170.972 44.3333 170.598 44.36C170.252 44.3867 169.865 44.4533 169.438 44.56L168.678 47.16C168.305 48.44 167.612 49.08 166.598 49.08C165.478 49.08 164.852 48.5333 164.718 47.44C165.092 45.92 165.972 44.72 167.358 43.84C168.772 42.9333 170.492 42.48 172.518 42.48C174.625 42.48 176.185 43.0133 177.198 44.08C178.212 45.12 178.718 46.9067 178.718 49.44V57.96C178.718 58.8133 178.852 59.4267 179.118 59.8C179.385 60.1467 179.732 60.32 180.158 60.32C180.505 60.32 180.798 60.24 181.038 60.08C181.278 59.92 181.505 59.7067 181.718 59.44L182.518 60.32C182.038 61.0933 181.505 61.64 180.918 61.96C180.358 62.2533 179.732 62.4 179.038 62.4ZM167.758 56.92C167.758 57.9867 168.065 58.7467 168.678 59.2C169.292 59.6533 170.052 59.88 170.958 59.88C171.358 59.88 171.732 59.8267 172.078 59.72C172.452 59.6133 172.892 59.4133 173.398 59.12C173.905 58.8 174.558 58.3467 175.358 57.76V51.64C174.665 51.8267 173.985 52.04 173.318 52.28C172.652 52.4933 172.105 52.68 171.678 52.84C170.532 53.2933 169.678 53.76 169.118 54.24C168.558 54.72 168.185 55.1867 167.998 55.64C167.838 56.0933 167.758 56.52 167.758 56.92Z" fill="#0D1320"/>
<path d="M183.75 62V60.56L186.95 60C186.977 58.9067 186.99 57.84 186.99 56.8C187.017 55.7333 187.03 54.6667 187.03 53.6V36.04L183.75 35.64V34.24L189.99 32.44L190.55 32.76L190.39 38.44V53.6C190.39 54.6667 190.39 55.7333 190.39 56.8C190.417 57.8667 190.443 58.9333 190.47 60L193.67 60.56V62H183.75Z" fill="#0D1320"/>
</svg>
