<svg width="500" height="348" viewBox="0 0 500 348" fill="none" xmlns="http://www.w3.org/2000/svg">
<path fill-rule="evenodd" clip-rule="evenodd" d="M61.413 232.465C42.1216 181.135 -9.70908 126.088 23.7038 79.1392C57.0917 32.2251 134.996 41.6595 195.094 44.6272C237.929 46.7424 265.36 79.4089 305.065 93.033C368.103 114.663 462.121 90.8492 490.879 146.121C519.428 200.991 472.862 273.696 420.33 314.567C375.231 349.655 310.879 326.424 252.749 331.393C207.405 335.269 160.564 360.142 121.774 340.086C81.7982 319.417 76.3582 272.232 61.413 232.465Z" fill="#DBB2D1"/>
<path d="M51.1508 19.311C41.6808 20.9271 32.0487 22.7048 23.5048 27.1143C18.2759 29.729 13.6279 33.3654 9.83712 37.8074C6.04636 42.2495 3.19033 47.4064 1.43892 52.9714C-0.215873 58.5708 -0.447411 64.493 0.7652 70.2039C1.97781 75.9148 4.59646 81.2351 8.38515 85.6854C19.5686 98.1753 38.3466 99.7453 55.1333 99.9531C108.379 100.482 161.575 96.5353 214.156 88.1556C226.613 86.2163 239.162 83.9999 250.739 78.9209C256.501 76.6864 261.661 73.1454 265.813 68.578C274.449 58.2352 273.847 43.1826 271.462 29.9308C270.564 22.8796 268.198 16.0933 264.516 10.007C254.838 -4.3299 235.828 0.772272 221.056 1.34944C201.73 2.13439 182.435 3.33504 163.17 4.95111C125.614 8.16786 88.2746 12.9544 51.1508 19.311Z" fill="#FFCBA4"/>
<path d="M86.3655 36.88V35.24H106.285L106.565 42.32H104.285L103.405 37.24H94.0055C93.9788 38.9467 93.9521 40.6533 93.9255 42.36C93.9255 44.0667 93.9255 45.7467 93.9255 47.4H100.125L100.685 43.6H102.525V53.44H100.685L100.125 49.28H93.9255C93.9255 51.2533 93.9255 53.1067 93.9255 54.84C93.9521 56.5733 93.9788 58.2667 94.0055 59.92L97.7255 60.36V62H86.3655V60.36L90.0455 59.92C90.0988 58.24 90.1255 56.5333 90.1255 54.8C90.1255 53.0667 90.1255 51.3333 90.1255 49.6V47.64C90.1255 45.9067 90.1255 44.1867 90.1255 42.48C90.1255 40.7467 90.0988 39.0267 90.0455 37.32L86.3655 36.88Z" fill="#0D1320"/>
<path d="M108.74 62V60.56L111.7 60C111.727 58.9867 111.74 57.8933 111.74 56.72C111.767 55.5467 111.78 54.5067 111.78 53.6V51.72C111.78 50.6267 111.767 49.72 111.74 49C111.74 48.2533 111.713 47.48 111.66 46.68L108.5 46.32V44.92L114.7 42.48L115.3 42.88L115.18 48.32V53.6C115.18 54.48 115.18 55.52 115.18 56.72C115.207 57.8933 115.233 58.9867 115.26 60L118.02 60.56V62H108.74ZM111.66 38.96C112.78 37.0667 113.967 35.1867 115.22 33.32C115.593 32.7067 115.953 32.28 116.3 32.04C116.673 31.8 117.033 31.68 117.38 31.68C117.753 31.68 118.1 31.8 118.42 32.04C118.74 32.28 118.9 32.6667 118.9 33.2C118.9 33.4667 118.807 33.7733 118.62 34.12C118.46 34.44 118.1 34.8667 117.54 35.4C116.713 36.1467 115.9 36.88 115.1 37.6C114.327 38.2933 113.527 39 112.7 39.72L111.66 38.96Z" fill="#0D1320"/>
<path d="M127.254 62.52C126.134 62.52 125.107 62.3867 124.174 62.12C123.241 61.88 122.281 61.5067 121.294 61L121.134 56.6H123.334L124.094 60.08C125.027 60.5067 126.107 60.72 127.334 60.72C128.854 60.72 129.974 60.44 130.694 59.88C131.441 59.32 131.814 58.5867 131.814 57.68C131.814 56.8267 131.507 56.1467 130.894 55.64C130.281 55.1067 129.347 54.6267 128.094 54.2L126.254 53.52C124.787 52.9867 123.614 52.2933 122.734 51.44C121.854 50.5867 121.414 49.48 121.414 48.12C121.414 47.1333 121.681 46.2133 122.214 45.36C122.747 44.5067 123.534 43.8133 124.574 43.28C125.614 42.7467 126.881 42.48 128.374 42.48C129.467 42.48 130.454 42.6267 131.334 42.92C132.241 43.1867 133.121 43.5867 133.974 44.12L133.814 48.2H131.734L131.094 45C130.187 44.5467 129.267 44.32 128.334 44.32C127.107 44.32 126.174 44.5733 125.534 45.08C124.921 45.56 124.614 46.2133 124.614 47.04C124.614 47.92 124.881 48.5867 125.414 49.04C125.974 49.4933 126.934 49.9733 128.294 50.48L129.534 50.92C131.534 51.6667 132.947 52.52 133.774 53.48C134.627 54.44 135.054 55.5467 135.054 56.8C135.054 57.8133 134.761 58.76 134.174 59.64C133.587 60.4933 132.721 61.1867 131.574 61.72C130.427 62.2533 128.987 62.52 127.254 62.52Z" fill="#0D1320"/>
<path d="M137.998 62V60.56L140.998 60C141.024 58.9867 141.038 57.8933 141.038 56.72C141.064 55.52 141.078 54.48 141.078 53.6V51.72C141.078 50.6267 141.064 49.72 141.038 49C141.038 48.2533 141.011 47.48 140.958 46.68L137.758 46.32V44.92L143.918 42.48L144.518 42.88L144.398 48.32V53.6C144.398 54.48 144.398 55.52 144.398 56.72C144.424 57.8933 144.451 58.9867 144.478 60L147.278 60.56V62H137.998ZM142.718 38.08C141.971 38.08 141.331 37.84 140.798 37.36C140.291 36.88 140.038 36.2667 140.038 35.52C140.038 34.7467 140.291 34.1333 140.798 33.68C141.331 33.2 141.971 32.96 142.718 32.96C143.464 32.96 144.091 33.2 144.598 33.68C145.131 34.1333 145.398 34.7467 145.398 35.52C145.398 36.2667 145.131 36.88 144.598 37.36C144.091 37.84 143.464 38.08 142.718 38.08Z" fill="#0D1320"/>
<path d="M159.192 62.52C156.445 62.52 154.258 61.6267 152.632 59.84C151.005 58.0533 150.192 55.6267 150.192 52.56C150.192 50.4533 150.618 48.6533 151.472 47.16C152.352 45.64 153.498 44.48 154.912 43.68C156.325 42.88 157.832 42.48 159.432 42.48C160.632 42.48 161.738 42.7067 162.752 43.16C163.765 43.6133 164.605 44.24 165.272 45.04C165.938 45.8133 166.352 46.6933 166.512 47.68C166.325 48.6933 165.712 49.2 164.672 49.2C164.005 49.2 163.498 49.0267 163.152 48.68C162.832 48.3067 162.605 47.84 162.472 47.28L161.752 44.64C161.378 44.5067 161.005 44.4267 160.632 44.4C160.285 44.3467 159.938 44.32 159.592 44.32C157.885 44.32 156.472 44.9867 155.352 46.32C154.258 47.6533 153.712 49.6 153.712 52.16C153.712 54.6667 154.312 56.5867 155.512 57.92C156.712 59.2533 158.245 59.92 160.112 59.92C161.258 59.92 162.312 59.6667 163.272 59.16C164.232 58.6267 165.018 57.8667 165.632 56.88L166.632 57.4C166.072 59.0533 165.165 60.32 163.912 61.2C162.658 62.08 161.085 62.52 159.192 62.52Z" fill="#0D1320"/>
<path d="M184.683 62.4C183.723 62.4 182.923 62.12 182.283 61.56C181.643 61 181.243 60.2533 181.083 59.32C179.99 60.3867 179.03 61.1867 178.203 61.72C177.376 62.2533 176.376 62.52 175.203 62.52C173.736 62.52 172.47 62.1067 171.403 61.28C170.363 60.4267 169.843 59.1733 169.843 57.52C169.843 56.7467 170.016 56.0267 170.363 55.36C170.736 54.6933 171.403 54.04 172.363 53.4C173.323 52.76 174.696 52.12 176.483 51.48C177.096 51.2667 177.803 51.04 178.603 50.8C179.403 50.56 180.203 50.3467 181.003 50.16V49.16C181.003 47.2133 180.71 45.92 180.123 45.28C179.536 44.64 178.576 44.32 177.243 44.32C176.95 44.32 176.616 44.3333 176.243 44.36C175.896 44.3867 175.51 44.4533 175.083 44.56L174.323 47.16C173.95 48.44 173.256 49.08 172.243 49.08C171.123 49.08 170.496 48.5333 170.363 47.44C170.736 45.92 171.616 44.72 173.003 43.84C174.416 42.9333 176.136 42.48 178.163 42.48C180.27 42.48 181.83 43.0133 182.843 44.08C183.856 45.12 184.363 46.9067 184.363 49.44V57.96C184.363 58.8133 184.496 59.4267 184.763 59.8C185.03 60.1467 185.376 60.32 185.803 60.32C186.15 60.32 186.443 60.24 186.683 60.08C186.923 59.92 187.15 59.7067 187.363 59.44L188.163 60.32C187.683 61.0933 187.15 61.64 186.563 61.96C186.003 62.2533 185.376 62.4 184.683 62.4ZM173.403 56.92C173.403 57.9867 173.71 58.7467 174.323 59.2C174.936 59.6533 175.696 59.88 176.603 59.88C177.003 59.88 177.376 59.8267 177.723 59.72C178.096 59.6133 178.536 59.4133 179.043 59.12C179.55 58.8 180.203 58.3467 181.003 57.76V51.64C180.31 51.8267 179.63 52.04 178.963 52.28C178.296 52.4933 177.75 52.68 177.323 52.84C176.176 53.2933 175.323 53.76 174.763 54.24C174.203 54.72 173.83 55.1867 173.643 55.64C173.483 56.0933 173.403 56.52 173.403 56.92Z" fill="#0D1320"/>
<path d="M95.5316 160.384C94.017 160.384 92.609 160.149 91.3076 159.68C90.0276 159.211 88.9076 158.464 87.9476 157.44C87.4783 156.907 87.5316 156.448 88.1076 156.064C88.577 155.701 89.0463 155.776 89.5156 156.288C91.0516 157.76 93.0676 158.496 95.5636 158.496C96.5663 158.496 97.4836 158.347 98.3156 158.048C99.169 157.749 99.8516 157.291 100.364 156.672C100.876 156.053 101.132 155.285 101.132 154.368C101.132 153.557 100.961 152.853 100.62 152.256C100.3 151.659 99.6596 151.136 98.6996 150.688C97.7396 150.24 96.3103 149.845 94.4116 149.504C90.2303 148.715 88.1396 146.645 88.1396 143.296C88.1396 142.08 88.4383 141.013 89.0356 140.096C89.633 139.157 90.465 138.432 91.5316 137.92C92.5983 137.387 93.8356 137.12 95.2436 137.12C96.5236 137.12 97.697 137.333 98.7636 137.76C99.8516 138.165 100.865 138.741 101.804 139.488C102.337 139.979 102.348 140.448 101.836 140.896C101.409 141.323 100.929 141.312 100.396 140.864C99.6063 140.267 98.7956 139.819 97.9636 139.52C97.1316 139.221 96.2143 139.072 95.2116 139.072C93.761 139.072 92.5556 139.435 91.5956 140.16C90.657 140.864 90.1876 141.888 90.1876 143.232C90.1876 144.405 90.561 145.355 91.3076 146.08C92.0756 146.805 93.4516 147.349 95.4356 147.712C98.1876 148.203 100.161 148.971 101.356 150.016C102.55 151.061 103.148 152.501 103.148 154.336C103.148 155.595 102.806 156.683 102.124 157.6C101.462 158.496 100.556 159.189 99.4036 159.68C98.2516 160.149 96.961 160.384 95.5316 160.384Z" fill="white"/>
<path d="M113.624 160.352C112.238 160.352 111 160.032 109.912 159.392C108.846 158.731 108.003 157.803 107.384 156.608C106.787 155.392 106.488 153.963 106.488 152.32C106.488 150.72 106.787 149.323 107.384 148.128C108.003 146.933 108.846 146.005 109.912 145.344C110.979 144.661 112.195 144.32 113.56 144.32C114.947 144.32 116.12 144.661 117.08 145.344C118.062 146.027 118.808 146.891 119.32 147.936C119.832 148.981 120.088 150.048 120.088 151.136C120.088 151.52 119.992 151.787 119.8 151.936C119.63 152.085 119.374 152.16 119.032 152.16H108.44C108.398 154.08 108.846 155.637 109.784 156.832C110.744 158.005 112.035 158.592 113.656 158.592C115.662 158.592 117.155 157.685 118.136 155.872C118.563 155.317 119 155.168 119.448 155.424C120.003 155.787 120.078 156.267 119.672 156.864C118.328 159.189 116.312 160.352 113.624 160.352ZM108.568 150.496H118.168C118.062 149.664 117.795 148.907 117.368 148.224C116.963 147.541 116.43 146.997 115.768 146.592C115.128 146.187 114.392 145.984 113.56 145.984C112.259 145.984 111.16 146.389 110.264 147.2C109.39 147.989 108.824 149.088 108.568 150.496Z" fill="white"/>
<path d="M125.126 160C124.464 160 124.134 159.648 124.134 158.944V145.728C124.134 145.024 124.475 144.672 125.158 144.672C125.414 144.672 125.627 144.747 125.798 144.896C125.99 145.024 126.086 145.248 126.086 145.568V147.328C126.512 146.432 127.184 145.707 128.102 145.152C129.04 144.576 130.075 144.288 131.206 144.288C131.76 144.288 132.198 144.373 132.518 144.544C132.838 144.693 132.998 144.96 132.998 145.344C132.998 145.664 132.902 145.899 132.71 146.048C132.539 146.197 132.326 146.261 132.07 146.24C131.92 146.24 131.75 146.229 131.558 146.208C131.387 146.187 131.206 146.176 131.014 146.176C130.118 146.176 129.296 146.389 128.55 146.816C127.803 147.221 127.206 147.776 126.758 148.48C126.331 149.163 126.118 149.941 126.118 150.816V158.944C126.118 159.648 125.787 160 125.126 160Z" fill="white"/>
<path d="M151.374 160.352C150.008 160.352 148.792 160.011 147.726 159.328C146.659 158.645 145.816 157.707 145.198 156.512C144.579 155.296 144.27 153.899 144.27 152.32C144.27 150.741 144.579 149.355 145.198 148.16C145.816 146.944 146.659 145.995 147.726 145.312C148.792 144.629 150.008 144.288 151.374 144.288C152.76 144.288 153.987 144.629 155.054 145.312C156.12 145.995 156.963 146.944 157.582 148.16C158.2 149.355 158.51 150.741 158.51 152.32C158.51 153.899 158.2 155.296 157.582 156.512C156.963 157.707 156.12 158.645 155.054 159.328C153.987 160.011 152.76 160.352 151.374 160.352ZM151.374 158.528C152.376 158.528 153.262 158.272 154.03 157.76C154.819 157.248 155.438 156.533 155.886 155.616C156.334 154.677 156.558 153.579 156.558 152.32C156.558 151.061 156.334 149.973 155.886 149.056C155.438 148.117 154.819 147.392 154.03 146.88C153.262 146.368 152.376 146.112 151.374 146.112C149.88 146.112 148.643 146.677 147.662 147.808C146.702 148.917 146.222 150.421 146.222 152.32C146.222 154.197 146.702 155.701 147.662 156.832C148.643 157.963 149.88 158.528 151.374 158.528Z" fill="white"/>
<path d="M169.584 160.352C168.41 160.352 167.365 160.075 166.448 159.52C165.53 158.944 164.794 158.144 164.24 157.12V159.104C164.24 159.424 164.154 159.659 163.984 159.808C163.813 159.936 163.589 160 163.312 160C162.693 160 162.384 159.648 162.384 158.944V137.952C162.384 137.248 162.714 136.896 163.376 136.896C164.016 136.896 164.336 137.248 164.336 137.952V147.36C164.89 146.421 165.616 145.685 166.512 145.152C167.408 144.597 168.432 144.32 169.584 144.32C170.949 144.32 172.165 144.661 173.232 145.344C174.298 146.005 175.13 146.933 175.728 148.128C176.346 149.323 176.656 150.72 176.656 152.32C176.656 153.92 176.346 155.328 175.728 156.544C175.13 157.739 174.298 158.677 173.232 159.36C172.165 160.021 170.949 160.352 169.584 160.352ZM169.552 158.528C170.554 158.528 171.44 158.272 172.208 157.76C172.997 157.248 173.616 156.533 174.064 155.616C174.512 154.677 174.736 153.579 174.736 152.32C174.736 151.061 174.512 149.973 174.064 149.056C173.616 148.139 172.997 147.424 172.208 146.912C171.44 146.4 170.554 146.144 169.552 146.144C168.037 146.144 166.789 146.709 165.808 147.84C164.826 148.949 164.336 150.443 164.336 152.32C164.336 154.197 164.826 155.701 165.808 156.832C166.789 157.963 168.037 158.528 169.552 158.528Z" fill="white"/>
<path d="M181.563 160C180.902 160 180.571 159.648 180.571 158.944V145.728C180.571 145.024 180.912 144.672 181.595 144.672C181.851 144.672 182.064 144.747 182.235 144.896C182.427 145.024 182.523 145.248 182.523 145.568V147.328C182.95 146.432 183.622 145.707 184.539 145.152C185.478 144.576 186.512 144.288 187.643 144.288C188.198 144.288 188.635 144.373 188.955 144.544C189.275 144.693 189.435 144.96 189.435 145.344C189.435 145.664 189.339 145.899 189.147 146.048C188.976 146.197 188.763 146.261 188.507 146.24C188.358 146.24 188.187 146.229 187.995 146.208C187.824 146.187 187.643 146.176 187.451 146.176C186.555 146.176 185.734 146.389 184.987 146.816C184.24 147.221 183.643 147.776 183.195 148.48C182.768 149.163 182.555 149.941 182.555 150.816V158.944C182.555 159.648 182.224 160 181.563 160Z" fill="white"/>
<path d="M194.106 160C193.466 160 193.146 159.648 193.146 158.944V145.728C193.146 145.024 193.466 144.672 194.106 144.672C194.746 144.672 195.066 145.024 195.066 145.728V158.944C195.066 159.648 194.746 160 194.106 160ZM194.106 141.344C193.701 141.344 193.349 141.205 193.05 140.928C192.752 140.629 192.602 140.277 192.602 139.872C192.602 139.445 192.752 139.093 193.05 138.816C193.349 138.539 193.701 138.4 194.106 138.4C194.512 138.4 194.853 138.539 195.13 138.816C195.408 139.093 195.546 139.445 195.546 139.872C195.546 140.277 195.408 140.629 195.13 140.928C194.853 141.205 194.512 141.344 194.106 141.344Z" fill="white"/>
<path d="M206.337 166.912C203.948 166.912 202.028 166.091 200.577 164.448C200.108 163.915 200.161 163.456 200.737 163.072C201.185 162.752 201.654 162.837 202.145 163.328C203.169 164.48 204.566 165.056 206.337 165.056C207.916 165.056 209.121 164.533 209.953 163.488C210.785 162.464 211.201 160.917 211.201 158.848V156.096C210.668 156.928 209.974 157.589 209.121 158.08C208.268 158.549 207.297 158.784 206.209 158.784C204.908 158.784 203.745 158.485 202.721 157.888C201.718 157.291 200.918 156.448 200.321 155.36C199.745 154.272 199.457 152.992 199.457 151.52C199.457 150.048 199.745 148.779 200.321 147.712C200.918 146.624 201.718 145.781 202.721 145.184C203.745 144.587 204.908 144.288 206.209 144.288C207.318 144.288 208.321 144.544 209.217 145.056C210.113 145.568 210.828 146.304 211.361 147.264V145.568C211.361 144.971 211.649 144.672 212.225 144.672C212.822 144.672 213.121 145.024 213.121 145.728V158.848C213.121 161.621 212.492 163.659 211.233 164.96C209.996 166.261 208.364 166.912 206.337 166.912ZM206.305 156.992C207.265 156.992 208.118 156.768 208.865 156.32C209.612 155.851 210.198 155.211 210.625 154.4C211.052 153.568 211.265 152.608 211.265 151.52C211.265 150.432 211.052 149.483 210.625 148.672C210.198 147.861 209.612 147.232 208.865 146.784C208.118 146.315 207.265 146.08 206.305 146.08C205.366 146.08 204.524 146.315 203.777 146.784C203.052 147.232 202.476 147.861 202.049 148.672C201.622 149.483 201.409 150.432 201.409 151.52C201.409 152.608 201.622 153.568 202.049 154.4C202.476 155.211 203.052 155.851 203.777 156.32C204.524 156.768 205.366 156.992 206.305 156.992Z" fill="white"/>
<path d="M221.98 160.288C220.486 160.309 219.27 159.968 218.332 159.264C217.414 158.56 216.956 157.536 216.956 156.192C216.956 155.168 217.297 154.272 217.98 153.504C218.684 152.736 219.569 152.139 220.636 151.712C221.724 151.264 222.844 151.04 223.996 151.04C225.574 151.04 226.822 151.413 227.74 152.16V149.536C227.74 148.107 227.441 147.179 226.844 146.752C226.246 146.304 225.286 146.08 223.964 146.08C223.26 146.08 222.481 146.187 221.628 146.4C220.796 146.613 220.038 146.891 219.356 147.232C218.716 147.488 218.257 147.392 217.98 146.944C217.66 146.389 217.83 145.963 218.492 145.664C219.281 145.259 220.166 144.928 221.148 144.672C222.15 144.416 223.089 144.288 223.964 144.288C225.905 144.288 227.334 144.661 228.252 145.408C229.169 146.155 229.628 147.531 229.628 149.536V158.016C229.628 158.293 229.681 158.464 229.788 158.528C229.894 158.592 230.118 158.624 230.46 158.624C230.737 158.624 230.972 158.677 231.164 158.784C231.356 158.869 231.452 159.019 231.452 159.232C231.452 159.765 231.185 160.075 230.652 160.16C230.481 160.203 230.3 160.235 230.108 160.256C229.916 160.277 229.734 160.288 229.564 160.288C228.838 160.288 228.369 160.139 228.156 159.84C227.942 159.541 227.814 158.976 227.772 158.144C227.11 158.869 226.236 159.403 225.148 159.744C224.06 160.085 223.004 160.267 221.98 160.288ZM222.076 158.528C223.1 158.507 224.049 158.347 224.924 158.048C225.82 157.749 226.524 157.323 227.036 156.768C227.569 156.192 227.814 155.499 227.772 154.688C227.708 154.027 227.345 153.536 226.684 153.216C226.022 152.875 225.169 152.715 224.124 152.736C223.249 152.736 222.406 152.885 221.596 153.184C220.785 153.483 220.124 153.899 219.612 154.432C219.121 154.944 218.876 155.541 218.876 156.224C218.876 157.013 219.174 157.6 219.772 157.984C220.369 158.347 221.137 158.528 222.076 158.528Z" fill="white"/>
<path d="M240.624 160.352C239.258 160.352 238.042 160.021 236.976 159.36C235.909 158.677 235.066 157.739 234.448 156.544C233.829 155.328 233.52 153.92 233.52 152.32C233.52 150.72 233.829 149.323 234.448 148.128C235.066 146.933 235.909 146.005 236.976 145.344C238.042 144.661 239.258 144.32 240.624 144.32C241.776 144.32 242.8 144.597 243.696 145.152C244.592 145.685 245.306 146.421 245.84 147.36V137.952C245.84 137.248 246.16 136.896 246.8 136.896C247.461 136.896 247.792 137.248 247.792 137.952V158.944C247.792 159.648 247.493 160 246.896 160C246.298 160 246 159.776 246 159.328L245.968 157.184C245.413 158.165 244.677 158.944 243.76 159.52C242.842 160.075 241.797 160.352 240.624 160.352ZM240.688 158.528C241.69 158.528 242.576 158.272 243.344 157.76C244.133 157.248 244.752 156.533 245.2 155.616C245.648 154.677 245.872 153.579 245.872 152.32C245.872 151.061 245.648 149.973 245.2 149.056C244.752 148.139 244.133 147.424 243.344 146.912C242.576 146.4 241.69 146.144 240.688 146.144C239.685 146.144 238.789 146.4 238 146.912C237.21 147.424 236.592 148.139 236.144 149.056C235.696 149.973 235.472 151.061 235.472 152.32C235.472 153.579 235.696 154.677 236.144 155.616C236.592 156.533 237.21 157.248 238 157.76C238.789 158.272 239.685 158.528 240.688 158.528Z" fill="white"/>
<path d="M256.667 160.288C255.174 160.309 253.958 159.968 253.019 159.264C252.102 158.56 251.643 157.536 251.643 156.192C251.643 155.168 251.984 154.272 252.667 153.504C253.371 152.736 254.256 152.139 255.323 151.712C256.411 151.264 257.531 151.04 258.683 151.04C260.262 151.04 261.51 151.413 262.427 152.16V149.536C262.427 148.107 262.128 147.179 261.531 146.752C260.934 146.304 259.974 146.08 258.651 146.08C257.947 146.08 257.168 146.187 256.315 146.4C255.483 146.613 254.726 146.891 254.043 147.232C253.403 147.488 252.944 147.392 252.667 146.944C252.347 146.389 252.518 145.963 253.179 145.664C253.968 145.259 254.854 144.928 255.835 144.672C256.838 144.416 257.776 144.288 258.651 144.288C260.592 144.288 262.022 144.661 262.939 145.408C263.856 146.155 264.315 147.531 264.315 149.536V158.016C264.315 158.293 264.368 158.464 264.475 158.528C264.582 158.592 264.806 158.624 265.147 158.624C265.424 158.624 265.659 158.677 265.851 158.784C266.043 158.869 266.139 159.019 266.139 159.232C266.139 159.765 265.872 160.075 265.339 160.16C265.168 160.203 264.987 160.235 264.795 160.256C264.603 160.277 264.422 160.288 264.251 160.288C263.526 160.288 263.056 160.139 262.843 159.84C262.63 159.541 262.502 158.976 262.459 158.144C261.798 158.869 260.923 159.403 259.835 159.744C258.747 160.085 257.691 160.267 256.667 160.288ZM256.763 158.528C257.787 158.507 258.736 158.347 259.611 158.048C260.507 157.749 261.211 157.323 261.723 156.768C262.256 156.192 262.502 155.499 262.459 154.688C262.395 154.027 262.032 153.536 261.371 153.216C260.71 152.875 259.856 152.715 258.811 152.736C257.936 152.736 257.094 152.885 256.283 153.184C255.472 153.483 254.811 153.899 254.299 154.432C253.808 154.944 253.563 155.541 253.563 156.224C253.563 157.013 253.862 157.6 254.459 157.984C255.056 158.347 255.824 158.528 256.763 158.528Z" fill="white"/>
<path d="M282.761 160.288C281.268 160.309 280.052 159.968 279.113 159.264C278.196 158.56 277.737 157.536 277.737 156.192C277.737 155.168 278.078 154.272 278.761 153.504C279.465 152.736 280.35 152.139 281.417 151.712C282.505 151.264 283.625 151.04 284.777 151.04C286.356 151.04 287.604 151.413 288.521 152.16V149.536C288.521 148.107 288.222 147.179 287.625 146.752C287.028 146.304 286.068 146.08 284.745 146.08C284.041 146.08 283.262 146.187 282.409 146.4C281.577 146.613 280.82 146.891 280.137 147.232C279.497 147.488 279.038 147.392 278.761 146.944C278.441 146.389 278.612 145.963 279.273 145.664C280.062 145.259 280.948 144.928 281.929 144.672C282.932 144.416 283.87 144.288 284.745 144.288C286.686 144.288 288.116 144.661 289.033 145.408C289.95 146.155 290.409 147.531 290.409 149.536V158.016C290.409 158.293 290.462 158.464 290.569 158.528C290.676 158.592 290.9 158.624 291.241 158.624C291.518 158.624 291.753 158.677 291.945 158.784C292.137 158.869 292.233 159.019 292.233 159.232C292.233 159.765 291.966 160.075 291.433 160.16C291.262 160.203 291.081 160.235 290.889 160.256C290.697 160.277 290.516 160.288 290.345 160.288C289.62 160.288 289.15 160.139 288.937 159.84C288.724 159.541 288.596 158.976 288.553 158.144C287.892 158.869 287.017 159.403 285.929 159.744C284.841 160.085 283.785 160.267 282.761 160.288ZM282.857 158.528C283.881 158.507 284.83 158.347 285.705 158.048C286.601 157.749 287.305 157.323 287.817 156.768C288.35 156.192 288.596 155.499 288.553 154.688C288.489 154.027 288.126 153.536 287.465 153.216C286.804 152.875 285.95 152.715 284.905 152.736C284.03 152.736 283.188 152.885 282.377 153.184C281.566 153.483 280.905 153.899 280.393 154.432C279.902 154.944 279.657 155.541 279.657 156.224C279.657 157.013 279.956 157.6 280.553 157.984C281.15 158.347 281.918 158.528 282.857 158.528Z" fill="white"/>
<path d="M305.751 166.656C305.089 166.656 304.759 166.304 304.759 165.6V145.728C304.759 145.024 305.068 144.672 305.687 144.672C306.284 144.672 306.583 144.885 306.583 145.312L306.615 147.456C307.169 146.453 307.905 145.675 308.823 145.12C309.74 144.565 310.785 144.288 311.959 144.288C313.324 144.288 314.54 144.629 315.607 145.312C316.673 145.973 317.505 146.912 318.103 148.128C318.721 149.323 319.031 150.72 319.031 152.32C319.031 153.92 318.721 155.328 318.103 156.544C317.505 157.739 316.673 158.677 315.607 159.36C314.54 160.021 313.324 160.352 311.959 160.352C310.807 160.352 309.783 160.075 308.887 159.52C307.991 158.965 307.265 158.219 306.711 157.28V165.6C306.711 166.304 306.391 166.656 305.751 166.656ZM311.927 158.528C312.929 158.528 313.815 158.272 314.583 157.76C315.372 157.248 315.991 156.533 316.439 155.616C316.887 154.677 317.111 153.579 317.111 152.32C317.111 151.061 316.887 149.973 316.439 149.056C315.991 148.117 315.372 147.392 314.583 146.88C313.815 146.368 312.929 146.112 311.927 146.112C310.412 146.112 309.164 146.677 308.183 147.808C307.201 148.917 306.711 150.421 306.711 152.32C306.711 154.197 307.201 155.701 308.183 156.832C309.164 157.963 310.412 158.528 311.927 158.528Z" fill="white"/>
<path d="M326.73 160.288C325.236 160.309 324.02 159.968 323.082 159.264C322.164 158.56 321.706 157.536 321.706 156.192C321.706 155.168 322.047 154.272 322.73 153.504C323.434 152.736 324.319 152.139 325.386 151.712C326.474 151.264 327.594 151.04 328.746 151.04C330.324 151.04 331.572 151.413 332.49 152.16V149.536C332.49 148.107 332.191 147.179 331.594 146.752C330.996 146.304 330.036 146.08 328.714 146.08C328.01 146.08 327.231 146.187 326.378 146.4C325.546 146.613 324.788 146.891 324.106 147.232C323.466 147.488 323.007 147.392 322.73 146.944C322.41 146.389 322.58 145.963 323.242 145.664C324.031 145.259 324.916 144.928 325.898 144.672C326.9 144.416 327.839 144.288 328.714 144.288C330.655 144.288 332.084 144.661 333.002 145.408C333.919 146.155 334.378 147.531 334.378 149.536V158.016C334.378 158.293 334.431 158.464 334.538 158.528C334.644 158.592 334.868 158.624 335.21 158.624C335.487 158.624 335.722 158.677 335.914 158.784C336.106 158.869 336.202 159.019 336.202 159.232C336.202 159.765 335.935 160.075 335.402 160.16C335.231 160.203 335.05 160.235 334.858 160.256C334.666 160.277 334.484 160.288 334.314 160.288C333.588 160.288 333.119 160.139 332.906 159.84C332.692 159.541 332.564 158.976 332.522 158.144C331.86 158.869 330.986 159.403 329.898 159.744C328.81 160.085 327.754 160.267 326.73 160.288ZM326.826 158.528C327.85 158.507 328.799 158.347 329.674 158.048C330.57 157.749 331.274 157.323 331.786 156.768C332.319 156.192 332.564 155.499 332.522 154.688C332.458 154.027 332.095 153.536 331.434 153.216C330.772 152.875 329.919 152.715 328.874 152.736C327.999 152.736 327.156 152.885 326.346 153.184C325.535 153.483 324.874 153.899 324.362 154.432C323.871 154.944 323.626 155.541 323.626 156.224C323.626 157.013 323.924 157.6 324.522 157.984C325.119 158.347 325.887 158.528 326.826 158.528Z" fill="white"/>
<path d="M340.751 160C340.089 160 339.759 159.648 339.759 158.944V145.728C339.759 145.024 340.1 144.672 340.783 144.672C341.039 144.672 341.252 144.747 341.423 144.896C341.615 145.024 341.711 145.248 341.711 145.568V147.328C342.137 146.432 342.809 145.707 343.727 145.152C344.665 144.576 345.7 144.288 346.831 144.288C347.385 144.288 347.823 144.373 348.143 144.544C348.463 144.693 348.623 144.96 348.623 145.344C348.623 145.664 348.527 145.899 348.335 146.048C348.164 146.197 347.951 146.261 347.695 146.24C347.545 146.24 347.375 146.229 347.183 146.208C347.012 146.187 346.831 146.176 346.639 146.176C345.743 146.176 344.921 146.389 344.175 146.816C343.428 147.221 342.831 147.776 342.383 148.48C341.956 149.163 341.743 149.941 341.743 150.816V158.944C341.743 159.648 341.412 160 340.751 160Z" fill="white"/>
<path d="M353.294 160C352.654 160 352.334 159.648 352.334 158.944V145.728C352.334 145.024 352.654 144.672 353.294 144.672C353.934 144.672 354.254 145.024 354.254 145.728V158.944C354.254 159.648 353.934 160 353.294 160ZM353.294 141.344C352.889 141.344 352.537 141.205 352.238 140.928C351.939 140.629 351.79 140.277 351.79 139.872C351.79 139.445 351.939 139.093 352.238 138.816C352.537 138.539 352.889 138.4 353.294 138.4C353.699 138.4 354.041 138.539 354.318 138.816C354.595 139.093 354.734 139.445 354.734 139.872C354.734 140.277 354.595 140.629 354.318 140.928C354.041 141.205 353.699 141.344 353.294 141.344Z" fill="white"/>
<path d="M360.501 160C359.839 160 359.509 159.648 359.509 158.944V145.728C359.509 145.024 359.85 144.672 360.533 144.672C360.789 144.672 361.002 144.747 361.173 144.896C361.365 145.024 361.461 145.248 361.461 145.568V147.328C361.887 146.432 362.559 145.707 363.477 145.152C364.415 144.576 365.45 144.288 366.581 144.288C367.135 144.288 367.573 144.373 367.893 144.544C368.213 144.693 368.373 144.96 368.373 145.344C368.373 145.664 368.277 145.899 368.085 146.048C367.914 146.197 367.701 146.261 367.445 146.24C367.295 146.24 367.125 146.229 366.933 146.208C366.762 146.187 366.581 146.176 366.389 146.176C365.493 146.176 364.671 146.389 363.925 146.816C363.178 147.221 362.581 147.776 362.133 148.48C361.706 149.163 361.493 149.941 361.493 150.816V158.944C361.493 159.648 361.162 160 360.501 160Z" fill="white"/>
<path d="M386.781 160.352C385.394 160.352 384.157 160.032 383.069 159.392C382.002 158.731 381.159 157.803 380.541 156.608C379.943 155.392 379.645 153.963 379.645 152.32C379.645 150.72 379.943 149.323 380.541 148.128C381.159 146.933 382.002 146.005 383.069 145.344C384.135 144.661 385.351 144.32 386.717 144.32C388.103 144.32 389.277 144.661 390.237 145.344C391.218 146.027 391.965 146.891 392.477 147.936C392.989 148.981 393.245 150.048 393.245 151.136C393.245 151.52 393.149 151.787 392.957 151.936C392.786 152.085 392.53 152.16 392.189 152.16H381.597C381.554 154.08 382.002 155.637 382.941 156.832C383.901 158.005 385.191 158.592 386.813 158.592C388.818 158.592 390.311 157.685 391.293 155.872C391.719 155.317 392.157 155.168 392.605 155.424C393.159 155.787 393.234 156.267 392.829 156.864C391.485 159.189 389.469 160.352 386.781 160.352ZM381.725 150.496H391.325C391.218 149.664 390.951 148.907 390.525 148.224C390.119 147.541 389.586 146.997 388.925 146.592C388.285 146.187 387.549 145.984 386.717 145.984C385.415 145.984 384.317 146.389 383.421 147.2C382.546 147.989 381.981 149.088 381.725 150.496Z" fill="white"/>
<path d="M398.282 160C397.621 160 397.29 159.648 397.29 158.944V145.728C397.29 145.024 397.599 144.672 398.218 144.672C398.837 144.672 399.146 144.907 399.146 145.376L399.21 147.072C399.551 146.283 400.117 145.621 400.906 145.088C401.695 144.555 402.591 144.288 403.594 144.288C404.831 144.288 405.845 144.576 406.634 145.152C407.445 145.728 407.989 146.528 408.266 147.552C408.629 146.613 409.205 145.835 409.994 145.216C410.783 144.597 411.797 144.288 413.034 144.288C414.613 144.288 415.85 144.789 416.746 145.792C417.642 146.773 418.09 148.256 418.09 150.24V158.944C418.09 159.648 417.77 160 417.13 160C416.469 160 416.138 159.648 416.138 158.944V150.528C416.138 148.907 415.829 147.765 415.21 147.104C414.591 146.443 413.759 146.112 412.714 146.112C411.903 146.112 411.189 146.325 410.57 146.752C409.973 147.157 409.503 147.701 409.162 148.384C408.842 149.045 408.682 149.771 408.682 150.56V158.944C408.682 159.648 408.362 160 407.722 160C407.061 160 406.73 159.648 406.73 158.944V150.528C406.73 148.907 406.41 147.765 405.77 147.104C405.151 146.443 404.319 146.112 403.274 146.112C402.463 146.112 401.749 146.325 401.13 146.752C400.533 147.179 400.063 147.733 399.722 148.416C399.402 149.077 399.242 149.781 399.242 150.528V158.944C399.242 159.648 398.922 160 398.282 160Z" fill="white"/>
<path d="M79.4739 206.352C77.8525 206.352 76.5405 205.829 75.5379 204.784C74.5352 203.739 74.0339 202.245 74.0339 200.304V191.728C74.0339 191.024 74.3539 190.672 74.9939 190.672C75.6339 190.672 75.9539 191.024 75.9539 191.728V200.048C75.9539 201.541 76.3059 202.661 77.0099 203.408C77.7352 204.155 78.6632 204.528 79.7939 204.528C81.0952 204.528 82.1512 204.123 82.9619 203.312C83.7725 202.501 84.1779 201.509 84.1779 200.336V191.728C84.1779 191.024 84.5085 190.672 85.1699 190.672C85.8099 190.672 86.1299 191.024 86.1299 191.728V204.912C86.1299 205.616 85.8312 205.968 85.2339 205.968C84.6152 205.968 84.3059 205.733 84.3059 205.264L84.2419 203.824C83.7939 204.528 83.1539 205.125 82.3219 205.616C81.4899 206.107 80.5405 206.352 79.4739 206.352Z" fill="white"/>
<path d="M91.8756 206C91.2143 206 90.8836 205.648 90.8836 204.944V191.728C90.8836 191.024 91.193 190.672 91.8116 190.672C92.4303 190.672 92.7396 190.907 92.7396 191.376L92.8036 193.072C93.145 192.283 93.7103 191.621 94.4996 191.088C95.289 190.555 96.185 190.288 97.1876 190.288C98.425 190.288 99.4383 190.576 100.228 191.152C101.038 191.728 101.582 192.528 101.86 193.552C102.222 192.613 102.798 191.835 103.588 191.216C104.377 190.597 105.39 190.288 106.628 190.288C108.206 190.288 109.444 190.789 110.34 191.792C111.236 192.773 111.684 194.256 111.684 196.24V204.944C111.684 205.648 111.364 206 110.724 206C110.062 206 109.732 205.648 109.732 204.944V196.528C109.732 194.907 109.422 193.765 108.804 193.104C108.185 192.443 107.353 192.112 106.308 192.112C105.497 192.112 104.782 192.325 104.164 192.752C103.566 193.157 103.097 193.701 102.756 194.384C102.436 195.045 102.276 195.771 102.276 196.56V204.944C102.276 205.648 101.956 206 101.316 206C100.654 206 100.324 205.648 100.324 204.944V196.528C100.324 194.907 100.004 193.765 99.3636 193.104C98.745 192.443 97.913 192.112 96.8676 192.112C96.057 192.112 95.3423 192.325 94.7236 192.752C94.1263 193.179 93.657 193.733 93.3156 194.416C92.9956 195.077 92.8356 195.781 92.8356 196.528V204.944C92.8356 205.648 92.5156 206 91.8756 206Z" fill="white"/>
<path d="M120.542 206.288C119.049 206.309 117.833 205.968 116.894 205.264C115.977 204.56 115.518 203.536 115.518 202.192C115.518 201.168 115.859 200.272 116.542 199.504C117.246 198.736 118.131 198.139 119.198 197.712C120.286 197.264 121.406 197.04 122.558 197.04C124.137 197.04 125.385 197.413 126.302 198.16V195.536C126.302 194.107 126.003 193.179 125.406 192.752C124.809 192.304 123.849 192.08 122.526 192.08C121.822 192.08 121.043 192.187 120.19 192.4C119.358 192.613 118.601 192.891 117.918 193.232C117.278 193.488 116.819 193.392 116.542 192.944C116.222 192.389 116.393 191.963 117.054 191.664C117.843 191.259 118.729 190.928 119.71 190.672C120.713 190.416 121.651 190.288 122.526 190.288C124.467 190.288 125.897 190.661 126.814 191.408C127.731 192.155 128.19 193.531 128.19 195.536V204.016C128.19 204.293 128.243 204.464 128.35 204.528C128.457 204.592 128.681 204.624 129.022 204.624C129.299 204.624 129.534 204.677 129.726 204.784C129.918 204.869 130.014 205.019 130.014 205.232C130.014 205.765 129.747 206.075 129.214 206.16C129.043 206.203 128.862 206.235 128.67 206.256C128.478 206.277 128.297 206.288 128.126 206.288C127.401 206.288 126.931 206.139 126.718 205.84C126.505 205.541 126.377 204.976 126.334 204.144C125.673 204.869 124.798 205.403 123.71 205.744C122.622 206.085 121.566 206.267 120.542 206.288ZM120.638 204.528C121.662 204.507 122.611 204.347 123.486 204.048C124.382 203.749 125.086 203.323 125.598 202.768C126.131 202.192 126.377 201.499 126.334 200.688C126.27 200.027 125.907 199.536 125.246 199.216C124.585 198.875 123.731 198.715 122.686 198.736C121.811 198.736 120.969 198.885 120.158 199.184C119.347 199.483 118.686 199.899 118.174 200.432C117.683 200.944 117.438 201.541 117.438 202.224C117.438 203.013 117.737 203.6 118.334 203.984C118.931 204.347 119.699 204.528 120.638 204.528Z" fill="white"/>
<path d="M143.532 212.656C142.871 212.656 142.54 212.304 142.54 211.6V191.728C142.54 191.024 142.849 190.672 143.468 190.672C144.065 190.672 144.364 190.885 144.364 191.312L144.396 193.456C144.951 192.453 145.687 191.675 146.604 191.12C147.521 190.565 148.567 190.288 149.74 190.288C151.105 190.288 152.321 190.629 153.388 191.312C154.455 191.973 155.287 192.912 155.884 194.128C156.503 195.323 156.812 196.72 156.812 198.32C156.812 199.92 156.503 201.328 155.884 202.544C155.287 203.739 154.455 204.677 153.388 205.36C152.321 206.021 151.105 206.352 149.74 206.352C148.588 206.352 147.564 206.075 146.668 205.52C145.772 204.965 145.047 204.219 144.492 203.28V211.6C144.492 212.304 144.172 212.656 143.532 212.656ZM149.708 204.528C150.711 204.528 151.596 204.272 152.364 203.76C153.153 203.248 153.772 202.533 154.22 201.616C154.668 200.677 154.892 199.579 154.892 198.32C154.892 197.061 154.668 195.973 154.22 195.056C153.772 194.117 153.153 193.392 152.364 192.88C151.596 192.368 150.711 192.112 149.708 192.112C148.193 192.112 146.945 192.677 145.964 193.808C144.983 194.917 144.492 196.421 144.492 198.32C144.492 200.197 144.983 201.701 145.964 202.832C146.945 203.963 148.193 204.528 149.708 204.528Z" fill="white"/>
<path d="M166.967 206.352C165.602 206.352 164.386 206.011 163.319 205.328C162.253 204.645 161.41 203.707 160.791 202.512C160.173 201.296 159.863 199.899 159.863 198.32C159.863 196.741 160.173 195.355 160.791 194.16C161.41 192.944 162.253 191.995 163.319 191.312C164.386 190.629 165.602 190.288 166.967 190.288C168.354 190.288 169.581 190.629 170.647 191.312C171.714 191.995 172.557 192.944 173.175 194.16C173.794 195.355 174.103 196.741 174.103 198.32C174.103 199.899 173.794 201.296 173.175 202.512C172.557 203.707 171.714 204.645 170.647 205.328C169.581 206.011 168.354 206.352 166.967 206.352ZM166.967 204.528C167.97 204.528 168.855 204.272 169.623 203.76C170.413 203.248 171.031 202.533 171.479 201.616C171.927 200.677 172.151 199.579 172.151 198.32C172.151 197.061 171.927 195.973 171.479 195.056C171.031 194.117 170.413 193.392 169.623 192.88C168.855 192.368 167.97 192.112 166.967 192.112C165.474 192.112 164.237 192.677 163.255 193.808C162.295 194.917 161.815 196.421 161.815 198.32C161.815 200.197 162.295 201.701 163.255 202.832C164.237 203.963 165.474 204.528 166.967 204.528Z" fill="white"/>
<path d="M183.225 206.352C182.052 206.352 180.975 206.16 179.993 205.776C179.033 205.371 178.223 204.805 177.561 204.08C177.284 203.845 177.156 203.611 177.177 203.376C177.199 203.12 177.316 202.896 177.529 202.704C177.935 202.363 178.404 202.405 178.937 202.832C179.428 203.387 180.047 203.813 180.793 204.112C181.561 204.411 182.393 204.56 183.289 204.56C184.335 204.56 185.22 204.336 185.945 203.888C186.692 203.419 187.065 202.693 187.065 201.712C187.065 200.837 186.713 200.229 186.009 199.888C185.305 199.547 184.228 199.227 182.777 198.928C181.881 198.736 181.028 198.501 180.217 198.224C179.428 197.947 178.788 197.531 178.297 196.976C177.807 196.4 177.561 195.611 177.561 194.608C177.561 193.691 177.807 192.912 178.297 192.272C178.809 191.632 179.481 191.141 180.313 190.8C181.145 190.459 182.031 190.288 182.969 190.288C185.06 190.288 186.649 190.939 187.737 192.24C188.036 192.453 188.185 192.677 188.185 192.912C188.185 193.147 188.079 193.36 187.865 193.552C187.652 193.765 187.428 193.861 187.193 193.84C186.98 193.797 186.745 193.68 186.489 193.488C185.7 192.549 184.537 192.08 183.001 192.08C181.892 192.08 181.039 192.325 180.441 192.816C179.844 193.285 179.545 193.872 179.545 194.576C179.545 195.365 179.865 195.931 180.505 196.272C181.167 196.592 182.18 196.901 183.545 197.2C184.505 197.413 185.401 197.68 186.233 198C187.087 198.32 187.769 198.768 188.281 199.344C188.793 199.92 189.049 200.72 189.049 201.744C189.049 203.109 188.516 204.219 187.449 205.072C186.404 205.925 184.996 206.352 183.225 206.352Z" fill="white"/>
<path d="M194.138 206C193.498 206 193.178 205.648 193.178 204.944V191.728C193.178 191.024 193.498 190.672 194.138 190.672C194.778 190.672 195.098 191.024 195.098 191.728V204.944C195.098 205.648 194.778 206 194.138 206ZM194.138 187.344C193.732 187.344 193.38 187.205 193.082 186.928C192.783 186.629 192.634 186.277 192.634 185.872C192.634 185.445 192.783 185.093 193.082 184.816C193.38 184.539 193.732 184.4 194.138 184.4C194.543 184.4 194.884 184.539 195.162 184.816C195.439 185.093 195.578 185.445 195.578 185.872C195.578 186.277 195.439 186.629 195.162 186.928C194.884 187.205 194.543 187.344 194.138 187.344Z" fill="white"/>
<path d="M206.592 206.352C205.227 206.352 204.011 206.021 202.944 205.36C201.878 204.677 201.035 203.728 200.416 202.512C199.798 201.296 199.488 199.899 199.488 198.32C199.488 196.741 199.798 195.355 200.416 194.16C201.035 192.944 201.878 192.005 202.944 191.344C204.011 190.661 205.227 190.32 206.592 190.32C208.427 190.32 209.974 190.917 211.232 192.112C211.51 192.325 211.638 192.56 211.616 192.816C211.595 193.072 211.467 193.296 211.232 193.488C210.976 193.659 210.742 193.733 210.528 193.712C210.336 193.691 210.102 193.573 209.824 193.36C208.907 192.549 207.83 192.144 206.592 192.144C205.099 192.144 203.862 192.709 202.88 193.84C201.92 194.949 201.44 196.443 201.44 198.32C201.44 200.197 201.92 201.701 202.88 202.832C203.862 203.963 205.099 204.528 206.592 204.528C207.851 204.528 208.918 204.123 209.792 203.312C210.048 203.099 210.283 202.981 210.496 202.96C210.731 202.917 210.976 202.981 211.232 203.152C211.467 203.344 211.595 203.568 211.616 203.824C211.638 204.059 211.52 204.293 211.264 204.528C209.984 205.744 208.427 206.352 206.592 206.352ZM205.024 211.632C204.448 211.632 204.16 211.419 204.16 210.992C204.16 210.565 204.448 210.352 205.024 210.352C206.155 210.309 206.976 210.224 207.488 210.096C208.022 209.968 208.288 209.755 208.288 209.456C208.288 208.859 207.542 208.517 206.048 208.432C205.408 208.389 205.174 208.091 205.344 207.536L205.568 206.704C205.696 206.235 205.995 206 206.464 206C206.891 206 207.04 206.224 206.912 206.672L206.688 207.312C207.627 207.419 208.384 207.653 208.96 208.016C209.558 208.379 209.856 208.859 209.856 209.456C209.856 210.203 209.44 210.736 208.608 211.056C207.798 211.397 206.603 211.589 205.024 211.632Z" fill="white"/>
<path d="M219.98 206.288C218.486 206.309 217.27 205.968 216.332 205.264C215.414 204.56 214.956 203.536 214.956 202.192C214.956 201.168 215.297 200.272 215.98 199.504C216.684 198.736 217.569 198.139 218.636 197.712C219.724 197.264 220.844 197.04 221.996 197.04C223.574 197.04 224.822 197.413 225.74 198.16V195.536C225.74 194.107 225.441 193.179 224.844 192.752C224.246 192.304 223.286 192.08 221.964 192.08C221.26 192.08 220.481 192.187 219.628 192.4C218.796 192.613 218.038 192.891 217.356 193.232C216.716 193.488 216.257 193.392 215.98 192.944C215.66 192.389 215.83 191.963 216.492 191.664C217.281 191.259 218.166 190.928 219.148 190.672C220.15 190.416 221.089 190.288 221.964 190.288C223.905 190.288 225.334 190.661 226.252 191.408C227.169 192.155 227.628 193.531 227.628 195.536V204.016C227.628 204.293 227.681 204.464 227.788 204.528C227.894 204.592 228.118 204.624 228.46 204.624C228.737 204.624 228.972 204.677 229.164 204.784C229.356 204.869 229.452 205.019 229.452 205.232C229.452 205.765 229.185 206.075 228.652 206.16C228.481 206.203 228.3 206.235 228.108 206.256C227.916 206.277 227.734 206.288 227.564 206.288C226.838 206.288 226.369 206.139 226.156 205.84C225.942 205.541 225.814 204.976 225.772 204.144C225.11 204.869 224.236 205.403 223.148 205.744C222.06 206.085 221.004 206.267 219.98 206.288ZM220.076 204.528C221.1 204.507 222.049 204.347 222.924 204.048C223.82 203.749 224.524 203.323 225.036 202.768C225.569 202.192 225.814 201.499 225.772 200.688C225.708 200.027 225.345 199.536 224.684 199.216C224.022 198.875 223.169 198.715 222.124 198.736C221.249 198.736 220.406 198.885 219.596 199.184C218.785 199.483 218.124 199.899 217.612 200.432C217.121 200.944 216.876 201.541 216.876 202.224C216.876 203.013 217.174 203.6 217.772 203.984C218.369 204.347 219.137 204.528 220.076 204.528ZM217.356 186.832C217.078 187.323 216.758 187.408 216.396 187.088C216.033 186.789 215.969 186.427 216.204 186C216.524 185.403 216.897 184.88 217.324 184.432C217.772 183.984 218.262 183.76 218.796 183.76C219.222 183.76 219.649 183.867 220.076 184.08C220.502 184.293 220.918 184.549 221.324 184.848C221.729 185.125 222.113 185.371 222.476 185.584C222.86 185.797 223.212 185.904 223.532 185.904C224.065 185.904 224.545 185.467 224.972 184.592C225.292 184.059 225.633 183.952 225.996 184.272C226.337 184.592 226.39 184.944 226.156 185.328C225.814 186.011 225.42 186.555 224.972 186.96C224.524 187.365 224.044 187.568 223.532 187.568C223.148 187.568 222.742 187.461 222.316 187.248C221.889 187.013 221.462 186.757 221.036 186.48C220.63 186.203 220.236 185.957 219.852 185.744C219.489 185.509 219.158 185.392 218.86 185.392C218.518 185.392 218.23 185.531 217.996 185.808C217.761 186.085 217.548 186.427 217.356 186.832Z" fill="white"/>
<path d="M238.624 206.352C237.258 206.352 236.042 206.011 234.976 205.328C233.909 204.645 233.066 203.707 232.448 202.512C231.829 201.296 231.52 199.899 231.52 198.32C231.52 196.741 231.829 195.355 232.448 194.16C233.066 192.944 233.909 191.995 234.976 191.312C236.042 190.629 237.258 190.288 238.624 190.288C240.01 190.288 241.237 190.629 242.304 191.312C243.37 191.995 244.213 192.944 244.832 194.16C245.45 195.355 245.76 196.741 245.76 198.32C245.76 199.899 245.45 201.296 244.832 202.512C244.213 203.707 243.37 204.645 242.304 205.328C241.237 206.011 240.01 206.352 238.624 206.352ZM238.624 204.528C239.626 204.528 240.512 204.272 241.28 203.76C242.069 203.248 242.688 202.533 243.136 201.616C243.584 200.677 243.808 199.579 243.808 198.32C243.808 197.061 243.584 195.973 243.136 195.056C242.688 194.117 242.069 193.392 241.28 192.88C240.512 192.368 239.626 192.112 238.624 192.112C237.13 192.112 235.893 192.677 234.912 193.808C233.952 194.917 233.472 196.421 233.472 198.32C233.472 200.197 233.952 201.701 234.912 202.832C235.893 203.963 237.13 204.528 238.624 204.528Z" fill="white"/>
<path d="M264.842 206.352C263.477 206.352 262.261 206.021 261.194 205.36C260.128 204.677 259.285 203.739 258.666 202.544C258.048 201.328 257.738 199.92 257.738 198.32C257.738 196.72 258.048 195.323 258.666 194.128C259.285 192.933 260.128 192.005 261.194 191.344C262.261 190.661 263.477 190.32 264.842 190.32C265.994 190.32 267.018 190.597 267.914 191.152C268.81 191.685 269.525 192.421 270.058 193.36V183.952C270.058 183.248 270.378 182.896 271.018 182.896C271.68 182.896 272.01 183.248 272.01 183.952V204.944C272.01 205.648 271.712 206 271.114 206C270.517 206 270.218 205.776 270.218 205.328L270.186 203.184C269.632 204.165 268.896 204.944 267.978 205.52C267.061 206.075 266.016 206.352 264.842 206.352ZM264.906 204.528C265.909 204.528 266.794 204.272 267.562 203.76C268.352 203.248 268.97 202.533 269.418 201.616C269.866 200.677 270.09 199.579 270.09 198.32C270.09 197.061 269.866 195.973 269.418 195.056C268.97 194.139 268.352 193.424 267.562 192.912C266.794 192.4 265.909 192.144 264.906 192.144C263.904 192.144 263.008 192.4 262.218 192.912C261.429 193.424 260.81 194.139 260.362 195.056C259.914 195.973 259.69 197.061 259.69 198.32C259.69 199.579 259.914 200.677 260.362 201.616C260.81 202.533 261.429 203.248 262.218 203.76C263.008 204.272 263.904 204.528 264.906 204.528Z" fill="white"/>
<path d="M283.062 206.352C281.675 206.352 280.438 206.032 279.35 205.392C278.283 204.731 277.441 203.803 276.822 202.608C276.225 201.392 275.926 199.963 275.926 198.32C275.926 196.72 276.225 195.323 276.822 194.128C277.441 192.933 278.283 192.005 279.35 191.344C280.417 190.661 281.633 190.32 282.998 190.32C284.385 190.32 285.558 190.661 286.518 191.344C287.499 192.027 288.246 192.891 288.758 193.936C289.27 194.981 289.526 196.048 289.526 197.136C289.526 197.52 289.43 197.787 289.238 197.936C289.067 198.085 288.811 198.16 288.47 198.16H277.878C277.835 200.08 278.283 201.637 279.222 202.832C280.182 204.005 281.473 204.592 283.094 204.592C285.099 204.592 286.593 203.685 287.574 201.872C288.001 201.317 288.438 201.168 288.886 201.424C289.441 201.787 289.515 202.267 289.11 202.864C287.766 205.189 285.75 206.352 283.062 206.352ZM278.006 196.496H287.606C287.499 195.664 287.233 194.907 286.806 194.224C286.401 193.541 285.867 192.997 285.206 192.592C284.566 192.187 283.83 191.984 282.998 191.984C281.697 191.984 280.598 192.389 279.702 193.2C278.827 193.989 278.262 195.088 278.006 196.496Z" fill="white"/>
<path d="M299.555 206.352C298.19 206.352 297.166 206.064 296.483 205.488C295.8 204.912 295.459 203.877 295.459 202.384V192.464H293.187C292.483 192.464 292.131 192.155 292.131 191.536C292.131 190.96 292.483 190.672 293.187 190.672H295.459V186.096C295.459 185.392 295.779 185.04 296.419 185.04C297.059 185.04 297.379 185.392 297.379 186.096V190.672H300.995C301.699 190.672 302.051 190.96 302.051 191.536C302.051 192.155 301.699 192.464 300.995 192.464H297.379V202.064C297.379 203.024 297.582 203.685 297.987 204.048C298.392 204.389 299.022 204.56 299.875 204.56C299.982 204.56 300.088 204.56 300.195 204.56C300.323 204.539 300.44 204.528 300.547 204.528C300.974 204.507 301.326 204.528 301.603 204.592C301.902 204.635 302.051 204.859 302.051 205.264C302.051 205.733 301.795 206.032 301.283 206.16C300.771 206.288 300.195 206.352 299.555 206.352Z" fill="white"/>
<path d="M311.906 206.352C310.519 206.352 309.282 206.032 308.194 205.392C307.127 204.731 306.284 203.803 305.666 202.608C305.068 201.392 304.77 199.963 304.77 198.32C304.77 196.72 305.068 195.323 305.666 194.128C306.284 192.933 307.127 192.005 308.194 191.344C309.26 190.661 310.476 190.32 311.842 190.32C313.228 190.32 314.402 190.661 315.362 191.344C316.343 192.027 317.09 192.891 317.602 193.936C318.114 194.981 318.37 196.048 318.37 197.136C318.37 197.52 318.274 197.787 318.082 197.936C317.911 198.085 317.655 198.16 317.314 198.16H306.722C306.679 200.08 307.127 201.637 308.066 202.832C309.026 204.005 310.316 204.592 311.938 204.592C313.943 204.592 315.436 203.685 316.418 201.872C316.844 201.317 317.282 201.168 317.73 201.424C318.284 201.787 318.359 202.267 317.954 202.864C316.61 205.189 314.594 206.352 311.906 206.352ZM306.85 196.496H316.45C316.343 195.664 316.076 194.907 315.65 194.224C315.244 193.541 314.711 192.997 314.05 192.592C313.41 192.187 312.674 191.984 311.842 191.984C310.54 191.984 309.442 192.389 308.546 193.2C307.671 193.989 307.106 195.088 306.85 196.496Z" fill="white"/>
<path d="M323.407 206C322.746 206 322.415 205.648 322.415 204.944V191.728C322.415 191.024 322.756 190.672 323.439 190.672C323.695 190.672 323.908 190.747 324.079 190.896C324.271 191.024 324.367 191.248 324.367 191.568V193.328C324.794 192.432 325.466 191.707 326.383 191.152C327.322 190.576 328.356 190.288 329.487 190.288C330.042 190.288 330.479 190.373 330.799 190.544C331.119 190.693 331.279 190.96 331.279 191.344C331.279 191.664 331.183 191.899 330.991 192.048C330.82 192.197 330.607 192.261 330.351 192.24C330.202 192.24 330.031 192.229 329.839 192.208C329.668 192.187 329.487 192.176 329.295 192.176C328.399 192.176 327.578 192.389 326.831 192.816C326.084 193.221 325.487 193.776 325.039 194.48C324.612 195.163 324.399 195.941 324.399 196.816V204.944C324.399 205.648 324.068 206 323.407 206Z" fill="white"/>
<path d="M335.438 206C334.777 206 334.446 205.648 334.446 204.944V191.728C334.446 191.024 334.755 190.672 335.374 190.672C335.993 190.672 336.302 190.907 336.302 191.376L336.366 193.072C336.707 192.283 337.273 191.621 338.062 191.088C338.851 190.555 339.747 190.288 340.75 190.288C341.987 190.288 343.001 190.576 343.79 191.152C344.601 191.728 345.145 192.528 345.422 193.552C345.785 192.613 346.361 191.835 347.15 191.216C347.939 190.597 348.953 190.288 350.19 190.288C351.769 190.288 353.006 190.789 353.902 191.792C354.798 192.773 355.246 194.256 355.246 196.24V204.944C355.246 205.648 354.926 206 354.286 206C353.625 206 353.294 205.648 353.294 204.944V196.528C353.294 194.907 352.985 193.765 352.366 193.104C351.747 192.443 350.915 192.112 349.87 192.112C349.059 192.112 348.345 192.325 347.726 192.752C347.129 193.157 346.659 193.701 346.318 194.384C345.998 195.045 345.838 195.771 345.838 196.56V204.944C345.838 205.648 345.518 206 344.878 206C344.217 206 343.886 205.648 343.886 204.944V196.528C343.886 194.907 343.566 193.765 342.926 193.104C342.307 192.443 341.475 192.112 340.43 192.112C339.619 192.112 338.905 192.325 338.286 192.752C337.689 193.179 337.219 193.733 336.878 194.416C336.558 195.077 336.398 195.781 336.398 196.528V204.944C336.398 205.648 336.078 206 335.438 206Z" fill="white"/>
<path d="M361.513 206C360.873 206 360.553 205.648 360.553 204.944V191.728C360.553 191.024 360.873 190.672 361.513 190.672C362.153 190.672 362.473 191.024 362.473 191.728V204.944C362.473 205.648 362.153 206 361.513 206ZM361.513 187.344C361.107 187.344 360.755 187.205 360.457 186.928C360.158 186.629 360.009 186.277 360.009 185.872C360.009 185.445 360.158 185.093 360.457 184.816C360.755 184.539 361.107 184.4 361.513 184.4C361.918 184.4 362.259 184.539 362.537 184.816C362.814 185.093 362.953 185.445 362.953 185.872C362.953 186.277 362.814 186.629 362.537 186.928C362.259 187.205 361.918 187.344 361.513 187.344Z" fill="white"/>
<path d="M368.719 206C368.058 206 367.727 205.648 367.727 204.944V191.728C367.727 191.024 368.037 190.672 368.655 190.672C369.274 190.672 369.583 190.907 369.583 191.376L369.615 192.848C370.106 192.123 370.757 191.515 371.567 191.024C372.399 190.533 373.338 190.288 374.383 190.288C376.026 190.288 377.349 190.811 378.351 191.856C379.354 192.901 379.855 194.395 379.855 196.336V204.944C379.855 205.648 379.535 206 378.895 206C378.255 206 377.935 205.648 377.935 204.944V196.624C377.935 195.131 377.573 194.011 376.847 193.264C376.143 192.517 375.226 192.144 374.095 192.144C373.242 192.144 372.474 192.336 371.791 192.72C371.13 193.083 370.607 193.584 370.223 194.224C369.861 194.843 369.679 195.536 369.679 196.304V204.944C369.679 205.648 369.359 206 368.719 206Z" fill="white"/>
<path d="M388.73 206.288C387.236 206.309 386.02 205.968 385.082 205.264C384.164 204.56 383.706 203.536 383.706 202.192C383.706 201.168 384.047 200.272 384.73 199.504C385.434 198.736 386.319 198.139 387.386 197.712C388.474 197.264 389.594 197.04 390.746 197.04C392.324 197.04 393.572 197.413 394.49 198.16V195.536C394.49 194.107 394.191 193.179 393.594 192.752C392.996 192.304 392.036 192.08 390.714 192.08C390.01 192.08 389.231 192.187 388.378 192.4C387.546 192.613 386.788 192.891 386.106 193.232C385.466 193.488 385.007 193.392 384.73 192.944C384.41 192.389 384.58 191.963 385.242 191.664C386.031 191.259 386.916 190.928 387.898 190.672C388.9 190.416 389.839 190.288 390.714 190.288C392.655 190.288 394.084 190.661 395.002 191.408C395.919 192.155 396.378 193.531 396.378 195.536V204.016C396.378 204.293 396.431 204.464 396.538 204.528C396.644 204.592 396.868 204.624 397.21 204.624C397.487 204.624 397.722 204.677 397.914 204.784C398.106 204.869 398.202 205.019 398.202 205.232C398.202 205.765 397.935 206.075 397.402 206.16C397.231 206.203 397.05 206.235 396.858 206.256C396.666 206.277 396.484 206.288 396.314 206.288C395.588 206.288 395.119 206.139 394.906 205.84C394.692 205.541 394.564 204.976 394.522 204.144C393.86 204.869 392.986 205.403 391.898 205.744C390.81 206.085 389.754 206.267 388.73 206.288ZM388.826 204.528C389.85 204.507 390.799 204.347 391.674 204.048C392.57 203.749 393.274 203.323 393.786 202.768C394.319 202.192 394.564 201.499 394.522 200.688C394.458 200.027 394.095 199.536 393.434 199.216C392.772 198.875 391.919 198.715 390.874 198.736C389.999 198.736 389.156 198.885 388.346 199.184C387.535 199.483 386.874 199.899 386.362 200.432C385.871 200.944 385.626 201.541 385.626 202.224C385.626 203.013 385.924 203.6 386.522 203.984C387.119 204.347 387.887 204.528 388.826 204.528Z" fill="white"/>
<path d="M407.374 206.352C406.008 206.352 404.792 206.021 403.726 205.36C402.659 204.677 401.816 203.739 401.198 202.544C400.579 201.328 400.27 199.92 400.27 198.32C400.27 196.72 400.579 195.323 401.198 194.128C401.816 192.933 402.659 192.005 403.726 191.344C404.792 190.661 406.008 190.32 407.374 190.32C408.526 190.32 409.55 190.597 410.446 191.152C411.342 191.685 412.056 192.421 412.59 193.36V183.952C412.59 183.248 412.91 182.896 413.55 182.896C414.211 182.896 414.542 183.248 414.542 183.952V204.944C414.542 205.648 414.243 206 413.646 206C413.048 206 412.75 205.776 412.75 205.328L412.718 203.184C412.163 204.165 411.427 204.944 410.51 205.52C409.592 206.075 408.547 206.352 407.374 206.352ZM407.438 204.528C408.44 204.528 409.326 204.272 410.094 203.76C410.883 203.248 411.502 202.533 411.95 201.616C412.398 200.677 412.622 199.579 412.622 198.32C412.622 197.061 412.398 195.973 411.95 195.056C411.502 194.139 410.883 193.424 410.094 192.912C409.326 192.4 408.44 192.144 407.438 192.144C406.435 192.144 405.539 192.4 404.75 192.912C403.96 193.424 403.342 194.139 402.894 195.056C402.446 195.973 402.222 197.061 402.222 198.32C402.222 199.579 402.446 200.677 402.894 201.616C403.342 202.533 403.96 203.248 404.75 203.76C405.539 204.272 406.435 204.528 407.438 204.528Z" fill="white"/>
<path d="M423.417 206.288C421.924 206.309 420.708 205.968 419.769 205.264C418.852 204.56 418.393 203.536 418.393 202.192C418.393 201.168 418.734 200.272 419.417 199.504C420.121 198.736 421.006 198.139 422.073 197.712C423.161 197.264 424.281 197.04 425.433 197.04C427.012 197.04 428.26 197.413 429.177 198.16V195.536C429.177 194.107 428.878 193.179 428.281 192.752C427.684 192.304 426.724 192.08 425.401 192.08C424.697 192.08 423.918 192.187 423.065 192.4C422.233 192.613 421.476 192.891 420.793 193.232C420.153 193.488 419.694 193.392 419.417 192.944C419.097 192.389 419.268 191.963 419.929 191.664C420.718 191.259 421.604 190.928 422.585 190.672C423.588 190.416 424.526 190.288 425.401 190.288C427.342 190.288 428.772 190.661 429.689 191.408C430.606 192.155 431.065 193.531 431.065 195.536V204.016C431.065 204.293 431.118 204.464 431.225 204.528C431.332 204.592 431.556 204.624 431.897 204.624C432.174 204.624 432.409 204.677 432.601 204.784C432.793 204.869 432.889 205.019 432.889 205.232C432.889 205.765 432.622 206.075 432.089 206.16C431.918 206.203 431.737 206.235 431.545 206.256C431.353 206.277 431.172 206.288 431.001 206.288C430.276 206.288 429.806 206.139 429.593 205.84C429.38 205.541 429.252 204.976 429.209 204.144C428.548 204.869 427.673 205.403 426.585 205.744C425.497 206.085 424.441 206.267 423.417 206.288ZM423.513 204.528C424.537 204.507 425.486 204.347 426.361 204.048C427.257 203.749 427.961 203.323 428.473 202.768C429.006 202.192 429.252 201.499 429.209 200.688C429.145 200.027 428.782 199.536 428.121 199.216C427.46 198.875 426.606 198.715 425.561 198.736C424.686 198.736 423.844 198.885 423.033 199.184C422.222 199.483 421.561 199.899 421.049 200.432C420.558 200.944 420.313 201.541 420.313 202.224C420.313 203.013 420.612 203.6 421.209 203.984C421.806 204.347 422.574 204.528 423.513 204.528Z" fill="white"/>
<path d="M175.344 258.656C174.683 258.656 174.352 258.304 174.352 257.6V237.728C174.352 237.024 174.662 236.672 175.28 236.672C175.878 236.672 176.176 236.885 176.176 237.312L176.208 239.456C176.763 238.453 177.499 237.675 178.416 237.12C179.334 236.565 180.379 236.288 181.552 236.288C182.918 236.288 184.134 236.629 185.2 237.312C186.267 237.973 187.099 238.912 187.696 240.128C188.315 241.323 188.624 242.72 188.624 244.32C188.624 245.92 188.315 247.328 187.696 248.544C187.099 249.739 186.267 250.677 185.2 251.36C184.134 252.021 182.918 252.352 181.552 252.352C180.4 252.352 179.376 252.075 178.48 251.52C177.584 250.965 176.859 250.219 176.304 249.28V257.6C176.304 258.304 175.984 258.656 175.344 258.656ZM181.52 250.528C182.523 250.528 183.408 250.272 184.176 249.76C184.966 249.248 185.584 248.533 186.032 247.616C186.48 246.677 186.704 245.579 186.704 244.32C186.704 243.061 186.48 241.973 186.032 241.056C185.584 240.117 184.966 239.392 184.176 238.88C183.408 238.368 182.523 238.112 181.52 238.112C180.006 238.112 178.758 238.677 177.776 239.808C176.795 240.917 176.304 242.421 176.304 244.32C176.304 246.197 176.795 247.701 177.776 248.832C178.758 249.963 180.006 250.528 181.52 250.528Z" fill="white"/>
<path d="M198.812 252.352C197.425 252.352 196.188 252.032 195.1 251.392C194.033 250.731 193.191 249.803 192.572 248.608C191.975 247.392 191.676 245.963 191.676 244.32C191.676 242.72 191.975 241.323 192.572 240.128C193.191 238.933 194.033 238.005 195.1 237.344C196.167 236.661 197.383 236.32 198.748 236.32C200.135 236.32 201.308 236.661 202.268 237.344C203.249 238.027 203.996 238.891 204.508 239.936C205.02 240.981 205.276 242.048 205.276 243.136C205.276 243.52 205.18 243.787 204.988 243.936C204.817 244.085 204.561 244.16 204.22 244.16H193.628C193.585 246.08 194.033 247.637 194.972 248.832C195.932 250.005 197.223 250.592 198.844 250.592C200.849 250.592 202.343 249.685 203.324 247.872C203.751 247.317 204.188 247.168 204.636 247.424C205.191 247.787 205.265 248.267 204.86 248.864C203.516 251.189 201.5 252.352 198.812 252.352ZM193.756 242.496H203.356C203.249 241.664 202.983 240.907 202.556 240.224C202.151 239.541 201.617 238.997 200.956 238.592C200.316 238.187 199.58 237.984 198.748 237.984C197.447 237.984 196.348 238.389 195.452 239.2C194.577 239.989 194.012 241.088 193.756 242.496Z" fill="white"/>
<path d="M210.313 252C209.652 252 209.321 251.648 209.321 250.944V229.952C209.321 229.248 209.652 228.896 210.313 228.896C210.953 228.896 211.273 229.248 211.273 229.952V250.944C211.273 251.648 210.953 252 210.313 252Z" fill="white"/>
<path d="M220.136 252.288C218.643 252.309 217.427 251.968 216.488 251.264C215.571 250.56 215.112 249.536 215.112 248.192C215.112 247.168 215.453 246.272 216.136 245.504C216.84 244.736 217.725 244.139 218.792 243.712C219.88 243.264 221 243.04 222.152 243.04C223.731 243.04 224.979 243.413 225.896 244.16V241.536C225.896 240.107 225.597 239.179 225 238.752C224.403 238.304 223.443 238.08 222.12 238.08C221.416 238.08 220.637 238.187 219.784 238.4C218.952 238.613 218.195 238.891 217.512 239.232C216.872 239.488 216.413 239.392 216.136 238.944C215.816 238.389 215.987 237.963 216.648 237.664C217.437 237.259 218.323 236.928 219.304 236.672C220.307 236.416 221.245 236.288 222.12 236.288C224.061 236.288 225.491 236.661 226.408 237.408C227.325 238.155 227.784 239.531 227.784 241.536V250.016C227.784 250.293 227.837 250.464 227.944 250.528C228.051 250.592 228.275 250.624 228.616 250.624C228.893 250.624 229.128 250.677 229.32 250.784C229.512 250.869 229.608 251.019 229.608 251.232C229.608 251.765 229.341 252.075 228.808 252.16C228.637 252.203 228.456 252.235 228.264 252.256C228.072 252.277 227.891 252.288 227.72 252.288C226.995 252.288 226.525 252.139 226.312 251.84C226.099 251.541 225.971 250.976 225.928 250.144C225.267 250.869 224.392 251.403 223.304 251.744C222.216 252.085 221.16 252.267 220.136 252.288ZM220.232 250.528C221.256 250.507 222.205 250.347 223.08 250.048C223.976 249.749 224.68 249.323 225.192 248.768C225.725 248.192 225.971 247.499 225.928 246.688C225.864 246.027 225.501 245.536 224.84 245.216C224.179 244.875 223.325 244.715 222.28 244.736C221.405 244.736 220.563 244.885 219.752 245.184C218.941 245.483 218.28 245.899 217.768 246.432C217.277 246.944 217.032 247.541 217.032 248.224C217.032 249.013 217.331 249.6 217.928 249.984C218.525 250.347 219.293 250.528 220.232 250.528Z" fill="white"/>
<path d="M248.406 252.352C247.019 252.352 245.782 252.032 244.694 251.392C243.627 250.731 242.784 249.803 242.166 248.608C241.568 247.392 241.27 245.963 241.27 244.32C241.27 242.72 241.568 241.323 242.166 240.128C242.784 238.933 243.627 238.005 244.694 237.344C245.76 236.661 246.976 236.32 248.342 236.32C249.728 236.32 250.902 236.661 251.862 237.344C252.843 238.027 253.59 238.891 254.102 239.936C254.614 240.981 254.87 242.048 254.87 243.136C254.87 243.52 254.774 243.787 254.582 243.936C254.411 244.085 254.155 244.16 253.814 244.16H243.222C243.179 246.08 243.627 247.637 244.566 248.832C245.526 250.005 246.816 250.592 248.438 250.592C250.443 250.592 251.936 249.685 252.918 247.872C253.344 247.317 253.782 247.168 254.23 247.424C254.784 247.787 254.859 248.267 254.454 248.864C253.11 251.189 251.094 252.352 248.406 252.352ZM243.35 242.496H252.95C252.843 241.664 252.576 240.907 252.15 240.224C251.744 239.541 251.211 238.997 250.55 238.592C249.91 238.187 249.174 237.984 248.342 237.984C247.04 237.984 245.942 238.389 245.046 239.2C244.171 239.989 243.606 241.088 243.35 242.496Z" fill="white"/>
<path d="M271.331 258.656C270.691 258.656 270.371 258.304 270.371 257.6V249.28C269.838 250.219 269.123 250.965 268.227 251.52C267.331 252.075 266.307 252.352 265.155 252.352C263.79 252.352 262.574 252.021 261.507 251.36C260.44 250.677 259.598 249.739 258.979 248.544C258.36 247.328 258.051 245.92 258.051 244.32C258.051 242.72 258.36 241.323 258.979 240.128C259.598 238.912 260.44 237.973 261.507 237.312C262.574 236.629 263.79 236.288 265.155 236.288C266.328 236.288 267.374 236.565 268.291 237.12C269.208 237.675 269.944 238.453 270.499 239.456V237.536C270.499 236.96 270.798 236.672 271.395 236.672C272.014 236.672 272.323 237.024 272.323 237.728V257.6C272.323 258.304 271.992 258.656 271.331 258.656ZM265.219 250.528C266.222 250.528 267.107 250.272 267.875 249.76C268.664 249.248 269.283 248.533 269.731 247.616C270.179 246.677 270.403 245.579 270.403 244.32C270.403 243.061 270.179 241.973 269.731 241.056C269.283 240.117 268.664 239.392 267.875 238.88C267.107 238.368 266.222 238.112 265.219 238.112C264.216 238.112 263.32 238.368 262.531 238.88C261.742 239.392 261.123 240.117 260.675 241.056C260.227 241.973 260.003 243.061 260.003 244.32C260.003 245.579 260.227 246.677 260.675 247.616C261.123 248.533 261.742 249.248 262.531 249.76C263.32 250.272 264.216 250.528 265.219 250.528Z" fill="white"/>
<path d="M282.286 252.352C280.665 252.352 279.353 251.829 278.35 250.784C277.348 249.739 276.846 248.245 276.846 246.304V237.728C276.846 237.024 277.166 236.672 277.806 236.672C278.446 236.672 278.766 237.024 278.766 237.728V246.048C278.766 247.541 279.118 248.661 279.822 249.408C280.548 250.155 281.476 250.528 282.606 250.528C283.908 250.528 284.964 250.123 285.774 249.312C286.585 248.501 286.99 247.509 286.99 246.336V237.728C286.99 237.024 287.321 236.672 287.982 236.672C288.622 236.672 288.942 237.024 288.942 237.728V250.912C288.942 251.616 288.644 251.968 288.046 251.968C287.428 251.968 287.118 251.733 287.118 251.264L287.054 249.824C286.606 250.528 285.966 251.125 285.134 251.616C284.302 252.107 283.353 252.352 282.286 252.352Z" fill="white"/>
<path d="M295.2 252C294.56 252 294.24 251.648 294.24 250.944V237.728C294.24 237.024 294.56 236.672 295.2 236.672C295.84 236.672 296.16 237.024 296.16 237.728V250.944C296.16 251.648 295.84 252 295.2 252ZM295.2 233.344C294.795 233.344 294.443 233.205 294.144 232.928C293.845 232.629 293.696 232.277 293.696 231.872C293.696 231.445 293.845 231.093 294.144 230.816C294.443 230.539 294.795 230.4 295.2 230.4C295.605 230.4 295.947 230.539 296.224 230.816C296.501 231.093 296.64 231.445 296.64 231.872C296.64 232.277 296.501 232.629 296.224 232.928C295.947 233.205 295.605 233.344 295.2 233.344Z" fill="white"/>
<path d="M302.407 258.656C301.746 258.656 301.415 258.304 301.415 257.6V237.728C301.415 237.024 301.724 236.672 302.343 236.672C302.94 236.672 303.239 236.885 303.239 237.312L303.271 239.456C303.826 238.453 304.562 237.675 305.479 237.12C306.396 236.565 307.442 236.288 308.615 236.288C309.98 236.288 311.196 236.629 312.263 237.312C313.33 237.973 314.162 238.912 314.759 240.128C315.378 241.323 315.687 242.72 315.687 244.32C315.687 245.92 315.378 247.328 314.759 248.544C314.162 249.739 313.33 250.677 312.263 251.36C311.196 252.021 309.98 252.352 308.615 252.352C307.463 252.352 306.439 252.075 305.543 251.52C304.647 250.965 303.922 250.219 303.367 249.28V257.6C303.367 258.304 303.047 258.656 302.407 258.656ZM308.583 250.528C309.586 250.528 310.471 250.272 311.239 249.76C312.028 249.248 312.647 248.533 313.095 247.616C313.543 246.677 313.767 245.579 313.767 244.32C313.767 243.061 313.543 241.973 313.095 241.056C312.647 240.117 312.028 239.392 311.239 238.88C310.471 238.368 309.586 238.112 308.583 238.112C307.068 238.112 305.82 238.677 304.839 239.808C303.858 240.917 303.367 242.421 303.367 244.32C303.367 246.197 303.858 247.701 304.839 248.832C305.82 249.963 307.068 250.528 308.583 250.528Z" fill="white"/>
<path d="M325.874 252.352C324.488 252.352 323.25 252.032 322.162 251.392C321.096 250.731 320.253 249.803 319.634 248.608C319.037 247.392 318.738 245.963 318.738 244.32C318.738 242.72 319.037 241.323 319.634 240.128C320.253 238.933 321.096 238.005 322.162 237.344C323.229 236.661 324.445 236.32 325.81 236.32C327.197 236.32 328.37 236.661 329.33 237.344C330.312 238.027 331.058 238.891 331.57 239.936C332.082 240.981 332.338 242.048 332.338 243.136C332.338 243.52 332.242 243.787 332.05 243.936C331.88 244.085 331.624 244.16 331.282 244.16H320.69C320.648 246.08 321.096 247.637 322.034 248.832C322.994 250.005 324.285 250.592 325.906 250.592C327.912 250.592 329.405 249.685 330.386 247.872C330.813 247.317 331.25 247.168 331.698 247.424C332.253 247.787 332.328 248.267 331.922 248.864C330.578 251.189 328.562 252.352 325.874 252.352ZM320.818 242.496H330.418C330.312 241.664 330.045 240.907 329.618 240.224C329.213 239.541 328.68 238.997 328.018 238.592C327.378 238.187 326.642 237.984 325.81 237.984C324.509 237.984 323.41 238.389 322.514 239.2C321.64 239.989 321.074 241.088 320.818 242.496Z" fill="white"/>
</svg>
