<svg width="458" height="292" viewBox="0 0 458 292" fill="none" xmlns="http://www.w3.org/2000/svg">
<path fill-rule="evenodd" clip-rule="evenodd" d="M211.334 29.1233C272.794 20.8787 337.784 37.527 383.86 63.8007C431.489 90.9598 455.615 129.753 457.721 169.619C459.902 210.902 450.235 258.536 395.415 282.525C343.435 305.27 275.017 280.289 211.334 277.436C156.074 274.96 93.559 289.847 52.3188 267.151C10.2165 243.981 5.42851 203.768 15.4257 169.619C23.9799 140.399 69.2723 124.342 100.732 101.781C137.234 75.6037 156.471 36.483 211.334 29.1233Z" fill="#FFCBA4"/>
<path d="M108.078 144.384C106.564 144.384 105.156 144.149 103.854 143.68C102.574 143.211 101.454 142.464 100.494 141.44C100.025 140.907 100.079 140.448 100.655 140.064C101.124 139.701 101.593 139.776 102.062 140.288C103.599 141.76 105.615 142.496 108.111 142.496C109.113 142.496 110.031 142.347 110.863 142.048C111.716 141.749 112.398 141.291 112.91 140.672C113.422 140.053 113.679 139.285 113.679 138.368C113.679 137.557 113.508 136.853 113.167 136.256C112.847 135.659 112.207 135.136 111.247 134.688C110.287 134.24 108.857 133.845 106.959 133.504C102.777 132.715 100.687 130.645 100.687 127.296C100.687 126.08 100.985 125.013 101.583 124.096C102.18 123.157 103.012 122.432 104.078 121.92C105.145 121.387 106.383 121.12 107.791 121.12C109.071 121.12 110.244 121.333 111.311 121.76C112.399 122.165 113.412 122.741 114.351 123.488C114.884 123.979 114.894 124.448 114.382 124.896C113.956 125.323 113.476 125.312 112.943 124.864C112.153 124.267 111.343 123.819 110.511 123.52C109.679 123.221 108.761 123.072 107.758 123.072C106.308 123.072 105.103 123.435 104.143 124.16C103.204 124.864 102.735 125.888 102.735 127.232C102.735 128.405 103.108 129.355 103.854 130.08C104.622 130.805 105.998 131.349 107.982 131.712C110.734 132.203 112.708 132.971 113.903 134.016C115.097 135.061 115.695 136.501 115.695 138.336C115.695 139.595 115.353 140.683 114.671 141.6C114.009 142.496 113.103 143.189 111.951 143.68C110.799 144.149 109.508 144.384 108.078 144.384Z" fill="white"/>
<path d="M126.171 144.352C124.785 144.352 123.547 144.032 122.459 143.392C121.393 142.731 120.55 141.803 119.931 140.608C119.334 139.392 119.035 137.963 119.035 136.32C119.035 134.72 119.334 133.323 119.931 132.128C120.55 130.933 121.393 130.005 122.459 129.344C123.526 128.661 124.742 128.32 126.107 128.32C127.494 128.32 128.667 128.661 129.627 129.344C130.609 130.027 131.355 130.891 131.867 131.936C132.379 132.981 132.635 134.048 132.635 135.136C132.635 135.52 132.539 135.787 132.347 135.936C132.177 136.085 131.921 136.16 131.579 136.16H120.987C120.945 138.08 121.393 139.637 122.331 140.832C123.291 142.005 124.582 142.592 126.203 142.592C128.209 142.592 129.702 141.685 130.683 139.872C131.11 139.317 131.547 139.168 131.995 139.424C132.55 139.787 132.625 140.267 132.219 140.864C130.875 143.189 128.859 144.352 126.171 144.352ZM121.115 134.496H130.715C130.609 133.664 130.342 132.907 129.915 132.224C129.51 131.541 128.977 130.997 128.315 130.592C127.675 130.187 126.939 129.984 126.107 129.984C124.806 129.984 123.707 130.389 122.811 131.2C121.937 131.989 121.371 133.088 121.115 134.496Z" fill="white"/>
<path d="M137.673 144C137.011 144 136.68 143.648 136.68 142.944V129.728C136.68 129.024 137.022 128.672 137.704 128.672C137.96 128.672 138.174 128.747 138.344 128.896C138.536 129.024 138.633 129.248 138.633 129.568V131.328C139.059 130.432 139.731 129.707 140.648 129.152C141.587 128.576 142.622 128.288 143.753 128.288C144.307 128.288 144.744 128.373 145.064 128.544C145.384 128.693 145.544 128.96 145.544 129.344C145.544 129.664 145.449 129.899 145.257 130.048C145.086 130.197 144.873 130.261 144.617 130.24C144.467 130.24 144.297 130.229 144.105 130.208C143.934 130.187 143.753 130.176 143.561 130.176C142.665 130.176 141.843 130.389 141.096 130.816C140.35 131.221 139.753 131.776 139.305 132.48C138.878 133.163 138.665 133.941 138.665 134.816V142.944C138.665 143.648 138.334 144 137.673 144Z" fill="white"/>
<path d="M161.777 144.288C160.283 144.309 159.067 143.968 158.128 143.264C157.211 142.56 156.753 141.536 156.753 140.192C156.753 139.168 157.094 138.272 157.777 137.504C158.481 136.736 159.366 136.139 160.432 135.712C161.52 135.264 162.64 135.04 163.792 135.04C165.371 135.04 166.619 135.413 167.536 136.16V133.536C167.536 132.107 167.238 131.179 166.641 130.752C166.043 130.304 165.083 130.08 163.76 130.08C163.056 130.08 162.278 130.187 161.424 130.4C160.592 130.613 159.835 130.891 159.152 131.232C158.512 131.488 158.054 131.392 157.777 130.944C157.457 130.389 157.627 129.963 158.288 129.664C159.078 129.259 159.963 128.928 160.945 128.672C161.947 128.416 162.886 128.288 163.76 128.288C165.702 128.288 167.131 128.661 168.049 129.408C168.966 130.155 169.424 131.531 169.424 133.536V142.016C169.424 142.293 169.478 142.464 169.585 142.528C169.691 142.592 169.915 142.624 170.257 142.624C170.534 142.624 170.768 142.677 170.96 142.784C171.152 142.869 171.249 143.019 171.249 143.232C171.249 143.765 170.982 144.075 170.449 144.16C170.278 144.203 170.096 144.235 169.904 144.256C169.712 144.277 169.531 144.288 169.361 144.288C168.635 144.288 168.166 144.139 167.952 143.84C167.739 143.541 167.611 142.976 167.568 142.144C166.907 142.869 166.033 143.403 164.945 143.744C163.857 144.085 162.801 144.267 161.777 144.288ZM161.872 142.528C162.896 142.507 163.846 142.347 164.721 142.048C165.617 141.749 166.321 141.323 166.833 140.768C167.366 140.192 167.611 139.499 167.568 138.688C167.504 138.027 167.142 137.536 166.48 137.216C165.819 136.875 164.966 136.715 163.921 136.736C163.046 136.736 162.203 136.885 161.393 137.184C160.582 137.483 159.921 137.899 159.409 138.432C158.918 138.944 158.673 139.541 158.673 140.224C158.673 141.013 158.971 141.6 159.568 141.984C160.166 142.347 160.934 142.528 161.872 142.528Z" fill="white"/>
<path d="M177.525 144C176.864 144 176.534 143.648 176.534 142.944V130.464H174.422C173.718 130.464 173.365 130.155 173.365 129.536C173.365 128.96 173.654 128.672 174.23 128.672H176.534V125.632C176.534 124.373 176.747 123.392 177.174 122.688C177.6 121.984 178.166 121.483 178.87 121.184C179.574 120.885 180.331 120.736 181.141 120.736C181.76 120.736 182.283 120.811 182.71 120.96C183.136 121.088 183.339 121.365 183.318 121.792C183.275 122.368 182.901 122.624 182.197 122.56C182.027 122.539 181.867 122.528 181.717 122.528C181.589 122.507 181.44 122.496 181.27 122.496C180.48 122.496 179.808 122.763 179.253 123.296C178.72 123.808 178.454 124.629 178.454 125.76V128.672H182.262C182.966 128.672 183.318 128.96 183.318 129.536C183.318 130.155 182.966 130.464 182.262 130.464H178.454V142.944C178.454 143.648 178.144 144 177.525 144Z" fill="white"/>
<path d="M190.433 144.288C188.939 144.309 187.723 143.968 186.785 143.264C185.867 142.56 185.409 141.536 185.409 140.192C185.409 139.168 185.75 138.272 186.433 137.504C187.137 136.736 188.022 136.139 189.089 135.712C190.177 135.264 191.297 135.04 192.449 135.04C194.027 135.04 195.275 135.413 196.193 136.16V133.536C196.193 132.107 195.894 131.179 195.297 130.752C194.699 130.304 193.739 130.08 192.417 130.08C191.713 130.08 190.934 130.187 190.081 130.4C189.249 130.613 188.491 130.891 187.809 131.232C187.169 131.488 186.71 131.392 186.433 130.944C186.113 130.389 186.283 129.963 186.945 129.664C187.734 129.259 188.619 128.928 189.601 128.672C190.603 128.416 191.542 128.288 192.417 128.288C194.358 128.288 195.787 128.661 196.705 129.408C197.622 130.155 198.081 131.531 198.081 133.536V142.016C198.081 142.293 198.134 142.464 198.241 142.528C198.347 142.592 198.571 142.624 198.913 142.624C199.19 142.624 199.425 142.677 199.617 142.784C199.809 142.869 199.905 143.019 199.905 143.232C199.905 143.765 199.638 144.075 199.105 144.16C198.934 144.203 198.753 144.235 198.561 144.256C198.369 144.277 198.187 144.288 198.017 144.288C197.291 144.288 196.822 144.139 196.609 143.84C196.395 143.541 196.267 142.976 196.225 142.144C195.563 142.869 194.689 143.403 193.601 143.744C192.513 144.085 191.457 144.267 190.433 144.288ZM190.529 142.528C191.553 142.507 192.502 142.347 193.377 142.048C194.273 141.749 194.977 141.323 195.489 140.768C196.022 140.192 196.267 139.499 196.225 138.688C196.161 138.027 195.798 137.536 195.137 137.216C194.475 136.875 193.622 136.715 192.577 136.736C191.702 136.736 190.859 136.885 190.049 137.184C189.238 137.483 188.577 137.899 188.065 138.432C187.574 138.944 187.329 139.541 187.329 140.224C187.329 141.013 187.627 141.6 188.225 141.984C188.822 142.347 189.59 142.528 190.529 142.528Z" fill="white"/>
<path d="M208.71 144.352C207.536 144.352 206.459 144.16 205.478 143.776C204.518 143.371 203.707 142.805 203.046 142.08C202.768 141.845 202.64 141.611 202.662 141.376C202.683 141.12 202.8 140.896 203.014 140.704C203.419 140.363 203.888 140.405 204.422 140.832C204.912 141.387 205.531 141.813 206.278 142.112C207.046 142.411 207.878 142.56 208.774 142.56C209.819 142.56 210.704 142.336 211.43 141.888C212.176 141.419 212.55 140.693 212.55 139.712C212.55 138.837 212.198 138.229 211.494 137.888C210.79 137.547 209.712 137.227 208.262 136.928C207.366 136.736 206.512 136.501 205.702 136.224C204.912 135.947 204.272 135.531 203.782 134.976C203.291 134.4 203.046 133.611 203.046 132.608C203.046 131.691 203.291 130.912 203.782 130.272C204.294 129.632 204.966 129.141 205.798 128.8C206.63 128.459 207.515 128.288 208.454 128.288C210.544 128.288 212.134 128.939 213.222 130.24C213.52 130.453 213.67 130.677 213.67 130.912C213.67 131.147 213.563 131.36 213.35 131.552C213.136 131.765 212.912 131.861 212.678 131.84C212.464 131.797 212.23 131.68 211.974 131.488C211.184 130.549 210.022 130.08 208.486 130.08C207.376 130.08 206.523 130.325 205.926 130.816C205.328 131.285 205.03 131.872 205.03 132.576C205.03 133.365 205.35 133.931 205.99 134.272C206.651 134.592 207.664 134.901 209.03 135.2C209.99 135.413 210.886 135.68 211.718 136C212.571 136.32 213.254 136.768 213.766 137.344C214.278 137.92 214.534 138.72 214.534 139.744C214.534 141.109 214 142.219 212.934 143.072C211.888 143.925 210.48 144.352 208.71 144.352Z" fill="white"/>
<path d="M224.102 144.352C222.737 144.352 221.713 144.064 221.03 143.488C220.347 142.912 220.006 141.877 220.006 140.384V130.464H217.734C217.03 130.464 216.678 130.155 216.678 129.536C216.678 128.96 217.03 128.672 217.734 128.672H220.006V124.096C220.006 123.392 220.326 123.04 220.966 123.04C221.606 123.04 221.926 123.392 221.926 124.096V128.672H225.542C226.246 128.672 226.598 128.96 226.598 129.536C226.598 130.155 226.246 130.464 225.542 130.464H221.926V140.064C221.926 141.024 222.129 141.685 222.534 142.048C222.939 142.389 223.569 142.56 224.422 142.56C224.529 142.56 224.635 142.56 224.742 142.56C224.87 142.539 224.987 142.528 225.094 142.528C225.521 142.507 225.873 142.528 226.15 142.592C226.449 142.635 226.598 142.859 226.598 143.264C226.598 143.733 226.342 144.032 225.83 144.16C225.318 144.288 224.742 144.352 224.102 144.352Z" fill="white"/>
<path d="M234.277 144.288C232.783 144.309 231.567 143.968 230.628 143.264C229.711 142.56 229.253 141.536 229.253 140.192C229.253 139.168 229.594 138.272 230.277 137.504C230.981 136.736 231.866 136.139 232.932 135.712C234.02 135.264 235.14 135.04 236.292 135.04C237.871 135.04 239.119 135.413 240.036 136.16V133.536C240.036 132.107 239.738 131.179 239.141 130.752C238.543 130.304 237.583 130.08 236.26 130.08C235.556 130.08 234.778 130.187 233.924 130.4C233.092 130.613 232.335 130.891 231.652 131.232C231.012 131.488 230.554 131.392 230.277 130.944C229.957 130.389 230.127 129.963 230.788 129.664C231.578 129.259 232.463 128.928 233.445 128.672C234.447 128.416 235.386 128.288 236.26 128.288C238.202 128.288 239.631 128.661 240.549 129.408C241.466 130.155 241.924 131.531 241.924 133.536V142.016C241.924 142.293 241.978 142.464 242.085 142.528C242.191 142.592 242.415 142.624 242.757 142.624C243.034 142.624 243.268 142.677 243.46 142.784C243.652 142.869 243.749 143.019 243.749 143.232C243.749 143.765 243.482 144.075 242.949 144.16C242.778 144.203 242.596 144.235 242.404 144.256C242.212 144.277 242.031 144.288 241.861 144.288C241.135 144.288 240.666 144.139 240.452 143.84C240.239 143.541 240.111 142.976 240.068 142.144C239.407 142.869 238.533 143.403 237.445 143.744C236.357 144.085 235.301 144.267 234.277 144.288ZM234.372 142.528C235.396 142.507 236.346 142.347 237.221 142.048C238.117 141.749 238.821 141.323 239.333 140.768C239.866 140.192 240.111 139.499 240.068 138.688C240.004 138.027 239.642 137.536 238.98 137.216C238.319 136.875 237.466 136.715 236.421 136.736C235.546 136.736 234.703 136.885 233.893 137.184C233.082 137.483 232.421 137.899 231.909 138.432C231.418 138.944 231.173 139.541 231.173 140.224C231.173 141.013 231.471 141.6 232.068 141.984C232.666 142.347 233.434 142.528 234.372 142.528Z" fill="white"/>
<path d="M252.921 144.352C251.555 144.352 250.339 144.021 249.273 143.36C248.206 142.677 247.363 141.739 246.745 140.544C246.126 139.328 245.816 137.92 245.816 136.32C245.816 134.72 246.126 133.323 246.745 132.128C247.363 130.933 248.206 130.005 249.273 129.344C250.339 128.661 251.555 128.32 252.921 128.32C254.073 128.32 255.097 128.597 255.993 129.152C256.889 129.685 257.603 130.421 258.136 131.36V121.952C258.136 121.248 258.457 120.896 259.097 120.896C259.758 120.896 260.089 121.248 260.089 121.952V142.944C260.089 143.648 259.79 144 259.192 144C258.595 144 258.296 143.776 258.296 143.328L258.265 141.184C257.71 142.165 256.974 142.944 256.057 143.52C255.139 144.075 254.094 144.352 252.921 144.352ZM252.984 142.528C253.987 142.528 254.873 142.272 255.641 141.76C256.43 141.248 257.049 140.533 257.497 139.616C257.945 138.677 258.169 137.579 258.169 136.32C258.169 135.061 257.945 133.973 257.497 133.056C257.049 132.139 256.43 131.424 255.641 130.912C254.873 130.4 253.987 130.144 252.984 130.144C251.982 130.144 251.086 130.4 250.297 130.912C249.507 131.424 248.889 132.139 248.441 133.056C247.993 133.973 247.768 135.061 247.768 136.32C247.768 137.579 247.993 138.677 248.441 139.616C248.889 140.533 249.507 141.248 250.297 141.76C251.086 142.272 251.982 142.528 252.984 142.528Z" fill="white"/>
<path d="M268.964 144.288C267.471 144.309 266.255 143.968 265.316 143.264C264.399 142.56 263.94 141.536 263.94 140.192C263.94 139.168 264.281 138.272 264.964 137.504C265.668 136.736 266.553 136.139 267.62 135.712C268.708 135.264 269.828 135.04 270.98 135.04C272.559 135.04 273.807 135.413 274.724 136.16V133.536C274.724 132.107 274.425 131.179 273.828 130.752C273.231 130.304 272.271 130.08 270.948 130.08C270.244 130.08 269.465 130.187 268.612 130.4C267.78 130.613 267.023 130.891 266.34 131.232C265.7 131.488 265.241 131.392 264.964 130.944C264.644 130.389 264.815 129.963 265.476 129.664C266.265 129.259 267.151 128.928 268.132 128.672C269.135 128.416 270.073 128.288 270.948 128.288C272.889 128.288 274.319 128.661 275.236 129.408C276.153 130.155 276.612 131.531 276.612 133.536V142.016C276.612 142.293 276.665 142.464 276.772 142.528C276.879 142.592 277.103 142.624 277.444 142.624C277.721 142.624 277.956 142.677 278.148 142.784C278.34 142.869 278.436 143.019 278.436 143.232C278.436 143.765 278.169 144.075 277.636 144.16C277.465 144.203 277.284 144.235 277.092 144.256C276.9 144.277 276.719 144.288 276.548 144.288C275.823 144.288 275.353 144.139 275.14 143.84C274.927 143.541 274.799 142.976 274.756 142.144C274.095 142.869 273.22 143.403 272.132 143.744C271.044 144.085 269.988 144.267 268.964 144.288ZM269.06 142.528C270.084 142.507 271.033 142.347 271.908 142.048C272.804 141.749 273.508 141.323 274.02 140.768C274.553 140.192 274.799 139.499 274.756 138.688C274.692 138.027 274.329 137.536 273.668 137.216C273.007 136.875 272.153 136.715 271.108 136.736C270.233 136.736 269.391 136.885 268.58 137.184C267.769 137.483 267.108 137.899 266.596 138.432C266.105 138.944 265.86 139.541 265.86 140.224C265.86 141.013 266.159 141.6 266.756 141.984C267.353 142.347 268.121 142.528 269.06 142.528Z" fill="white"/>
<path d="M297.202 144.352C295.836 144.352 294.62 144.021 293.554 143.36C292.487 142.677 291.644 141.739 291.026 140.544C290.407 139.328 290.098 137.92 290.098 136.32C290.098 134.72 290.407 133.323 291.026 132.128C291.644 130.933 292.487 130.005 293.554 129.344C294.62 128.661 295.836 128.32 297.202 128.32C298.354 128.32 299.378 128.597 300.274 129.152C301.17 129.685 301.884 130.421 302.418 131.36V121.952C302.418 121.248 302.738 120.896 303.378 120.896C304.039 120.896 304.37 121.248 304.37 121.952V142.944C304.37 143.648 304.071 144 303.474 144C302.876 144 302.578 143.776 302.578 143.328L302.546 141.184C301.991 142.165 301.255 142.944 300.338 143.52C299.42 144.075 298.375 144.352 297.202 144.352ZM297.266 142.528C298.268 142.528 299.154 142.272 299.922 141.76C300.711 141.248 301.33 140.533 301.778 139.616C302.226 138.677 302.45 137.579 302.45 136.32C302.45 135.061 302.226 133.973 301.778 133.056C301.33 132.139 300.711 131.424 299.922 130.912C299.154 130.4 298.268 130.144 297.266 130.144C296.263 130.144 295.367 130.4 294.578 130.912C293.788 131.424 293.17 132.139 292.722 133.056C292.274 133.973 292.05 135.061 292.05 136.32C292.05 137.579 292.274 138.677 292.722 139.616C293.17 140.533 293.788 141.248 294.578 141.76C295.367 142.272 296.263 142.528 297.266 142.528Z" fill="white"/>
<path d="M315.389 144.352C314.024 144.352 312.808 144.011 311.741 143.328C310.675 142.645 309.832 141.707 309.213 140.512C308.595 139.296 308.285 137.899 308.285 136.32C308.285 134.741 308.595 133.355 309.213 132.16C309.832 130.944 310.675 129.995 311.741 129.312C312.808 128.629 314.024 128.288 315.389 128.288C316.776 128.288 318.003 128.629 319.069 129.312C320.136 129.995 320.979 130.944 321.597 132.16C322.216 133.355 322.525 134.741 322.525 136.32C322.525 137.899 322.216 139.296 321.597 140.512C320.979 141.707 320.136 142.645 319.069 143.328C318.003 144.011 316.776 144.352 315.389 144.352ZM315.389 142.528C316.392 142.528 317.277 142.272 318.045 141.76C318.835 141.248 319.453 140.533 319.901 139.616C320.349 138.677 320.573 137.579 320.573 136.32C320.573 135.061 320.349 133.973 319.901 133.056C319.453 132.117 318.835 131.392 318.045 130.88C317.277 130.368 316.392 130.112 315.389 130.112C313.896 130.112 312.659 130.677 311.677 131.808C310.717 132.917 310.237 134.421 310.237 136.32C310.237 138.197 310.717 139.701 311.677 140.832C312.659 141.963 313.896 142.528 315.389 142.528Z" fill="white"/>
<path d="M342.568 144.352C341.395 144.352 340.349 144.075 339.432 143.52C338.515 142.944 337.779 142.144 337.224 141.12V143.104C337.224 143.424 337.139 143.659 336.968 143.808C336.797 143.936 336.573 144 336.296 144C335.677 144 335.368 143.648 335.368 142.944V121.952C335.368 121.248 335.699 120.896 336.36 120.896C337 120.896 337.32 121.248 337.32 121.952V131.36C337.875 130.421 338.6 129.685 339.496 129.152C340.392 128.597 341.416 128.32 342.568 128.32C343.933 128.32 345.149 128.661 346.216 129.344C347.283 130.005 348.115 130.933 348.712 132.128C349.331 133.323 349.64 134.72 349.64 136.32C349.64 137.92 349.331 139.328 348.712 140.544C348.115 141.739 347.283 142.677 346.216 143.36C345.149 144.021 343.933 144.352 342.568 144.352ZM342.536 142.528C343.539 142.528 344.424 142.272 345.192 141.76C345.981 141.248 346.6 140.533 347.048 139.616C347.496 138.677 347.72 137.579 347.72 136.32C347.72 135.061 347.496 133.973 347.048 133.056C346.6 132.139 345.981 131.424 345.192 130.912C344.424 130.4 343.539 130.144 342.536 130.144C341.021 130.144 339.773 130.709 338.792 131.84C337.811 132.949 337.32 134.443 337.32 136.32C337.32 138.197 337.811 139.701 338.792 140.832C339.773 141.963 341.021 142.528 342.536 142.528Z" fill="white"/>
<path d="M359.827 144.352C358.441 144.352 357.203 144.032 356.115 143.392C355.049 142.731 354.206 141.803 353.588 140.608C352.99 139.392 352.692 137.963 352.692 136.32C352.692 134.72 352.99 133.323 353.588 132.128C354.206 130.933 355.049 130.005 356.115 129.344C357.182 128.661 358.398 128.32 359.764 128.32C361.15 128.32 362.323 128.661 363.283 129.344C364.265 130.027 365.012 130.891 365.524 131.936C366.036 132.981 366.291 134.048 366.291 135.136C366.291 135.52 366.195 135.787 366.003 135.936C365.833 136.085 365.577 136.16 365.235 136.16H354.644C354.601 138.08 355.049 139.637 355.988 140.832C356.948 142.005 358.238 142.592 359.86 142.592C361.865 142.592 363.358 141.685 364.339 139.872C364.766 139.317 365.204 139.168 365.652 139.424C366.206 139.787 366.281 140.267 365.876 140.864C364.532 143.189 362.515 144.352 359.827 144.352ZM354.771 134.496H364.372C364.265 133.664 363.998 132.907 363.571 132.224C363.166 131.541 362.633 130.997 361.972 130.592C361.332 130.187 360.596 129.984 359.764 129.984C358.462 129.984 357.364 130.389 356.468 131.2C355.593 131.989 355.027 133.088 354.771 134.496Z" fill="white"/>
<path d="M377.537 144.352C376.363 144.352 375.318 144.075 374.401 143.52C373.483 142.944 372.747 142.144 372.193 141.12V143.104C372.193 143.424 372.107 143.659 371.937 143.808C371.766 143.936 371.542 144 371.265 144C370.646 144 370.337 143.648 370.337 142.944V121.952C370.337 121.248 370.667 120.896 371.329 120.896C371.969 120.896 372.289 121.248 372.289 121.952V131.36C372.843 130.421 373.569 129.685 374.465 129.152C375.361 128.597 376.385 128.32 377.537 128.32C378.902 128.32 380.118 128.661 381.185 129.344C382.251 130.005 383.083 130.933 383.681 132.128C384.299 133.323 384.609 134.72 384.609 136.32C384.609 137.92 384.299 139.328 383.681 140.544C383.083 141.739 382.251 142.677 381.185 143.36C380.118 144.021 378.902 144.352 377.537 144.352ZM377.505 142.528C378.507 142.528 379.393 142.272 380.161 141.76C380.95 141.248 381.569 140.533 382.017 139.616C382.465 138.677 382.689 137.579 382.689 136.32C382.689 135.061 382.465 133.973 382.017 133.056C381.569 132.139 380.95 131.424 380.161 130.912C379.393 130.4 378.507 130.144 377.505 130.144C375.99 130.144 374.742 130.709 373.761 131.84C372.779 132.949 372.289 134.443 372.289 136.32C372.289 138.197 372.779 139.701 373.761 140.832C374.742 141.963 375.99 142.528 377.505 142.528Z" fill="white"/>
<path d="M394.796 144.352C393.41 144.352 392.172 144.032 391.084 143.392C390.018 142.731 389.175 141.803 388.556 140.608C387.959 139.392 387.66 137.963 387.66 136.32C387.66 134.72 387.959 133.323 388.556 132.128C389.175 130.933 390.018 130.005 391.084 129.344C392.151 128.661 393.367 128.32 394.732 128.32C396.119 128.32 397.292 128.661 398.252 129.344C399.234 130.027 399.98 130.891 400.492 131.936C401.004 132.981 401.26 134.048 401.26 135.136C401.26 135.52 401.164 135.787 400.972 135.936C400.802 136.085 400.546 136.16 400.204 136.16H389.612C389.57 138.08 390.018 139.637 390.956 140.832C391.916 142.005 393.207 142.592 394.828 142.592C396.834 142.592 398.327 141.685 399.308 139.872C399.735 139.317 400.172 139.168 400.62 139.424C401.175 139.787 401.25 140.267 400.844 140.864C399.5 143.189 397.484 144.352 394.796 144.352ZM389.74 134.496H399.34C399.234 133.664 398.967 132.907 398.54 132.224C398.135 131.541 397.602 130.997 396.94 130.592C396.3 130.187 395.564 129.984 394.732 129.984C393.431 129.984 392.332 130.389 391.436 131.2C390.562 131.989 389.996 133.088 389.74 134.496ZM393.324 121.664C393.623 121.365 393.964 121.216 394.348 121.216H394.732C395.138 121.216 395.479 121.365 395.756 121.664L399.084 125.408C399.426 125.792 399.458 126.123 399.18 126.4C398.903 126.677 398.572 126.656 398.188 126.336L394.54 123.36L390.86 126.336C390.455 126.677 390.124 126.699 389.868 126.4C389.591 126.123 389.623 125.792 389.964 125.408L393.324 121.664Z" fill="white"/>
<path d="M77.4484 190.288C75.955 190.309 74.739 189.968 73.8004 189.264C72.883 188.56 72.4244 187.536 72.4244 186.192C72.4244 185.168 72.7657 184.272 73.4484 183.504C74.1524 182.736 75.0377 182.139 76.1044 181.712C77.1924 181.264 78.3124 181.04 79.4644 181.04C81.043 181.04 82.291 181.413 83.2084 182.16V179.536C83.2084 178.107 82.9097 177.179 82.3124 176.752C81.715 176.304 80.755 176.08 79.4324 176.08C78.7284 176.08 77.9497 176.187 77.0964 176.4C76.2644 176.613 75.507 176.891 74.8244 177.232C74.1844 177.488 73.7257 177.392 73.4484 176.944C73.1284 176.389 73.299 175.963 73.9604 175.664C74.7497 175.259 75.635 174.928 76.6164 174.672C77.619 174.416 78.5577 174.288 79.4324 174.288C81.3737 174.288 82.803 174.661 83.7204 175.408C84.6377 176.155 85.0964 177.531 85.0964 179.536V188.016C85.0964 188.293 85.1497 188.464 85.2564 188.528C85.363 188.592 85.587 188.624 85.9284 188.624C86.2057 188.624 86.4404 188.677 86.6324 188.784C86.8244 188.869 86.9204 189.019 86.9204 189.232C86.9204 189.765 86.6537 190.075 86.1204 190.16C85.9497 190.203 85.7684 190.235 85.5764 190.256C85.3844 190.277 85.203 190.288 85.0324 190.288C84.307 190.288 83.8377 190.139 83.6244 189.84C83.411 189.541 83.283 188.976 83.2404 188.144C82.579 188.869 81.7044 189.403 80.6164 189.744C79.5284 190.085 78.4724 190.267 77.4484 190.288ZM77.5444 188.528C78.5684 188.507 79.5177 188.347 80.3924 188.048C81.2884 187.749 81.9924 187.323 82.5044 186.768C83.0377 186.192 83.283 185.499 83.2404 184.688C83.1764 184.027 82.8137 183.536 82.1524 183.216C81.491 182.875 80.6377 182.715 79.5924 182.736C78.7177 182.736 77.875 182.885 77.0644 183.184C76.2537 183.483 75.5924 183.899 75.0804 184.432C74.5897 184.944 74.3444 185.541 74.3444 186.224C74.3444 187.013 74.643 187.6 75.2404 187.984C75.8377 188.347 76.6057 188.528 77.5444 188.528Z" fill="white"/>
<path d="M91.4694 196.656C90.808 196.656 90.4774 196.304 90.4774 195.6V175.728C90.4774 175.024 90.7867 174.672 91.4054 174.672C92.0027 174.672 92.3014 174.885 92.3014 175.312L92.3334 177.456C92.888 176.453 93.624 175.675 94.5414 175.12C95.4587 174.565 96.504 174.288 97.6774 174.288C99.0427 174.288 100.259 174.629 101.325 175.312C102.392 175.973 103.224 176.912 103.821 178.128C104.44 179.323 104.749 180.72 104.749 182.32C104.749 183.92 104.44 185.328 103.821 186.544C103.224 187.739 102.392 188.677 101.325 189.36C100.259 190.021 99.0427 190.352 97.6774 190.352C96.5254 190.352 95.5014 190.075 94.6054 189.52C93.7094 188.965 92.984 188.219 92.4294 187.28V195.6C92.4294 196.304 92.1094 196.656 91.4694 196.656ZM97.6454 188.528C98.648 188.528 99.5334 188.272 100.301 187.76C101.091 187.248 101.709 186.533 102.157 185.616C102.605 184.677 102.829 183.579 102.829 182.32C102.829 181.061 102.605 179.973 102.157 179.056C101.709 178.117 101.091 177.392 100.301 176.88C99.5334 176.368 98.648 176.112 97.6454 176.112C96.1307 176.112 94.8827 176.677 93.9014 177.808C92.92 178.917 92.4294 180.421 92.4294 182.32C92.4294 184.197 92.92 185.701 93.9014 186.832C94.8827 187.963 96.1307 188.528 97.6454 188.528Z" fill="white"/>
<path d="M114.905 190.352C113.54 190.352 112.324 190.011 111.257 189.328C110.19 188.645 109.348 187.707 108.729 186.512C108.11 185.296 107.801 183.899 107.801 182.32C107.801 180.741 108.11 179.355 108.729 178.16C109.348 176.944 110.19 175.995 111.257 175.312C112.324 174.629 113.54 174.288 114.905 174.288C116.292 174.288 117.518 174.629 118.585 175.312C119.652 175.995 120.494 176.944 121.113 178.16C121.732 179.355 122.041 180.741 122.041 182.32C122.041 183.899 121.732 185.296 121.113 186.512C120.494 187.707 119.652 188.645 118.585 189.328C117.518 190.011 116.292 190.352 114.905 190.352ZM114.905 188.528C115.908 188.528 116.793 188.272 117.561 187.76C118.35 187.248 118.969 186.533 119.417 185.616C119.865 184.677 120.089 183.579 120.089 182.32C120.089 181.061 119.865 179.973 119.417 179.056C118.969 178.117 118.35 177.392 117.561 176.88C116.793 176.368 115.908 176.112 114.905 176.112C113.412 176.112 112.174 176.677 111.193 177.808C110.233 178.917 109.753 180.421 109.753 182.32C109.753 184.197 110.233 185.701 111.193 186.832C112.174 187.963 113.412 188.528 114.905 188.528ZM113.273 172.592C112.846 172.891 112.516 172.88 112.281 172.56C112.025 172.24 112.089 171.909 112.473 171.568L117.913 166.896C118.318 166.533 118.702 166.565 119.065 166.992L119.449 167.472C119.79 167.92 119.726 168.304 119.257 168.624L113.273 172.592Z" fill="white"/>
<path d="M131.163 190.352C129.99 190.352 128.912 190.16 127.931 189.776C126.971 189.371 126.16 188.805 125.499 188.08C125.222 187.845 125.094 187.611 125.115 187.376C125.136 187.12 125.254 186.896 125.467 186.704C125.872 186.363 126.342 186.405 126.875 186.832C127.366 187.387 127.984 187.813 128.731 188.112C129.499 188.411 130.331 188.56 131.227 188.56C132.272 188.56 133.158 188.336 133.883 187.888C134.63 187.419 135.003 186.693 135.003 185.712C135.003 184.837 134.651 184.229 133.947 183.888C133.243 183.547 132.166 183.227 130.715 182.928C129.819 182.736 128.966 182.501 128.155 182.224C127.366 181.947 126.726 181.531 126.235 180.976C125.744 180.4 125.499 179.611 125.499 178.608C125.499 177.691 125.744 176.912 126.235 176.272C126.747 175.632 127.419 175.141 128.251 174.8C129.083 174.459 129.968 174.288 130.907 174.288C132.998 174.288 134.587 174.939 135.675 176.24C135.974 176.453 136.123 176.677 136.123 176.912C136.123 177.147 136.016 177.36 135.803 177.552C135.59 177.765 135.366 177.861 135.131 177.84C134.918 177.797 134.683 177.68 134.427 177.488C133.638 176.549 132.475 176.08 130.939 176.08C129.83 176.08 128.976 176.325 128.379 176.816C127.782 177.285 127.483 177.872 127.483 178.576C127.483 179.365 127.803 179.931 128.443 180.272C129.104 180.592 130.118 180.901 131.483 181.2C132.443 181.413 133.339 181.68 134.171 182C135.024 182.32 135.707 182.768 136.219 183.344C136.731 183.92 136.987 184.72 136.987 185.744C136.987 187.109 136.454 188.219 135.387 189.072C134.342 189.925 132.934 190.352 131.163 190.352Z" fill="white"/>
<path d="M154.788 190.352C153.615 190.352 152.537 190.16 151.556 189.776C150.596 189.371 149.785 188.805 149.124 188.08C148.847 187.845 148.719 187.611 148.74 187.376C148.761 187.12 148.879 186.896 149.092 186.704C149.497 186.363 149.967 186.405 150.5 186.832C150.991 187.387 151.609 187.813 152.356 188.112C153.124 188.411 153.956 188.56 154.852 188.56C155.897 188.56 156.783 188.336 157.508 187.888C158.255 187.419 158.628 186.693 158.628 185.712C158.628 184.837 158.276 184.229 157.572 183.888C156.868 183.547 155.791 183.227 154.34 182.928C153.444 182.736 152.591 182.501 151.78 182.224C150.991 181.947 150.351 181.531 149.86 180.976C149.369 180.4 149.124 179.611 149.124 178.608C149.124 177.691 149.369 176.912 149.86 176.272C150.372 175.632 151.044 175.141 151.876 174.8C152.708 174.459 153.593 174.288 154.532 174.288C156.623 174.288 158.212 174.939 159.3 176.24C159.599 176.453 159.748 176.677 159.748 176.912C159.748 177.147 159.641 177.36 159.428 177.552C159.215 177.765 158.991 177.861 158.756 177.84C158.543 177.797 158.308 177.68 158.052 177.488C157.263 176.549 156.1 176.08 154.564 176.08C153.455 176.08 152.601 176.325 152.004 176.816C151.407 177.285 151.108 177.872 151.108 178.576C151.108 179.365 151.428 179.931 152.068 180.272C152.729 180.592 153.743 180.901 155.108 181.2C156.068 181.413 156.964 181.68 157.796 182C158.649 182.32 159.332 182.768 159.844 183.344C160.356 183.92 160.612 184.72 160.612 185.744C160.612 187.109 160.079 188.219 159.012 189.072C157.967 189.925 156.559 190.352 154.788 190.352Z" fill="white"/>
<path d="M170.468 190.352C169.081 190.352 167.844 190.032 166.756 189.392C165.689 188.731 164.847 187.803 164.228 186.608C163.631 185.392 163.332 183.963 163.332 182.32C163.332 180.72 163.631 179.323 164.228 178.128C164.847 176.933 165.689 176.005 166.756 175.344C167.823 174.661 169.039 174.32 170.404 174.32C171.791 174.32 172.964 174.661 173.924 175.344C174.905 176.027 175.652 176.891 176.164 177.936C176.676 178.981 176.932 180.048 176.932 181.136C176.932 181.52 176.836 181.787 176.644 181.936C176.473 182.085 176.217 182.16 175.876 182.16H165.284C165.241 184.08 165.689 185.637 166.628 186.832C167.588 188.005 168.879 188.592 170.5 188.592C172.505 188.592 173.999 187.685 174.98 185.872C175.407 185.317 175.844 185.168 176.292 185.424C176.847 185.787 176.921 186.267 176.516 186.864C175.172 189.189 173.156 190.352 170.468 190.352ZM165.412 180.496H175.012C174.905 179.664 174.639 178.907 174.212 178.224C173.807 177.541 173.273 176.997 172.612 176.592C171.972 176.187 171.236 175.984 170.404 175.984C169.103 175.984 168.004 176.389 167.108 177.2C166.233 177.989 165.668 179.088 165.412 180.496Z" fill="white"/>
<path d="M186.161 190.352C184.54 190.352 183.228 189.829 182.225 188.784C181.223 187.739 180.721 186.245 180.721 184.304V175.728C180.721 175.024 181.041 174.672 181.681 174.672C182.321 174.672 182.641 175.024 182.641 175.728V184.048C182.641 185.541 182.993 186.661 183.697 187.408C184.423 188.155 185.351 188.528 186.481 188.528C187.783 188.528 188.839 188.123 189.649 187.312C190.46 186.501 190.865 185.509 190.865 184.336V175.728C190.865 175.024 191.196 174.672 191.857 174.672C192.497 174.672 192.817 175.024 192.817 175.728V188.912C192.817 189.616 192.519 189.968 191.921 189.968C191.303 189.968 190.993 189.733 190.993 189.264L190.929 187.824C190.481 188.528 189.841 189.125 189.009 189.616C188.177 190.107 187.228 190.352 186.161 190.352Z" fill="white"/>
<path d="M207.532 190C206.871 190 206.54 189.648 206.54 188.944V175.728C206.54 175.024 206.849 174.672 207.468 174.672C208.087 174.672 208.396 174.907 208.396 175.376L208.428 176.848C208.919 176.123 209.569 175.515 210.38 175.024C211.212 174.533 212.151 174.288 213.196 174.288C214.839 174.288 216.161 174.811 217.164 175.856C218.167 176.901 218.668 178.395 218.668 180.336V188.944C218.668 189.648 218.348 190 217.708 190C217.068 190 216.748 189.648 216.748 188.944V180.624C216.748 179.131 216.385 178.011 215.66 177.264C214.956 176.517 214.039 176.144 212.908 176.144C212.055 176.144 211.287 176.336 210.604 176.72C209.943 177.083 209.42 177.584 209.036 178.224C208.673 178.843 208.492 179.536 208.492 180.304V188.944C208.492 189.648 208.172 190 207.532 190Z" fill="white"/>
<path d="M227.542 190.288C226.049 190.309 224.833 189.968 223.894 189.264C222.977 188.56 222.518 187.536 222.518 186.192C222.518 185.168 222.859 184.272 223.542 183.504C224.246 182.736 225.131 182.139 226.198 181.712C227.286 181.264 228.406 181.04 229.558 181.04C231.137 181.04 232.385 181.413 233.302 182.16V179.536C233.302 178.107 233.003 177.179 232.406 176.752C231.809 176.304 230.849 176.08 229.526 176.08C228.822 176.08 228.043 176.187 227.19 176.4C226.358 176.613 225.601 176.891 224.918 177.232C224.278 177.488 223.819 177.392 223.542 176.944C223.222 176.389 223.393 175.963 224.054 175.664C224.843 175.259 225.729 174.928 226.71 174.672C227.713 174.416 228.651 174.288 229.526 174.288C231.467 174.288 232.897 174.661 233.814 175.408C234.731 176.155 235.19 177.531 235.19 179.536V188.016C235.19 188.293 235.243 188.464 235.35 188.528C235.457 188.592 235.681 188.624 236.022 188.624C236.299 188.624 236.534 188.677 236.726 188.784C236.918 188.869 237.014 189.019 237.014 189.232C237.014 189.765 236.747 190.075 236.214 190.16C236.043 190.203 235.862 190.235 235.67 190.256C235.478 190.277 235.297 190.288 235.126 190.288C234.401 190.288 233.931 190.139 233.718 189.84C233.505 189.541 233.377 188.976 233.334 188.144C232.673 188.869 231.798 189.403 230.71 189.744C229.622 190.085 228.566 190.267 227.542 190.288ZM227.638 188.528C228.662 188.507 229.611 188.347 230.486 188.048C231.382 187.749 232.086 187.323 232.598 186.768C233.131 186.192 233.377 185.499 233.334 184.688C233.27 184.027 232.907 183.536 232.246 183.216C231.585 182.875 230.731 182.715 229.686 182.736C228.811 182.736 227.969 182.885 227.158 183.184C226.347 183.483 225.686 183.899 225.174 184.432C224.683 184.944 224.438 185.541 224.438 186.224C224.438 187.013 224.737 187.6 225.334 187.984C225.931 188.347 226.699 188.528 227.638 188.528Z" fill="white"/>
<path d="M245.819 190.352C244.646 190.352 243.568 190.16 242.587 189.776C241.627 189.371 240.816 188.805 240.155 188.08C239.878 187.845 239.75 187.611 239.771 187.376C239.792 187.12 239.91 186.896 240.123 186.704C240.528 186.363 240.998 186.405 241.531 186.832C242.022 187.387 242.64 187.813 243.387 188.112C244.155 188.411 244.987 188.56 245.883 188.56C246.928 188.56 247.814 188.336 248.539 187.888C249.286 187.419 249.659 186.693 249.659 185.712C249.659 184.837 249.307 184.229 248.603 183.888C247.899 183.547 246.822 183.227 245.371 182.928C244.475 182.736 243.622 182.501 242.811 182.224C242.022 181.947 241.382 181.531 240.891 180.976C240.4 180.4 240.155 179.611 240.155 178.608C240.155 177.691 240.4 176.912 240.891 176.272C241.403 175.632 242.075 175.141 242.907 174.8C243.739 174.459 244.624 174.288 245.563 174.288C247.654 174.288 249.243 174.939 250.331 176.24C250.63 176.453 250.779 176.677 250.779 176.912C250.779 177.147 250.672 177.36 250.459 177.552C250.246 177.765 250.022 177.861 249.787 177.84C249.574 177.797 249.339 177.68 249.083 177.488C248.294 176.549 247.131 176.08 245.595 176.08C244.486 176.08 243.632 176.325 243.035 176.816C242.438 177.285 242.139 177.872 242.139 178.576C242.139 179.365 242.459 179.931 243.099 180.272C243.76 180.592 244.774 180.901 246.139 181.2C247.099 181.413 247.995 181.68 248.827 182C249.68 182.32 250.363 182.768 250.875 183.344C251.387 183.92 251.643 184.72 251.643 185.744C251.643 187.109 251.11 188.219 250.043 189.072C248.998 189.925 247.59 190.352 245.819 190.352Z" fill="white"/>
<path d="M261.467 190.352C260.102 190.352 258.886 190.021 257.819 189.36C256.753 188.677 255.91 187.728 255.291 186.512C254.673 185.296 254.363 183.899 254.363 182.32C254.363 180.741 254.673 179.355 255.291 178.16C255.91 176.944 256.753 176.005 257.819 175.344C258.886 174.661 260.102 174.32 261.467 174.32C263.302 174.32 264.849 174.917 266.107 176.112C266.385 176.325 266.513 176.56 266.491 176.816C266.47 177.072 266.342 177.296 266.107 177.488C265.851 177.659 265.617 177.733 265.403 177.712C265.211 177.691 264.977 177.573 264.699 177.36C263.782 176.549 262.705 176.144 261.467 176.144C259.974 176.144 258.737 176.709 257.755 177.84C256.795 178.949 256.315 180.443 256.315 182.32C256.315 184.197 256.795 185.701 257.755 186.832C258.737 187.963 259.974 188.528 261.467 188.528C262.726 188.528 263.793 188.123 264.667 187.312C264.923 187.099 265.158 186.981 265.371 186.96C265.606 186.917 265.851 186.981 266.107 187.152C266.342 187.344 266.47 187.568 266.491 187.824C266.513 188.059 266.395 188.293 266.139 188.528C264.859 189.744 263.302 190.352 261.467 190.352Z" fill="white"/>
<path d="M272.263 190C271.623 190 271.303 189.648 271.303 188.944V175.728C271.303 175.024 271.623 174.672 272.263 174.672C272.903 174.672 273.223 175.024 273.223 175.728V188.944C273.223 189.648 272.903 190 272.263 190ZM272.263 171.344C271.857 171.344 271.505 171.205 271.207 170.928C270.908 170.629 270.759 170.277 270.759 169.872C270.759 169.445 270.908 169.093 271.207 168.816C271.505 168.539 271.857 168.4 272.263 168.4C272.668 168.4 273.009 168.539 273.287 168.816C273.564 169.093 273.703 169.445 273.703 169.872C273.703 170.277 273.564 170.629 273.287 170.928C273.009 171.205 272.668 171.344 272.263 171.344Z" fill="white"/>
<path d="M279.469 190C278.808 190 278.477 189.648 278.477 188.944V175.728C278.477 175.024 278.787 174.672 279.405 174.672C280.024 174.672 280.333 174.907 280.333 175.376L280.397 177.072C280.739 176.283 281.304 175.621 282.093 175.088C282.883 174.555 283.779 174.288 284.781 174.288C286.019 174.288 287.032 174.576 287.821 175.152C288.632 175.728 289.176 176.528 289.453 177.552C289.816 176.613 290.392 175.835 291.181 175.216C291.971 174.597 292.984 174.288 294.221 174.288C295.8 174.288 297.037 174.789 297.933 175.792C298.829 176.773 299.277 178.256 299.277 180.24V188.944C299.277 189.648 298.957 190 298.317 190C297.656 190 297.325 189.648 297.325 188.944V180.528C297.325 178.907 297.016 177.765 296.397 177.104C295.779 176.443 294.947 176.112 293.901 176.112C293.091 176.112 292.376 176.325 291.757 176.752C291.16 177.157 290.691 177.701 290.349 178.384C290.029 179.045 289.869 179.771 289.869 180.56V188.944C289.869 189.648 289.549 190 288.909 190C288.248 190 287.917 189.648 287.917 188.944V180.528C287.917 178.907 287.597 177.765 286.957 177.104C286.339 176.443 285.507 176.112 284.461 176.112C283.651 176.112 282.936 176.325 282.317 176.752C281.72 177.179 281.251 177.733 280.909 178.416C280.589 179.077 280.429 179.781 280.429 180.528V188.944C280.429 189.648 280.109 190 279.469 190Z" fill="white"/>
<path d="M310.312 190.352C308.925 190.352 307.688 190.032 306.6 189.392C305.533 188.731 304.691 187.803 304.072 186.608C303.475 185.392 303.176 183.963 303.176 182.32C303.176 180.72 303.475 179.323 304.072 178.128C304.691 176.933 305.533 176.005 306.6 175.344C307.667 174.661 308.883 174.32 310.248 174.32C311.635 174.32 312.808 174.661 313.768 175.344C314.749 176.027 315.496 176.891 316.008 177.936C316.52 178.981 316.776 180.048 316.776 181.136C316.776 181.52 316.68 181.787 316.488 181.936C316.317 182.085 316.061 182.16 315.72 182.16H305.128C305.085 184.08 305.533 185.637 306.472 186.832C307.432 188.005 308.723 188.592 310.344 188.592C312.349 188.592 313.843 187.685 314.824 185.872C315.251 185.317 315.688 185.168 316.136 185.424C316.691 185.787 316.765 186.267 316.36 186.864C315.016 189.189 313 190.352 310.312 190.352ZM305.256 180.496H314.856C314.749 179.664 314.483 178.907 314.056 178.224C313.651 177.541 313.117 176.997 312.456 176.592C311.816 176.187 311.08 175.984 310.248 175.984C308.947 175.984 307.848 176.389 306.952 177.2C306.077 177.989 305.512 179.088 305.256 180.496Z" fill="white"/>
<path d="M321.813 190C321.152 190 320.821 189.648 320.821 188.944V175.728C320.821 175.024 321.13 174.672 321.749 174.672C322.368 174.672 322.677 174.907 322.677 175.376L322.709 176.848C323.2 176.123 323.85 175.515 324.661 175.024C325.493 174.533 326.432 174.288 327.477 174.288C329.12 174.288 330.442 174.811 331.445 175.856C332.448 176.901 332.949 178.395 332.949 180.336V188.944C332.949 189.648 332.629 190 331.989 190C331.349 190 331.029 189.648 331.029 188.944V180.624C331.029 179.131 330.666 178.011 329.941 177.264C329.237 176.517 328.32 176.144 327.189 176.144C326.336 176.144 325.568 176.336 324.885 176.72C324.224 177.083 323.701 177.584 323.317 178.224C322.954 178.843 322.773 179.536 322.773 180.304V188.944C322.773 189.648 322.453 190 321.813 190Z" fill="white"/>
<path d="M343.086 190.352C341.721 190.352 340.697 190.064 340.014 189.488C339.332 188.912 338.99 187.877 338.99 186.384V176.464H336.718C336.014 176.464 335.662 176.155 335.662 175.536C335.662 174.96 336.014 174.672 336.718 174.672H338.99V170.096C338.99 169.392 339.31 169.04 339.95 169.04C340.59 169.04 340.91 169.392 340.91 170.096V174.672H344.526C345.23 174.672 345.582 174.96 345.582 175.536C345.582 176.155 345.23 176.464 344.526 176.464H340.91V186.064C340.91 187.024 341.113 187.685 341.518 188.048C341.924 188.389 342.553 188.56 343.406 188.56C343.513 188.56 343.62 188.56 343.726 188.56C343.854 188.539 343.972 188.528 344.078 188.528C344.505 188.507 344.857 188.528 345.134 188.592C345.433 188.635 345.582 188.859 345.582 189.264C345.582 189.733 345.326 190.032 344.814 190.16C344.302 190.288 343.726 190.352 343.086 190.352Z" fill="white"/>
<path d="M355.405 190.352C354.04 190.352 352.824 190.011 351.757 189.328C350.69 188.645 349.848 187.707 349.229 186.512C348.61 185.296 348.301 183.899 348.301 182.32C348.301 180.741 348.61 179.355 349.229 178.16C349.848 176.944 350.69 175.995 351.757 175.312C352.824 174.629 354.04 174.288 355.405 174.288C356.792 174.288 358.018 174.629 359.085 175.312C360.152 175.995 360.994 176.944 361.613 178.16C362.232 179.355 362.541 180.741 362.541 182.32C362.541 183.899 362.232 185.296 361.613 186.512C360.994 187.707 360.152 188.645 359.085 189.328C358.018 190.011 356.792 190.352 355.405 190.352ZM355.405 188.528C356.408 188.528 357.293 188.272 358.061 187.76C358.85 187.248 359.469 186.533 359.917 185.616C360.365 184.677 360.589 183.579 360.589 182.32C360.589 181.061 360.365 179.973 359.917 179.056C359.469 178.117 358.85 177.392 358.061 176.88C357.293 176.368 356.408 176.112 355.405 176.112C353.912 176.112 352.674 176.677 351.693 177.808C350.733 178.917 350.253 180.421 350.253 182.32C350.253 184.197 350.733 185.701 351.693 186.832C352.674 187.963 353.912 188.528 355.405 188.528Z" fill="white"/>
<path d="M380.632 190.352C379.458 190.352 378.381 190.16 377.4 189.776C376.44 189.371 375.629 188.805 374.968 188.08C374.69 187.845 374.562 187.611 374.584 187.376C374.605 187.12 374.722 186.896 374.936 186.704C375.341 186.363 375.81 186.405 376.344 186.832C376.834 187.387 377.453 187.813 378.2 188.112C378.968 188.411 379.8 188.56 380.696 188.56C381.741 188.56 382.626 188.336 383.352 187.888C384.098 187.419 384.472 186.693 384.472 185.712C384.472 184.837 384.12 184.229 383.416 183.888C382.712 183.547 381.634 183.227 380.184 182.928C379.288 182.736 378.434 182.501 377.624 182.224C376.834 181.947 376.194 181.531 375.704 180.976C375.213 180.4 374.968 179.611 374.968 178.608C374.968 177.691 375.213 176.912 375.704 176.272C376.216 175.632 376.888 175.141 377.72 174.8C378.552 174.459 379.437 174.288 380.376 174.288C382.466 174.288 384.056 174.939 385.144 176.24C385.442 176.453 385.592 176.677 385.592 176.912C385.592 177.147 385.485 177.36 385.272 177.552C385.058 177.765 384.834 177.861 384.6 177.84C384.386 177.797 384.152 177.68 383.896 177.488C383.106 176.549 381.944 176.08 380.408 176.08C379.298 176.08 378.445 176.325 377.848 176.816C377.25 177.285 376.952 177.872 376.952 178.576C376.952 179.365 377.272 179.931 377.912 180.272C378.573 180.592 379.586 180.901 380.952 181.2C381.912 181.413 382.808 181.68 383.64 182C384.493 182.32 385.176 182.768 385.688 183.344C386.2 183.92 386.456 184.72 386.456 185.744C386.456 187.109 385.922 188.219 384.856 189.072C383.81 189.925 382.402 190.352 380.632 190.352Z" fill="white"/>
<path d="M396.312 190.352C394.925 190.352 393.688 190.032 392.6 189.392C391.533 188.731 390.691 187.803 390.072 186.608C389.475 185.392 389.176 183.963 389.176 182.32C389.176 180.72 389.475 179.323 390.072 178.128C390.691 176.933 391.533 176.005 392.6 175.344C393.667 174.661 394.883 174.32 396.248 174.32C397.635 174.32 398.808 174.661 399.768 175.344C400.749 176.027 401.496 176.891 402.008 177.936C402.52 178.981 402.776 180.048 402.776 181.136C402.776 181.52 402.68 181.787 402.488 181.936C402.317 182.085 402.061 182.16 401.72 182.16H391.128C391.085 184.08 391.533 185.637 392.472 186.832C393.432 188.005 394.723 188.592 396.344 188.592C398.349 188.592 399.843 187.685 400.824 185.872C401.251 185.317 401.688 185.168 402.136 185.424C402.691 185.787 402.765 186.267 402.36 186.864C401.016 189.189 399 190.352 396.312 190.352ZM391.256 180.496H400.856C400.749 179.664 400.483 178.907 400.056 178.224C399.651 177.541 399.117 176.997 398.456 176.592C397.816 176.187 397.08 175.984 396.248 175.984C394.947 175.984 393.848 176.389 392.952 177.2C392.077 177.989 391.512 179.088 391.256 180.496Z" fill="white"/>
<path d="M407.813 190C407.152 190 406.821 189.648 406.821 188.944V175.728C406.821 175.024 407.13 174.672 407.749 174.672C408.368 174.672 408.677 174.907 408.677 175.376L408.741 177.072C409.082 176.283 409.648 175.621 410.437 175.088C411.226 174.555 412.122 174.288 413.125 174.288C414.362 174.288 415.376 174.576 416.165 175.152C416.976 175.728 417.52 176.528 417.797 177.552C418.16 176.613 418.736 175.835 419.525 175.216C420.314 174.597 421.328 174.288 422.565 174.288C424.144 174.288 425.381 174.789 426.277 175.792C427.173 176.773 427.621 178.256 427.621 180.24V188.944C427.621 189.648 427.301 190 426.661 190C426 190 425.669 189.648 425.669 188.944V180.528C425.669 178.907 425.36 177.765 424.741 177.104C424.122 176.443 423.29 176.112 422.245 176.112C421.434 176.112 420.72 176.325 420.101 176.752C419.504 177.157 419.034 177.701 418.693 178.384C418.373 179.045 418.213 179.771 418.213 180.56V188.944C418.213 189.648 417.893 190 417.253 190C416.592 190 416.261 189.648 416.261 188.944V180.528C416.261 178.907 415.941 177.765 415.301 177.104C414.682 176.443 413.85 176.112 412.805 176.112C411.994 176.112 411.28 176.325 410.661 176.752C410.064 177.179 409.594 177.733 409.253 178.416C408.933 179.077 408.773 179.781 408.773 180.528V188.944C408.773 189.648 408.453 190 407.813 190Z" fill="white"/>
<path d="M169.705 242.912C169.535 242.912 169.353 242.901 169.161 242.88C168.948 242.859 168.724 242.827 168.489 242.784C168.191 242.741 167.967 242.613 167.817 242.4C167.668 242.187 167.593 241.931 167.593 241.632C167.593 241.035 167.86 240.789 168.393 240.896C168.564 240.917 168.745 240.928 168.937 240.928C169.108 240.949 169.279 240.96 169.449 240.96C170.516 240.96 171.252 240.704 171.657 240.192C172.084 239.701 172.297 238.816 172.297 237.536V221.728C172.297 221.024 172.628 220.672 173.289 220.672C173.929 220.672 174.249 221.024 174.249 221.728V237.536C174.249 239.499 173.865 240.885 173.097 241.696C172.351 242.507 171.22 242.912 169.705 242.912ZM173.289 217.344C172.884 217.344 172.532 217.205 172.233 216.928C171.956 216.629 171.817 216.277 171.817 215.872C171.817 215.445 171.956 215.093 172.233 214.816C172.532 214.539 172.884 214.4 173.289 214.4C173.673 214.4 174.004 214.539 174.281 214.816C174.58 215.093 174.729 215.445 174.729 215.872C174.729 216.277 174.58 216.629 174.281 216.928C174.004 217.205 173.673 217.344 173.289 217.344Z" fill="white"/>
<path d="M184.693 236.352C183.071 236.352 181.759 235.829 180.757 234.784C179.754 233.739 179.253 232.245 179.253 230.304V221.728C179.253 221.024 179.573 220.672 180.213 220.672C180.853 220.672 181.173 221.024 181.173 221.728V230.048C181.173 231.541 181.525 232.661 182.229 233.408C182.954 234.155 183.882 234.528 185.013 234.528C186.314 234.528 187.37 234.123 188.181 233.312C188.991 232.501 189.397 231.509 189.397 230.336V221.728C189.397 221.024 189.727 220.672 190.389 220.672C191.029 220.672 191.349 221.024 191.349 221.728V234.912C191.349 235.616 191.05 235.968 190.453 235.968C189.834 235.968 189.525 235.733 189.525 235.264L189.461 233.824C189.013 234.528 188.373 235.125 187.541 235.616C186.709 236.107 185.759 236.352 184.693 236.352Z" fill="white"/>
<path d="M201.35 236.352C200.177 236.352 199.1 236.16 198.118 235.776C197.158 235.371 196.348 234.805 195.686 234.08C195.409 233.845 195.281 233.611 195.302 233.376C195.324 233.12 195.441 232.896 195.654 232.704C196.06 232.363 196.529 232.405 197.062 232.832C197.553 233.387 198.172 233.813 198.918 234.112C199.686 234.411 200.518 234.56 201.414 234.56C202.46 234.56 203.345 234.336 204.07 233.888C204.817 233.419 205.19 232.693 205.19 231.712C205.19 230.837 204.838 230.229 204.134 229.888C203.43 229.547 202.353 229.227 200.902 228.928C200.006 228.736 199.153 228.501 198.342 228.224C197.553 227.947 196.913 227.531 196.422 226.976C195.932 226.4 195.686 225.611 195.686 224.608C195.686 223.691 195.932 222.912 196.422 222.272C196.934 221.632 197.606 221.141 198.438 220.8C199.27 220.459 200.156 220.288 201.094 220.288C203.185 220.288 204.774 220.939 205.862 222.24C206.161 222.453 206.31 222.677 206.31 222.912C206.31 223.147 206.204 223.36 205.99 223.552C205.777 223.765 205.553 223.861 205.318 223.84C205.105 223.797 204.87 223.68 204.614 223.488C203.825 222.549 202.662 222.08 201.126 222.08C200.017 222.08 199.164 222.325 198.566 222.816C197.969 223.285 197.67 223.872 197.67 224.576C197.67 225.365 197.99 225.931 198.63 226.272C199.292 226.592 200.305 226.901 201.67 227.2C202.63 227.413 203.526 227.68 204.358 228C205.212 228.32 205.894 228.768 206.406 229.344C206.918 229.92 207.174 230.72 207.174 231.744C207.174 233.109 206.641 234.219 205.574 235.072C204.529 235.925 203.121 236.352 201.35 236.352Z" fill="white"/>
<path d="M216.743 236.352C215.377 236.352 214.353 236.064 213.671 235.488C212.988 234.912 212.647 233.877 212.647 232.384V222.464H210.375C209.671 222.464 209.319 222.155 209.319 221.536C209.319 220.96 209.671 220.672 210.375 220.672H212.647V216.096C212.647 215.392 212.967 215.04 213.607 215.04C214.247 215.04 214.567 215.392 214.567 216.096V220.672H218.183C218.887 220.672 219.239 220.96 219.239 221.536C219.239 222.155 218.887 222.464 218.183 222.464H214.567V232.064C214.567 233.024 214.769 233.685 215.175 234.048C215.58 234.389 216.209 234.56 217.063 234.56C217.169 234.56 217.276 234.56 217.383 234.56C217.511 234.539 217.628 234.528 217.735 234.528C218.161 234.507 218.513 234.528 218.791 234.592C219.089 234.635 219.239 234.859 219.239 235.264C219.239 235.733 218.983 236.032 218.471 236.16C217.959 236.288 217.383 236.352 216.743 236.352Z" fill="white"/>
<path d="M224.325 236C223.685 236 223.365 235.648 223.365 234.944V221.728C223.365 221.024 223.685 220.672 224.325 220.672C224.965 220.672 225.285 221.024 225.285 221.728V234.944C225.285 235.648 224.965 236 224.325 236ZM224.325 217.344C223.92 217.344 223.568 217.205 223.269 216.928C222.97 216.629 222.821 216.277 222.821 215.872C222.821 215.445 222.97 215.093 223.269 214.816C223.568 214.539 223.92 214.4 224.325 214.4C224.73 214.4 225.072 214.539 225.349 214.816C225.626 215.093 225.765 215.445 225.765 215.872C225.765 216.277 225.626 216.629 225.349 216.928C225.072 217.205 224.73 217.344 224.325 217.344Z" fill="white"/>
<path d="M233.26 236C232.599 236 232.268 235.648 232.268 234.944V222.464H230.156C229.452 222.464 229.1 222.155 229.1 221.536C229.1 220.96 229.388 220.672 229.964 220.672H232.268V217.632C232.268 216.373 232.481 215.392 232.908 214.688C233.335 213.984 233.9 213.483 234.604 213.184C235.308 212.885 236.065 212.736 236.876 212.736C237.495 212.736 238.017 212.811 238.444 212.96C238.871 213.088 239.073 213.365 239.052 213.792C239.009 214.368 238.636 214.624 237.932 214.56C237.761 214.539 237.601 214.528 237.452 214.528C237.324 214.507 237.175 214.496 237.004 214.496C236.215 214.496 235.543 214.763 234.988 215.296C234.455 215.808 234.188 216.629 234.188 217.76V220.672H237.996C238.7 220.672 239.052 220.96 239.052 221.536C239.052 222.155 238.7 222.464 237.996 222.464H234.188V234.944C234.188 235.648 233.879 236 233.26 236Z" fill="white"/>
<path d="M243.575 236C242.935 236 242.615 235.648 242.615 234.944V221.728C242.615 221.024 242.935 220.672 243.575 220.672C244.215 220.672 244.535 221.024 244.535 221.728V234.944C244.535 235.648 244.215 236 243.575 236ZM243.575 217.344C243.17 217.344 242.818 217.205 242.519 216.928C242.22 216.629 242.071 216.277 242.071 215.872C242.071 215.445 242.22 215.093 242.519 214.816C242.818 214.539 243.17 214.4 243.575 214.4C243.98 214.4 244.322 214.539 244.599 214.816C244.876 215.093 245.015 215.445 245.015 215.872C245.015 216.277 244.876 216.629 244.599 216.928C244.322 217.205 243.98 217.344 243.575 217.344Z" fill="white"/>
<path d="M256.03 236.352C254.665 236.352 253.449 236.021 252.382 235.36C251.315 234.677 250.473 233.728 249.854 232.512C249.235 231.296 248.926 229.899 248.926 228.32C248.926 226.741 249.235 225.355 249.854 224.16C250.473 222.944 251.315 222.005 252.382 221.344C253.449 220.661 254.665 220.32 256.03 220.32C257.865 220.32 259.411 220.917 260.67 222.112C260.947 222.325 261.075 222.56 261.054 222.816C261.033 223.072 260.905 223.296 260.67 223.488C260.414 223.659 260.179 223.733 259.966 223.712C259.774 223.691 259.539 223.573 259.262 223.36C258.345 222.549 257.267 222.144 256.03 222.144C254.537 222.144 253.299 222.709 252.318 223.84C251.358 224.949 250.878 226.443 250.878 228.32C250.878 230.197 251.358 231.701 252.318 232.832C253.299 233.963 254.537 234.528 256.03 234.528C257.289 234.528 258.355 234.123 259.23 233.312C259.486 233.099 259.721 232.981 259.934 232.96C260.169 232.917 260.414 232.981 260.67 233.152C260.905 233.344 261.033 233.568 261.054 233.824C261.075 234.059 260.958 234.293 260.702 234.528C259.422 235.744 257.865 236.352 256.03 236.352Z" fill="white"/>
<path d="M269.417 236.288C267.924 236.309 266.708 235.968 265.769 235.264C264.852 234.56 264.393 233.536 264.393 232.192C264.393 231.168 264.734 230.272 265.417 229.504C266.121 228.736 267.006 228.139 268.073 227.712C269.161 227.264 270.281 227.04 271.433 227.04C273.012 227.04 274.26 227.413 275.177 228.16V225.536C275.177 224.107 274.878 223.179 274.281 222.752C273.684 222.304 272.724 222.08 271.401 222.08C270.697 222.08 269.918 222.187 269.065 222.4C268.233 222.613 267.476 222.891 266.793 223.232C266.153 223.488 265.694 223.392 265.417 222.944C265.097 222.389 265.268 221.963 265.929 221.664C266.718 221.259 267.604 220.928 268.585 220.672C269.588 220.416 270.526 220.288 271.401 220.288C273.342 220.288 274.772 220.661 275.689 221.408C276.606 222.155 277.065 223.531 277.065 225.536V234.016C277.065 234.293 277.118 234.464 277.225 234.528C277.332 234.592 277.556 234.624 277.897 234.624C278.174 234.624 278.409 234.677 278.601 234.784C278.793 234.869 278.889 235.019 278.889 235.232C278.889 235.765 278.622 236.075 278.089 236.16C277.918 236.203 277.737 236.235 277.545 236.256C277.353 236.277 277.172 236.288 277.001 236.288C276.276 236.288 275.806 236.139 275.593 235.84C275.38 235.541 275.252 234.976 275.209 234.144C274.548 234.869 273.673 235.403 272.585 235.744C271.497 236.085 270.441 236.267 269.417 236.288ZM269.513 234.528C270.537 234.507 271.486 234.347 272.361 234.048C273.257 233.749 273.961 233.323 274.473 232.768C275.006 232.192 275.252 231.499 275.209 230.688C275.145 230.027 274.782 229.536 274.121 229.216C273.46 228.875 272.606 228.715 271.561 228.736C270.686 228.736 269.844 228.885 269.033 229.184C268.222 229.483 267.561 229.899 267.049 230.432C266.558 230.944 266.313 231.541 266.313 232.224C266.313 233.013 266.612 233.6 267.209 233.984C267.806 234.347 268.574 234.528 269.513 234.528Z" fill="white"/>
<path d="M287.461 236.352C286.096 236.352 285.072 236.064 284.389 235.488C283.707 234.912 283.365 233.877 283.365 232.384V222.464H281.093C280.389 222.464 280.037 222.155 280.037 221.536C280.037 220.96 280.389 220.672 281.093 220.672H283.365V216.096C283.365 215.392 283.685 215.04 284.325 215.04C284.965 215.04 285.285 215.392 285.285 216.096V220.672H288.901C289.605 220.672 289.957 220.96 289.957 221.536C289.957 222.155 289.605 222.464 288.901 222.464H285.285V232.064C285.285 233.024 285.488 233.685 285.893 234.048C286.299 234.389 286.928 234.56 287.781 234.56C287.888 234.56 287.995 234.56 288.101 234.56C288.229 234.539 288.347 234.528 288.453 234.528C288.88 234.507 289.232 234.528 289.509 234.592C289.808 234.635 289.957 234.859 289.957 235.264C289.957 235.733 289.701 236.032 289.189 236.16C288.677 236.288 288.101 236.352 287.461 236.352Z" fill="white"/>
<path d="M295.044 236C294.404 236 294.084 235.648 294.084 234.944V221.728C294.084 221.024 294.404 220.672 295.044 220.672C295.684 220.672 296.004 221.024 296.004 221.728V234.944C296.004 235.648 295.684 236 295.044 236ZM295.044 217.344C294.639 217.344 294.287 217.205 293.988 216.928C293.689 216.629 293.54 216.277 293.54 215.872C293.54 215.445 293.689 215.093 293.988 214.816C294.287 214.539 294.639 214.4 295.044 214.4C295.449 214.4 295.791 214.539 296.068 214.816C296.345 215.093 296.484 215.445 296.484 215.872C296.484 216.277 296.345 216.629 296.068 216.928C295.791 217.205 295.449 217.344 295.044 217.344Z" fill="white"/>
<path d="M306.699 236.032C306.464 236.032 306.24 235.968 306.027 235.84C305.813 235.691 305.653 235.467 305.547 235.168L300.299 221.888C300.149 221.525 300.128 221.237 300.235 221.024C300.363 220.789 300.597 220.672 300.939 220.672C301.557 220.672 301.963 220.949 302.155 221.504L306.667 233.216L311.051 221.504C311.285 220.949 311.691 220.672 312.267 220.672C312.587 220.672 312.8 220.789 312.907 221.024C313.013 221.237 313.003 221.525 312.875 221.888L307.819 235.136C307.584 235.733 307.211 236.032 306.699 236.032Z" fill="white"/>
<path d="M320.73 236.288C319.236 236.309 318.02 235.968 317.082 235.264C316.164 234.56 315.706 233.536 315.706 232.192C315.706 231.168 316.047 230.272 316.73 229.504C317.434 228.736 318.319 228.139 319.386 227.712C320.474 227.264 321.594 227.04 322.746 227.04C324.324 227.04 325.572 227.413 326.49 228.16V225.536C326.49 224.107 326.191 223.179 325.594 222.752C324.996 222.304 324.036 222.08 322.714 222.08C322.01 222.08 321.231 222.187 320.378 222.4C319.546 222.613 318.788 222.891 318.106 223.232C317.466 223.488 317.007 223.392 316.73 222.944C316.41 222.389 316.58 221.963 317.242 221.664C318.031 221.259 318.916 220.928 319.898 220.672C320.9 220.416 321.839 220.288 322.714 220.288C324.655 220.288 326.084 220.661 327.002 221.408C327.919 222.155 328.378 223.531 328.378 225.536V234.016C328.378 234.293 328.431 234.464 328.538 234.528C328.644 234.592 328.868 234.624 329.21 234.624C329.487 234.624 329.722 234.677 329.914 234.784C330.106 234.869 330.202 235.019 330.202 235.232C330.202 235.765 329.935 236.075 329.402 236.16C329.231 236.203 329.05 236.235 328.858 236.256C328.666 236.277 328.484 236.288 328.314 236.288C327.588 236.288 327.119 236.139 326.906 235.84C326.692 235.541 326.564 234.976 326.522 234.144C325.86 234.869 324.986 235.403 323.898 235.744C322.81 236.085 321.754 236.267 320.73 236.288ZM320.826 234.528C321.85 234.507 322.799 234.347 323.674 234.048C324.57 233.749 325.274 233.323 325.786 232.768C326.319 232.192 326.564 231.499 326.522 230.688C326.458 230.027 326.095 229.536 325.434 229.216C324.772 228.875 323.919 228.715 322.874 228.736C321.999 228.736 321.156 228.885 320.346 229.184C319.535 229.483 318.874 229.899 318.362 230.432C317.871 230.944 317.626 231.541 317.626 232.224C317.626 233.013 317.924 233.6 318.522 233.984C319.119 234.347 319.887 234.528 320.826 234.528Z" fill="white"/>
<path d="M221.43 82.2841C230.962 81.0824 240.662 79.7264 249.39 75.6935C254.728 73.3093 259.53 69.879 263.511 65.6064C267.492 61.3338 270.57 56.3063 272.562 50.823C274.46 45.301 274.949 39.3946 273.987 33.6363C273.024 27.8779 270.64 22.4485 267.049 17.8372C256.421 4.87163 237.729 2.48444 220.967 1.54502C167.795 -1.30463 114.478 0.319128 61.5815 6.39856C49.0519 7.79293 36.4176 9.46004 24.6301 14.0296C18.7768 16.0107 13.4666 19.3234 9.1202 23.7054C0.0410213 33.6619 -0.0137981 48.7264 1.79109 62.0696C2.38108 69.1532 4.44894 76.0362 7.86211 82.2773C16.9063 97.0225 36.1202 92.7539 50.9037 92.8213C70.2455 92.8797 89.5746 92.5214 108.891 91.7467C146.551 90.1703 184.065 87.0161 221.43 82.2841Z" fill="#DBB2D1"/>
<path d="M49.1633 34.9834H46.7633C46.7366 36.6901 46.7099 38.4367 46.6833 40.2234C46.6833 41.9834 46.6833 43.7567 46.6833 45.5434V47.4634H49.3233C51.75 47.4634 53.4833 46.8767 54.5233 45.7034C55.5633 44.5034 56.0833 42.9701 56.0833 41.1034C56.0833 39.1567 55.5233 37.6501 54.4033 36.5834C53.3099 35.5167 51.5633 34.9834 49.1633 34.9834ZM39.1233 34.7834V33.1434H49.8833C53.2699 33.1434 55.8033 33.8901 57.4833 35.3834C59.19 36.8501 60.0433 38.7567 60.0433 41.1034C60.0433 42.5967 59.6699 43.9701 58.9233 45.2234C58.1766 46.4767 56.9766 47.4767 55.3233 48.2234C53.6966 48.9701 51.5099 49.3434 48.7633 49.3434H46.6833C46.6833 50.7834 46.6833 52.1967 46.6833 53.5834C46.7099 54.9701 46.7366 56.3834 46.7633 57.8234L50.4833 58.2634V59.9034H39.1233V58.2634L42.8033 57.8234C42.8566 56.1434 42.8833 54.4367 42.8833 52.7034C42.8833 50.9701 42.8833 49.2367 42.8833 47.5034V45.5434C42.8833 43.8101 42.8833 42.0901 42.8833 40.3834C42.8833 38.6501 42.8566 36.9301 42.8033 35.2234L39.1233 34.7834Z" fill="#0D1320"/>
<path d="M68.918 60.4234C67.798 60.4234 66.7713 60.2901 65.838 60.0234C64.9046 59.7834 63.9446 59.4101 62.958 58.9034L62.798 54.5034H64.998L65.758 57.9834C66.6913 58.4101 67.7713 58.6234 68.998 58.6234C70.518 58.6234 71.638 58.3434 72.358 57.7834C73.1046 57.2234 73.478 56.4901 73.478 55.5834C73.478 54.7301 73.1713 54.0501 72.558 53.5434C71.9446 53.0101 71.0113 52.5301 69.758 52.1034L67.918 51.4234C66.4513 50.8901 65.278 50.1967 64.398 49.3434C63.518 48.4901 63.078 47.3834 63.078 46.0234C63.078 45.0367 63.3446 44.1167 63.878 43.2634C64.4113 42.4101 65.198 41.7167 66.238 41.1834C67.278 40.6501 68.5446 40.3834 70.038 40.3834C71.1313 40.3834 72.118 40.5301 72.998 40.8234C73.9046 41.0901 74.7846 41.4901 75.638 42.0234L75.478 46.1034H73.398L72.758 42.9034C71.8513 42.4501 70.9313 42.2234 69.998 42.2234C68.7713 42.2234 67.838 42.4767 67.198 42.9834C66.5846 43.4634 66.278 44.1167 66.278 44.9434C66.278 45.8234 66.5446 46.4901 67.078 46.9434C67.638 47.3967 68.598 47.8767 69.958 48.3834L71.198 48.8234C73.198 49.5701 74.6113 50.4234 75.438 51.3834C76.2913 52.3434 76.718 53.4501 76.718 54.7034C76.718 55.7167 76.4246 56.6634 75.838 57.5434C75.2513 58.3967 74.3846 59.0901 73.238 59.6234C72.0913 60.1567 70.6513 60.4234 68.918 60.4234Z" fill="#0D1320"/>
<path d="M79.6617 59.9034V58.4634L82.6617 57.9034C82.6884 56.8901 82.7017 55.7967 82.7017 54.6234C82.7284 53.4234 82.7417 52.3834 82.7417 51.5034V49.6234C82.7417 48.5301 82.7284 47.6234 82.7017 46.9034C82.7017 46.1567 82.6751 45.3834 82.6217 44.5834L79.4217 44.2234V42.8234L85.5817 40.3834L86.1817 40.7834L86.0617 46.2234V51.5034C86.0617 52.3834 86.0617 53.4234 86.0617 54.6234C86.0884 55.7967 86.1151 56.8901 86.1417 57.9034L88.9417 58.4634V59.9034H79.6617ZM84.3817 35.9834C83.6351 35.9834 82.9951 35.7434 82.4617 35.2634C81.9551 34.7834 81.7017 34.1701 81.7017 33.4234C81.7017 32.6501 81.9551 32.0367 82.4617 31.5834C82.9951 31.1034 83.6351 30.8634 84.3817 30.8634C85.1284 30.8634 85.7551 31.1034 86.2617 31.5834C86.7951 32.0367 87.0617 32.6501 87.0617 33.4234C87.0617 34.1701 86.7951 34.7834 86.2617 35.2634C85.7551 35.7434 85.1284 35.9834 84.3817 35.9834Z" fill="#0D1320"/>
<path d="M100.856 60.4234C98.1091 60.4234 95.9225 59.5301 94.2958 57.7434C92.6691 55.9567 91.8558 53.5301 91.8558 50.4634C91.8558 48.3567 92.2824 46.5567 93.1358 45.0634C94.0158 43.5434 95.1624 42.3834 96.5758 41.5834C97.9891 40.7834 99.4958 40.3834 101.096 40.3834C102.296 40.3834 103.402 40.6101 104.416 41.0634C105.429 41.5167 106.269 42.1434 106.936 42.9434C107.602 43.7167 108.016 44.5967 108.176 45.5834C107.989 46.5967 107.376 47.1034 106.336 47.1034C105.669 47.1034 105.162 46.9301 104.816 46.5834C104.496 46.2101 104.269 45.7434 104.136 45.1834L103.416 42.5434C103.042 42.4101 102.669 42.3301 102.296 42.3034C101.949 42.2501 101.602 42.2234 101.256 42.2234C99.5491 42.2234 98.1358 42.8901 97.0158 44.2234C95.9225 45.5567 95.3758 47.5034 95.3758 50.0634C95.3758 52.5701 95.9758 54.4901 97.1758 55.8234C98.3758 57.1567 99.9091 57.8234 101.776 57.8234C102.922 57.8234 103.976 57.5701 104.936 57.0634C105.896 56.5301 106.682 55.7701 107.296 54.7834L108.296 55.3034C107.736 56.9567 106.829 58.2234 105.576 59.1034C104.322 59.9834 102.749 60.4234 100.856 60.4234Z" fill="#0D1320"/>
<path d="M120.667 60.4234C119.12 60.4234 117.64 60.0634 116.227 59.3434C114.84 58.5967 113.707 57.4901 112.827 56.0234C111.947 54.5301 111.507 52.6901 111.507 50.5034C111.507 48.2901 111.947 46.4367 112.827 44.9434C113.707 43.4234 114.84 42.2901 116.227 41.5434C117.64 40.7701 119.12 40.3834 120.667 40.3834C122.214 40.3834 123.68 40.7701 125.067 41.5434C126.48 42.2901 127.627 43.4234 128.507 44.9434C129.414 46.4367 129.867 48.2901 129.867 50.5034C129.867 52.6901 129.414 54.5301 128.507 56.0234C127.627 57.4901 126.48 58.5967 125.067 59.3434C123.68 60.0634 122.214 60.4234 120.667 60.4234ZM120.667 58.6234C122.4 58.6234 123.734 57.9434 124.667 56.5834C125.6 55.1967 126.067 53.1701 126.067 50.5034C126.067 47.8101 125.6 45.7567 124.667 44.3434C123.734 42.9301 122.4 42.2234 120.667 42.2234C118.934 42.2234 117.6 42.9301 116.667 44.3434C115.76 45.7567 115.307 47.8101 115.307 50.5034C115.307 53.1701 115.76 55.1967 116.667 56.5834C117.6 57.9434 118.934 58.6234 120.667 58.6234Z" fill="#0D1320"/>
<path d="M132.27 59.9034V58.4634L135.47 57.9034C135.496 56.8101 135.51 55.7434 135.51 54.7034C135.536 53.6367 135.55 52.5701 135.55 51.5034V33.9434L132.27 33.5434V32.1434L138.51 30.3434L139.07 30.6634L138.91 36.3434V51.5034C138.91 52.5701 138.91 53.6367 138.91 54.7034C138.936 55.7701 138.963 56.8367 138.99 57.9034L142.19 58.4634V59.9034H132.27Z" fill="#0D1320"/>
<path d="M154.144 60.4234C152.597 60.4234 151.117 60.0634 149.704 59.3434C148.317 58.5967 147.184 57.4901 146.304 56.0234C145.424 54.5301 144.984 52.6901 144.984 50.5034C144.984 48.2901 145.424 46.4367 146.304 44.9434C147.184 43.4234 148.317 42.2901 149.704 41.5434C151.117 40.7701 152.597 40.3834 154.144 40.3834C155.69 40.3834 157.157 40.7701 158.544 41.5434C159.957 42.2901 161.104 43.4234 161.984 44.9434C162.89 46.4367 163.344 48.2901 163.344 50.5034C163.344 52.6901 162.89 54.5301 161.984 56.0234C161.104 57.4901 159.957 58.5967 158.544 59.3434C157.157 60.0634 155.69 60.4234 154.144 60.4234ZM154.144 58.6234C155.877 58.6234 157.21 57.9434 158.144 56.5834C159.077 55.1967 159.544 53.1701 159.544 50.5034C159.544 47.8101 159.077 45.7567 158.144 44.3434C157.21 42.9301 155.877 42.2234 154.144 42.2234C152.41 42.2234 151.077 42.9301 150.144 44.3434C149.237 45.7567 148.784 47.8101 148.784 50.5034C148.784 53.1701 149.237 55.1967 150.144 56.5834C151.077 57.9434 152.41 58.6234 154.144 58.6234ZM152.624 36.8634C153.744 34.9701 154.93 33.0901 156.184 31.2234C156.557 30.6101 156.917 30.1834 157.264 29.9434C157.637 29.7034 157.997 29.5834 158.344 29.5834C158.717 29.5834 159.064 29.7034 159.384 29.9434C159.704 30.1834 159.864 30.5701 159.864 31.1034C159.864 31.3701 159.77 31.6767 159.584 32.0234C159.424 32.3434 159.064 32.7701 158.504 33.3034C157.677 34.0501 156.864 34.7834 156.064 35.5034C155.29 36.1967 154.49 36.9034 153.664 37.6234L152.624 36.8634Z" fill="#0D1320"/>
<path d="M174.617 51.9034C175.897 51.9034 176.897 51.4234 177.617 50.4634C178.337 49.5034 178.697 48.2901 178.697 46.8234C178.697 45.4101 178.35 44.2634 177.657 43.3834C176.99 42.4767 176.03 42.0234 174.777 42.0234C173.523 42.0234 172.537 42.4901 171.817 43.4234C171.097 44.3301 170.737 45.5167 170.737 46.9834C170.737 48.4501 171.07 49.6367 171.737 50.5434C172.43 51.4501 173.39 51.9034 174.617 51.9034ZM174.697 53.5034C173.657 53.5034 172.67 53.3567 171.737 53.0634C171.07 53.9167 170.737 54.7701 170.737 55.6234C170.737 56.1567 170.883 56.5834 171.177 56.9034C171.497 57.2234 172.123 57.3834 173.057 57.3834H178.297C180.51 57.3834 182.137 57.8367 183.177 58.7434C184.217 59.6501 184.737 60.9167 184.737 62.5434C184.737 63.6901 184.363 64.7967 183.617 65.8634C182.897 66.9301 181.803 67.7967 180.337 68.4634C178.87 69.1301 177.043 69.4634 174.857 69.4634C171.95 69.4634 169.843 69.0101 168.537 68.1034C167.23 67.1967 166.577 66.0367 166.577 64.6234C166.577 63.7701 166.857 62.9701 167.417 62.2234C168.003 61.5034 169.03 60.7834 170.497 60.0634C168.737 59.5834 167.857 58.5701 167.857 57.0234C167.857 56.3834 168.057 55.7167 168.457 55.0234C168.883 54.3301 169.59 53.5167 170.577 52.5834C169.617 52.0501 168.857 51.3167 168.297 50.3834C167.763 49.4501 167.497 48.3034 167.497 46.9434C167.497 44.8367 168.177 43.2234 169.537 42.1034C170.923 40.9567 172.657 40.3834 174.737 40.3834C176.843 40.3834 178.537 40.9034 179.817 41.9434L184.337 40.3834L184.937 40.7834V43.3034H181.017C181.63 44.2901 181.937 45.5034 181.937 46.9434C181.937 49.0501 181.243 50.6767 179.857 51.8234C178.497 52.9434 176.777 53.5034 174.697 53.5034ZM169.857 63.9834C169.857 65.2901 170.323 66.2234 171.257 66.7834C172.19 67.3434 173.443 67.6234 175.017 67.6234C177.203 67.6234 178.87 67.2234 180.017 66.4234C181.163 65.6501 181.737 64.7034 181.737 63.5834C181.737 62.7034 181.43 61.9567 180.817 61.3434C180.203 60.7567 179.177 60.4634 177.737 60.4634H173.057C172.79 60.4634 172.51 60.4501 172.217 60.4234C171.95 60.4234 171.683 60.4101 171.417 60.3834C170.857 60.9701 170.457 61.5434 170.217 62.1034C169.977 62.6901 169.857 63.3167 169.857 63.9834Z" fill="#0D1320"/>
<path d="M187.24 59.9034V58.4634L190.24 57.9034C190.267 56.8901 190.28 55.7967 190.28 54.6234C190.307 53.4234 190.32 52.3834 190.32 51.5034V49.6234C190.32 48.5301 190.307 47.6234 190.28 46.9034C190.28 46.1567 190.253 45.3834 190.2 44.5834L187 44.2234V42.8234L193.16 40.3834L193.76 40.7834L193.64 46.2234V51.5034C193.64 52.3834 193.64 53.4234 193.64 54.6234C193.667 55.7967 193.693 56.8901 193.72 57.9034L196.52 58.4634V59.9034H187.24ZM191.96 35.9834C191.213 35.9834 190.573 35.7434 190.04 35.2634C189.533 34.7834 189.28 34.1701 189.28 33.4234C189.28 32.6501 189.533 32.0367 190.04 31.5834C190.573 31.1034 191.213 30.8634 191.96 30.8634C192.707 30.8634 193.333 31.1034 193.84 31.5834C194.373 32.0367 194.64 32.6501 194.64 33.4234C194.64 34.1701 194.373 34.7834 193.84 35.2634C193.333 35.7434 192.707 35.9834 191.96 35.9834Z" fill="#0D1320"/>
<path d="M208.434 60.4234C205.687 60.4234 203.501 59.5301 201.874 57.7434C200.247 55.9567 199.434 53.5301 199.434 50.4634C199.434 48.3567 199.861 46.5567 200.714 45.0634C201.594 43.5434 202.741 42.3834 204.154 41.5834C205.567 40.7834 207.074 40.3834 208.674 40.3834C209.874 40.3834 210.981 40.6101 211.994 41.0634C213.007 41.5167 213.847 42.1434 214.514 42.9434C215.181 43.7167 215.594 44.5967 215.754 45.5834C215.567 46.5967 214.954 47.1034 213.914 47.1034C213.247 47.1034 212.741 46.9301 212.394 46.5834C212.074 46.2101 211.847 45.7434 211.714 45.1834L210.994 42.5434C210.621 42.4101 210.247 42.3301 209.874 42.3034C209.527 42.2501 209.181 42.2234 208.834 42.2234C207.127 42.2234 205.714 42.8901 204.594 44.2234C203.501 45.5567 202.954 47.5034 202.954 50.0634C202.954 52.5701 203.554 54.4901 204.754 55.8234C205.954 57.1567 207.487 57.8234 209.354 57.8234C210.501 57.8234 211.554 57.5701 212.514 57.0634C213.474 56.5301 214.261 55.7701 214.874 54.7834L215.874 55.3034C215.314 56.9567 214.407 58.2234 213.154 59.1034C211.901 59.9834 210.327 60.4234 208.434 60.4234Z" fill="#0D1320"/>
<path d="M233.925 60.3034C232.965 60.3034 232.165 60.0234 231.525 59.4634C230.885 58.9034 230.485 58.1567 230.325 57.2234C229.232 58.2901 228.272 59.0901 227.445 59.6234C226.618 60.1567 225.618 60.4234 224.445 60.4234C222.978 60.4234 221.712 60.0101 220.645 59.1834C219.605 58.3301 219.085 57.0767 219.085 55.4234C219.085 54.6501 219.258 53.9301 219.605 53.2634C219.978 52.5967 220.645 51.9434 221.605 51.3034C222.565 50.6634 223.938 50.0234 225.725 49.3834C226.338 49.1701 227.045 48.9434 227.845 48.7034C228.645 48.4634 229.445 48.2501 230.245 48.0634V47.0634C230.245 45.1167 229.952 43.8234 229.365 43.1834C228.778 42.5434 227.818 42.2234 226.485 42.2234C226.192 42.2234 225.858 42.2367 225.485 42.2634C225.138 42.2901 224.752 42.3567 224.325 42.4634L223.565 45.0634C223.192 46.3434 222.498 46.9834 221.485 46.9834C220.365 46.9834 219.738 46.4367 219.605 45.3434C219.978 43.8234 220.858 42.6234 222.245 41.7434C223.658 40.8367 225.378 40.3834 227.405 40.3834C229.512 40.3834 231.072 40.9167 232.085 41.9834C233.098 43.0234 233.605 44.8101 233.605 47.3434V55.8634C233.605 56.7167 233.738 57.3301 234.005 57.7034C234.272 58.0501 234.618 58.2234 235.045 58.2234C235.392 58.2234 235.685 58.1434 235.925 57.9834C236.165 57.8234 236.392 57.6101 236.605 57.3434L237.405 58.2234C236.925 58.9967 236.392 59.5434 235.805 59.8634C235.245 60.1567 234.618 60.3034 233.925 60.3034ZM222.645 54.8234C222.645 55.8901 222.952 56.6501 223.565 57.1034C224.178 57.5567 224.938 57.7834 225.845 57.7834C226.245 57.7834 226.618 57.7301 226.965 57.6234C227.338 57.5167 227.778 57.3167 228.285 57.0234C228.792 56.7034 229.445 56.2501 230.245 55.6634V49.5434C229.552 49.7301 228.872 49.9434 228.205 50.1834C227.538 50.3967 226.992 50.5834 226.565 50.7434C225.418 51.1967 224.565 51.6634 224.005 52.1434C223.445 52.6234 223.072 53.0901 222.885 53.5434C222.725 53.9967 222.645 54.4234 222.645 54.8234Z" fill="#0D1320"/>
</svg>
