<svg width="482" height="134" viewBox="0 0 482 134" fill="none" xmlns="http://www.w3.org/2000/svg">
<path d="M1 111.807C7.87257 118.291 15.8611 120.502 24.2111 122.81C33.4015 125.351 42.7911 128.059 52.2396 128.152C58.0195 128.208 63.8019 128.152 69.5822 128.152C77.2878 128.152 82.7784 124.085 90.078 121.635C96.7729 119.388 103.328 116.937 109.917 114.211C113.351 112.79 116.84 112.267 120.34 111.22C123.936 110.144 127.034 108.102 130.807 107.961C134.974 107.806 140.812 106.919 144.865 108.656C148.816 110.349 155.33 117.607 156.164 122.864C156.455 124.696 157.232 131.978 155.157 132.745C151.789 133.99 151.776 130.443 151.609 127.19C151.182 118.858 163.951 118.715 168.733 117.148C179.037 113.772 188.572 113.73 199.258 113.73C215.84 113.73 233.773 110.623 249.753 116.08C254.431 117.678 258.926 119.696 263.855 119.285C271.602 118.639 278.163 112.932 284 107" stroke="#1D2D44" stroke-linecap="round"/>
<path d="M34.4844 51.5703C34.4844 51.1641 34.6094 50.8125 34.8594 50.5156C35.125 50.2188 35.4375 50.0703 35.7969 50.0703H56.3984C56.8047 50.0703 57.1094 50.2031 57.3125 50.4688C57.5312 50.7188 57.6406 51.0312 57.6406 51.4062V53.9375C57.6406 54.2969 57.5312 54.6094 57.3125 54.875C57.1094 55.125 56.8047 55.25 56.3984 55.25H40.3672V65.5156H53.1172C53.5234 65.5156 53.8281 65.6484 54.0312 65.9141C54.25 66.1641 54.3594 66.4766 54.3594 66.8516V69.3828C54.3594 69.7422 54.25 70.0547 54.0312 70.3203C53.8281 70.5703 53.5234 70.6953 53.1172 70.6953H40.3672V80.8203H56.5156C56.9219 80.8203 57.2266 80.9531 57.4297 81.2188C57.6484 81.4688 57.7578 81.7812 57.7578 82.1562V84.6875C57.7578 85.0469 57.6484 85.3594 57.4297 85.625C57.2266 85.875 56.9219 86 56.5156 86H35.7734C35.4141 86 35.1094 85.8516 34.8594 85.5547C34.6094 85.2578 34.4844 84.9062 34.4844 84.5V51.5703ZM63.125 86C62.5938 86 62.1875 85.8125 61.9062 85.4375C61.6406 85.0625 61.5078 84.7109 61.5078 84.3828C61.5078 83.7578 61.7344 83.2266 62.1875 82.7891C62.6562 82.3516 63.2109 81.75 63.8516 80.9844C64.4922 80.2031 65.125 79.375 65.75 78.5L67.6016 75.8281L69.3594 73.1328L61.7891 61.9766C61.6172 61.7109 61.5312 61.4688 61.5312 61.25C61.5312 61.0156 61.5781 60.7969 61.6719 60.5938C61.7812 60.3906 61.9141 60.2188 62.0703 60.0781C62.4297 59.7344 62.8203 59.5625 63.2422 59.5625H65.3516C66.5234 59.5625 67.4297 60.1797 68.0703 61.4141C70.7734 66.2266 72.3359 68.9688 72.7578 69.6406L75.3125 64.6484C76.2812 62.8047 77 61.5781 77.4688 60.9688C77.9531 60.3438 78.375 59.9531 78.7344 59.7969C79.1094 59.6406 79.5078 59.5625 79.9297 59.5625H82.0391C82.5547 59.5625 82.9688 59.7344 83.2812 60.0781C83.6094 60.4219 83.7734 60.8047 83.7734 61.2266C83.7734 62.0547 83.4453 62.7891 82.7891 63.4297C82.1328 64.0703 81.5078 64.75 80.9141 65.4688L79.1562 67.7188C78.5625 68.5 77.9844 69.3047 77.4219 70.1328L75.8281 72.5469L83.7969 83.5859C83.9844 83.8672 84.0781 84.1875 84.0781 84.5469C84.0781 84.9062 83.9297 85.2422 83.6328 85.5547C83.3516 85.8516 83.0078 86 82.6016 86H80C79.0781 86 78.375 85.7031 77.8906 85.1094C77.6875 84.8594 77.4531 84.4922 77.1875 84.0078L73.7656 77.9375L72.7344 76.2031L70.1094 81.2656L68.9844 83.2812C67.9219 85.0938 66.6719 86 65.2344 86H63.125ZM93.1719 74.0703L93.1484 74.5156C93.1484 76.6562 93.8281 78.375 95.1875 79.6719C96.6094 81.0469 98.5391 81.7344 100.977 81.7344C103.195 81.7344 105.258 81.0703 107.164 79.7422C107.523 79.4922 107.844 79.3672 108.125 79.3672C108.703 79.3672 109.141 79.6562 109.438 80.2344L110.07 81.5469C110.211 81.8594 110.281 82.1953 110.281 82.5547C110.281 82.9141 110.117 83.2891 109.789 83.6797C109.477 84.0547 109.062 84.3984 108.547 84.7109C108.031 85.0234 107.43 85.2969 106.742 85.5312C106.07 85.7656 105.375 85.9609 104.656 86.1172C103.219 86.4297 101.719 86.5859 100.156 86.5859C98.5938 86.5859 97.0156 86.2891 95.4219 85.6953C93.8438 85.1016 92.4766 84.2344 91.3203 83.0938C88.8359 80.6719 87.5938 77.3984 87.5938 73.2734C87.5938 66.0391 90.1406 61.5391 95.2344 59.7734C96.8281 59.2266 98.4609 58.9531 100.133 58.9531C101.82 58.9531 103.25 59.1328 104.422 59.4922C105.609 59.8516 106.633 60.3828 107.492 61.0859C109.305 62.5703 110.211 64.6406 110.211 67.2969C110.211 69.9062 109.148 71.8984 107.023 73.2734C105.164 74.4766 102.711 75.0781 99.6641 75.0781C97.7891 75.0781 95.625 74.7422 93.1719 74.0703ZM104.703 67.2266C104.703 64.9922 103.203 63.875 100.203 63.875C97.3438 63.875 95.3438 64.9219 94.2031 67.0156C93.7969 67.75 93.5312 68.6562 93.4062 69.7344C94.75 70.4062 96.4609 70.7422 98.5391 70.7422C102.648 70.7422 104.703 69.5703 104.703 67.2266ZM131.703 58.9766C135.641 58.9766 138.133 60.7344 139.18 64.25C140.742 61.7344 142.812 60.0938 145.391 59.3281C146.266 59.0781 147.367 58.9531 148.695 58.9531C150.023 58.9531 151.305 59.2812 152.539 59.9375C153.789 60.5938 154.711 61.4531 155.305 62.5156C155.914 63.5625 156.297 64.7188 156.453 65.9844C156.625 67.25 156.711 68.6094 156.711 70.0625V84.4531C156.711 84.8906 156.57 85.2578 156.289 85.5547C156.008 85.8516 155.594 86 155.047 86H152.75C152.156 86 151.719 85.8516 151.438 85.5547C151.156 85.2578 151.016 84.8906 151.016 84.4531V69.8516C151.016 67.8359 150.664 66.3359 149.961 65.3516C149.273 64.3672 148.18 63.875 146.68 63.875C144.977 63.875 143.484 64.625 142.203 66.125C140.828 67.6875 140.141 69.625 140.141 71.9375V84.4531C140.141 84.8906 140 85.2578 139.719 85.5547C139.438 85.8516 139.023 86 138.477 86H136.18C135.586 86 135.148 85.8516 134.867 85.5547C134.586 85.2578 134.445 84.8906 134.445 84.4531V69.8516C134.445 67.8359 134.094 66.3359 133.391 65.3516C132.703 64.3672 131.609 63.875 130.109 63.875C128.406 63.875 126.906 64.625 125.609 66.125C124.25 67.6875 123.57 69.625 123.57 71.9375V84.4531C123.57 84.8906 123.438 85.2578 123.172 85.5547C122.906 85.8516 122.5 86 121.953 86H119.539C118.992 86 118.578 85.8516 118.297 85.5547C118.016 85.2578 117.875 84.8906 117.875 84.4531V70.0625C117.875 66.9219 117.773 64.7344 117.57 63.5C117.367 62.25 117.266 61.5 117.266 61.25C117.266 60.125 117.805 59.5625 118.883 59.5625H120.172C121.047 59.5625 121.641 59.8906 121.953 60.5469C122.328 61.3438 122.688 62.5781 123.031 64.25C124.391 61.7969 126.359 60.1719 128.938 59.375C129.812 59.1094 130.734 58.9766 131.703 58.9766ZM171.031 81.9453C171.188 83.5078 171.266 85.4609 171.266 87.8047V97.4844C171.266 98.6406 170.805 99.2188 169.883 99.2188H166.977C165.992 99.2188 165.5 98.6094 165.5 97.3906V71.4453C165.5 67.0547 165.266 63.8516 164.797 61.8359C164.75 61.6328 164.727 61.3516 164.727 60.9922C164.727 60.6328 164.867 60.3047 165.148 60.0078C165.445 59.7109 165.82 59.5625 166.273 59.5625H167.703C168.562 59.5625 169.172 59.9375 169.531 60.6875C169.953 61.5625 170.273 62.6953 170.492 64.0859C171.586 62.1797 173.078 60.7891 174.969 59.9141C176.312 59.2891 177.836 58.9766 179.539 58.9766C181.258 58.9766 182.789 59.3125 184.133 59.9844C185.477 60.6406 186.594 61.5469 187.484 62.7031C189.25 65 190.133 68.0781 190.133 71.9375C190.133 75.9688 189.141 79.375 187.156 82.1562C185.062 85.1094 182.32 86.5859 178.93 86.5859C175.398 86.5859 172.766 85.0391 171.031 81.9453ZM170.727 73.625C170.727 75.875 171.477 77.8125 172.977 79.4375C174.398 80.9688 176.008 81.7344 177.805 81.7344C180.07 81.7344 181.75 80.6328 182.844 78.4297C183.719 76.6797 184.156 74.4688 184.156 71.7969C184.156 69.6406 183.641 67.8125 182.609 66.3125C181.5 64.6875 180.023 63.875 178.18 63.875C176.102 63.875 174.328 64.7344 172.859 66.4531C171.438 68.1406 170.727 70.1016 170.727 72.3359V73.625ZM202.906 79.5547C202.906 80.6641 203.297 81.2188 204.078 81.2188C204.328 81.2188 204.648 81.1484 205.039 81.0078C205.758 80.7422 206.195 80.6094 206.352 80.6094C206.711 80.6094 206.992 80.8359 207.195 81.2891L207.922 82.9531C208.016 83.1875 208.062 83.4062 208.062 83.6094C208.062 83.9688 207.766 84.4062 207.172 84.9219C205.984 85.9062 204.43 86.3984 202.508 86.3984C199.008 86.3984 197.258 84.0625 197.258 79.3906V45.9688C197.258 45.5469 197.383 45.1875 197.633 44.8906C197.883 44.5938 198.18 44.4453 198.523 44.4453H201.664C202.023 44.4453 202.32 44.5938 202.555 44.8906C202.789 45.1875 202.906 45.5469 202.906 45.9688V79.5547ZM211.719 72.6875C211.719 70.6562 212.055 68.7969 212.727 67.1094C213.414 65.4062 214.352 63.9531 215.539 62.75C218.023 60.2344 221.156 58.9766 224.938 58.9766C229.172 58.9766 232.453 60.2344 234.781 62.75C237.031 65.1719 238.156 68.5 238.156 72.7344C238.156 76.8281 236.883 80.1719 234.336 82.7656C231.852 85.3125 228.719 86.5859 224.938 86.5859C220.953 86.5859 217.75 85.2812 215.328 82.6719C212.922 80.125 211.719 76.7969 211.719 72.6875ZM219.242 66.7344C218.664 67.5938 218.242 68.5781 217.977 69.6875C217.711 70.7812 217.578 71.8984 217.578 73.0391C217.578 74.1641 217.727 75.25 218.023 76.2969C218.336 77.3281 218.797 78.25 219.406 79.0625C220.75 80.8438 222.625 81.7344 225.031 81.7344C227.484 81.7344 229.344 80.8594 230.609 79.1094C231.734 77.5781 232.297 75.4922 232.297 72.8516C232.297 68.8984 231 66.1719 228.406 64.6719C227.453 64.125 226.297 63.8516 224.938 63.8516C223.594 63.8516 222.453 64.1172 221.516 64.6484C220.594 65.1641 219.836 65.8594 219.242 66.7344ZM252.57 81.7812C255.57 81.7812 257.07 80.7734 257.07 78.7578C257.07 77.6484 256.219 76.7109 254.516 75.9453C253.797 75.6172 253.008 75.3125 252.148 75.0312C251.305 74.75 250.492 74.4141 249.711 74.0234C248.93 73.6328 248.195 73.2109 247.508 72.7578C246.836 72.2891 246.25 71.7578 245.75 71.1641C244.719 69.9141 244.203 68.3281 244.203 66.4062C244.203 64.0625 245.18 62.2031 247.133 60.8281C248.867 59.5938 251 58.9766 253.531 58.9766C256.25 58.9766 258.523 59.5078 260.352 60.5703C260.977 60.9453 261.289 61.375 261.289 61.8594C261.289 62.5469 261.102 63.3047 260.727 64.1328C260.367 64.9453 259.938 65.3516 259.438 65.3516C258.953 65.3516 258.508 65.25 258.102 65.0469C257.711 64.8438 257.352 64.6719 257.023 64.5312C256.711 64.375 256.375 64.25 256.016 64.1562C255.234 63.9219 254.508 63.8047 253.836 63.8047C253.18 63.8047 252.648 63.8516 252.242 63.9453C251.836 64.0391 251.469 64.1875 251.141 64.3906C250.344 64.875 249.945 65.4688 249.945 66.1719C249.945 66.875 250.102 67.4141 250.414 67.7891C250.742 68.1641 251.188 68.5078 251.75 68.8203C252.312 69.1328 252.984 69.4453 253.766 69.7578L256.297 70.8125C258.344 71.7031 259.727 72.5078 260.445 73.2266C261.852 74.6641 262.555 76.3281 262.555 78.2188C262.555 80.5938 261.742 82.5469 260.117 84.0781C258.32 85.75 255.766 86.5859 252.453 86.5859C249.094 86.5859 246.57 85.9375 244.883 84.6406C244.055 84.0156 243.641 83.4531 243.641 82.9531C243.641 82.4531 243.727 82.0078 243.898 81.6172C244.086 81.2109 244.32 80.7422 244.602 80.2109C244.898 79.6641 245.289 79.3906 245.773 79.3906C246.273 79.3906 246.797 79.6172 247.344 80.0703C247.906 80.5078 248.672 80.9062 249.641 81.2656C250.609 81.6094 251.586 81.7812 252.57 81.7812Z" fill="black"/>
<path d="M468.323 91.8178C470.044 91.8159 471.764 91.8106 473.487 91.8226C474.282 91.8281 475.103 91.8868 474.963 92.5297C474.823 93.1726 474.043 93.2747 473.22 93.3292L465.7 93.8161C465.521 93.7833 465.331 93.7657 465.137 93.7637C443.309 95.3125 421.823 98.3618 400.982 103.985C384.608 108.386 369.073 114.102 354.844 120.96C348.54 123.578 342.929 126.774 336.739 129.512C341.291 125.893 347.069 123.033 352.515 119.972C365.95 113.433 380.221 107.791 395.638 103.389C418.896 96.7535 442.767 92.6684 467.447 91.9179C467.74 91.8968 468.032 91.8634 468.323 91.8178Z" fill="#1D2D44"/>
<path d="M476.594 84.2779C477.399 84.4305 478.303 84.5671 477.963 85.2741C477.698 85.8374 476.861 85.9219 476.068 85.9761L473.472 86.1663C465.631 85.998 457.706 86.5292 449.816 87.1831C418.01 89.8191 387.859 96.5234 359.273 106.989C357.229 107.735 355.342 108.743 352.957 109.15C352.759 108.232 353.991 108.034 354.717 107.724C372.447 100.263 391.726 94.4501 411.799 90.5117C433.123 86.3093 455.02 84.2025 476.594 84.2779Z" fill="#0D1320"/>
<path d="M369.733 93.3203C370.126 92.5643 371.09 92.3718 371.84 92.1005C383.782 87.7361 396.541 84.4214 409.673 82.2715C422.856 80.112 435.874 79.4216 448.907 79.8347C450.054 79.8735 451.658 79.7697 451.461 80.6812C451.242 81.6873 449.733 81.4187 448.577 81.3987C434.067 81.112 419.525 82.4188 405.069 84.7425C393.843 86.5453 383.027 89.3632 372.564 92.8109C371.746 93.0661 370.965 93.5744 369.733 93.3203Z" fill="#1D2D44"/>
<path d="M458.419 65.8671C460.14 65.8652 461.86 65.8598 463.583 65.8718C464.379 65.8773 465.2 65.9361 465.059 66.579C464.919 67.2219 464.139 67.324 463.316 67.3784L455.797 67.8654C455.617 67.8326 455.427 67.8149 455.233 67.8129C433.405 69.3618 411.919 72.411 391.079 78.0347C374.704 82.4357 359.169 88.1512 344.94 95.009C338.637 97.6276 333.026 100.823 326.835 103.561C331.387 99.942 337.166 97.0823 342.611 94.0211C356.047 87.4817 370.317 81.8401 385.734 77.4383C408.992 70.8028 432.863 66.7177 457.543 65.9671C457.836 65.946 458.129 65.9126 458.419 65.8671Z" fill="#1D2D44"/>
<path d="M466.691 58.3271C467.495 58.4798 468.4 58.6164 468.059 59.3234C467.794 59.8867 466.957 59.9711 466.165 60.0254L463.568 60.2155C455.728 60.0473 447.802 60.5785 439.913 61.2323C408.106 63.8684 377.956 70.5726 349.369 81.0387C347.325 81.7842 345.439 82.7925 343.053 83.1997C342.855 82.2817 344.087 82.0836 344.814 81.7729C362.543 74.3126 381.822 68.4993 401.895 64.561C423.219 60.3585 445.117 58.2518 466.691 58.3271Z" fill="#0D1320"/>
<path d="M359.829 67.3695C360.222 66.6135 361.186 66.4211 361.936 66.1498C373.878 61.7853 386.637 58.4706 399.77 56.3207C412.952 54.1613 425.97 53.4708 439.003 53.8839C440.15 53.9227 441.755 53.819 441.557 54.7304C441.338 55.7365 439.829 55.4679 438.673 55.4479C424.164 55.1612 409.621 56.4681 395.166 58.7918C383.94 60.5946 373.123 63.4124 362.66 66.8601C361.842 67.1153 361.061 67.6237 359.829 67.3695Z" fill="#1D2D44"/>
<path d="M453.985 35.1041C455.706 35.1023 457.426 35.0969 459.149 35.1089C459.945 35.1144 460.766 35.1732 460.626 35.8161C460.485 36.459 459.705 36.561 458.882 36.6155L451.363 37.1024C451.183 37.0697 450.994 37.052 450.8 37.05C428.972 38.5989 407.485 41.6481 386.645 47.2718C370.271 51.6728 354.735 57.3883 340.507 64.246C334.203 66.8647 328.592 70.0599 322.401 72.7986C326.953 69.179 332.732 66.3194 338.177 63.2581C351.613 56.7188 365.883 51.0772 381.3 46.6753C404.558 40.0398 428.429 35.9548 453.109 35.2042C453.402 35.1831 453.695 35.1497 453.985 35.1041Z" fill="#1D2D44"/>
<path d="M462.257 27.5642C463.062 27.7168 463.966 27.8534 463.626 28.5604C463.36 29.1238 462.524 29.2082 461.731 29.2624L459.135 29.4526C451.294 29.2844 443.369 29.8155 435.479 30.4694C403.673 33.1055 373.522 39.8097 344.935 50.2758C342.892 51.0213 341.005 52.0296 338.62 52.4368C338.421 51.5188 339.654 51.3207 340.38 51.01C358.11 43.5496 377.389 37.7364 397.462 33.798C418.785 29.5956 440.683 27.4888 462.257 27.5642Z" fill="#0D1320"/>
<path d="M355.395 36.6066C355.788 35.8506 356.753 35.6581 357.502 35.3869C369.445 31.0224 382.203 27.7077 395.336 25.5578C408.518 23.3984 421.536 22.7079 434.57 23.121C435.717 23.1598 437.321 23.056 437.124 23.9675C436.904 24.9736 435.395 24.705 434.239 24.685C419.73 24.3983 405.188 25.7051 390.732 28.0289C379.506 29.8317 368.689 32.6495 358.226 36.0972C357.409 36.3524 356.627 36.8608 355.395 36.6066Z" fill="#1D2D44"/>
<path d="M330.412 55.4478C330.767 54.7778 330.949 54.0302 330.939 53.273C330.93 52.5158 330.73 51.7729 330.359 51.1116C329.561 49.3634 328.628 47.679 327.568 46.0737C325.95 43.6838 324.164 41.4396 322.433 39.0895C320.232 36.1014 318.769 32.6408 318.163 28.9871C317.478 24.9534 318.399 20.8131 320.731 17.4425C323.064 14.0718 326.624 11.7353 330.659 10.9274C335.988 9.85497 340.65 11.2187 344.36 15.0584C346.103 16.8251 347.581 18.8317 348.75 21.0165C350.668 24.7039 352.194 28.5966 353.899 32.3965C354.611 33.9721 354.984 35.7595 356.916 37.0902C357.203 35.5874 357.482 34.3163 357.675 33.032C358.195 29.6293 358.441 26.1603 359.227 22.8238C361.772 12.0131 368.14 4.40658 379.004 1.1892C387.043 -1.19405 394.677 -0.0885007 401.331 5.35325C406.846 9.8748 408.658 16.5545 405.887 23.1084C404.829 25.5412 403.456 27.8268 401.804 29.9073C397.388 35.6205 391.813 40.0957 385.818 44.0678C383.606 45.5309 381.508 47.166 379.43 48.8012C378.235 49.7635 377.316 51.0216 376.766 52.4489C378.053 52.2374 379.328 51.9523 380.582 51.5949C383.691 50.4915 386.779 49.3308 389.848 48.1127C395.25 45.981 400.705 44.0546 406.5 43.333C411.875 42.671 416.771 43.7368 420.934 47.3448C424.598 50.5158 425.923 55.3353 424.345 59.5324C423.321 62.0947 421.384 64.1924 418.903 65.4244C415.55 67.19 411.945 68.4315 408.212 69.1052C401.311 70.4888 394.304 70.8528 387.29 71.0183C384.146 71.0912 380.995 71.0713 377.858 71.1706C376.648 71.1854 375.445 71.359 374.281 71.687C372.409 72.2629 371.99 73.865 373.422 75.1758C374.451 76.0659 375.627 76.7715 376.899 77.2612C378.837 78.0423 380.895 78.4859 382.847 79.2472C385.946 80.3758 388.977 81.6798 391.926 83.1531C397.621 86.1983 401.684 90.7 403.309 97.0951C404.981 103.662 402.337 110.018 396.389 113.301C391.06 116.254 385.385 116.711 379.543 115.029C372.436 112.983 366.621 108.945 361.819 103.431C359.707 101.008 357.822 98.3926 355.637 96.0359C353.452 93.6791 351.114 91.4878 348.717 89.3627C347.764 88.6236 346.689 88.0567 345.539 87.6879C344.68 87.3326 343.74 87.2128 342.818 87.3409C341.896 87.4689 341.026 87.8402 340.297 88.4161C337.11 90.7507 334.337 93.5966 332.091 96.8369C329.711 100.266 327.291 103.669 324.831 107.045C323.447 109.032 321.603 110.66 319.455 111.792C315.059 113.996 311.136 112.017 310.276 107.191C309.895 105.285 310.164 103.307 311.042 101.57C312.375 99.0083 313.807 96.5125 315.332 94.063C316.598 92.024 318.11 90.1373 319.402 88.1049C319.783 87.4223 319.982 86.6545 319.981 85.8739C320.004 84.4654 319.731 83.0677 319.181 81.7696C318.63 80.4714 317.814 79.3013 316.784 78.3336C314.013 75.5333 311.129 72.8455 308.371 70.0386C306.314 68.0125 304.369 65.8778 302.543 63.6435C300.821 61.4823 299.922 58.786 300.005 56.0304C300.152 49.8207 305.567 45.3587 311.655 46.7225C313.741 47.3035 315.742 48.149 317.61 49.2381C320.534 50.7674 323.318 52.5482 326.269 54.0708C327.61 54.6407 328.996 55.1012 330.412 55.4478Z" fill="#FFCBA4"/>
<path d="M347.412 55.4478C347.768 54.7778 347.949 54.0302 347.939 53.273C347.93 52.5158 347.731 51.7729 347.359 51.1116C346.561 49.3634 345.628 47.679 344.568 46.0737C342.95 43.6838 341.165 41.4396 339.433 39.0895C337.232 36.1014 335.769 32.6408 335.163 28.9871C334.478 24.9534 335.399 20.8131 337.732 17.4425C340.064 14.0718 343.624 11.7353 347.659 10.9274C352.988 9.85497 357.65 11.2187 361.36 15.0584C363.103 16.8251 364.582 18.8317 365.75 21.0165C367.668 24.7039 369.194 28.5966 370.899 32.3965C371.612 33.9721 371.985 35.7595 373.916 37.0902C374.203 35.5874 374.482 34.3163 374.676 33.032C375.195 29.6293 375.442 26.1603 376.228 22.8238C378.772 12.0131 385.14 4.40658 396.004 1.1892C404.044 -1.19405 411.677 -0.0885007 418.331 5.35325C423.846 9.8748 425.658 16.5545 422.887 23.1084C421.829 25.5412 420.456 27.8268 418.804 29.9073C414.388 35.6205 408.813 40.0957 402.818 44.0678C400.607 45.5309 398.508 47.166 396.43 48.8012C395.235 49.7635 394.316 51.0216 393.766 52.4489C395.053 52.2374 396.328 51.9523 397.582 51.5949C400.691 50.4915 403.779 49.3308 406.848 48.1127C412.25 45.981 417.705 44.0546 423.5 43.333C428.875 42.671 433.771 43.7368 437.934 47.3448C441.598 50.5158 442.923 55.3353 441.345 59.5324C440.321 62.0947 438.384 64.1924 435.903 65.4244C432.551 67.19 428.945 68.4315 425.212 69.1052C418.311 70.4888 411.304 70.8528 404.29 71.0183C401.146 71.0912 397.995 71.0713 394.858 71.1706C393.648 71.1854 392.445 71.359 391.281 71.687C389.41 72.2629 388.99 73.865 390.422 75.1758C391.451 76.0659 392.627 76.7715 393.899 77.2612C395.837 78.0423 397.896 78.4859 399.847 79.2472C402.946 80.3758 405.977 81.6798 408.926 83.1531C414.621 86.1983 418.684 90.7 420.31 97.0951C421.981 103.662 419.337 110.018 413.389 113.301C408.06 116.254 402.385 116.711 396.543 115.029C389.436 112.983 383.621 108.945 378.819 103.431C376.707 101.008 374.822 98.3926 372.637 96.0359C370.453 93.6791 368.115 91.4878 365.717 89.3627C364.765 88.6236 363.689 88.0567 362.539 87.6879C361.68 87.3326 360.74 87.2128 359.818 87.3409C358.896 87.4689 358.026 87.8402 357.297 88.4161C354.11 90.7507 351.337 93.5966 349.091 96.8369C346.711 100.266 344.291 103.669 341.831 107.045C340.447 109.032 338.603 110.66 336.455 111.792C332.059 113.996 328.136 112.017 327.277 107.191C326.895 105.285 327.165 103.307 328.043 101.57C329.375 99.0083 330.807 96.5125 332.332 94.063C333.598 92.024 335.11 90.1373 336.402 88.1049C336.783 87.4223 336.982 86.6545 336.981 85.8739C337.004 84.4654 336.731 83.0677 336.181 81.7696C335.63 80.4714 334.814 79.3013 333.784 78.3336C331.013 75.5333 328.129 72.8455 325.372 70.0386C323.315 68.0125 321.369 65.8778 319.543 63.6435C317.821 61.4823 316.922 58.786 317.005 56.0304C317.152 49.8207 322.567 45.3587 328.655 46.7225C330.741 47.3035 332.742 48.149 334.61 49.2381C337.534 50.7674 340.319 52.5482 343.269 54.0708C344.611 54.6407 345.996 55.1012 347.412 55.4478Z" fill="#DBB2D1"/>
</svg>
