<svg viewBox="0 0 772 208" fill="none" xmlns="http://www.w3.org/2000/svg">
<path d="M160.1 177.641C189.144 169.218 216.796 159.616 247.319 155.889C261.105 154.205 275.756 152.284 289.677 152.684C302.106 153.04 314.69 159.134 325.413 163.771C355.231 176.665 383.69 184.287 417.469 176.265C446.881 169.28 472.155 153.817 503.312 151.906C511.191 151.423 518.031 151.131 525.418 153.849C550.688 163.145 573.501 169.841 601.364 172.972C636.886 176.964 674.711 177.605 710.357 172.537C729.913 169.757 750.781 163.403 764.517 150.295C773.711 141.52 769.679 120.991 759.474 114.325C748.469 107.138 737.956 107.834 724.879 108.636" stroke="#1D2D44" stroke-linecap="round"/>
<path d="M178.68 23.875C178.617 23.7188 178.586 23.5156 178.586 23.2656C178.586 23 178.672 22.7344 178.844 22.4688C179.031 22.2031 179.305 22.0703 179.664 22.0703H183.672C183.984 22.0703 184.25 22.1797 184.469 22.3984C184.703 22.6016 184.859 22.8438 184.938 23.125L193.867 52.4688C193.898 52.5469 193.992 52.5859 194.148 52.5859C194.32 52.5859 194.43 52.5391 194.477 52.4453L197.031 45.625C199.922 37.5312 201.938 30.1953 203.078 23.6172C203.234 22.5859 203.82 22.0703 204.836 22.0703H207.438C208.016 22.0703 208.445 22.2109 208.727 22.4922C209.023 22.7578 209.172 23.0156 209.172 23.2656V23.7812C209.172 25.7656 208.172 29.8516 206.172 36.0391C205.672 37.5859 205.141 39.125 204.578 40.6562C203.062 44.7969 201.992 47.6094 201.367 49.0938L199.75 52.9375C198.984 54.6562 198.453 55.7734 198.156 56.2891C197.875 56.8047 197.594 57.1641 197.312 57.3672C196.75 57.7891 195.867 58 194.664 58H193.422C192.234 58 191.43 57.8672 191.008 57.6016C190.289 57.1484 189.75 56.4141 189.391 55.3984L178.68 23.875ZM212.781 44.6875C212.781 42.6562 213.117 40.7969 213.789 39.1094C214.477 37.4062 215.414 35.9531 216.602 34.75C219.086 32.2344 222.219 30.9766 226 30.9766C230.234 30.9766 233.516 32.2344 235.844 34.75C238.094 37.1719 239.219 40.5 239.219 44.7344C239.219 48.8281 237.945 52.1719 235.398 54.7656C232.914 57.3125 229.781 58.5859 226 58.5859C222.016 58.5859 218.812 57.2812 216.391 54.6719C213.984 52.125 212.781 48.7969 212.781 44.6875ZM220.305 38.7344C219.727 39.5938 219.305 40.5781 219.039 41.6875C218.773 42.7812 218.641 43.8984 218.641 45.0391C218.641 46.1641 218.789 47.25 219.086 48.2969C219.398 49.3281 219.859 50.25 220.469 51.0625C221.812 52.8438 223.688 53.7344 226.094 53.7344C228.547 53.7344 230.406 52.8594 231.672 51.1094C232.797 49.5781 233.359 47.4922 233.359 44.8516C233.359 40.8984 232.062 38.1719 229.469 36.6719C228.516 36.125 227.359 35.8516 226 35.8516C224.656 35.8516 223.516 36.1172 222.578 36.6484C221.656 37.1641 220.898 37.8594 220.305 38.7344ZM263.898 41.9922C262.617 41.9922 261.977 41.3594 261.977 40.0938C261.977 38.6406 261.531 37.5312 260.641 36.7656C259.875 36.0938 258.844 35.7578 257.547 35.7578C256.266 35.7578 255.203 36.0234 254.359 36.5547C253.516 37.0859 252.828 37.7656 252.297 38.5938C251.266 40.2188 250.75 42.1719 250.75 44.4531C250.75 48.7188 252.047 51.5156 254.641 52.8438C255.578 53.3281 256.617 53.5703 257.758 53.5703C258.898 53.5703 259.836 53.4453 260.57 53.1953C261.305 52.9453 261.961 52.6719 262.539 52.375C263.117 52.0781 263.617 51.8047 264.039 51.5547C264.477 51.3047 264.836 51.1797 265.117 51.1797C265.68 51.1797 266.125 51.4375 266.453 51.9531L266.969 52.8203C267.203 53.2266 267.32 53.625 267.32 54.0156C267.32 54.3906 267.164 54.7891 266.852 55.2109C266.539 55.6172 266.117 55.9922 265.586 56.3359C265.07 56.6797 264.477 56.9922 263.805 57.2734C263.133 57.5547 262.438 57.7969 261.719 58C258.281 58.9219 255.141 58.7812 252.297 57.5781C249.109 56.2344 246.914 53.8281 245.711 50.3594C245.117 48.6406 244.82 46.7188 244.82 44.5938C244.82 42.4688 245.133 40.5625 245.758 38.875C246.398 37.1875 247.281 35.7578 248.406 34.5859C250.734 32.1797 253.773 30.9766 257.523 30.9766C260.836 30.9766 263.375 31.8438 265.141 33.5781C266.625 35.0625 267.367 36.9219 267.367 39.1562C267.367 41.0469 266.398 41.9922 264.461 41.9922H263.898ZM278.219 46.0703L278.195 46.5156C278.195 48.6562 278.875 50.375 280.234 51.6719C281.656 53.0469 283.586 53.7344 286.023 53.7344C288.242 53.7344 290.305 53.0703 292.211 51.7422C292.57 51.4922 292.891 51.3672 293.172 51.3672C293.75 51.3672 294.188 51.6562 294.484 52.2344L295.117 53.5469C295.258 53.8594 295.328 54.1953 295.328 54.5547C295.328 54.9141 295.164 55.2891 294.836 55.6797C294.523 56.0547 294.109 56.3984 293.594 56.7109C293.078 57.0234 292.477 57.2969 291.789 57.5312C291.117 57.7656 290.422 57.9609 289.703 58.1172C288.266 58.4297 286.766 58.5859 285.203 58.5859C283.641 58.5859 282.062 58.2891 280.469 57.6953C278.891 57.1016 277.523 56.2344 276.367 55.0938C273.883 52.6719 272.641 49.3984 272.641 45.2734C272.641 38.0391 275.188 33.5391 280.281 31.7734C281.875 31.2266 283.508 30.9531 285.18 30.9531C286.867 30.9531 288.297 31.1328 289.469 31.4922C290.656 31.8516 291.68 32.3828 292.539 33.0859C294.352 34.5703 295.258 36.6406 295.258 39.2969C295.258 41.9062 294.195 43.8984 292.07 45.2734C290.211 46.4766 287.758 47.0781 284.711 47.0781C282.836 47.0781 280.672 46.7422 278.219 46.0703ZM289.75 39.2266C289.75 36.9922 288.25 35.875 285.25 35.875C282.391 35.875 280.391 36.9219 279.25 39.0156C278.844 39.75 278.578 40.6562 278.453 41.7344C279.797 42.4062 281.508 42.7422 283.586 42.7422C287.695 42.7422 289.75 41.5703 289.75 39.2266ZM279.156 27.7891C278.922 27.7891 278.688 27.6875 278.453 27.4844L277.141 26.3594C276.859 26.125 276.719 25.8984 276.719 25.6797C276.719 25.4297 276.82 25.1797 277.023 24.9297L281.664 19.2344C282.227 18.5312 282.898 18.1797 283.68 18.1797H286.07C286.82 18.1797 287.5 18.5469 288.109 19.2812L292.562 24.9062C292.766 25.1875 292.867 25.4531 292.867 25.7031C292.867 25.9531 292.734 26.1875 292.469 26.4062L291.227 27.4141C290.898 27.6797 290.633 27.8125 290.43 27.8125C290.227 27.8125 290.031 27.7266 289.844 27.5547L284.828 22.7734L279.906 27.4375C279.641 27.6719 279.391 27.7891 279.156 27.7891ZM321.695 53.7812C324.695 53.7812 326.195 52.7734 326.195 50.7578C326.195 49.6484 325.344 48.7109 323.641 47.9453C322.922 47.6172 322.133 47.3125 321.273 47.0312C320.43 46.75 319.617 46.4141 318.836 46.0234C318.055 45.6328 317.32 45.2109 316.633 44.7578C315.961 44.2891 315.375 43.7578 314.875 43.1641C313.844 41.9141 313.328 40.3281 313.328 38.4062C313.328 36.0625 314.305 34.2031 316.258 32.8281C317.992 31.5938 320.125 30.9766 322.656 30.9766C325.375 30.9766 327.648 31.5078 329.477 32.5703C330.102 32.9453 330.414 33.375 330.414 33.8594C330.414 34.5469 330.227 35.3047 329.852 36.1328C329.492 36.9453 329.062 37.3516 328.562 37.3516C328.078 37.3516 327.633 37.25 327.227 37.0469C326.836 36.8438 326.477 36.6719 326.148 36.5312C325.836 36.375 325.5 36.25 325.141 36.1562C324.359 35.9219 323.633 35.8047 322.961 35.8047C322.305 35.8047 321.773 35.8516 321.367 35.9453C320.961 36.0391 320.594 36.1875 320.266 36.3906C319.469 36.875 319.07 37.4688 319.07 38.1719C319.07 38.875 319.227 39.4141 319.539 39.7891C319.867 40.1641 320.312 40.5078 320.875 40.8203C321.438 41.1328 322.109 41.4453 322.891 41.7578L325.422 42.8125C327.469 43.7031 328.852 44.5078 329.57 45.2266C330.977 46.6641 331.68 48.3281 331.68 50.2188C331.68 52.5938 330.867 54.5469 329.242 56.0781C327.445 57.75 324.891 58.5859 321.578 58.5859C318.219 58.5859 315.695 57.9375 314.008 56.6406C313.18 56.0156 312.766 55.4531 312.766 54.9531C312.766 54.4531 312.852 54.0078 313.023 53.6172C313.211 53.2109 313.445 52.7422 313.727 52.2109C314.023 51.6641 314.414 51.3906 314.898 51.3906C315.398 51.3906 315.922 51.6172 316.469 52.0703C317.031 52.5078 317.797 52.9062 318.766 53.2656C319.734 53.6094 320.711 53.7812 321.695 53.7812ZM359.617 56.7578C359.617 57.5859 359.211 58 358.398 58H356.125C355.516 58 355.148 57.8828 355.023 57.6484C354.898 57.3984 354.828 57.1797 354.812 56.9922C354.797 56.7891 354.766 56.5469 354.719 56.2656C354.625 55.5 354.492 54.6719 354.32 53.7812C353.102 56.0156 351.188 57.4922 348.578 58.2109C347.656 58.4609 346.641 58.5859 345.531 58.5859C344.422 58.5859 343.312 58.3984 342.203 58.0234C341.094 57.6641 340.109 57.125 339.25 56.4062C337.312 54.7812 336.344 52.6484 336.344 50.0078C336.344 47.1172 337.406 44.9062 339.531 43.375C341.281 42.1406 343.531 41.5234 346.281 41.5234C349.031 41.5234 351.359 42.3281 353.266 43.9375C353.312 43.4062 353.336 42.7422 353.336 41.9453C353.336 41.1484 353.18 40.3516 352.867 39.5547C352.555 38.7578 352.109 38.0938 351.531 37.5625C350.344 36.5156 348.688 35.9922 346.562 35.9922C344.656 35.9922 342.719 36.5156 340.75 37.5625C340.375 37.7656 340.047 37.8672 339.766 37.8672C339.344 37.8672 338.938 37.4531 338.547 36.625C338.125 35.7812 337.914 35.1719 337.914 34.7969C337.914 34.1094 338.43 33.4453 339.461 32.8047C341.43 31.5859 344.062 30.9766 347.359 30.9766C350.359 30.9766 352.844 31.7969 354.812 33.4375C357.141 35.4062 358.305 38.1875 358.305 41.7812C358.305 43.375 358.047 45.3828 357.531 47.8047C358.859 51.5859 359.555 54.5703 359.617 56.7578ZM343.914 46.8203C343.273 47.2891 342.812 47.7578 342.531 48.2266C342.266 48.6953 342.133 49.25 342.133 49.8906C342.133 50.5156 342.242 51.0781 342.461 51.5781C342.695 52.0625 343.016 52.4688 343.422 52.7969C344.281 53.4688 345.242 53.8047 346.305 53.8047C347.383 53.8047 348.266 53.6797 348.953 53.4297C349.641 53.1797 350.234 52.8594 350.734 52.4688C351.812 51.625 352.352 50.7344 352.352 49.7969C352.258 48.625 351.609 47.7031 350.406 47.0312C349.328 46.4062 348.055 46.0938 346.586 46.0938C345.445 46.0938 344.555 46.3359 343.914 46.8203ZM368.242 58C367.305 58 366.836 57.3984 366.836 56.1953V17.9688C366.836 17.5469 366.953 17.1875 367.188 16.8906C367.422 16.5938 367.719 16.4453 368.078 16.4453H371.266C371.625 16.4453 371.922 16.5938 372.156 16.8906C372.406 17.1875 372.531 17.5469 372.531 17.9688V35.1016C374.531 32.3516 377.391 30.9766 381.109 30.9766C384.516 30.9766 387.125 32.2344 388.938 34.75C390.578 37.0312 391.398 40.0703 391.398 43.8672C391.398 48.3047 390.328 51.875 388.188 54.5781C386.078 57.2344 383.406 58.5625 380.172 58.5625C378.422 58.5625 376.797 58.1719 375.297 57.3906C373.812 56.5938 372.609 55.3828 371.688 53.7578C371.656 54.2422 371.609 54.7188 371.547 55.1875C371.5 55.6562 371.469 56.1094 371.453 56.5469C371.391 57.5156 370.758 58 369.555 58H368.242ZM374.172 38.4766C373.531 39.2734 373.039 40.2109 372.695 41.2891C372.352 42.3516 372.18 43.4688 372.18 44.6406C372.18 45.7969 372.352 46.9219 372.695 48.0156C373.039 49.0938 373.516 50.0625 374.125 50.9219C375.469 52.7969 377.133 53.7344 379.117 53.7344C381.336 53.7344 383 52.7656 384.109 50.8281C385.016 49.2188 385.469 47.1406 385.469 44.5938C385.469 40.3906 384.391 37.6875 382.234 36.4844C381.484 36.0625 380.57 35.8516 379.492 35.8516C378.414 35.8516 377.422 36.0859 376.516 36.5547C375.609 37.0234 374.828 37.6641 374.172 38.4766ZM402.344 46.0703L402.32 46.5156C402.32 48.6562 403 50.375 404.359 51.6719C405.781 53.0469 407.711 53.7344 410.148 53.7344C412.367 53.7344 414.43 53.0703 416.336 51.7422C416.695 51.4922 417.016 51.3672 417.297 51.3672C417.875 51.3672 418.312 51.6562 418.609 52.2344L419.242 53.5469C419.383 53.8594 419.453 54.1953 419.453 54.5547C419.453 54.9141 419.289 55.2891 418.961 55.6797C418.648 56.0547 418.234 56.3984 417.719 56.7109C417.203 57.0234 416.602 57.2969 415.914 57.5312C415.242 57.7656 414.547 57.9609 413.828 58.1172C412.391 58.4297 410.891 58.5859 409.328 58.5859C407.766 58.5859 406.188 58.2891 404.594 57.6953C403.016 57.1016 401.648 56.2344 400.492 55.0938C398.008 52.6719 396.766 49.3984 396.766 45.2734C396.766 38.0391 399.312 33.5391 404.406 31.7734C406 31.2266 407.633 30.9531 409.305 30.9531C410.992 30.9531 412.422 31.1328 413.594 31.4922C414.781 31.8516 415.805 32.3828 416.664 33.0859C418.477 34.5703 419.383 36.6406 419.383 39.2969C419.383 41.9062 418.32 43.8984 416.195 45.2734C414.336 46.4766 411.883 47.0781 408.836 47.0781C406.961 47.0781 404.797 46.7422 402.344 46.0703ZM413.875 39.2266C413.875 36.9922 412.375 35.875 409.375 35.875C406.516 35.875 404.516 36.9219 403.375 39.0156C402.969 39.75 402.703 40.6562 402.578 41.7344C403.922 42.4062 405.633 42.7422 407.711 42.7422C411.82 42.7422 413.875 41.5703 413.875 39.2266ZM436.984 44.6875C436.984 42.6562 437.32 40.7969 437.992 39.1094C438.68 37.4062 439.617 35.9531 440.805 34.75C443.289 32.2344 446.422 30.9766 450.203 30.9766C454.438 30.9766 457.719 32.2344 460.047 34.75C462.297 37.1719 463.422 40.5 463.422 44.7344C463.422 48.8281 462.148 52.1719 459.602 54.7656C457.117 57.3125 453.984 58.5859 450.203 58.5859C446.219 58.5859 443.016 57.2812 440.594 54.6719C438.188 52.125 436.984 48.7969 436.984 44.6875ZM444.508 38.7344C443.93 39.5938 443.508 40.5781 443.242 41.6875C442.977 42.7812 442.844 43.8984 442.844 45.0391C442.844 46.1641 442.992 47.25 443.289 48.2969C443.602 49.3281 444.062 50.25 444.672 51.0625C446.016 52.8438 447.891 53.7344 450.297 53.7344C452.75 53.7344 454.609 52.8594 455.875 51.1094C457 49.5781 457.562 47.4922 457.562 44.8516C457.562 40.8984 456.266 38.1719 453.672 36.6719C452.719 36.125 451.562 35.8516 450.203 35.8516C448.859 35.8516 447.719 36.1172 446.781 36.6484C445.859 37.1641 445.102 37.8594 444.508 38.7344ZM504.109 31.5625C505.094 31.5625 505.586 32.1719 505.586 33.3906V69.6719C505.586 70.0781 505.469 70.4375 505.234 70.75C505 71.0625 504.703 71.2188 504.344 71.2188H501.086C500.727 71.2188 500.422 71.0625 500.172 70.75C499.938 70.4375 499.82 70.0781 499.82 69.6719V59.8281C499.82 58.5625 499.906 56.5547 500.078 53.8047C498.828 56.0547 496.945 57.5312 494.43 58.2344C493.586 58.4688 492.5 58.5859 491.172 58.5859C489.844 58.5859 488.508 58.2109 487.164 57.4609C485.836 56.6953 484.719 55.6719 483.812 54.3906C481.953 51.7969 481.023 48.5 481.023 44.5C481.023 40.7188 482.125 37.5156 484.328 34.8906C486.516 32.2812 489.094 30.9766 492.062 30.9766C494 30.9766 495.633 31.3594 496.961 32.125C498.305 32.8906 499.469 34.0312 500.453 35.5469L501.016 33.2969L501.227 32.5234C501.352 32.0859 501.539 31.8203 501.789 31.7266C502.055 31.6172 502.344 31.5625 502.656 31.5625H504.109ZM493.281 53.7344C494.312 53.7344 495.258 53.4844 496.117 52.9844C496.977 52.4844 497.719 51.8125 498.344 50.9688C499.656 49.1562 500.312 47.0469 500.312 44.6406C500.312 42.0469 499.578 39.9219 498.109 38.2656C496.703 36.6719 495.023 35.875 493.07 35.875C491.133 35.875 489.617 36.7656 488.523 38.5469C487.539 40.1406 487.047 42.1719 487.047 44.6406C487.047 47.1719 487.555 49.2656 488.57 50.9219C489.711 52.7969 491.281 53.7344 493.281 53.7344ZM538.258 56.4062C538.258 57.4688 537.773 58 536.805 58H535.75C534.812 58 534.195 57.625 533.898 56.875C533.57 56.0156 533.219 54.8203 532.844 53.2891C532.188 54.9297 531.07 56.2266 529.492 57.1797C527.93 58.1172 525.977 58.5859 523.633 58.5859C520.57 58.5859 518.312 57.6328 516.859 55.7266C515.406 53.8047 514.68 50.9766 514.68 47.2422V33.1094C514.68 32.6719 514.812 32.3047 515.078 32.0078C515.359 31.7109 515.75 31.5625 516.25 31.5625H518.828C519.859 31.5625 520.375 32.0781 520.375 33.1094V46.9844C520.375 50.7188 521.242 52.875 522.977 53.4531C523.539 53.6406 524.203 53.7344 524.969 53.7344C525.75 53.7344 526.547 53.5547 527.359 53.1953C528.188 52.8359 528.93 52.3594 529.586 51.7656C531.055 50.4062 531.789 48.8516 531.789 47.1016V33.1094C531.789 32.6719 531.922 32.3047 532.188 32.0078C532.453 31.7109 532.875 31.5625 533.453 31.5625H535.914C536.461 31.5625 536.859 31.7109 537.109 32.0078C537.359 32.3047 537.484 32.6719 537.484 33.1094V47.7578C537.484 51.0547 537.719 53.7109 538.188 55.7266C538.234 55.8984 538.258 56.125 538.258 56.4062ZM550.469 46.0703L550.445 46.5156C550.445 48.6562 551.125 50.375 552.484 51.6719C553.906 53.0469 555.836 53.7344 558.273 53.7344C560.492 53.7344 562.555 53.0703 564.461 51.7422C564.82 51.4922 565.141 51.3672 565.422 51.3672C566 51.3672 566.438 51.6562 566.734 52.2344L567.367 53.5469C567.508 53.8594 567.578 54.1953 567.578 54.5547C567.578 54.9141 567.414 55.2891 567.086 55.6797C566.773 56.0547 566.359 56.3984 565.844 56.7109C565.328 57.0234 564.727 57.2969 564.039 57.5312C563.367 57.7656 562.672 57.9609 561.953 58.1172C560.516 58.4297 559.016 58.5859 557.453 58.5859C555.891 58.5859 554.312 58.2891 552.719 57.6953C551.141 57.1016 549.773 56.2344 548.617 55.0938C546.133 52.6719 544.891 49.3984 544.891 45.2734C544.891 38.0391 547.438 33.5391 552.531 31.7734C554.125 31.2266 555.758 30.9531 557.43 30.9531C559.117 30.9531 560.547 31.1328 561.719 31.4922C562.906 31.8516 563.93 32.3828 564.789 33.0859C566.602 34.5703 567.508 36.6406 567.508 39.2969C567.508 41.9062 566.445 43.8984 564.32 45.2734C562.461 46.4766 560.008 47.0781 556.961 47.0781C555.086 47.0781 552.922 46.7422 550.469 46.0703ZM562 39.2266C562 36.9922 560.5 35.875 557.5 35.875C554.641 35.875 552.641 36.9219 551.5 39.0156C551.094 39.75 550.828 40.6562 550.703 41.7344C552.047 42.4062 553.758 42.7422 555.836 42.7422C559.945 42.7422 562 41.5703 562 39.2266ZM590.547 46.0703L590.523 46.5156C590.523 48.6562 591.203 50.375 592.562 51.6719C593.984 53.0469 595.914 53.7344 598.352 53.7344C600.57 53.7344 602.633 53.0703 604.539 51.7422C604.898 51.4922 605.219 51.3672 605.5 51.3672C606.078 51.3672 606.516 51.6562 606.812 52.2344L607.445 53.5469C607.586 53.8594 607.656 54.1953 607.656 54.5547C607.656 54.9141 607.492 55.2891 607.164 55.6797C606.852 56.0547 606.438 56.3984 605.922 56.7109C605.406 57.0234 604.805 57.2969 604.117 57.5312C603.445 57.7656 602.75 57.9609 602.031 58.1172C600.594 58.4297 599.094 58.5859 597.531 58.5859C595.969 58.5859 594.391 58.2891 592.797 57.6953C591.219 57.1016 589.852 56.2344 588.695 55.0938C586.211 52.6719 584.969 49.3984 584.969 45.2734C584.969 38.0391 587.516 33.5391 592.609 31.7734C594.203 31.2266 595.836 30.9531 597.508 30.9531C599.195 30.9531 600.625 31.1328 601.797 31.4922C602.984 31.8516 604.008 32.3828 604.867 33.0859C606.68 34.5703 607.586 36.6406 607.586 39.2969C607.586 41.9062 606.523 43.8984 604.398 45.2734C602.539 46.4766 600.086 47.0781 597.039 47.0781C595.164 47.0781 593 46.7422 590.547 46.0703ZM602.078 39.2266C602.078 36.9922 600.578 35.875 597.578 35.875C594.719 35.875 592.719 36.9219 591.578 39.0156C591.172 39.75 590.906 40.6562 590.781 41.7344C592.125 42.4062 593.836 42.7422 595.914 42.7422C600.023 42.7422 602.078 41.5703 602.078 39.2266ZM595.633 27.7891C595.43 27.9141 595.195 27.9766 594.93 27.9766C594.664 27.9766 594.461 27.8672 594.32 27.6484L593.172 26.0547C593.062 25.8984 593.008 25.7188 593.008 25.5156C593.008 25.2969 593.164 25.0469 593.477 24.7656L600.719 18.1797C601.109 17.8203 601.477 17.6406 601.82 17.6406C602.367 17.6406 602.773 17.8125 603.039 18.1562L604.797 20.3828C604.984 20.6172 605.07 20.8594 605.055 21.1094C605.039 21.75 604.734 22.25 604.141 22.6094L595.633 27.7891ZM178.68 83.875C178.617 83.7188 178.586 83.5156 178.586 83.2656C178.586 83 178.672 82.7344 178.844 82.4688C179.031 82.2031 179.305 82.0703 179.664 82.0703H183.672C183.984 82.0703 184.25 82.1797 184.469 82.3984C184.703 82.6016 184.859 82.8438 184.938 83.125L193.867 112.469C193.898 112.547 193.992 112.586 194.148 112.586C194.32 112.586 194.43 112.539 194.477 112.445L197.031 105.625C199.922 97.5312 201.938 90.1953 203.078 83.6172C203.234 82.5859 203.82 82.0703 204.836 82.0703H207.438C208.016 82.0703 208.445 82.2109 208.727 82.4922C209.023 82.7578 209.172 83.0156 209.172 83.2656V83.7812C209.172 85.7656 208.172 89.8516 206.172 96.0391C205.672 97.5859 205.141 99.125 204.578 100.656C203.062 104.797 201.992 107.609 201.367 109.094L199.75 112.938C198.984 114.656 198.453 115.773 198.156 116.289C197.875 116.805 197.594 117.164 197.312 117.367C196.75 117.789 195.867 118 194.664 118H193.422C192.234 118 191.43 117.867 191.008 117.602C190.289 117.148 189.75 116.414 189.391 115.398L178.68 83.875ZM217.141 87.0391C216.078 87.0391 215.172 86.6719 214.422 85.9375C213.672 85.2188 213.297 84.3125 213.297 83.2188C213.297 82.1562 213.672 81.25 214.422 80.5C215.141 79.7812 216.047 79.4219 217.141 79.4219C218.812 79.4219 219.984 80.1875 220.656 81.7188C220.859 82.1719 220.961 82.6719 220.961 83.2188C220.961 84.3125 220.586 85.2188 219.836 85.9375C219.086 86.6719 218.188 87.0391 217.141 87.0391ZM219.883 111.555C219.883 112.664 220.25 113.219 220.984 113.219C221.234 113.219 221.516 113.148 221.828 113.008C222.438 112.742 222.852 112.609 223.07 112.609C223.398 112.609 223.664 112.836 223.867 113.289L224.594 114.93C224.719 115.195 224.781 115.445 224.781 115.68C224.781 116.352 224.203 116.977 223.047 117.555C221.953 118.117 220.867 118.398 219.789 118.398C218.727 118.398 217.875 118.281 217.234 118.047C216.594 117.812 216.047 117.422 215.594 116.875C214.688 115.75 214.234 113.922 214.234 111.391V93.1094C214.234 92.6719 214.359 92.3047 214.609 92.0078C214.859 91.7109 215.156 91.5625 215.5 91.5625H218.641C219 91.5625 219.297 91.7109 219.531 92.0078C219.766 92.3047 219.883 92.6719 219.883 93.1094V111.555ZM228.812 104.688C228.812 102.656 229.148 100.797 229.82 99.1094C230.508 97.4062 231.445 95.9531 232.633 94.75C235.117 92.2344 238.25 90.9766 242.031 90.9766C246.266 90.9766 249.547 92.2344 251.875 94.75C254.125 97.1719 255.25 100.5 255.25 104.734C255.25 108.828 253.977 112.172 251.43 114.766C248.945 117.312 245.812 118.586 242.031 118.586C238.047 118.586 234.844 117.281 232.422 114.672C230.016 112.125 228.812 108.797 228.812 104.688ZM236.336 98.7344C235.758 99.5938 235.336 100.578 235.07 101.688C234.805 102.781 234.672 103.898 234.672 105.039C234.672 106.164 234.82 107.25 235.117 108.297C235.43 109.328 235.891 110.25 236.5 111.062C237.844 112.844 239.719 113.734 242.125 113.734C244.578 113.734 246.438 112.859 247.703 111.109C248.828 109.578 249.391 107.492 249.391 104.852C249.391 100.898 248.094 98.1719 245.5 96.6719C244.547 96.125 243.391 95.8516 242.031 95.8516C240.688 95.8516 239.547 96.1172 238.609 96.6484C237.688 97.1641 236.93 97.8594 236.336 98.7344ZM268.047 111.555C268.047 112.664 268.438 113.219 269.219 113.219C269.469 113.219 269.789 113.148 270.18 113.008C270.898 112.742 271.336 112.609 271.492 112.609C271.852 112.609 272.133 112.836 272.336 113.289L273.062 114.953C273.156 115.188 273.203 115.406 273.203 115.609C273.203 115.969 272.906 116.406 272.312 116.922C271.125 117.906 269.57 118.398 267.648 118.398C264.148 118.398 262.398 116.062 262.398 111.391V77.9688C262.398 77.5469 262.523 77.1875 262.773 76.8906C263.023 76.5938 263.32 76.4453 263.664 76.4453H266.805C267.164 76.4453 267.461 76.5938 267.695 76.8906C267.93 77.1875 268.047 77.5469 268.047 77.9688V111.555ZM282.297 106.07L282.273 106.516C282.273 108.656 282.953 110.375 284.312 111.672C285.734 113.047 287.664 113.734 290.102 113.734C292.32 113.734 294.383 113.07 296.289 111.742C296.648 111.492 296.969 111.367 297.25 111.367C297.828 111.367 298.266 111.656 298.562 112.234L299.195 113.547C299.336 113.859 299.406 114.195 299.406 114.555C299.406 114.914 299.242 115.289 298.914 115.68C298.602 116.055 298.188 116.398 297.672 116.711C297.156 117.023 296.555 117.297 295.867 117.531C295.195 117.766 294.5 117.961 293.781 118.117C292.344 118.43 290.844 118.586 289.281 118.586C287.719 118.586 286.141 118.289 284.547 117.695C282.969 117.102 281.602 116.234 280.445 115.094C277.961 112.672 276.719 109.398 276.719 105.273C276.719 98.0391 279.266 93.5391 284.359 91.7734C285.953 91.2266 287.586 90.9531 289.258 90.9531C290.945 90.9531 292.375 91.1328 293.547 91.4922C294.734 91.8516 295.758 92.3828 296.617 93.0859C298.43 94.5703 299.336 96.6406 299.336 99.2969C299.336 101.906 298.273 103.898 296.148 105.273C294.289 106.477 291.836 107.078 288.789 107.078C286.914 107.078 284.75 106.742 282.297 106.07ZM293.828 99.2266C293.828 96.9922 292.328 95.875 289.328 95.875C286.469 95.875 284.469 96.9219 283.328 99.0156C282.922 99.75 282.656 100.656 282.531 101.734C283.875 102.406 285.586 102.742 287.664 102.742C291.773 102.742 293.828 101.57 293.828 99.2266ZM283.234 87.7891C283 87.7891 282.766 87.6875 282.531 87.4844L281.219 86.3594C280.938 86.125 280.797 85.8984 280.797 85.6797C280.797 85.4297 280.898 85.1797 281.102 84.9297L285.742 79.2344C286.305 78.5312 286.977 78.1797 287.758 78.1797H290.148C290.898 78.1797 291.578 78.5469 292.188 79.2812L296.641 84.9062C296.844 85.1875 296.945 85.4531 296.945 85.7031C296.945 85.9531 296.812 86.1875 296.547 86.4062L295.305 87.4141C294.977 87.6797 294.711 87.8125 294.508 87.8125C294.305 87.8125 294.109 87.7266 293.922 87.5547L288.906 82.7734L283.984 87.4375C283.719 87.6719 283.469 87.7891 283.234 87.7891ZM306.391 93.25C306.391 92.125 306.93 91.5625 308.008 91.5625H309.297C310.172 91.5625 310.766 91.8906 311.078 92.5469C311.516 93.4844 311.891 94.7188 312.203 96.25C313.609 93.6875 315.703 92.0469 318.484 91.3281C319.359 91.0938 320.445 90.9766 321.742 90.9766C323.055 90.9766 324.266 91.2578 325.375 91.8203C326.484 92.3672 327.359 93.125 328 94.0938C329.188 95.8594 329.781 98.4609 329.781 101.898V116.453C329.781 116.891 329.641 117.258 329.359 117.555C329.078 117.852 328.664 118 328.117 118H325.82C325.227 118 324.789 117.852 324.508 117.555C324.227 117.258 324.086 116.891 324.086 116.453V101.875C324.086 97.875 322.617 95.875 319.68 95.875C317.961 95.875 316.391 96.5938 314.969 98.0312C313.453 99.5781 312.695 101.375 312.695 103.422V116.453C312.695 116.891 312.562 117.258 312.297 117.555C312.031 117.852 311.625 118 311.078 118H308.664C308.117 118 307.703 117.852 307.422 117.555C307.141 117.258 307 116.891 307 116.453V102.062C307 98.9219 306.898 96.7344 306.695 95.5C306.492 94.25 306.391 93.5 306.391 93.25ZM355.961 101.992C354.68 101.992 354.039 101.359 354.039 100.094C354.039 98.6406 353.594 97.5312 352.703 96.7656C351.938 96.0938 350.906 95.7578 349.609 95.7578C348.328 95.7578 347.266 96.0234 346.422 96.5547C345.578 97.0859 344.891 97.7656 344.359 98.5938C343.328 100.219 342.812 102.172 342.812 104.453C342.812 108.719 344.109 111.516 346.703 112.844C347.641 113.328 348.68 113.57 349.82 113.57C350.961 113.57 351.898 113.445 352.633 113.195C353.367 112.945 354.023 112.672 354.602 112.375C355.18 112.078 355.68 111.805 356.102 111.555C356.539 111.305 356.898 111.18 357.18 111.18C357.742 111.18 358.188 111.438 358.516 111.953L359.031 112.82C359.266 113.227 359.383 113.625 359.383 114.016C359.383 114.391 359.227 114.789 358.914 115.211C358.602 115.617 358.18 115.992 357.648 116.336C357.133 116.68 356.539 116.992 355.867 117.273C355.195 117.555 354.5 117.797 353.781 118C350.344 118.922 347.203 118.781 344.359 117.578C341.172 116.234 338.977 113.828 337.773 110.359C337.18 108.641 336.883 106.719 336.883 104.594C336.883 102.469 337.195 100.562 337.82 98.875C338.461 97.1875 339.344 95.7578 340.469 94.5859C342.797 92.1797 345.836 90.9766 349.586 90.9766C352.898 90.9766 355.438 91.8438 357.203 93.5781C358.688 95.0625 359.43 96.9219 359.43 99.1562C359.43 101.047 358.461 101.992 356.523 101.992H355.961ZM369.203 87.0391C368.141 87.0391 367.234 86.6719 366.484 85.9375C365.734 85.2188 365.359 84.3125 365.359 83.2188C365.359 82.1562 365.734 81.25 366.484 80.5C367.203 79.7812 368.109 79.4219 369.203 79.4219C370.875 79.4219 372.047 80.1875 372.719 81.7188C372.922 82.1719 373.023 82.6719 373.023 83.2188C373.023 84.3125 372.648 85.2188 371.898 85.9375C371.148 86.6719 370.25 87.0391 369.203 87.0391ZM371.945 111.555C371.945 112.664 372.312 113.219 373.047 113.219C373.297 113.219 373.578 113.148 373.891 113.008C374.5 112.742 374.914 112.609 375.133 112.609C375.461 112.609 375.727 112.836 375.93 113.289L376.656 114.93C376.781 115.195 376.844 115.445 376.844 115.68C376.844 116.352 376.266 116.977 375.109 117.555C374.016 118.117 372.93 118.398 371.852 118.398C370.789 118.398 369.938 118.281 369.297 118.047C368.656 117.812 368.109 117.422 367.656 116.875C366.75 115.75 366.297 113.922 366.297 111.391V93.1094C366.297 92.6719 366.422 92.3047 366.672 92.0078C366.922 91.7109 367.219 91.5625 367.562 91.5625H370.703C371.062 91.5625 371.359 91.7109 371.594 92.0078C371.828 92.3047 371.945 92.6719 371.945 93.1094V111.555ZM403.633 116.758C403.633 117.586 403.227 118 402.414 118H400.141C399.531 118 399.164 117.883 399.039 117.648C398.914 117.398 398.844 117.18 398.828 116.992C398.812 116.789 398.781 116.547 398.734 116.266C398.641 115.5 398.508 114.672 398.336 113.781C397.117 116.016 395.203 117.492 392.594 118.211C391.672 118.461 390.656 118.586 389.547 118.586C388.438 118.586 387.328 118.398 386.219 118.023C385.109 117.664 384.125 117.125 383.266 116.406C381.328 114.781 380.359 112.648 380.359 110.008C380.359 107.117 381.422 104.906 383.547 103.375C385.297 102.141 387.547 101.523 390.297 101.523C393.047 101.523 395.375 102.328 397.281 103.938C397.328 103.406 397.352 102.742 397.352 101.945C397.352 101.148 397.195 100.352 396.883 99.5547C396.57 98.7578 396.125 98.0938 395.547 97.5625C394.359 96.5156 392.703 95.9922 390.578 95.9922C388.672 95.9922 386.734 96.5156 384.766 97.5625C384.391 97.7656 384.062 97.8672 383.781 97.8672C383.359 97.8672 382.953 97.4531 382.562 96.625C382.141 95.7812 381.93 95.1719 381.93 94.7969C381.93 94.1094 382.445 93.4453 383.477 92.8047C385.445 91.5859 388.078 90.9766 391.375 90.9766C394.375 90.9766 396.859 91.7969 398.828 93.4375C401.156 95.4062 402.32 98.1875 402.32 101.781C402.32 103.375 402.062 105.383 401.547 107.805C402.875 111.586 403.57 114.57 403.633 116.758ZM387.93 106.82C387.289 107.289 386.828 107.758 386.547 108.227C386.281 108.695 386.148 109.25 386.148 109.891C386.148 110.516 386.258 111.078 386.477 111.578C386.711 112.062 387.031 112.469 387.438 112.797C388.297 113.469 389.258 113.805 390.32 113.805C391.398 113.805 392.281 113.68 392.969 113.43C393.656 113.18 394.25 112.859 394.75 112.469C395.828 111.625 396.367 110.734 396.367 109.797C396.273 108.625 395.625 107.703 394.422 107.031C393.344 106.406 392.07 106.094 390.602 106.094C389.461 106.094 388.57 106.336 387.93 106.82ZM422.898 109.141C422.227 107.734 421.711 106.242 421.352 104.664C421.008 103.07 420.836 101.195 420.836 99.0391C420.836 96.8672 421.25 94.6641 422.078 92.4297C422.922 90.1953 424.109 88.2656 425.641 86.6406C428.875 83.2031 433.062 81.4844 438.203 81.4844C443.672 81.4844 447.961 83.2422 451.07 86.7578C454.023 90.0859 455.5 94.4297 455.5 99.7891C455.5 105.102 453.875 109.547 450.625 113.125C449.094 114.812 447.258 116.148 445.117 117.133C442.977 118.102 440.805 118.586 438.602 118.586C436.414 118.586 434.547 118.359 433 117.906C431.453 117.438 430.039 116.789 428.758 115.961C427.492 115.117 426.367 114.117 425.383 112.961C424.398 111.805 423.57 110.531 422.898 109.141ZM427.188 99.625C427.188 101.422 427.398 103.125 427.82 104.734C428.258 106.344 428.922 107.781 429.812 109.047C431.781 111.812 434.555 113.195 438.133 113.195C441.727 113.195 444.5 111.875 446.453 109.234C448.25 106.797 449.148 103.641 449.148 99.7656C449.148 96.1094 448.234 93.0938 446.406 90.7188C444.391 88.1406 441.641 86.8516 438.156 86.8516C434.797 86.8516 432.125 88.0547 430.141 90.4609C428.172 92.8203 427.188 95.875 427.188 99.625ZM464.383 118C463.445 118 462.977 117.398 462.977 116.195V77.9688C462.977 77.5469 463.094 77.1875 463.328 76.8906C463.562 76.5938 463.859 76.4453 464.219 76.4453H467.406C467.766 76.4453 468.062 76.5938 468.297 76.8906C468.547 77.1875 468.672 77.5469 468.672 77.9688V95.1016C470.672 92.3516 473.531 90.9766 477.25 90.9766C480.656 90.9766 483.266 92.2344 485.078 94.75C486.719 97.0312 487.539 100.07 487.539 103.867C487.539 108.305 486.469 111.875 484.328 114.578C482.219 117.234 479.547 118.562 476.312 118.562C474.562 118.562 472.938 118.172 471.438 117.391C469.953 116.594 468.75 115.383 467.828 113.758C467.797 114.242 467.75 114.719 467.688 115.188C467.641 115.656 467.609 116.109 467.594 116.547C467.531 117.516 466.898 118 465.695 118H464.383ZM470.312 98.4766C469.672 99.2734 469.18 100.211 468.836 101.289C468.492 102.352 468.32 103.469 468.32 104.641C468.32 105.797 468.492 106.922 468.836 108.016C469.18 109.094 469.656 110.062 470.266 110.922C471.609 112.797 473.273 113.734 475.258 113.734C477.477 113.734 479.141 112.766 480.25 110.828C481.156 109.219 481.609 107.141 481.609 104.594C481.609 100.391 480.531 97.6875 478.375 96.4844C477.625 96.0625 476.711 95.8516 475.633 95.8516C474.555 95.8516 473.562 96.0859 472.656 96.5547C471.75 97.0234 470.969 97.6641 470.312 98.4766ZM501.883 113.781C504.883 113.781 506.383 112.773 506.383 110.758C506.383 109.648 505.531 108.711 503.828 107.945C503.109 107.617 502.32 107.312 501.461 107.031C500.617 106.75 499.805 106.414 499.023 106.023C498.242 105.633 497.508 105.211 496.82 104.758C496.148 104.289 495.562 103.758 495.062 103.164C494.031 101.914 493.516 100.328 493.516 98.4062C493.516 96.0625 494.492 94.2031 496.445 92.8281C498.18 91.5938 500.312 90.9766 502.844 90.9766C505.562 90.9766 507.836 91.5078 509.664 92.5703C510.289 92.9453 510.602 93.375 510.602 93.8594C510.602 94.5469 510.414 95.3047 510.039 96.1328C509.68 96.9453 509.25 97.3516 508.75 97.3516C508.266 97.3516 507.82 97.25 507.414 97.0469C507.023 96.8438 506.664 96.6719 506.336 96.5312C506.023 96.375 505.688 96.25 505.328 96.1562C504.547 95.9219 503.82 95.8047 503.148 95.8047C502.492 95.8047 501.961 95.8516 501.555 95.9453C501.148 96.0391 500.781 96.1875 500.453 96.3906C499.656 96.875 499.258 97.4688 499.258 98.1719C499.258 98.875 499.414 99.4141 499.727 99.7891C500.055 100.164 500.5 100.508 501.062 100.82C501.625 101.133 502.297 101.445 503.078 101.758L505.609 102.812C507.656 103.703 509.039 104.508 509.758 105.227C511.164 106.664 511.867 108.328 511.867 110.219C511.867 112.594 511.055 114.547 509.43 116.078C507.633 117.75 505.078 118.586 501.766 118.586C498.406 118.586 495.883 117.938 494.195 116.641C493.367 116.016 492.953 115.453 492.953 114.953C492.953 114.453 493.039 114.008 493.211 113.617C493.398 113.211 493.633 112.742 493.914 112.211C494.211 111.664 494.602 111.391 495.086 111.391C495.586 111.391 496.109 111.617 496.656 112.07C497.219 112.508 497.984 112.906 498.953 113.266C499.922 113.609 500.898 113.781 501.883 113.781ZM532.867 95.125C532.867 96 532.375 96.4375 531.391 96.4375H524.781V111.156C524.781 112.75 525.57 113.547 527.148 113.547C528.148 113.547 529.453 113.047 531.062 112.047C531.375 111.844 531.711 111.742 532.07 111.742C532.445 111.742 532.742 112 532.961 112.516L533.5 113.734C533.703 114.203 533.805 114.602 533.805 114.93C533.805 115.258 533.555 115.641 533.055 116.078C532.57 116.5 531.945 116.883 531.18 117.227C529.445 118.008 527.875 118.398 526.469 118.398C525.062 118.398 523.945 118.258 523.117 117.977C522.305 117.68 521.609 117.242 521.031 116.664C519.781 115.445 519.156 113.688 519.156 111.391V96.4375H517.188C516.203 96.4375 515.711 95.9922 515.711 95.1016V93.7656C515.711 93.4062 515.805 93.125 515.992 92.9219C516.18 92.7188 516.547 92.5625 517.094 92.4531L519.438 91.7734L520.328 86.2656C520.5 85.2344 520.922 84.7188 521.594 84.7188H523.539C523.898 84.7188 524.195 84.8672 524.43 85.1641C524.664 85.4453 524.781 85.8125 524.781 86.2656V91.5625H531.391C532.375 91.5625 532.867 91.9922 532.867 92.8516V95.125ZM542.453 106.07L542.43 106.516C542.43 108.656 543.109 110.375 544.469 111.672C545.891 113.047 547.82 113.734 550.258 113.734C552.477 113.734 554.539 113.07 556.445 111.742C556.805 111.492 557.125 111.367 557.406 111.367C557.984 111.367 558.422 111.656 558.719 112.234L559.352 113.547C559.492 113.859 559.562 114.195 559.562 114.555C559.562 114.914 559.398 115.289 559.07 115.68C558.758 116.055 558.344 116.398 557.828 116.711C557.312 117.023 556.711 117.297 556.023 117.531C555.352 117.766 554.656 117.961 553.938 118.117C552.5 118.43 551 118.586 549.438 118.586C547.875 118.586 546.297 118.289 544.703 117.695C543.125 117.102 541.758 116.234 540.602 115.094C538.117 112.672 536.875 109.398 536.875 105.273C536.875 98.0391 539.422 93.5391 544.516 91.7734C546.109 91.2266 547.742 90.9531 549.414 90.9531C551.102 90.9531 552.531 91.1328 553.703 91.4922C554.891 91.8516 555.914 92.3828 556.773 93.0859C558.586 94.5703 559.492 96.6406 559.492 99.2969C559.492 101.906 558.43 103.898 556.305 105.273C554.445 106.477 551.992 107.078 548.945 107.078C547.07 107.078 544.906 106.742 542.453 106.07ZM553.984 99.2266C553.984 96.9922 552.484 95.875 549.484 95.875C546.625 95.875 544.625 96.9219 543.484 99.0156C543.078 99.75 542.812 100.656 542.688 101.734C544.031 102.406 545.742 102.742 547.82 102.742C551.93 102.742 553.984 101.57 553.984 99.2266ZM547.539 87.7891C547.336 87.9141 547.102 87.9766 546.836 87.9766C546.57 87.9766 546.367 87.8672 546.227 87.6484L545.078 86.0547C544.969 85.8984 544.914 85.7188 544.914 85.5156C544.914 85.2969 545.07 85.0469 545.383 84.7656L552.625 78.1797C553.016 77.8203 553.383 77.6406 553.727 77.6406C554.273 77.6406 554.68 77.8125 554.945 78.1562L556.703 80.3828C556.891 80.6172 556.977 80.8594 556.961 81.1094C556.945 81.75 556.641 82.25 556.047 82.6094L547.539 87.7891ZM580.867 95.125C580.867 96 580.375 96.4375 579.391 96.4375H572.781V111.156C572.781 112.75 573.57 113.547 575.148 113.547C576.148 113.547 577.453 113.047 579.062 112.047C579.375 111.844 579.711 111.742 580.07 111.742C580.445 111.742 580.742 112 580.961 112.516L581.5 113.734C581.703 114.203 581.805 114.602 581.805 114.93C581.805 115.258 581.555 115.641 581.055 116.078C580.57 116.5 579.945 116.883 579.18 117.227C577.445 118.008 575.875 118.398 574.469 118.398C573.062 118.398 571.945 118.258 571.117 117.977C570.305 117.68 569.609 117.242 569.031 116.664C567.781 115.445 567.156 113.688 567.156 111.391V96.4375H565.188C564.203 96.4375 563.711 95.9922 563.711 95.1016V93.7656C563.711 93.4062 563.805 93.125 563.992 92.9219C564.18 92.7188 564.547 92.5625 565.094 92.4531L567.438 91.7734L568.328 86.2656C568.5 85.2344 568.922 84.7188 569.594 84.7188H571.539C571.898 84.7188 572.195 84.8672 572.43 85.1641C572.664 85.4453 572.781 85.8125 572.781 86.2656V91.5625H579.391C580.375 91.5625 580.867 91.9922 580.867 92.8516V95.125ZM585.93 93.25C585.93 92.125 586.422 91.5625 587.406 91.5625H588.672C589.531 91.5625 590.141 91.9375 590.5 92.6875C591.016 93.7812 591.391 95.2891 591.625 97.2109C591.625 97.2422 591.633 97.2578 591.648 97.2578C591.68 97.2578 591.734 96.9922 591.812 96.4609C591.891 95.9297 592.117 95.2812 592.492 94.5156C592.867 93.7344 593.328 93.0781 593.875 92.5469C594.984 91.5 596.344 90.9766 597.953 90.9766C599.75 90.9766 601 91.2734 601.703 91.8672C602.031 92.1328 602.164 92.5 602.102 92.9688L601.727 95.9219C601.633 96.7188 601.227 97.1172 600.508 97.1172C600.164 97.1172 599.742 97.0469 599.242 96.9062C598.273 96.6562 597.508 96.5312 596.945 96.5312C596.383 96.5312 595.789 96.7812 595.164 97.2812C594.539 97.7656 594 98.375 593.547 99.1094C592.625 100.641 592.164 102.273 592.164 104.008V116.453C592.164 116.891 592.039 117.258 591.789 117.555C591.539 117.852 591.18 118 590.711 118H587.992C587.492 118 587.109 117.852 586.844 117.555C586.594 117.258 586.469 116.891 586.469 116.453V100.305C586.469 97.5547 586.375 95.7422 586.188 94.8672C586.016 93.9766 585.93 93.4375 585.93 93.25ZM609.391 87.0391C608.328 87.0391 607.422 86.6719 606.672 85.9375C605.922 85.2188 605.547 84.3125 605.547 83.2188C605.547 82.1562 605.922 81.25 606.672 80.5C607.391 79.7812 608.297 79.4219 609.391 79.4219C611.062 79.4219 612.234 80.1875 612.906 81.7188C613.109 82.1719 613.211 82.6719 613.211 83.2188C613.211 84.3125 612.836 85.2188 612.086 85.9375C611.336 86.6719 610.438 87.0391 609.391 87.0391ZM612.133 111.555C612.133 112.664 612.5 113.219 613.234 113.219C613.484 113.219 613.766 113.148 614.078 113.008C614.688 112.742 615.102 112.609 615.32 112.609C615.648 112.609 615.914 112.836 616.117 113.289L616.844 114.93C616.969 115.195 617.031 115.445 617.031 115.68C617.031 116.352 616.453 116.977 615.297 117.555C614.203 118.117 613.117 118.398 612.039 118.398C610.977 118.398 610.125 118.281 609.484 118.047C608.844 117.812 608.297 117.422 607.844 116.875C606.938 115.75 606.484 113.922 606.484 111.391V93.1094C606.484 92.6719 606.609 92.3047 606.859 92.0078C607.109 91.7109 607.406 91.5625 607.75 91.5625H610.891C611.25 91.5625 611.547 91.7109 611.781 92.0078C612.016 92.3047 612.133 92.6719 612.133 93.1094V111.555ZM640.164 101.992C638.883 101.992 638.242 101.359 638.242 100.094C638.242 98.6406 637.797 97.5312 636.906 96.7656C636.141 96.0938 635.109 95.7578 633.812 95.7578C632.531 95.7578 631.469 96.0234 630.625 96.5547C629.781 97.0859 629.094 97.7656 628.562 98.5938C627.531 100.219 627.016 102.172 627.016 104.453C627.016 108.719 628.312 111.516 630.906 112.844C631.844 113.328 632.883 113.57 634.023 113.57C635.164 113.57 636.102 113.445 636.836 113.195C637.57 112.945 638.227 112.672 638.805 112.375C639.383 112.078 639.883 111.805 640.305 111.555C640.742 111.305 641.102 111.18 641.383 111.18C641.945 111.18 642.391 111.438 642.719 111.953L643.234 112.82C643.469 113.227 643.586 113.625 643.586 114.016C643.586 114.391 643.43 114.789 643.117 115.211C642.805 115.617 642.383 115.992 641.852 116.336C641.336 116.68 640.742 116.992 640.07 117.273C639.398 117.555 638.703 117.797 637.984 118C634.547 118.922 631.406 118.781 628.562 117.578C625.375 116.234 623.18 113.828 621.977 110.359C621.383 108.641 621.086 106.719 621.086 104.594C621.086 102.469 621.398 100.562 622.023 98.875C622.664 97.1875 623.547 95.7578 624.672 94.5859C627 92.1797 630.039 90.9766 633.789 90.9766C637.102 90.9766 639.641 91.8438 641.406 93.5781C642.891 95.0625 643.633 96.9219 643.633 99.1562C643.633 101.047 642.664 101.992 640.727 101.992H640.164ZM671.805 116.758C671.805 117.586 671.398 118 670.586 118H668.312C667.703 118 667.336 117.883 667.211 117.648C667.086 117.398 667.016 117.18 667 116.992C666.984 116.789 666.953 116.547 666.906 116.266C666.812 115.5 666.68 114.672 666.508 113.781C665.289 116.016 663.375 117.492 660.766 118.211C659.844 118.461 658.828 118.586 657.719 118.586C656.609 118.586 655.5 118.398 654.391 118.023C653.281 117.664 652.297 117.125 651.438 116.406C649.5 114.781 648.531 112.648 648.531 110.008C648.531 107.117 649.594 104.906 651.719 103.375C653.469 102.141 655.719 101.523 658.469 101.523C661.219 101.523 663.547 102.328 665.453 103.938C665.5 103.406 665.523 102.742 665.523 101.945C665.523 101.148 665.367 100.352 665.055 99.5547C664.742 98.7578 664.297 98.0938 663.719 97.5625C662.531 96.5156 660.875 95.9922 658.75 95.9922C656.844 95.9922 654.906 96.5156 652.938 97.5625C652.562 97.7656 652.234 97.8672 651.953 97.8672C651.531 97.8672 651.125 97.4531 650.734 96.625C650.312 95.7812 650.102 95.1719 650.102 94.7969C650.102 94.1094 650.617 93.4453 651.648 92.8047C653.617 91.5859 656.25 90.9766 659.547 90.9766C662.547 90.9766 665.031 91.7969 667 93.4375C669.328 95.4062 670.492 98.1875 670.492 101.781C670.492 103.375 670.234 105.383 669.719 107.805C671.047 111.586 671.742 114.57 671.805 116.758ZM656.102 106.82C655.461 107.289 655 107.758 654.719 108.227C654.453 108.695 654.32 109.25 654.32 109.891C654.32 110.516 654.43 111.078 654.648 111.578C654.883 112.062 655.203 112.469 655.609 112.797C656.469 113.469 657.43 113.805 658.492 113.805C659.57 113.805 660.453 113.68 661.141 113.43C661.828 113.18 662.422 112.859 662.922 112.469C664 111.625 664.539 110.734 664.539 109.797C664.445 108.625 663.797 107.703 662.594 107.031C661.516 106.406 660.242 106.094 658.773 106.094C657.633 106.094 656.742 106.336 656.102 106.82ZM679.938 92.1484C678.25 92.1484 677.406 91.2031 677.406 89.3125C677.406 86.5156 678.398 84.2891 680.383 82.6328C682.336 81.0078 684.852 80.1953 687.93 80.1953C691.648 80.1953 694.5 81.2188 696.484 83.2656C698.312 85.1562 699.227 87.7344 699.227 91C699.227 94.3438 697.969 97.4375 695.453 100.281C693.266 102.719 690.492 104.641 687.133 106.047C686.883 106.156 686.672 106.211 686.5 106.211C686.344 106.211 686.195 106.188 686.055 106.141C685.93 106.094 685.789 105.992 685.633 105.836C685.258 105.461 684.945 104.984 684.695 104.406C684.445 103.828 684.32 103.383 684.32 103.07C684.32 102.742 684.5 102.43 684.859 102.133C685.219 101.82 685.688 101.484 686.266 101.125C688.047 100.016 689.312 99.0625 690.062 98.2656C690.828 97.4531 691.398 96.7422 691.773 96.1328C692.164 95.5078 692.469 94.9062 692.688 94.3281C693.094 93.2969 693.297 92.3281 693.297 91.4219C693.297 90.5 693.195 89.6797 692.992 88.9609C692.789 88.2266 692.469 87.5703 692.031 86.9922C691.031 85.6797 689.703 85.0234 688.047 85.0234C684.594 85.0234 682.867 86.7188 682.867 90.1094C682.867 90.8281 682.812 91.2969 682.703 91.5156C682.484 91.9375 682.055 92.1484 681.414 92.1484H679.938ZM683.242 114.461C683.242 113.352 683.641 112.391 684.438 111.578C685.203 110.781 686.148 110.383 687.273 110.383C688.383 110.383 689.32 110.781 690.086 111.578C690.867 112.391 691.258 113.352 691.258 114.461C691.258 115.586 690.867 116.555 690.086 117.367C689.305 118.18 688.367 118.586 687.273 118.586C686.164 118.586 685.219 118.18 684.438 117.367C683.641 116.555 683.242 115.586 683.242 114.461Z" fill="black"/>
<path d="M36.4177 32L1 142.836" stroke="#1D2D44" stroke-width="2" stroke-linecap="round" stroke-linejoin="round"/>
<path d="M49.0039 36.0214L13.5862 146.857" stroke="#1D2D44" stroke-width="2" stroke-linecap="round" stroke-linejoin="round"/>
<path d="M59.5265 39.3865L24.1088 150.222" stroke="#1D2D44" stroke-width="2" stroke-linecap="round" stroke-linejoin="round"/>
<path d="M69.4166 51.8419L36.695 154.244" stroke="#1D2D44" stroke-width="2" stroke-linecap="round" stroke-linejoin="round"/>
<path d="M77.6788 51.072L47.6481 154.293" stroke="#1D2D44" stroke-width="2" stroke-linecap="round" stroke-linejoin="round"/>
<path d="M84.3802 54.7613L54.3495 168.275" stroke="#1D2D44" stroke-width="2" stroke-linecap="round" stroke-linejoin="round"/>
<path d="M94.9884 58.1577L64.9577 171.672" stroke="#1D2D44" stroke-width="2" stroke-linecap="round" stroke-linejoin="round"/>
<path d="M107.826 67.1545L75.1019 179.766" stroke="#1D2D44" stroke-width="2" stroke-linecap="round" stroke-linejoin="round"/>
<path d="M61.0141 68.6142C60.7284 68.1703 60.3585 67.7866 59.9251 67.4843C56.6846 64.7165 53.4881 61.896 50.1685 59.2333C47.1738 56.7901 44.3402 54.157 41.6853 51.3501C40.9057 50.5598 40.192 49.7073 39.5513 48.8012C38.9058 47.9331 38.4648 46.9311 38.2611 45.8696C38.0574 44.8081 38.0961 43.7144 38.3745 42.6699C38.6356 41.5934 39.0527 40.5606 39.6128 39.6042C40.491 38.1677 41.255 36.6612 42.0893 35.2247C43.393 33.0187 44.9361 30.9626 46.6909 29.0934C47.5498 28.3016 48.5853 27.7252 49.7119 27.4117C49.9094 27.3558 50.1162 27.3401 50.3199 27.3657C50.5235 27.3913 50.72 27.4576 50.8974 27.5605C51.4216 27.8257 51.8944 28.1816 52.2937 28.6117C53.8305 30.0569 55.1215 31.7124 56.509 33.289C57.8965 34.8656 59.1435 36.3985 60.5311 37.9138C63.0778 40.7167 65.8002 43.3356 68.2678 46.2436C68.3049 46.2889 68.3494 46.3274 68.3996 46.3575C68.5593 46.4032 68.7252 46.4238 68.8913 46.4188C68.9353 46.4188 69.0055 46.2173 68.988 46.1122C68.9632 45.8834 68.9161 45.6575 68.8474 45.4378C68.0571 42.5035 67.012 39.6568 66.0373 36.7838C63.953 30.5883 61.8542 24.4015 59.7407 18.2235C59.2016 16.6213 58.8251 14.9693 58.6166 13.2921C58.4894 12.1265 58.6837 10.9484 59.1787 9.88486C59.654 8.48482 60.655 7.32306 61.9713 6.64395C62.1357 6.58218 62.2853 6.48674 62.4104 6.36371C63.6486 4.79584 65.4665 4.09512 67.1526 3.19294C67.8727 2.8163 68.6103 2.48346 69.3304 2.10683C71.0372 1.21541 72.8657 0.577975 74.7576 0.214843C76.5977 -0.164163 78.5062 -0.0400512 80.2814 0.573993C82.7242 1.44949 84.7918 3.13451 86.1388 5.34763C87.6253 7.57816 88.8066 9.99664 89.6516 12.5389C90.2048 14.2907 90.6527 16.0425 91.0479 17.7943C91.7416 20.86 92.2071 23.9694 92.6198 27.0876C93.1028 30.7139 93.3399 34.3663 94.0688 37.9575C94.5606 37.9575 94.666 37.5722 94.7977 37.2744C95.6759 35.2511 96.6419 33.2452 97.4323 31.1956C98.5036 28.489 99.496 25.7562 100.488 23.0234C100.838 22.041 101.329 21.1145 101.946 20.2731C102.215 19.8981 102.561 19.5846 102.96 19.3535C103.36 19.1224 103.805 18.979 104.265 18.9329C105.139 18.8059 106.031 18.9055 106.855 19.222C108.596 19.9069 110.281 20.7238 111.896 21.6657C112.862 22.2175 113.81 22.7956 114.75 23.4175C116.277 24.2627 117.461 25.6105 118.102 27.2305C118.743 28.8505 118.8 30.6421 118.263 32.2992C118.017 33.1751 117.824 34.1123 117.543 34.997C116.815 37.2058 115.91 39.3529 114.838 41.4174C113.556 43.9663 112.159 46.4714 110.807 48.9852C110.628 49.2142 110.524 49.4923 110.508 49.7822C111.083 49.692 111.642 49.521 112.168 49.2742L120.537 44.2027C120.626 44.1249 120.723 44.0573 120.827 44.0013C121.91 43.5649 122.906 42.939 123.769 42.1531C124.037 41.9462 124.332 41.7781 124.647 41.6539C125.253 41.348 125.943 41.2492 126.611 41.3726C127.279 41.496 127.888 41.8348 128.344 42.337C129.018 43.0529 129.607 43.8435 130.101 44.6933C131.83 47.869 133.326 51.1652 134.579 54.556C135.545 57.2537 134.746 59.5837 133.262 61.8085C132.094 63.5603 130.382 64.8566 129.179 66.5821C127.888 67.204 127.203 68.5529 125.938 69.2098C125.254 69.6553 124.597 70.1409 123.971 70.6639C123.413 71.0735 122.826 71.4424 122.215 71.7675C121.771 71.9189 121.401 72.2317 121.178 72.6434C120.994 73.02 120.476 73.2215 120.116 73.5193C120.083 73.5626 120.061 73.6129 120.052 73.6662C120.043 73.7195 120.047 73.7742 120.063 73.8259C120.088 73.875 120.126 73.917 120.172 73.9476C120.218 73.9783 120.271 73.9966 120.326 74.001C121.25 73.8927 122.16 73.6872 123.04 73.3879C125.675 72.6346 128.309 71.8901 130.944 71.1106C132.195 70.8019 133.49 70.71 134.773 70.839C135.183 70.8531 135.583 70.9675 135.938 71.1722C136.293 71.3768 136.593 71.6655 136.81 72.0127C137.566 73.1251 138.177 74.329 138.628 75.5952C139.529 78.3017 140.213 81.0754 140.674 83.89C141.087 86.1848 141.385 88.4885 141.649 90.8009C141.682 91.0306 141.747 91.2546 141.842 91.4666C142.053 92.0767 142.053 92.7395 141.842 93.3497C141.418 95.0563 140.556 96.6233 139.339 97.8957C137.805 99.5128 136.027 100.881 134.07 101.951C129.407 104.52 124.544 106.708 119.527 108.494C114.047 110.491 108.506 112.366 103 114.293C102.719 114.38 102.438 114.45 102.166 114.564C102.064 114.588 101.969 114.633 101.887 114.697C101.805 114.761 101.739 114.843 101.692 114.936C101.645 115.028 101.619 115.13 101.616 115.234C101.613 115.338 101.633 115.441 101.674 115.536C101.964 116.605 102.289 117.665 102.596 118.725C104.036 123.712 105.473 128.695 106.908 133.676C107.927 137.18 108.928 140.745 109.964 144.266C111.791 150.467 113.643 156.669 115.479 162.87C115.567 163.151 115.628 163.44 115.707 163.746C116.041 164.859 116.278 165.945 114.899 166.567C114.276 167.915 113.099 168.056 111.808 167.986C110.991 167.986 110.166 167.986 109.349 167.986C108.642 167.996 107.946 167.803 107.346 167.428C106.746 167.054 106.268 166.514 105.968 165.875C105.588 165.155 105.254 164.412 104.967 163.65C103.872 160.269 102.801 156.879 101.753 153.481C100.971 150.914 100.234 148.339 99.5048 145.764C98.328 141.612 97.3005 137.425 96.3433 133.23C95.3422 128.862 94.3381 124.482 93.3312 120.091C93.1906 119.469 93.1467 118.821 92.9799 118.208C92.813 117.595 92.5935 117.463 91.9524 117.639C90.2663 118.094 88.5802 118.593 86.8941 119.058C83.7537 119.966 80.5636 120.695 77.3395 121.239C74.3449 121.712 71.3678 122.281 68.3205 122.509C66.5642 122.64 64.8078 122.833 63.1041 122.999C61.0022 123.152 58.8919 123.152 56.79 122.999C55.3229 123.024 53.8684 122.725 52.5308 122.123C50.8836 121.255 49.3146 120.247 47.8413 119.11C46.813 118.233 46.0218 117.113 45.5405 115.852C44.2922 112.893 43.4276 109.788 42.9674 106.611C42.6337 104.43 42.3264 102.231 42.0278 100.05C41.8609 98.8767 42.2737 97.738 42.3088 96.5467C42.325 96.3736 42.4029 96.212 42.5283 96.0913C43.5822 95.2154 44.5833 94.1731 46.0938 94.0504C46.2694 94.0504 46.445 94.0504 46.6207 94.0504C49.2552 93.9804 51.8898 93.6738 54.4628 93.3672C54.8691 93.3366 55.2772 93.3366 55.6835 93.3672C57.7385 93.4636 59.7583 92.9906 61.8308 92.938C62.7015 92.8455 63.5644 92.6903 64.4126 92.4738C63.271 92.2986 62.507 92.1497 61.7342 92.0621C60.1095 91.8869 58.4673 91.7994 56.8603 91.5541C55.2532 91.3089 53.3475 91.1687 51.6351 90.9848C50.028 90.8184 48.4209 90.5293 46.7787 90.503C44.5571 90.4328 42.3557 90.0586 40.2363 89.3907C37.6018 88.6111 36.1352 86.3775 36.0035 83.5571C35.9752 82.0856 36.1196 80.6157 36.4338 79.1776C37.0853 75.8614 37.909 72.5811 38.9015 69.35C39.0771 68.7369 39.3757 68.1587 39.5952 67.5544C40.0481 66.4217 40.8671 65.4723 41.9224 64.8566C42.6096 64.3684 43.4084 64.0597 44.246 63.9587C45.0836 63.8577 45.9332 63.9676 46.7173 64.2785C50.1685 65.3734 53.6461 66.3806 57.0359 67.6682C57.6418 67.896 58.2478 68.1149 58.7923 68.3952C59.4148 68.7255 60.1171 68.8771 60.8209 68.8331C60.8999 68.9733 60.9702 69.1135 61.1458 68.9208L61.0141 68.6142Z" fill="#DBB2D1"/>
<path d="M32.2355 117.135C31.9411 116.89 31.6013 116.704 31.2353 116.589C28.3882 115.375 25.56 114.114 22.6809 112.99C20.0746 111.947 17.5387 110.738 15.0889 109.369C14.3769 108.991 13.6971 108.555 13.0563 108.066C12.4204 107.605 11.8972 107.006 11.5255 106.315C11.1538 105.624 10.9432 104.857 10.9095 104.073C10.8567 103.27 10.9217 102.464 11.1023 101.68C11.3992 100.494 11.6017 99.2836 11.8682 98.107C12.293 96.2951 12.9163 94.5351 13.7269 92.8588C14.1504 92.1235 14.7431 91.4992 15.456 91.0374C15.5807 90.9557 15.7207 90.9 15.8674 90.8735C16.0142 90.847 16.1647 90.8502 16.3101 90.883C16.731 90.9529 17.136 91.0969 17.5062 91.3082C18.8853 91.976 20.1395 92.8429 21.4436 93.6341C22.7477 94.4254 23.9449 95.2168 25.2357 95.9656C27.6096 97.3549 30.0653 98.5785 32.4072 100.058C32.4427 100.081 32.4819 100.098 32.5232 100.108C32.6439 100.105 32.7634 100.083 32.8774 100.044C32.9079 100.034 32.9129 99.8794 32.8779 99.8104C32.811 99.6572 32.7293 99.5109 32.634 99.3735C31.4491 97.5118 30.1067 95.766 28.8073 93.9868C26.0175 90.146 23.2195 86.3145 20.4132 82.4922C19.6917 81.499 19.072 80.4359 18.5634 79.319C18.2222 78.5389 18.1011 77.6802 18.2133 76.8358C18.2388 75.7623 18.6805 74.7399 19.4455 73.9834C19.5461 73.9049 19.6291 73.8063 19.6891 73.6939C20.207 72.3385 21.315 71.4581 22.288 70.4667C22.7054 70.0494 23.1445 69.6585 23.5619 69.2411C24.5515 68.2528 25.6806 67.4139 26.9132 66.7514C28.1065 66.0892 29.4564 65.7608 30.8202 65.8008C32.7036 65.877 34.5027 66.5957 35.9169 67.8368C37.4316 69.0597 38.7755 70.4791 39.9131 72.0573C40.677 73.1512 41.3677 74.2679 42.022 75.396C43.1684 77.3698 44.1661 79.4235 45.1292 81.4948C46.2512 83.9028 47.2085 86.3824 48.4934 88.7127C48.8343 88.6059 48.8237 88.316 48.8504 88.081C49.0199 86.4882 49.254 84.8884 49.3569 83.2964C49.512 81.1881 49.6067 79.0789 49.7013 76.9696C49.7304 76.2129 49.8697 75.4642 50.1147 74.7471C50.2196 74.4289 50.3912 74.1366 50.6182 73.8896C50.8451 73.6426 51.1222 73.4467 51.4309 73.3149C52.0092 73.0371 52.6493 72.9123 53.2894 72.9527C54.6446 73.0493 55.9901 73.2494 57.3142 73.5514C58.1036 73.7241 58.8866 73.9187 59.6729 74.1456C60.9146 74.3998 62.0286 75.0765 62.8244 76.0599C63.6202 77.0434 64.0485 78.2727 64.0361 79.5376C64.0558 80.198 64.1254 80.8894 64.1226 81.5635C64.0975 83.2522 63.9367 84.9365 63.6415 86.6001C63.3061 88.6448 62.882 90.6841 62.4903 92.7198C62.416 92.9173 62.4041 93.1327 62.4563 93.3369C62.8351 93.1497 63.1853 92.9098 63.4966 92.6245L68.197 87.2926C68.2416 87.2193 68.2943 87.1514 68.3541 87.09C69.0102 86.5524 69.565 85.9023 69.9922 85.1704C70.1328 84.9689 70.3013 84.7882 70.4926 84.6338C70.8464 84.2901 71.3033 84.0718 71.7932 84.0123C72.283 83.9527 72.7786 84.0553 73.2038 84.3043C73.8263 84.654 74.4064 85.0739 74.9328 85.5557C76.8208 87.381 78.5739 89.3401 80.1786 91.4177C81.4339 93.0775 81.3857 94.8656 80.8399 96.7296C80.4106 98.1972 79.5049 99.4674 79.0456 100.924C78.2857 101.636 78.1037 102.719 77.3697 103.449C76.9924 103.906 76.6424 104.385 76.3218 104.884C76.024 105.289 75.6971 105.672 75.3439 106.03C75.0692 106.231 74.8806 106.529 74.8157 106.862C74.7697 107.163 74.4542 107.415 74.2693 107.7C74.2562 107.737 74.252 107.777 74.2573 107.815C74.2625 107.854 74.2769 107.892 74.2993 107.924C74.3275 107.952 74.3626 107.973 74.4012 107.985C74.4399 107.996 74.4807 107.997 74.52 107.988C75.1368 107.712 75.7227 107.372 76.2679 106.974C77.9306 105.88 79.5953 104.792 81.2523 103.679C82.0526 103.194 82.9305 102.849 83.8475 102.66C84.1347 102.58 84.437 102.573 84.7278 102.637C85.0185 102.702 85.2887 102.837 85.5146 103.03C86.28 103.637 86.9648 104.339 87.5524 105.118C88.7647 106.798 89.8412 108.572 90.7716 110.422C91.5559 111.923 92.263 113.454 92.9476 115C93.0206 115.151 93.1144 115.293 93.2261 115.419C93.5047 115.796 93.6486 116.255 93.6349 116.724C93.7117 117.999 93.4539 119.272 92.8869 120.418C92.1746 121.871 91.2393 123.206 90.1148 124.372C87.4402 127.165 84.544 129.737 81.4543 132.065C78.0893 134.638 74.655 137.141 71.2565 139.672C71.0807 139.794 70.9011 139.903 70.7371 140.041C70.6719 140.08 70.6159 140.132 70.5731 140.194C70.5303 140.256 70.5017 140.327 70.4893 140.402C70.4769 140.476 70.4811 140.552 70.5014 140.625C70.5218 140.697 70.5579 140.765 70.6073 140.822C71.0401 141.499 71.4955 142.163 71.9386 142.831C74.0196 145.974 76.0979 149.116 78.1735 152.256C79.6403 154.463 81.1082 156.716 82.5909 158.931C85.2034 162.831 87.8342 166.726 90.4528 170.625C90.5745 170.801 90.6799 170.987 90.8013 171.183C91.2741 171.881 91.6742 172.582 90.8535 173.313C90.7141 174.383 89.9288 174.735 89.0187 174.967C88.4526 175.145 87.8804 175.324 87.3142 175.501C86.826 175.662 86.3018 175.679 85.8047 175.55C85.3076 175.421 84.8587 175.151 84.5123 174.773C84.0925 174.356 83.6994 173.914 83.3353 173.448C81.8424 171.343 80.3638 169.227 78.8996 167.099C77.8006 165.49 76.7302 163.866 75.6659 162.24C73.9488 159.618 72.3276 156.94 70.7533 154.24C69.111 151.431 67.4643 148.614 65.8129 145.79C65.5805 145.389 65.4094 144.95 65.1606 144.561C64.9118 144.172 64.7311 144.129 64.3248 144.39C63.2548 145.072 62.1944 145.784 61.1264 146.472C59.1468 147.783 57.0935 148.981 54.9767 150.058C53.0035 151.036 51.0634 152.077 49.0005 152.897C47.8115 153.369 46.6359 153.884 45.491 154.369C44.0673 154.932 42.6044 155.39 41.1141 155.74C40.1026 156.076 39.0294 156.185 37.9715 156.058C36.6413 155.815 35.3348 155.457 34.0666 154.989C33.1634 154.604 32.3718 154 31.7643 153.23C30.2568 151.451 28.9832 149.487 27.9746 147.385C27.2698 145.947 26.5794 144.49 25.8989 143.043C25.5285 142.266 25.5674 141.387 25.3331 140.554C25.3068 140.431 25.3257 140.302 25.3864 140.191C25.9268 139.355 26.3945 138.415 27.4149 138.002C27.5367 137.964 27.6584 137.926 27.7802 137.888C29.5912 137.267 31.3509 136.483 33.068 135.711C33.343 135.602 33.6258 135.513 33.9141 135.446C35.3595 135.067 36.657 134.301 38.0822 133.814C38.6657 133.561 39.2301 133.266 39.7712 132.932C38.9418 133.058 38.3798 133.121 37.8251 133.228C36.6609 133.459 35.5035 133.755 34.3363 133.934C33.169 134.113 31.8176 134.43 30.5906 134.675C29.4404 134.908 28.2637 135.057 27.1196 135.395C25.5643 135.829 23.9571 136.048 22.3429 136.045C20.3474 136.077 18.8459 134.848 18.1423 132.922C17.8033 131.908 17.5843 130.858 17.4898 129.794C17.2215 127.354 17.0804 124.902 17.0669 122.447C17.0555 121.984 17.137 121.519 17.158 121.052C17.226 120.169 17.5876 119.333 18.1855 118.678C18.5558 118.19 19.0426 117.803 19.6013 117.551C20.16 117.299 20.7728 117.19 21.3837 117.236C24.0138 117.245 26.6432 117.188 29.2725 117.344C29.7419 117.37 30.2095 117.39 30.6478 117.466C31.1511 117.56 31.6708 117.512 32.1491 117.329C32.2343 117.409 32.3134 117.491 32.3934 117.319L32.2355 117.135Z" fill="#FFCBA4"/>
</svg>
