<svg width="471" height="150" viewBox="0 0 471 150" fill="none" xmlns="http://www.w3.org/2000/svg">
<path fill-rule="evenodd" clip-rule="evenodd" d="M395.079 1.26156C407.504 -0.725045 419.044 8.95969 429.203 18.2857C439.394 27.6421 449.261 38.8634 452.769 54.2261C456.225 69.3623 451.701 84.9509 447.847 99.9308C444.003 114.872 440.591 131.119 430.608 140.371C420.622 149.626 407.234 151.626 395.079 148.836C384.088 146.312 377.185 133.616 367.78 125.946C357.522 117.579 340.891 116.82 337.537 101.906C334.161 86.8931 347.598 74.68 353.115 60.7332C357.551 49.5193 360.07 37.6252 366.66 28.2853C374.76 16.8058 383.054 3.18412 395.079 1.26156Z" fill="#1D2D44"/>
<g filter="url(#filter0_f_0_94)">
<path d="M408.438 29.1648C408.438 33.9991 404.438 37.9148 399.5 37.9148C394.562 37.9148 390.562 33.9991 390.562 29.1648C390.562 24.3359 394.562 20.4148 399.5 20.4148C404.438 20.4148 408.438 24.3359 408.438 29.1648Z" fill="white"/>
<path d="M411.415 56.5852L419.162 74.6704C419.76 76.4204 421.548 77.2954 423.335 77.2954C423.933 77.2954 424.525 77.2954 425.123 77.0055C427.508 76.1305 428.402 73.5055 427.508 71.1703L415.593 43.4601C414.694 41.7101 413.202 40.8351 411.415 40.8351H387.58C385.792 40.8351 384.301 41.7101 383.407 43.4601L371.492 71.1703C370.598 73.5055 371.492 75.8351 373.877 77.0055C374.475 77.2954 375.067 77.2954 375.665 77.2954C377.452 77.2954 378.944 76.4204 379.838 74.6704L387.585 56.5852V70.875L373.285 102.085H387.585V115.21C387.585 117.545 389.669 119.585 392.054 119.585C394.439 119.585 396.523 117.545 396.523 115.21V102.085H402.483V115.21C402.483 117.545 404.567 119.585 406.952 119.585C409.337 119.585 411.421 117.545 411.421 115.21L411.415 102.085H426.313L411.415 69.125L411.415 56.5852Z" fill="white"/>
</g>
<path d="M274.438 30.1648C274.438 34.9991 270.438 38.9148 265.5 38.9148C260.562 38.9148 256.562 34.9991 256.562 30.1648C256.562 25.3359 260.562 21.4148 265.5 21.4148C270.438 21.4148 274.438 25.3359 274.438 30.1648Z" fill="#1D2D44"/>
<path d="M277.415 57.5852L285.162 75.6704C285.76 77.4204 287.548 78.2954 289.335 78.2954C289.933 78.2954 290.525 78.2954 291.123 78.0055C293.508 77.1305 294.402 74.5055 293.508 72.1703L281.593 44.4601C280.694 42.7101 279.202 41.8351 277.415 41.8351H253.58C251.792 41.8351 250.301 42.7101 249.407 44.4601L237.492 72.1703C236.598 74.5055 237.492 76.8351 239.877 78.0055C240.475 78.2954 241.067 78.2954 241.665 78.2954C243.452 78.2954 244.944 77.4204 245.838 75.6704L253.585 57.5852V71.875L239.285 103.085H253.585V116.21C253.585 118.545 255.669 120.585 258.054 120.585C260.439 120.585 262.523 118.545 262.523 116.21V103.085H268.483V116.21C268.483 118.545 270.567 120.585 272.952 120.585C275.337 120.585 277.421 118.545 277.421 116.21L277.415 103.085H292.313L277.415 70.125L277.415 57.5852Z" fill="#1D2D44"/>
<path d="M175.438 30.1648C175.438 34.9991 171.438 38.9148 166.5 38.9148C161.562 38.9148 157.562 34.9991 157.562 30.1648C157.562 25.3359 161.562 21.4148 166.5 21.4148C171.438 21.4148 175.438 25.3359 175.438 30.1648Z" fill="#1D2D44"/>
<path d="M178.415 57.5852L186.163 75.6704C186.76 77.4204 188.548 78.2954 190.335 78.2954C190.933 78.2954 191.525 78.2954 192.123 78.0055C194.508 77.1305 195.402 74.5055 194.508 72.1703L182.593 44.4601C181.694 42.7101 180.202 41.8351 178.415 41.8351H154.58C152.792 41.8351 151.301 42.7101 150.407 44.4601L138.492 72.1703C137.598 74.5055 138.492 76.8351 140.877 78.0055C141.475 78.2954 142.067 78.2954 142.665 78.2954C144.452 78.2954 145.944 77.4204 146.838 75.6704L154.585 57.5852V71.875L140.285 103.085H154.585V116.21C154.585 118.545 156.669 120.585 159.054 120.585C161.439 120.585 163.523 118.545 163.523 116.21V103.085H169.483V116.21C169.483 118.545 171.567 120.585 173.952 120.585C176.337 120.585 178.421 118.545 178.421 116.21L178.415 103.085H193.313L178.415 70.125L178.415 57.5852Z" fill="#1D2D44"/>
<path d="M80.4375 30.1648C80.4375 34.9991 76.4379 38.9148 71.5 38.9148C66.5621 38.9148 62.5625 34.9991 62.5625 30.1648C62.5625 25.3359 66.5621 21.4148 71.5 21.4148C76.4379 21.4148 80.4375 25.3359 80.4375 30.1648Z" fill="#1D2D44"/>
<path d="M83.4148 57.5852L91.1625 75.6704C91.7602 77.4204 93.5477 78.2954 95.3352 78.2954C95.9329 78.2954 96.525 78.2954 97.1227 78.0055C99.508 77.1305 100.402 74.5055 99.508 72.1703L87.5932 44.4601C86.6939 42.7101 85.2024 41.8351 83.4149 41.8351H59.5797C57.7922 41.8351 56.3007 42.7101 55.4069 44.4601L43.4922 72.1703C42.5984 74.5055 43.4922 76.8351 45.8774 78.0055C46.4751 78.2954 47.0672 78.2954 47.6649 78.2954C49.4524 78.2954 50.9439 77.4204 51.8376 75.6704L59.5854 57.5852V71.875L45.2854 103.085H59.5854V116.21C59.5854 118.545 61.6689 120.585 64.0541 120.585C66.4394 120.585 68.5229 118.545 68.5229 116.21V103.085H74.4831V116.21C74.4831 118.545 76.5666 120.585 78.9519 120.585C81.3371 120.585 83.4206 118.545 83.4206 116.21L83.415 103.085H98.3128L83.415 70.125L83.4148 57.5852Z" fill="#1D2D44"/>
<defs>
<filter id="filter0_f_0_94" x="324" y="-4" width="151" height="148" filterUnits="userSpaceOnUse" color-interpolation-filters="sRGB">
<feFlood flood-opacity="0" result="BackgroundImageFix"/>
<feBlend mode="normal" in="SourceGraphic" in2="BackgroundImageFix" result="shape"/>
<feGaussianBlur stdDeviation="2" result="effect1_foregroundBlur_0_94"/>
</filter>
</defs>
</svg>
