<svg width="212" height="216" viewBox="0 0 212 216" fill="none" xmlns="http://www.w3.org/2000/svg">
<path d="M99.2152 179.501C98.3704 179.499 97.5261 179.529 96.6857 179.591L93.941 179.796L88.4336 180.244C86.6397 180.385 85.0072 180.45 83.285 180.565C81.5628 180.68 79.6972 180.77 77.9032 180.808C76.1093 180.847 74.3153 180.808 72.6649 180.693C71.0145 180.578 69.3103 180.552 67.624 180.501C64.0361 180.381 60.4482 180.279 56.8603 180.193C56.0118 180.161 55.1615 180.161 54.3129 180.193L51.6041 180.36C49.8102 180.475 48.0162 180.552 46.2223 180.642C42.6344 180.834 39.1721 180.975 35.656 181.18C33.9697 181.27 32.3013 181.411 30.615 181.475C29.7898 181.475 28.9646 181.59 28.1394 181.68C27.3201 181.783 26.5111 181.924 25.7176 182.103C25.393 182.152 25.0749 182.22 24.7668 182.308C24.6756 182.336 24.598 182.382 24.5437 182.442C24.4894 182.501 24.4609 182.57 24.4618 182.641C24.4618 182.885 24.713 183.038 24.9821 182.987C25.0287 182.998 25.0789 182.998 25.1256 182.987H25.4126L25.9508 182.923C27.5791 182.75 29.2205 182.647 30.8662 182.616C31.6376 182.616 32.4269 182.616 33.1983 182.616L35.7098 182.551C39.2977 182.462 42.8856 182.334 46.4734 182.218C48.2674 182.218 50.0613 182.103 51.8552 182.09H54.4744C55.3273 182.118 56.1776 182.178 57.0218 182.269C60.6097 182.577 64.1975 182.718 67.7854 182.859L72.9699 183.064C74.7638 183.064 76.5578 183.167 78.2441 183.141C79.9304 183.115 81.8319 182.987 83.6259 182.846C85.4198 182.705 87.0164 182.551 88.7207 182.5C92.3085 182.398 95.8964 182.5 99.4843 182.231C100.327 182.231 101.171 182.128 102.032 182.128C102.893 182.128 103.826 182.128 104.597 182.128C106.391 182.128 108.185 182.231 109.979 182.257C113.441 182.257 116.921 182.18 120.384 182.372C122.129 182.483 123.866 182.659 125.586 182.897C127.297 183.095 129.022 183.224 130.753 183.282C134.34 183.474 137.928 183.756 141.624 183.974C143.418 184.077 145.05 184.179 146.755 184.243L152.136 184.423L154.702 184.5C155.581 184.5 156.496 184.564 157.321 184.5H162.505C166.093 184.5 169.681 184.5 173.269 184.564C175.942 184.564 178.651 184.692 181.288 184.782C182.579 184.782 183.871 184.871 185.163 184.897C185.94 184.897 186.712 184.897 187.477 184.897H188.876L189.432 184.833L190.204 184.769C190.372 184.725 190.52 184.65 190.634 184.551C190.831 184.382 190.934 184.168 190.921 183.948C190.931 183.725 190.829 183.507 190.634 183.333C190.549 183.257 190.444 183.193 190.323 183.147C190.203 183.101 190.071 183.073 189.935 183.064C189.558 183.064 189.163 182.949 188.786 182.923L187.907 182.859H186.472L183.799 182.769L178.687 182.603C175.099 182.513 171.636 182.475 168.12 182.526C166.326 182.526 164.532 182.526 162.739 182.654C160.945 182.782 159.258 182.795 157.5 182.872C155.742 182.949 154.092 182.872 152.387 182.872H147.006C144.351 182.872 141.624 182.718 139.059 182.577C137.677 182.5 136.314 182.436 134.95 182.321C134.215 182.321 133.497 182.193 132.762 182.128C132.026 182.064 131.47 181.975 130.842 181.885C129.048 181.616 127.254 181.308 125.461 181.09L120.294 180.514C118.577 180.326 116.846 180.215 115.109 180.18H113.728C112.472 180.18 111.199 180.18 109.943 180.078C108.149 180.001 106.463 179.911 104.723 179.796L101.888 179.591C101.151 179.512 100.408 179.464 99.6637 179.45L99.2152 179.501Z" fill="#1D2D44"/>
<path d="M90.9798 173.919C90.0664 173.919 89.1531 173.919 88.2203 174.021C87.2875 174.124 86.2769 174.149 85.2469 174.226L79.3003 174.634C77.3569 174.762 75.5885 174.839 73.7229 174.941C71.8573 175.043 69.8362 175.158 67.8928 175.184C65.9495 175.209 64.0061 175.184 62.2183 175.081C60.4304 174.979 58.5842 174.941 56.7575 174.89C52.8708 174.762 48.9841 174.673 45.0974 174.571C44.1782 174.539 43.257 174.539 42.3378 174.571L39.4034 174.724C37.46 174.839 35.5167 174.928 33.5733 175.018C29.6866 175.196 25.936 175.35 22.127 175.541C20.3003 175.643 18.4929 175.771 16.6662 175.848C15.7723 175.848 14.8783 175.912 13.9844 176.039C13.0963 176.141 12.2198 176.282 11.3609 176.461C11.008 176.512 10.6632 176.585 10.3309 176.678C10.2336 176.704 10.1502 176.748 10.0913 176.805C10.0325 176.861 10.0008 176.929 10.0005 176.997C9.9972 177.046 10.0098 177.094 10.0375 177.138C10.0652 177.183 10.1074 177.223 10.161 177.256C10.2146 177.288 10.2784 177.313 10.348 177.328C10.4176 177.343 10.4913 177.348 10.5641 177.342H10.7196H11.0305H11.6135C13.3794 177.191 15.1575 177.11 16.9383 177.1C17.7739 177.1 18.629 177.1 19.4646 177.1H22.1853L33.8454 176.768C35.7887 176.768 37.7321 176.653 39.6754 176.64H42.5127C43.4367 176.668 44.3578 176.727 45.2723 176.819C49.159 177.125 53.0457 177.266 56.9324 177.406L62.5486 177.623C64.492 177.623 66.4353 177.725 68.2621 177.7C70.0888 177.674 72.1488 177.547 74.0921 177.406C76.0355 177.266 77.7651 177.112 79.6112 177.061C83.4979 176.946 87.3846 177.061 91.2713 176.793C92.1878 176.727 93.1089 176.693 94.0309 176.691C94.9637 176.691 95.9742 176.691 96.8099 176.691C98.7532 176.755 100.697 176.806 102.64 176.831C106.391 176.831 110.161 176.742 113.911 176.946C115.802 177.057 117.683 177.232 119.547 177.47C121.395 177.66 123.257 177.788 125.124 177.853C129.011 178.032 132.898 178.326 136.921 178.543C138.864 178.645 140.632 178.747 142.479 178.811L148.309 178.977L151.088 179.054C152.04 179.054 153.031 179.118 153.925 179.118C155.868 179.118 157.676 179.118 159.541 179.118C163.428 179.118 167.315 179.118 171.201 179.118C174.097 179.118 177.031 179.245 179.888 179.335L184.086 179.45H186.593H187.545H188.108H188.711L189.546 179.373C189.727 179.334 189.888 179.263 190.013 179.169C190.213 178.996 190.322 178.786 190.324 178.568C190.328 178.347 190.219 178.131 190.013 177.955C189.926 177.875 189.813 177.81 189.682 177.763C189.55 177.717 189.404 177.691 189.255 177.687C188.847 177.687 188.419 177.559 187.992 177.534H187.059C186.534 177.534 186.029 177.534 185.504 177.534L182.57 177.189L176.954 177.074C173.067 176.985 169.316 176.934 165.488 176.985C163.544 176.985 161.601 176.985 159.658 177.112L153.983 177.342C152.04 177.419 150.291 177.342 148.445 177.342H142.615C139.738 177.342 136.785 177.202 134.006 177.061C132.509 176.985 131.032 176.908 129.555 176.806L127.184 176.601C126.485 176.601 125.785 176.448 125.105 176.372C123.162 176.103 121.218 175.784 119.275 175.58C117.332 175.375 115.544 175.184 113.659 175.005C111.8 174.805 109.924 174.681 108.042 174.634H106.546C105.186 174.634 103.806 174.634 102.446 174.532C100.502 174.456 98.6755 174.366 96.7904 174.251L93.7199 174.034C92.9232 174.034 92.1264 173.919 91.3102 173.906L90.9798 173.919Z" fill="#1D2D44"/>
<path d="M105.377 167.399C104.445 167.399 103.434 167.399 102.618 167.501C101.803 167.603 100.676 167.628 99.6461 167.705L93.682 168.151C91.7393 168.291 89.9714 168.367 88.1064 168.469C86.2414 168.571 84.221 168.673 82.2783 168.711C80.3356 168.749 78.3929 168.711 76.6056 168.596L71.166 168.405L59.5097 168.1C58.5973 168.068 57.6829 168.068 56.7705 168.1L53.837 168.265C51.8943 168.38 49.9516 168.456 48.0089 168.546C44.1235 168.737 40.3935 168.877 36.5857 169.081C34.7596 169.183 32.9335 169.31 31.1073 169.386C30.2154 169.418 29.3269 169.482 28.4458 169.578C27.5521 169.68 26.6696 169.82 25.8037 169.998C25.4529 170.048 25.1087 170.116 24.7741 170.202C24.6756 170.228 24.5925 170.275 24.5367 170.334C24.4809 170.394 24.4552 170.463 24.4632 170.533C24.4632 170.775 24.7158 170.928 25.0072 170.877C25.0572 170.89 25.1127 170.89 25.1626 170.877H25.4929H26.0563C27.8222 170.729 29.5992 170.644 31.3793 170.622C32.2341 170.622 33.0694 170.622 33.9048 170.622L36.6246 170.559C40.51 170.469 44.3954 170.342 48.2809 170.227C50.2236 170.227 52.1663 170.125 54.109 170.1H56.9453C57.8534 170.094 58.7612 170.12 59.6651 170.176C63.5506 170.482 67.436 170.622 71.3214 170.762L76.9358 170.966C78.8785 170.966 80.8212 171.081 82.764 171.043C84.7067 171.004 86.6494 170.89 88.5921 170.762C90.5348 170.635 92.2638 170.469 94.1094 170.418C97.9948 170.304 101.88 170.418 105.766 170.138C106.679 170.138 107.592 170.036 108.505 170.036C109.418 170.036 110.448 170.036 111.302 170.036C113.245 170.1 115.188 170.138 117.13 170.164C120.88 170.164 124.629 170.087 128.379 170.291C130.321 170.393 132.148 170.584 134.032 170.801C135.878 170.998 137.739 171.126 139.608 171.183C143.493 171.374 147.378 171.654 151.38 171.871C153.323 171.973 155.091 172.075 156.956 172.138L162.784 172.317L165.562 172.393C166.495 172.393 167.505 172.457 168.399 172.457C170.341 172.457 172.129 172.457 174.013 172.457C177.898 172.457 181.784 172.457 185.669 172.457C188.564 172.457 191.497 172.597 194.334 172.673C195.733 172.673 197.131 172.763 198.53 172.788C199.372 172.788 200.207 172.788 201.036 172.788C201.36 172.801 201.684 172.801 202.007 172.788H202.571H203.173L203.989 172.712C204.18 172.672 204.348 172.597 204.475 172.495C204.68 172.325 204.79 172.113 204.786 171.896C204.787 171.676 204.678 171.461 204.475 171.285C204.282 171.136 204.012 171.041 203.717 171.017C203.29 171.017 202.882 170.903 202.454 170.877L201.502 170.813H199.948L197.054 170.711L191.517 170.546C187.631 170.469 183.882 170.418 180.074 170.469C178.132 170.469 176.189 170.469 174.246 170.597C172.303 170.724 170.477 170.737 168.593 170.813C166.708 170.89 164.902 170.813 163.037 170.813H157.209C154.333 170.813 151.38 170.66 148.583 170.52C147.106 170.444 145.611 170.38 144.134 170.266C143.338 170.266 142.561 170.151 141.764 170.074C140.968 169.998 140.385 169.922 139.685 169.832C137.743 169.565 135.8 169.259 133.857 169.042C131.915 168.826 130.108 168.66 128.243 168.469C126.382 168.289 124.508 168.178 122.628 168.138H121.132C119.773 168.138 118.393 168.138 117.033 168.036C115.091 167.959 113.265 167.87 111.38 167.756L108.311 167.552C107.514 167.552 106.718 167.437 105.902 167.412L105.377 167.399Z" fill="#1D2D44"/>
<path d="M94.5893 162C93.7905 161.998 92.992 162.025 92.1974 162.081L89.6202 162.231C87.9357 162.37 86.2512 162.521 84.4489 162.648C82.6465 162.775 81.2316 162.833 79.6145 162.925C77.9974 163.018 76.2456 163.122 74.5611 163.145C72.8767 163.168 71.1922 163.145 69.6425 163.052L64.926 162.879C61.5571 162.763 58.1882 162.682 54.8193 162.601C54.0282 162.573 53.2354 162.573 52.4442 162.601C51.5852 162.601 50.7598 162.694 49.9007 162.74C48.2163 162.844 46.5318 162.925 44.8474 163.006C41.4784 163.168 38.2443 163.307 34.9428 163.492C33.3594 163.573 31.776 163.688 30.1926 163.758C29.4177 163.758 28.6429 163.85 27.8849 163.931C27.1117 164.03 26.347 164.157 25.594 164.313C25.2652 164.372 24.944 164.449 24.6339 164.544C24.5469 164.567 24.4733 164.609 24.4245 164.663C24.3758 164.717 24.3546 164.781 24.3644 164.845C24.3644 165.053 24.5834 165.192 24.836 165.157H24.9708H25.2571H25.7456C27.2772 165.026 28.8179 164.953 30.361 164.937C31.1022 164.937 31.8265 164.937 32.5508 164.937L34.9091 164.88L45.0158 164.579C46.7003 164.579 48.3847 164.475 50.0692 164.463C50.8945 164.463 51.7536 164.463 52.5285 164.463C53.3033 164.463 54.2129 164.556 54.9204 164.614C58.2893 164.891 61.6582 165.018 65.0271 165.157L69.8952 165.342C71.5796 165.342 73.2641 165.435 74.9486 165.412C76.633 165.388 78.3175 165.273 80.0019 165.146C81.6864 165.018 83.1855 164.88 84.7858 164.833C88.1547 164.729 91.5236 164.833 94.8925 164.59C95.6813 164.531 96.4741 164.5 97.2676 164.498C98.0761 164.498 98.952 164.498 99.6932 164.498C101.378 164.498 103.062 164.59 104.747 164.614C107.998 164.614 111.249 164.533 114.5 164.718C116.144 164.818 117.78 164.976 119.401 165.192C121.003 165.365 122.617 165.481 124.236 165.539C127.605 165.701 130.974 165.967 134.443 166.163C136.128 166.256 137.661 166.348 139.278 166.406L144.331 166.568H146.74C147.549 166.568 148.424 166.568 149.199 166.568H154.067C157.436 166.568 160.805 166.568 164.174 166.568C166.684 166.568 169.227 166.684 171.687 166.765L175.325 166.869H177.498H178.34H178.829H179.351L180.059 166.799C180.222 166.768 180.369 166.703 180.48 166.614C180.653 166.458 180.748 166.267 180.749 166.071C180.75 165.87 180.656 165.675 180.48 165.516C180.313 165.381 180.078 165.294 179.823 165.273C179.452 165.273 179.098 165.169 178.728 165.146L177.902 165.088H176.555L174.045 165.007C172.361 165.007 170.845 164.891 169.244 164.856C165.875 164.776 162.624 164.729 159.323 164.776C157.638 164.776 155.954 164.833 154.27 164.891L149.368 165.099C147.768 165.169 146.167 165.099 144.55 165.099H139.497C137.004 165.099 134.443 164.972 132.018 164.845C130.738 164.775 129.441 164.718 128.16 164.614L126.105 164.44C125.499 164.382 124.909 164.301 124.303 164.22C122.619 163.978 120.934 163.7 119.25 163.503C117.565 163.307 115.999 163.145 114.382 162.983C112.77 162.81 111.144 162.706 109.514 162.671H108.217C107.037 162.671 105.841 162.671 104.662 162.578C102.978 162.509 101.394 162.428 99.7606 162.324C98.8847 162.324 97.9919 162.208 97.0991 162.127C96.2064 162.046 95.7179 162.023 95.0104 162.012L94.5893 162Z" fill="#1D2D44"/>
<path d="M106.429 209.635C105.585 209.633 104.74 209.663 103.9 209.725L101.155 209.93L95.6479 210.379C93.8539 210.52 92.2214 210.584 90.4993 210.699C88.7771 210.814 86.9114 210.904 85.1174 210.943C83.3235 210.981 81.5296 210.943 79.8791 210.827C78.2287 210.712 76.5245 210.686 74.8382 210.635C71.2503 210.515 67.6624 210.413 64.0746 210.327C63.226 210.295 62.3757 210.295 61.5272 210.327L58.8183 210.494C57.0244 210.609 55.2304 210.686 53.4365 210.776C49.8486 210.968 46.3863 211.109 42.8702 211.314C41.1839 211.404 39.5156 211.545 37.8293 211.609C37.004 211.609 36.1788 211.724 35.3536 211.814C34.5343 211.917 33.7253 212.058 32.9318 212.237C32.6073 212.286 32.2892 212.354 31.981 212.442C31.8898 212.47 31.8122 212.516 31.7579 212.576C31.7036 212.635 31.6752 212.704 31.676 212.775C31.676 213.019 31.9272 213.173 32.1963 213.121C32.2429 213.132 32.2932 213.132 32.3398 213.121H32.6268L33.165 213.057C34.7933 212.884 36.4348 212.781 38.0804 212.75C38.8518 212.75 39.6411 212.75 40.4125 212.75L42.924 212.686C46.5119 212.596 50.0998 212.468 53.6877 212.352C55.4816 212.352 57.2755 212.237 59.0695 212.224H61.6886C62.5415 212.252 63.3918 212.312 64.236 212.404C67.8239 212.711 71.4118 212.852 74.9996 212.993L80.1841 213.198C81.9781 213.198 83.772 213.301 85.4583 213.275C87.1446 213.25 89.0462 213.121 90.8401 212.98C92.634 212.839 94.2306 212.686 95.9349 212.634C99.5228 212.532 103.111 212.634 106.699 212.365C107.542 212.365 108.385 212.263 109.246 212.263C110.107 212.263 111.04 212.263 111.811 212.263C113.605 212.263 115.399 212.365 117.193 212.391C120.655 212.391 124.136 212.314 127.598 212.506C129.343 212.617 131.08 212.793 132.8 213.032C134.511 213.229 136.236 213.358 137.967 213.416C141.555 213.608 145.143 213.89 148.838 214.108C150.632 214.211 152.265 214.313 153.969 214.377L159.351 214.557L161.916 214.634C162.795 214.634 163.71 214.698 164.535 214.634H169.72C173.307 214.634 176.895 214.634 180.483 214.698C183.156 214.698 185.865 214.826 188.502 214.916C189.794 214.916 191.085 215.005 192.377 215.031C193.154 215.031 193.926 215.031 194.691 215.031H196.09L196.647 214.967L197.418 214.903C197.586 214.859 197.735 214.784 197.848 214.685C198.045 214.517 198.148 214.302 198.136 214.083C198.146 213.86 198.044 213.641 197.848 213.467C197.764 213.391 197.658 213.328 197.537 213.281C197.417 213.235 197.285 213.207 197.149 213.198C196.772 213.198 196.377 213.083 196.001 213.057L195.122 212.993H193.687L191.014 212.903L185.901 212.737C182.313 212.647 178.851 212.609 175.335 212.66C173.541 212.66 171.747 212.66 169.953 212.788C168.159 212.916 166.473 212.929 164.714 213.006C162.956 213.083 161.306 213.006 159.602 213.006H154.22C151.565 213.006 148.838 212.852 146.273 212.711C144.891 212.634 143.528 212.57 142.165 212.455C141.429 212.455 140.712 212.327 139.976 212.263C139.241 212.199 138.684 212.109 138.057 212.019C136.263 211.75 134.469 211.442 132.675 211.225L127.508 210.648C125.791 210.46 124.06 210.349 122.324 210.315H120.942C119.687 210.315 118.413 210.315 117.157 210.212C115.363 210.135 113.677 210.045 111.937 209.93L109.102 209.725C108.366 209.646 107.623 209.599 106.878 209.584L106.429 209.635Z" fill="#1D2D44"/>
<path d="M98.1941 204.053C97.2807 204.053 96.3673 204.053 95.4345 204.155C94.5017 204.258 93.4911 204.283 92.4612 204.36L86.5145 204.769C84.5712 204.896 82.8027 204.973 80.9371 205.075C79.0715 205.177 77.0504 205.292 75.1071 205.318C73.1637 205.343 71.2204 205.318 69.4325 205.216C67.6446 205.113 65.7984 205.075 63.9717 205.024C60.085 204.896 56.1983 204.807 52.3116 204.705C51.3924 204.673 50.4713 204.673 49.5521 204.705L46.6176 204.858C44.6743 204.973 42.7309 205.062 40.7876 205.152C36.9009 205.331 33.1502 205.484 29.3412 205.675C27.5145 205.778 25.7072 205.905 23.8804 205.982C22.9865 205.982 22.0926 206.046 21.1986 206.174C20.3106 206.275 19.4341 206.416 18.5751 206.595C18.2223 206.646 17.8775 206.719 17.5451 206.812C17.4479 206.838 17.3644 206.882 17.3056 206.939C17.2467 206.996 17.2151 207.063 17.2148 207.132C17.2114 207.18 17.2241 207.228 17.2518 207.272C17.2795 207.317 17.3216 207.357 17.3752 207.39C17.4288 207.422 17.4926 207.447 17.5622 207.462C17.6318 207.477 17.7056 207.482 17.7783 207.476H17.9338H18.2447H18.8277C20.5936 207.325 22.3718 207.244 24.1525 207.234C24.9881 207.234 25.8432 207.234 26.6789 207.234H29.3995L41.0596 206.902C43.003 206.902 44.9463 206.787 46.8897 206.774H49.727C50.6509 206.802 51.572 206.862 52.4865 206.953C56.3732 207.259 60.2599 207.4 64.1466 207.54L69.7629 207.757C71.7062 207.757 73.6496 207.86 75.4763 207.834C77.3031 207.809 79.363 207.681 81.3064 207.54C83.2497 207.4 84.9793 207.247 86.8255 207.195C90.7122 207.08 94.5989 207.195 98.4856 206.927C99.402 206.861 100.323 206.827 101.245 206.825C102.178 206.825 103.188 206.825 104.024 206.825C105.967 206.889 107.911 206.94 109.854 206.966C113.605 206.966 117.375 206.876 121.126 207.08C123.017 207.191 124.898 207.366 126.761 207.604C128.609 207.794 130.471 207.922 132.339 207.987C136.225 208.166 140.112 208.46 144.135 208.677C146.078 208.779 147.847 208.881 149.693 208.945L155.523 209.111L158.302 209.188C159.254 209.188 160.245 209.252 161.139 209.252C163.082 209.252 164.89 209.252 166.755 209.252C170.642 209.252 174.529 209.252 178.415 209.252C181.311 209.252 184.245 209.38 187.102 209.469L191.3 209.584H193.807H194.759H195.323H195.925L196.761 209.507C196.941 209.468 197.103 209.398 197.227 209.303C197.427 209.13 197.537 208.92 197.538 208.703C197.542 208.481 197.433 208.265 197.227 208.09C197.141 208.01 197.027 207.944 196.896 207.897C196.764 207.851 196.618 207.825 196.469 207.821C196.061 207.821 195.633 207.694 195.206 207.668H194.273C193.748 207.668 193.243 207.668 192.718 207.668L189.784 207.323L184.168 207.208C180.281 207.119 176.53 207.068 172.702 207.119C170.759 207.119 168.815 207.119 166.872 207.247L161.197 207.476C159.254 207.553 157.505 207.476 155.659 207.476H149.829C146.953 207.476 143.999 207.336 141.22 207.195C139.723 207.119 138.246 207.042 136.77 206.94L134.399 206.736C133.699 206.736 132.999 206.582 132.319 206.506C130.376 206.237 128.433 205.918 126.489 205.714C124.546 205.509 122.758 205.318 120.873 205.139C119.014 204.939 117.139 204.815 115.257 204.769H113.76C112.4 204.769 111.02 204.769 109.66 204.666C107.716 204.59 105.89 204.5 104.005 204.385L100.934 204.168C100.137 204.168 99.3406 204.053 98.5244 204.041L98.1941 204.053Z" fill="#1D2D44"/>
<path d="M112.591 197.533C111.659 197.533 110.649 197.533 109.833 197.635C109.017 197.737 107.89 197.762 106.86 197.839L100.896 198.285C98.9535 198.425 97.1856 198.501 95.3206 198.603C93.4556 198.705 91.4352 198.807 89.4925 198.845C87.5498 198.884 85.6071 198.845 83.8198 198.731L78.3802 198.54L66.724 198.234C65.8115 198.202 64.8972 198.202 63.9847 198.234L61.0512 198.399C59.1085 198.514 57.1658 198.59 55.2231 198.68C51.3377 198.871 47.6077 199.011 43.8 199.215C41.9738 199.317 40.1477 199.444 38.3215 199.521C37.4297 199.552 36.5411 199.616 35.66 199.712C34.7664 199.814 33.8838 199.955 33.0179 200.132C32.6672 200.182 32.3229 200.251 31.9883 200.336C31.8899 200.363 31.8068 200.409 31.751 200.469C31.6951 200.528 31.6694 200.598 31.6775 200.667C31.6775 200.909 31.93 201.062 32.2214 201.011C32.2714 201.024 32.3269 201.024 32.3769 201.011H32.7071H33.2705C35.0365 200.863 36.8134 200.778 38.5935 200.756C39.4483 200.756 40.2837 200.756 41.119 200.756L43.8388 200.693C47.7243 200.604 51.6097 200.476 55.4951 200.361C57.4378 200.361 59.3805 200.26 61.3232 200.234H64.1596C65.0676 200.228 65.9754 200.254 66.8794 200.31C70.7648 200.616 74.6502 200.756 78.5356 200.897L84.1501 201.1C86.0928 201.1 88.0355 201.215 89.9782 201.177C91.9209 201.139 93.8636 201.024 95.8063 200.897C97.749 200.769 99.478 200.604 101.324 200.553C105.209 200.438 109.094 200.553 112.98 200.272C113.893 200.272 114.806 200.17 115.719 200.17C116.632 200.17 117.662 200.17 118.517 200.17C120.459 200.234 122.402 200.272 124.345 200.298C128.094 200.298 131.844 200.221 135.593 200.425C137.536 200.527 139.362 200.718 141.246 200.935C143.092 201.132 144.954 201.26 146.822 201.317C150.707 201.508 154.593 201.788 158.595 202.005C160.537 202.107 162.305 202.209 164.17 202.273L169.998 202.451L172.776 202.527C173.709 202.527 174.719 202.591 175.613 202.591C177.556 202.591 179.343 202.591 181.227 202.591C185.113 202.591 188.998 202.591 192.884 202.591C195.778 202.591 198.712 202.731 201.548 202.808C202.947 202.808 204.346 202.897 205.744 202.922C206.586 202.922 207.421 202.922 208.25 202.922C208.574 202.935 208.898 202.935 209.222 202.922H209.785H210.387L211.203 202.846C211.394 202.806 211.563 202.731 211.689 202.629C211.895 202.459 212.004 202.248 212 202.03C212.001 201.81 211.892 201.595 211.689 201.419C211.496 201.271 211.226 201.175 210.931 201.151C210.504 201.151 210.096 201.037 209.669 201.011L208.717 200.948H207.162L204.268 200.846L198.731 200.68C194.846 200.604 191.096 200.553 187.289 200.604C185.346 200.604 183.403 200.604 181.46 200.731C179.518 200.858 177.692 200.871 175.807 200.948C173.923 201.024 172.116 200.948 170.251 200.948H164.423C161.548 200.948 158.595 200.795 155.797 200.654C154.321 200.578 152.825 200.514 151.348 200.4C150.552 200.4 149.775 200.285 148.978 200.209C148.182 200.132 147.599 200.056 146.9 199.966C144.957 199.699 143.014 199.393 141.071 199.177C139.129 198.96 137.322 198.794 135.457 198.603C133.597 198.423 131.722 198.312 129.843 198.272H128.347C126.987 198.272 125.607 198.272 124.248 198.17C122.305 198.094 120.479 198.004 118.594 197.89L115.525 197.686C114.728 197.686 113.932 197.571 113.116 197.546L112.591 197.533Z" fill="#1D2D44"/>
<path d="M101.804 192.134C101.005 192.132 100.206 192.159 99.4116 192.215L96.8344 192.366C95.1499 192.504 93.4655 192.655 91.6631 192.782C89.8607 192.909 88.4458 192.967 86.8287 193.059C85.2116 193.152 83.4598 193.256 81.7754 193.279C80.0909 193.302 78.4065 193.279 76.8568 193.187L72.1403 193.013C68.7714 192.898 65.4025 192.817 62.0336 192.736C61.2424 192.707 60.4496 192.707 59.6585 192.736C58.7994 192.736 57.974 192.828 57.1149 192.874C55.4305 192.978 53.746 193.059 52.0616 193.14C48.6927 193.302 45.4585 193.441 42.157 193.626C40.5736 193.707 38.9902 193.823 37.4068 193.892C36.632 193.892 35.8571 193.985 35.0991 194.065C34.326 194.164 33.5612 194.291 32.8083 194.447C32.4794 194.506 32.1582 194.583 31.8481 194.678C31.7611 194.701 31.6875 194.743 31.6388 194.797C31.59 194.852 31.5689 194.916 31.5786 194.979C31.5786 195.187 31.7976 195.326 32.0503 195.291H32.185H32.4714H32.9599C34.4914 195.161 36.0321 195.087 37.5753 195.072C38.3164 195.072 39.0408 195.072 39.7651 195.072L42.1233 195.014L52.23 194.713C53.9145 194.713 55.5989 194.609 57.2834 194.597C58.1088 194.597 58.9679 194.597 59.7427 194.597C60.5175 194.597 61.4272 194.69 62.1346 194.748C65.5035 195.025 68.8724 195.153 72.2413 195.291L77.1094 195.476C78.7939 195.476 80.4783 195.569 82.1628 195.546C83.8472 195.523 85.5317 195.407 87.2162 195.28C88.9006 195.153 90.3998 195.014 92 194.967C95.3689 194.863 98.7378 194.967 102.107 194.725C102.895 194.665 103.688 194.634 104.482 194.632C105.29 194.632 106.166 194.632 106.907 194.632C108.592 194.632 110.276 194.725 111.961 194.748C115.212 194.748 118.463 194.667 121.714 194.852C123.358 194.952 124.994 195.111 126.616 195.326C128.217 195.499 129.831 195.615 131.45 195.673C134.819 195.835 138.188 196.101 141.658 196.297C143.342 196.39 144.875 196.482 146.492 196.54L151.545 196.702H153.954C154.763 196.702 155.639 196.702 156.414 196.702H161.282C164.651 196.702 168.019 196.702 171.388 196.702C173.898 196.702 176.442 196.818 178.901 196.899L182.539 197.003H184.712H185.555H186.043H186.565L187.273 196.933C187.437 196.902 187.583 196.837 187.694 196.748C187.868 196.592 187.962 196.401 187.963 196.205C187.965 196.005 187.87 195.809 187.694 195.65C187.527 195.515 187.292 195.428 187.037 195.407C186.666 195.407 186.313 195.303 185.942 195.28L185.117 195.222H183.769L181.259 195.141C179.575 195.141 178.059 195.025 176.459 194.991C173.09 194.91 169.839 194.863 166.537 194.91C164.853 194.91 163.168 194.967 161.484 195.025L156.582 195.233C154.982 195.303 153.382 195.233 151.764 195.233H146.711C144.218 195.233 141.658 195.106 139.232 194.979C137.952 194.91 136.655 194.852 135.375 194.748L133.32 194.574C132.713 194.516 132.124 194.436 131.517 194.355C129.833 194.112 128.148 193.834 126.464 193.638C124.779 193.441 123.213 193.279 121.596 193.117C119.984 192.944 118.358 192.84 116.728 192.805H115.431C114.252 192.805 113.056 192.805 111.877 192.712C110.192 192.643 108.609 192.562 106.975 192.458C106.099 192.458 105.206 192.342 104.313 192.261C103.421 192.181 102.932 192.157 102.225 192.146L101.804 192.134Z" fill="#1D2D44"/>
<path d="M33.5434 39.8604C35.2213 34.5255 36.9432 28.2819 39.156 22.2069C41.911 14.6443 46.3293 7.95384 51.1359 1.54908C51.81 0.655057 53.495 -0.195045 54.4402 0.0394545C55.3854 0.273953 56.5432 1.76155 56.7704 2.86809C59.7012 17.1652 64.5299 31.1473 64.2735 46.0013C64.2735 46.1186 64.4051 46.2358 64.5296 46.4557C65.9951 44.9901 67.5118 43.5977 68.9259 42.1174C76.9857 33.6901 87.1117 28.4359 97.5015 23.614C98.1033 23.4139 98.7405 23.3425 99.3716 23.4044C100.003 23.4662 100.614 23.66 101.165 23.973C101.715 24.2881 101.971 26.2374 101.539 26.9043C96.7177 34.7087 95.1936 43.7589 91.5741 52.047C86.9946 62.5115 82.8769 73.1885 76.2605 82.6125C69.058 92.8718 59.0416 98.8882 47.0691 102.025C44.4162 102.737 41.8709 103.802 39.5005 105.19C38.9086 105.607 38.4082 106.141 38.0301 106.758C37.6521 107.376 37.4044 108.064 37.3024 108.781C35.3827 129.204 37.4856 149.181 44.461 168.549C45.4135 171.187 46.6589 173.73 47.9045 176.61C49.8169 175.467 51.6416 174.697 53.0703 173.466C61.3939 166.299 69.6222 159 76.2605 150.17C79.5284 145.825 82.4297 141.193 85.4118 136.642C85.6144 136.327 85.7422 135.97 85.7854 135.598C85.8285 135.226 85.7863 134.848 85.6612 134.495C82.1515 129.483 81.5727 123.679 80.9426 117.883C79.7117 106.465 80.8251 95.2168 83.4556 84.0854C83.4988 83.5666 83.6617 83.0649 83.9318 82.6198C84.855 81.6525 85.8737 80.1429 86.9141 80.0989C88.0938 80.0403 89.7351 81.0735 90.4385 82.1288C91.469 83.8598 92.2436 85.7307 92.7389 87.6834C94.1677 92.3148 95.4575 96.9901 96.8204 101.607C96.9596 102.083 97.1721 102.53 97.4286 103.197C105.525 90.0065 116.413 79.7472 127.953 70.0814C128.847 69.284 129.831 68.5929 130.884 68.0222C133.163 66.8717 135.199 68.0222 135.28 70.6017C135.284 72.1685 135.077 73.7288 134.665 75.2404C133.339 80.4506 132.115 85.6903 130.459 90.7906C128.803 95.891 126.664 100.815 124.722 105.864C125.054 105.788 125.381 105.695 125.704 105.586C130.737 103.739 135.735 101.783 140.812 100.061C145.751 98.3898 150.762 96.9169 155.767 95.422C157.716 94.843 159.973 93.6779 161.467 95.9862C162.962 98.2946 160.969 99.7602 159.687 101.233C154.433 107.257 149.026 113.141 143.86 119.231C130.393 135.082 112.698 139.544 92.8928 138.284C90.9438 138.159 89.8375 138.409 88.8117 140.219C80.5834 154.64 69.0285 166.189 56.5139 176.808C54.5502 178.464 52.1691 179.629 49.7878 181.153C50.2861 182.135 50.7327 183.235 51.3556 184.217C55.3561 190.607 59.3762 196.98 63.4159 203.335C63.5405 203.526 63.6872 203.695 63.8191 203.87C64.691 205.094 65.0573 206.406 63.7311 207.454C62.4049 208.502 61.0054 207.923 60.0676 206.721C58.7267 205.028 57.4443 203.277 56.228 201.489C37.9103 174.565 30.0776 144.828 32.2611 112.401C32.4736 109.213 32.9061 106.048 33.1992 102.875C33.3303 102.065 33.3177 101.239 33.1623 100.434C31.0814 92.9084 28.4219 85.6756 23.0731 79.6959C16.2223 72.0307 10.3606 63.684 6.22079 54.2234C1.59006 43.7296 -0.674006 32.7887 0.175936 21.3056C0.322325 19.5351 0.763142 17.8014 1.48018 16.1759C2.42537 14.0361 4.74804 13.6185 6.22079 15.4065C12.9397 23.5481 21.7397 29.3812 29.3965 36.4748C30.7593 37.8671 32.437 38.9957 33.5434 39.8604Z" fill="#DBB2D1"/>
<path d="M45.5434 46.8604C47.2213 41.5255 48.9432 35.2819 51.156 29.2069C53.911 21.6443 58.3293 14.9538 63.1359 8.54908C63.81 7.65506 65.495 6.80496 66.4402 7.03945C67.3854 7.27395 68.5432 8.76155 68.7704 9.86809C71.7012 24.1652 76.5299 38.1473 76.2735 53.0013C76.2735 53.1186 76.4051 53.2358 76.5296 53.4557C77.9951 51.9901 79.5118 50.5977 80.9259 49.1174C88.9857 40.6901 99.1117 35.4359 109.502 30.614C110.103 30.4139 110.741 30.3425 111.372 30.4044C112.003 30.4662 112.614 30.66 113.165 30.973C113.715 31.2881 113.971 33.2374 113.539 33.9043C108.718 41.7087 107.194 50.7589 103.574 59.047C98.9946 69.5115 94.8769 80.1885 88.2605 89.6125C81.058 99.8718 71.0416 105.888 59.0691 109.025C56.4162 109.737 53.8709 110.802 51.5005 112.19C50.9086 112.607 50.4082 113.141 50.0301 113.758C49.6521 114.376 49.4044 115.064 49.3024 115.781C47.3827 136.204 49.4856 156.181 56.461 175.549C57.4135 178.187 58.6589 180.73 59.9045 183.61C61.8169 182.467 63.6416 181.697 65.0703 180.466C73.3939 173.299 81.6222 166 88.2605 157.17C91.5284 152.825 94.4297 148.193 97.4118 143.642C97.6144 143.327 97.7422 142.97 97.7854 142.598C97.8285 142.226 97.7863 141.848 97.6612 141.495C94.1515 136.483 93.5727 130.679 92.9426 124.883C91.7117 113.465 92.8251 102.217 95.4556 91.0854C95.4988 90.5666 95.6617 90.0649 95.9318 89.6198C96.855 88.6525 97.8737 87.1429 98.9141 87.0989C100.094 87.0403 101.735 88.0735 102.438 89.1288C103.469 90.8598 104.244 92.7307 104.739 94.6834C106.168 99.3148 107.458 103.99 108.82 108.607C108.96 109.083 109.172 109.53 109.429 110.197C117.525 97.0065 128.413 86.7472 139.953 77.0814C140.847 76.284 141.831 75.5929 142.884 75.0222C145.163 73.8717 147.199 75.0222 147.28 77.6017C147.284 79.1685 147.077 80.7288 146.665 82.2404C145.339 87.4506 144.115 92.6903 142.459 97.7906C140.803 102.891 138.664 107.815 136.722 112.864C137.054 112.788 137.381 112.695 137.704 112.586C142.737 110.739 147.735 108.783 152.812 107.061C157.751 105.39 162.762 103.917 167.767 102.422C169.716 101.843 171.973 100.678 173.467 102.986C174.962 105.295 172.969 106.76 171.687 108.233C166.433 114.257 161.026 120.141 155.86 126.231C142.393 142.082 124.698 146.544 104.893 145.284C102.944 145.159 101.838 145.409 100.812 147.219C92.5834 161.64 81.0285 173.189 68.5139 183.808C66.5502 185.464 64.1691 186.629 61.7878 188.153C62.2861 189.135 62.7327 190.235 63.3556 191.217C67.3561 197.607 71.3762 203.98 75.4159 210.335C75.5405 210.526 75.6872 210.695 75.8191 210.87C76.691 212.094 77.0573 213.406 75.7311 214.454C74.4049 215.502 73.0054 214.923 72.0676 213.721C70.7267 212.028 69.4443 210.277 68.228 208.489C49.9103 181.565 42.0776 151.828 44.2611 119.401C44.4736 116.213 44.9061 113.048 45.1992 109.875C45.3303 109.065 45.3177 108.239 45.1623 107.434C43.0814 99.9084 40.4219 92.6756 35.0731 86.6959C28.2223 79.0307 22.3606 70.684 18.2208 61.2234C13.5901 50.7296 11.326 39.7887 12.1759 28.3056C12.3223 26.5351 12.7631 24.8014 13.4802 23.1759C14.4254 21.0361 16.748 20.6185 18.2208 22.4065C24.9397 30.5481 33.7397 36.3812 41.3965 43.4748C42.7593 44.8671 44.437 45.9957 45.5434 46.8604Z" fill="#FFCBA4"/>
</svg>
